<?xml version="1.0" encoding="UTF-8"?>
<!DOCTYPE svg PUBLIC "-//W3C//DTD SVG 1.1//EN" "http://www.w3.org/Graphics/SVG/1.1/DTD/svg11.dtd">
<!-- Creator: CorelDRAW X7 -->
<svg xmlns="http://www.w3.org/2000/svg" xml:space="preserve" width="1452px" height="600px" version="1.1" style="shape-rendering:geometricPrecision; text-rendering:geometricPrecision; image-rendering:optimizeQuality; fill-rule:evenodd; clip-rule:evenodd"
viewBox="0 0 980669 405129"
 xmlns:xlink="http://www.w3.org/1999/xlink">
 <defs>
  <style type="text/css">
   <![CDATA[
    .fil1 {fill:#0F0E0C}
    .fil2 {fill:#F58C10}
    .fil0 {fill:white}
   ]]>
  </style>
 </defs>
 <g id="Capa_x0020_1">
  <metadata id="CorelCorpID_0Corel-Layer"/>
  <g id="_1853326013152">
   <rect class="fil0" width="980669" height="405129"/>
   <g>
    <path class="fil1" d="M449880 180975c0,-16845 3747,-14257 -24080,-14257 -1118,2298 -1927,4158 -1927,7604l0 89344c0,3489 1493,4594 2890,6653 28396,0 24080,4173 24080,-19960 0,-7920 0,-15841 0,-23762 0,-26204 -1013,-37068 16374,-37068 2563,0 5307,3076 6349,5142 3532,7009 2424,55242 2280,67134 -129,10590 -373,8514 22194,8514 4034,0 3940,-3422 3916,-7543 -78,-13352 -2385,-61038 4112,-69127 3182,-3958 6882,-4120 11236,-4120 13210,0 9633,23960 9633,37068l-42 35208c-130,10718 -413,8514 24121,8514 2241,-2551 2754,-2501 2890,-4752 627,-10346 756,-69640 -1357,-80401 -1473,-7499 -5295,-13176 -11785,-16886 -11678,-6676 -29093,-4024 -37109,6830 -2485,3365 -859,3359 -4652,5865 -1517,-6425 -10528,-16158 -20227,-16158 -10224,0 -17218,-397 -25217,10283 -917,1225 -1058,1793 -1758,3018 -106,184 -230,439 -337,618l-1584 2239z"/>
    <path class="fil1" d="M598214 239904c0,-16405 12137,-19634 26969,-19960 0,10648 1066,26404 -10983,31002 -9181,3503 -15986,-1678 -15986,-11042zm-25043 -43722c5068,1166 16269,2852 22153,2852 4765,-7021 3334,-11527 13457,-14344 7223,-2010 16402,2107 16402,9592l0 10455c-10387,0 -29299,2951 -38496,7634 -26910,13703 -21482,58899 8637,58899 26827,0 24627,-6667 34676,-13307 1315,4860 8325,11115 12521,13307 4907,-2563 6011,-3565 9858,-7381 4575,-4538 8443,-4826 8443,-9728 0,-6334 -7749,-1514 -7706,-25662 33,-18923 4048,-45667 -9880,-56783 -2648,-2114 -7132,-4248 -10715,-5586 -12608,-4706 -34650,-2918 -47819,6264 -6246,4354 -13449,15671 -11531,23788z"/>
    <path class="fil1" d="M347780 239904c0,-3629 743,-7158 1925,-9507 4391,-8732 17450,-10265 26008,-10453 0,10168 586,25218 -10409,30607 -9688,4747 -17524,-2389 -17524,-10647zm-25043 -45622c0,3947 20161,4752 23116,4752 3381,-4982 2079,-6292 5149,-10127 4677,-5846 24711,-10464 24711,10127l0 5703c-18158,0 -44570,3963 -52999,21838 -3928,8332 -4725,20970 -342,29847 2340,4739 4480,7646 8818,10308 10339,6346 27812,6124 37408,370l10968 -8187c1714,1240 9328,12357 12522,12357 2752,0 19264,-14007 19264,-16158 0,-2960 -4509,-6872 -6094,-10146 -6188,-12789 686,-48541 -4353,-62237 -8816,-23961 -49542,-22591 -65271,-10888 -5949,4427 -12897,12752 -12897,22441z"/>
    <path class="fil1" d="M882359 182876c0,-18715 3667,-16158 -21190,-16158 -2255,0 -3853,1577 -3853,3801l0 95998c0,5910 11202,3802 23117,3802 6021,0 3853,-14898 3853,-20910 0,-15981 -2716,-47832 5207,-56643 5879,-6538 17186,-6196 19629,8373l166 60666c-130,10653 -429,8514 23158,8514 2254,0 3853,-1577 3853,-3802l0 -65583c0,-16599 -5598,-36117 -24081,-36117 -13481,0 -20551,1120 -27596,14589l-2263 3470z"/>
    <path class="fil1" d="M785075 216142c0,-35075 15974,-35305 23442,-27884 9075,9016 10573,63051 -7067,63051 -6312,0 -10980,184 -14496,-13259 -1334,-5102 -1879,-15281 -1879,-21908zm-28896 1901c0,14491 3981,27657 10050,36656 22651,33589 77602,18382 77602,-34755 0,-21706 -8546,-46270 -29945,-53141 -24108,-7742 -47416,4199 -54630,30515 -1776,6480 -3077,12752 -3077,20725z"/>
    <path class="fil1" d="M675270 170519c0,21460 -4702,17109 35639,17109 -873,3222 -29413,43176 -33564,48620 -2265,2973 -4016,4625 -4744,8626 -1232,6776 -2402,16126 743,22593 8192,0 26739,-13563 56287,-5168 20422,5802 17879,13552 17879,-16692 -10607,-7009 -20797,-9505 -38528,-9505 1424,-2098 2757,-3568 4434,-6080 1867,-2794 2859,-4049 4796,-6673l14282 -20123c14436,-20641 13090,-13807 13090,-33657 0,-2190 -671,-2851 -2889,-2851l-63572 0c-2254,0 -3853,1577 -3853,3801z"/>
    <path class="fil2" d="M174403 242755l49455 16047c4044,1210 3521,985 3521,-1790l0 -73185c-3200,-1672 -8027,-2932 -12172,-4148 -4931,-1447 -8657,-2252 -13473,-3812 -4856,-1574 -23134,-7156 -27331,-7248l0 74136z"/>
    <path class="fil2" d="M435432 78324l0 70335c0,3689 2305,2646 4639,1916l41242 -13670c3010,-1013 4398,-1883 7095,-2503l0 -74137c-3054,251 -4603,1052 -6863,1782 -2325,750 -4703,1274 -6745,1899l-27449 8080c-4236,1372 -11919,1967 -11919,6298z"/>
    <path class="fil2" d="M239901 134402l47602 15900c3189,1102 4638,2082 5354,-1580l20 -73249 -26004 -7607c-4554,-1233 -8844,-2537 -13364,-3920l-13608 -3681 0 74137z"/>
    <path class="fil2" d="M108906 183827l0 75086c6459,-142 19712,-5829 26618,-7949 2995,-919 3765,-1046 6545,-2097 6984,-2637 13959,-4006 19813,-7062l0 -73186c-5523,121 -32483,8920 -39894,11008 -4939,1392 -9249,2197 -13082,4200z"/>
    <path class="fil2" d="M108906 350158l52838 17517 138 -76445c-3800,-875 -8926,-2542 -12645,-3681 -4520,-1384 -8810,-2687 -13365,-3921 -4512,-1223 -8669,-2558 -13368,-3918 -3355,-971 -10157,-3406 -13598,-3688l0 74136z"/>
    <path class="fil2" d="M174403 291230l0 76037 53026 -16962 -50 -74283c-3520,289 -8928,2346 -12860,3468l-26746 7825c-4486,1298 -9131,2940 -13370,3915z"/>
    <path class="fil2" d="M239901 182876l0 76988 51964 -17255 1012 -73990c-7777,171 -45573,13648 -52976,14257z"/>
    <path class="fil2" d="M44370 242755c4198,965 8239,2556 12399,3924 7902,2598 34687,12126 39614,12234l0 -76037c-4643,-381 -8559,-2134 -12935,-3393l-39078 -11815 0 75087z"/>
    <path class="fil2" d="M370897 134402c4103,1943 8030,2801 12897,4382 10610,3447 30791,10812 39116,12726l0 -76037 -25889 -7720c-8087,-2567 -17462,-5496 -26124,-7488l0 74137z"/>
    <path class="fil2" d="M305400 75473l0 76037 26128 -8433c4596,-1504 8218,-2709 12998,-4282 4235,-1393 9424,-2754 12886,-4393l0 -74137c-8661,1992 -18037,4921 -26123,7488l-25889 7720z"/>
    <path class="fil1" d="M334295 367267c8906,0 9482,584 11391,-6819l7257 -28006c1106,-4490 -348,-3004 2543,-5095 305,3623 1485,6480 2478,9911 1182,4083 1870,6278 2911,10434 1647,6574 3874,14772 7132,19575l7706 0c3310,-4878 3534,-8136 5442,-14591 1690,-5725 3112,-10564 4580,-16390 1658,-6584 8279,-28294 8279,-32701 0,-2348 -3714,-1901 -5779,-1901 -6780,0 -6433,6669 -9632,18059 -1648,5867 -5267,15783 -5780,21861l-1926 0c-115,-5087 -10428,-37811 -11559,-39920l-8669 0c-2764,5157 -4159,13234 -5972,19770l-5586 20150c-128,-200 -275,-769 -319,-635l-8737 -30348c-2404,-9797 -1748,-8937 -11171,-8937 -6424,0 -2104,7831 -390,14642 1593,6324 3213,10738 4817,17108l7508 25857c1237,5054 1122,4506 3476,7976z"/>
    <path class="fil1" d="M485518 355861c-19179,0 -18570,-38164 -4962,-43903 22144,-9339 24274,43903 4962,43903zm-26969 -71285l0 76988c0,3496 -464,719 1382,2438 3104,2891 7594,1537 8250,-6240 2581,1705 4039,3875 6900,5548 17943,10493 36444,-6933 36444,-24558l0 -10455c0,-13316 -9859,-27563 -23117,-27563 -11995,0 -8900,1078 -17338,6653 0,-27000 2504,-26613 -8669,-26613 -2254,0 -3852,1577 -3852,3802z"/>
    <path class="fil1" d="M850573 311189c9533,0 13485,6502 13485,15208l-27933 0c1819,-3741 1681,-6283 4365,-9950 2018,-2756 5802,-5258 10083,-5258zm-27933 19960c0,11006 200,18802 7457,26858 16911,18773 46483,5468 46483,-10700 -4391,-2080 -5714,-1901 -10595,-1901 -1471,2166 -4042,6694 -6131,8209 -8323,6038 -23729,3251 -23729,-17714 44830,0 43802,3354 41314,-10342 -6923,-38118 -54799,-28401 -54799,5590z"/>
    <path class="fil1" d="M613625 311189c9731,0 14448,6073 14448,15208l-27933 0c1226,-2523 3395,-15208 13485,-15208zm963 56078c11659,0 25748,-8497 26006,-19960 -5550,-1277 -705,-1901 -10594,-1901 -3060,4509 -7419,12506 -16808,10928 -10727,-1802 -13052,-11115 -13052,-20433l38528 0c8354,0 642,-24605 -9197,-30844 -21173,-13424 -51219,6781 -41693,41142 3309,11936 13599,21068 26810,21068z"/>
    <path class="fil1" d="M422910 311189c9491,0 14448,5781 14448,15208l-27933 0c1952,-4014 1057,-5981 4193,-10120 1871,-2471 5378,-5088 9292,-5088zm963 56078c11465,0 23248,-7327 26007,-19010 -4684,-3094 -3879,-2851 -11558,-2851 -2677,9891 -16316,16192 -25448,5151 -3386,-4094 -3449,-9050 -3449,-14656l38529 0c7242,0 249,-20932 -4625,-26802 -6160,-7422 -20368,-10869 -31684,-5224 -3401,1698 -6392,3809 -8588,6733 -2455,3271 -3989,5665 -5488,9792 -3063,8429 -3161,18112 -484,26729 3709,11943 14255,20138 26788,20138z"/>
    <path class="fil1" d="M529826 320694c0,1913 815,4318 1502,6122 1270,3339 680,2236 3018,4625 10134,10352 20254,4563 33045,13014l0 7605c-6909,4564 -13606,7132 -22611,1401 -3321,-2114 -4303,-5134 -6285,-8055 -21360,470 -3603,15344 -1544,16731 9618,6480 26815,6714 35858,21 12623,-9340 10420,-26650 -4813,-32557 -7883,-3057 -15996,-1265 -24685,-7006 0,-4181 -584,-11406 9632,-11406 7781,0 10731,4028 14448,9505 20462,-450 5076,-13722 1562,-15799 -4127,-2441 -11195,-4127 -16626,-3746 -12785,896 -22501,6568 -22501,19545z"/>
    <path class="fil1" d="M884286 316892c0,9175 -87,17359 16150,21132 6909,1605 21414,1827 21414,10233 0,9741 -20222,11549 -26407,2298 -1669,-2497 -1663,-4634 -5428,-4872 -2889,-183 -5153,1048 -7656,1624 0,8159 3027,11172 8237,14683 14898,10040 43776,5084 43776,-13733 0,-10746 -4892,-16912 -15815,-19561 -17838,-4325 -21750,-825 -21750,-12754 4001,-2644 10665,-8429 19045,-1685 1410,1135 5299,6437 5998,6437 25744,0 -5463,-30603 -29504,-15808 -267,165 -2473,1761 -2771,2018 -212,181 -810,711 -1006,909 -1963,1993 -4283,5825 -4283,9079z"/>
    <path class="fil1" d="M766774 332100c0,39825 32923,40242 44062,27320 2021,-2345 11830,-17816 3135,-17816 -11174,0 -6541,1119 -10751,8400 -6250,10811 -22961,7231 -22961,-12201 0,-10967 -161,-25663 14449,-25663 11421,0 8385,14257 14447,14257 6406,0 10091,994 7602,-7419 -877,-2961 -2288,-5690 -4142,-8351 -11731,-16828 -45841,-11139 -45841,21473z"/>
    <path class="fil1" d="M708982 366316c15671,0 10849,4473 22518,-30056 1748,-5171 10231,-28801 10231,-33625 0,-2688 -6082,-1901 -9632,-1901 -4183,6163 -5576,14189 -8305,22220l-9032 23403 -7342 -24122c-7943,-23499 -4651,-21501 -16739,-21501 -6411,0 -2068,7653 364,14849l17937 50733z"/>
    <path class="fil2" d="M120464 267467c2383,3211 4693,2388 11150,4205 4185,1177 8610,2242 12163,3206 21893,5936 19165,7604 36607,3245l24287 -6451c2738,-771 3539,-809 6187,-1498 3466,-900 3106,-205 4963,-2707 -4160,-341 -7785,-2239 -11961,-3404l-35349 -10552c-2528,-149 -8914,2179 -11809,3143l-36238 10813z"/>
    <path class="fil2" d="M185961 161015l47188 12174c2034,21 9081,-2085 11452,-2784l36718 -9390c-2540,-3421 -18330,-6514 -22765,-7950 -4422,-1432 -7117,-2410 -11709,-3654 -21549,-5832 -10153,-4171 -37566,3248 -3533,956 -21177,5473 -23318,8356z"/>
    <path class="fil2" d="M251460 51711c2482,3343 2222,1803 10401,3993l24267 6469c16133,4196 15266,3142 37238,-3188 4035,-1163 8817,-2473 12137,-3231 3029,-692 3380,-684 6211,-1475 4464,-1250 2922,370 5103,-2568 -4501,-370 -46278,-14257 -48160,-14257l-47197 14257z"/>
    <path class="fil2" d="M54966 161015l23686 6092c4308,1065 7302,1667 11550,2860 3073,863 9740,3007 12077,3097l48044 -12049c-2267,-3054 -4969,-2673 -10946,-4406l-24239 -7447c-13673,-4428 -10155,-5072 -23571,-503 -4097,1396 -8291,2557 -12519,3804 -4550,1342 -21900,5613 -24082,8552z"/>
    <path class="fil2" d="M381492 51711c2123,2859 4228,2425 11314,4043 3304,754 8118,2056 12147,3222 4277,1238 7927,2163 12053,3313 14041,3914 11761,3237 24408,77l30473 -7949c3465,-900 3105,-205 4963,-2706 -4403,-1012 -7389,-2139 -11900,-3466l-35412 -10488c-3646,-138 -30004,8997 -35174,10498 -3839,1115 -9467,3176 -12872,3456z"/>
    <path class="fil1" d="M660822 310239c0,-7165 758,-6654 -7706,-6654 -2254,0 -3853,1578 -3853,3802 0,12282 -1258,49521 964,58929 3916,322 4315,2480 11558,-950 0,-11186 -725,-24964 663,-34514 598,-4107 -88,-3721 1523,-7050 633,-1306 2905,-4705 3828,-5727 2922,-3230 7878,-4544 13250,-4985 852,-3607 3163,-11406 -3853,-11406 -10005,0 -12592,6055 -16374,8555z"/>
    <path class="fil1" d="M746548 305486l0 57979c0,5497 13484,5497 13484,0 0,-12604 1256,-53330 -963,-62731l-11559 0c-503,2132 -962,2185 -962,4752z"/>
    <path class="fil1" d="M745584 285527c0,4318 2057,4957 3853,7603l7705 0c1796,-2646 3853,-3285 3853,-7603 0,-10204 -15411,-10204 -15411,0z"/>
   </g>
  </g>
 </g>
</svg>
