<?xml version="1.0" encoding="UTF-8"?>
<!DOCTYPE svg PUBLIC "-//W3C//DTD SVG 1.1//EN" "http://www.w3.org/Graphics/SVG/1.1/DTD/svg11.dtd">
<!-- Creator: CorelDRAW X7 -->
<svg xmlns="http://www.w3.org/2000/svg" xml:space="preserve" width="1452px" height="600px" version="1.1" style="shape-rendering:geometricPrecision; text-rendering:geometricPrecision; image-rendering:optimizeQuality; fill-rule:evenodd; clip-rule:evenodd"
viewBox="0 0 974432 402552"
 xmlns:xlink="http://www.w3.org/1999/xlink">
 <defs>
  <style type="text/css">
   <![CDATA[
    .fil1 {fill:#009587}
    .fil0 {fill:white}
   ]]>
  </style>
 </defs>
 <g id="Capa_x0020_1">
  <metadata id="CorelCorpID_0Corel-Layer"/>
  <g id="_1853325975584">
   <rect class="fil0" width="974432" height="402552"/>
   <g>
    <path class="fil1" d="M95917 269820l-479 -53526 -30277 0c3648,-6893 6848,-13637 10491,-20997 3691,-7454 7069,-12909 10905,-20582 4070,-8143 17788,-36905 22203,-41984l0 53287 29065 0 -41908 83802zm-84042 -71691c0,28695 8324,47762 25128,64490 44511,44308 114944,30783 141599,-22502 12226,-24438 12226,-53483 0,-77922 -13049,-26086 -41187,-48841 -74686,-48841 -28556,0 -47071,6587 -66913,26340 -12868,12808 -25128,33380 -25128,58435z"/>
    <path class="fil1" d="M715501 150897l2422 0c364,4370 10981,28661 13149,34083l13495 34948 -55709 0c2030,-4231 4427,-11953 6194,-16817l20449 -52214zm-69030 125950l23010 0 9851 -30114c1107,-3124 2060,-8640 5893,-8640l62975 0c4594,0 5038,8206 8831,17813 1826,4627 6547,16547 6913,20941l24221 0c-2974,-12763 -38849,-102960 -44396,-115465l-16157 -37128 -20588 0 -16451 36836c-2863,6825 -5249,12480 -7771,18872 -9097,23065 -21710,53958 -29512,77062 -1831,5423 -6403,14823 -6819,19823z"/>
    <path class="fil1" d="M848718 201762l-19377 0 0 -55709c0,-5880 8821,-3633 24221,-3633 21311,0 38754,7900 38754,29065 0,23941 -19739,30277 -43598,30277zm-41176 -75086l0 150171 21799 0 0 -55708c37721,0 85985,-1179 85985,-49654 0,-39823 -35297,-48443 -70241,-48443 -8257,0 -12864,806 -19418,1171 -8450,469 -11598,1920 -18125,2463z"/>
    <path class="fil1" d="M375193 242938c0,-9403 7844,-15975 16218,-17693 12103,-2481 19743,-200 31013,738l0 33910c-9514,2216 -33780,2870 -41433,-3377 -2462,-2009 -5798,-9846 -5798,-13578zm-8477 -78719c0,7761 1211,10004 1211,16954 7957,0 54497,-15429 54497,18166l0 9689c-7855,0 -32450,-7333 -51874,5046 -16382,10440 -15945,17839 -15945,33708 0,20974 21599,31488 41176,31488 9752,0 16036,-612 25347,-1296 6417,-471 21884,-955 21884,-5971l0 -76297c0,-24487 -19583,-36332 -44808,-36332 -12294,0 -21616,2545 -31488,4845z"/>
    <polygon class="fil1" points="257720,276847 279520,276847 279520,206606 341284,206606 341284,188440 279520,188440 279520,143631 349761,143631 349761,124254 257720,124254 "/>
    <path class="fil1" d="M469656 189651l0 6055c0,32434 58131,28864 58131,52076 0,17498 -33259,14311 -44822,10912 -4669,-1373 -6652,-3192 -12098,-3645 0,16695 -10515,16584 9518,21969 22808,6130 67990,2877 67990,-26814 0,-22077 -6162,-27201 -25845,-35920 -11153,-4940 -32286,-9295 -32286,-23422 0,-13099 16762,-13321 25432,-13321 10550,0 14945,2965 23010,4844 1102,-4729 3523,-13243 3634,-18166 -19664,-4582 -41486,-9409 -59875,3100 -6214,4227 -12789,12626 -12789,22332z"/>
    <path class="fil1" d="M572596 130309l0 106573c0,62310 67820,38743 67820,35121 0,-3754 -2439,-13255 -3634,-15744 -10586,881 -1092,3634 -27854,3634 -14400,0 -15744,-19061 -15744,-33910l0 -46021 43598 0c0,-23820 7901,-18165 -43598,-18165l0 -35121c-2339,1122 -16918,3551 -20588,3633z"/>
    <polygon class="fil1" points="940759,276847 962557,276847 962557,124254 940759,124254 "/>
   </g>
  </g>
 </g>
</svg>
