<?xml version="1.0" encoding="UTF-8"?>
<!DOCTYPE svg PUBLIC "-//W3C//DTD SVG 1.1//EN" "http://www.w3.org/Graphics/SVG/1.1/DTD/svg11.dtd">
<!-- Creator: CorelDRAW X7 -->
<svg xmlns="http://www.w3.org/2000/svg" xml:space="preserve" width="1452px" height="600px" version="1.1" style="shape-rendering:geometricPrecision; text-rendering:geometricPrecision; image-rendering:optimizeQuality; fill-rule:evenodd; clip-rule:evenodd"
viewBox="0 0 993562 410455"
 xmlns:xlink="http://www.w3.org/1999/xlink">
 <defs>
  <style type="text/css">
   <![CDATA[
    .fil1 {fill:#01D7FD}
    .fil0 {fill:white}
   ]]>
  </style>
 </defs>
 <g id="Capa_x0020_1">
  <metadata id="CorelCorpID_0Corel-Layer"/>
  <g id="_1889714411424">
   <rect class="fil0" width="993562" height="410455"/>
   <g>
    <path class="fil1" d="M112245 270921l23071 3569c34922,5282 14169,-8092 47078,30948 2157,2559 6356,6987 7863,9266 -5698,9053 -46947,38112 -66075,33747 -14373,-3280 -16121,-20485 -17565,-32875 -964,-8265 2601,-38084 5628,-44655zm130580 5956l35365 -4595c3568,-685 8340,-1990 11959,-2312 483,699 550,399 1088,1767 4764,12126 11220,70689 -12258,76526 -19694,4896 -53663,-20800 -65890,-33559 1720,-2621 5080,-5753 7441,-8736l22295 -29091zm-41152 25454c-3371,-2232 -19070,-20434 -19979,-23795l39957 0c-2954,4748 -15911,21103 -19978,23795zm-73962 -76850c379,437 -168,-426 1104,1300l3713 6716c3456,6586 13912,22326 14917,26003l-30443 -4759c342,-3866 8471,-26190 10709,-29260zm127237 34019l19735 -34971c2121,2683 7662,17733 9167,22238 713,2133 2215,5155 1706,7268 -6560,2819 -22402,3488 -30608,5465zm46617 -98986c9919,4592 20861,5641 37497,15786 10076,6146 25359,15816 25377,28951 28,21060 -45984,40709 -62874,44731 -807,-9071 -16816,-42643 -16903,-44930 -52,-1393 7464,-18474 8637,-21400 2894,-7227 5205,-16519 8266,-23138zm-165619 44404c2884,-4028 4766,-9773 7504,-14136 2792,-4448 5197,-9526 7819,-14070 5102,-8841 12688,-18922 17106,-27620 2327,0 5374,172 7612,0l24735 -952c5680,0 11503,-132 17163,-38 3934,65 4281,738 7571,990 2519,194 5945,0 8563,0 4190,8343 11448,18815 16566,27208 5659,9280 10335,19702 15943,28948 -5530,9118 -9900,19232 -15571,28367 -5056,8142 -12865,19677 -16938,27789 -6030,0 -9926,969 -15195,979 -15445,29 -35921,321 -50222,-1206 -9543,-12481 -25796,-41739 -32656,-56259zm-34166 -44404c196,9253 16446,42354 16038,45491l-12904 32836c-1666,4208 -2207,8032 -4086,12093 -9419,-4378 -14972,-2958 -38039,-16196 -9194,-5277 -25213,-18481 -25303,-29539 -95,-11605 15518,-23332 24978,-28816 8695,-5039 30456,-15111 39316,-15869zm153199 -8584c9088,18 21811,2703 30413,4777l-10147 28670 -20266 -33447zm-127268 33085c-2627,-3325 -9612,-23697 -10709,-28308 4237,-1955 24878,-4759 30443,-4759l-19734 33067zm73011 -76850c3904,2584 18885,19757 19978,23795l-39006 0c1518,-5645 15131,-17904 19028,-23795zm-41153 25454l-35198 4762c-3715,737 -8476,2067 -12126,2145 -11258,-46751 -10739,-103472 48707,-66813 6477,3994 24602,16362 28354,22079 -693,2554 -12366,15273 -14968,18339 -5230,6165 -9751,13089 -14769,19488zm53439 -38153c3327,-1974 9611,-8285 13169,-11327 4406,-3766 9642,-6974 14498,-10242 8866,-5967 27358,-14342 37723,-12035 12153,2706 16516,22263 16536,32950 33,17827 -858,29408 -4785,45714l-47324 -6907 -29817 -38153zm-116936 48867l-1162 741c-13794,6476 -15850,2883 -45426,20227 -22038,12924 -39820,38783 -18809,63495 15033,17680 43911,32279 65397,37367 -75,3711 -1568,9300 -2298,12930 -865,4297 -1927,9611 -2377,13802 -5417,50507 11303,92238 73501,61161 14324,-7157 24558,-17493 36672,-27082 4908,2638 11875,10128 17379,14229 35912,26760 84635,43034 92163,-18852 2515,-20680 -299,-38356 -4790,-57140 13767,-1178 74211,-26173 74224,-59954 8,-18988 -13610,-29944 -27986,-39605 -9840,-6612 -36859,-19483 -47189,-20367 4351,-9372 7294,-44709 5501,-56901 -7103,-48301 -34697,-51180 -73062,-31631 -14021,7144 -25164,17863 -36137,27617 -5222,-3459 -11994,-9922 -17287,-14114 -17661,-13987 -45886,-30291 -68716,-22435 -15664,5390 -23162,24056 -24329,39431 -2758,36343 4491,45172 4731,57081z"/>
    <path class="fil1" d="M454734 202392l0 -56155c28310,0 68482,-8045 68517,27592 15,14669 -7015,24010 -20919,27641 -9061,2365 -36325,922 -47598,922zm-19303 -73315c-1197,2737 -1706,144736 -58,149793 4823,1574 13903,618 19361,618 0,-9720 -1304,-53555 626,-59338 5245,-1751 22229,-625 28867,-625l38236 59847 22651 116c-1662,-6071 -37492,-55382 -39007,-60915 2242,-1419 6540,-1418 11059,-3214 41593,-16542 36500,-87536 -22470,-87211 -9788,54 -53755,-1919 -59265,929z"/>
    <path class="fil1" d="M647860 216669l-70400 0c2774,-11590 2390,-14157 10275,-23984 5675,-7075 15957,-10299 24922,-10287 21893,31 35203,14731 35203,34271zm10466 48542l-7611 -11422c-3287,890 -20172,19537 -46026,11783 -15173,-4552 -26278,-18073 -26278,-34625 13110,0 79799,1546 86937,-589 3294,-11025 -3260,-30433 -8943,-40321 -17476,-30411 -73529,-34483 -93524,12048 -13897,32340 5393,86148 61230,79342 10206,-1244 28328,-7249 34215,-16216z"/>
    <path class="fil1" d="M760121 236657c0,13088 5111,26282 -19078,31358 -51670,10844 -46343,-59900 4956,-42928 5078,1679 12770,6570 14122,11570zm-68292 -51191c863,2063 2127,3937 3860,6195l4578 6054c11717,-8895 17535,-17399 40737,-14269 23791,3209 19117,27045 19117,38934 -7818,-5177 -9974,-8176 -19607,-10841 -14275,-3951 -31158,-2229 -42521,7697 -2398,2095 -1714,1427 -3807,3805 -19337,21973 -1532,70062 45786,57229 9107,-2470 12700,-6329 20149,-11252 0,3878 -597,7110 951,10470l17124 0c0,-18084 0,-36168 0,-54252 0,-16632 2568,-33815 -8305,-45943 -8831,-9850 -28332,-14044 -41746,-11706 -17711,3087 -23014,5280 -36316,17879z"/>
    <path class="fil1" d="M899971 262355l-10377 -9607c-3778,1153 -19085,21978 -43547,10256 -30854,-14784 -28771,-63245 -954,-76492 15865,-7555 33183,-2969 43379,10252 3199,-1650 3302,-1805 6032,-4599 789,-806 1555,-1631 2377,-2387l3053 -2578c-4509,-20739 -72719,-38931 -91896,18398 -3946,11796 -4073,25070 -499,36920 1753,5814 3744,9767 6838,15050 12578,21472 36918,27518 59998,22962 7703,-1521 23245,-9461 25596,-18175z"/>
    <path class="fil1" d="M927315 140526c-2147,4632 -707,23039 -707,29506 -5453,0 -12426,-1053 -17450,625 -1248,3742 -1248,10236 0,13978 5024,1678 11997,626 17450,626 0,11330 -686,67912 208,74031 4138,28301 29962,26529 45458,16388 -347,-3898 -2905,-9667 -4757,-13325 -7075,1716 -12210,7998 -19314,287 -4522,-4909 -3518,-16201 -3518,-23129 0,-8998 -1207,-48137 625,-53627 5238,-1749 16168,-625 22207,-625l0 -15229c-6039,0 -16969,1123 -22207,-625 -1786,-5353 -625,-23031 -625,-29833 -5155,0 -13177,-1310 -17370,952z"/>
    <path class="fil1" d="M194062 173838c-3271,847 -5802,204 -11582,4594 -10733,8155 -16014,19540 -13103,33428 3649,17418 19688,27896 38872,24714 16811,-2787 28248,-21439 24768,-37938 -2532,-12010 -11582,-22020 -23492,-25039 -5508,-1396 -10676,-997 -15463,241z"/>
   </g>
  </g>
 </g>
</svg>
