<?xml version="1.0" encoding="UTF-8"?>
<!DOCTYPE svg PUBLIC "-//W3C//DTD SVG 1.1//EN" "http://www.w3.org/Graphics/SVG/1.1/DTD/svg11.dtd">
<!-- Creator: CorelDRAW X7 -->
<svg xmlns="http://www.w3.org/2000/svg" xml:space="preserve" width="1452px" height="600px" version="1.1" style="shape-rendering:geometricPrecision; text-rendering:geometricPrecision; image-rendering:optimizeQuality; fill-rule:evenodd; clip-rule:evenodd"
viewBox="0 0 988328 408293"
 xmlns:xlink="http://www.w3.org/1999/xlink">
 <defs>
  <style type="text/css">
   <![CDATA[
    .fil1 {fill:none}
    .fil3 {fill:#252E3E}
    .fil2 {fill:#A166FE}
    .fil0 {fill:white}
   ]]>
  </style>
 </defs>
 <g id="Capa_x0020_1">
  <metadata id="CorelCorpID_0Corel-Layer"/>
  <g id="_1853326008000">
   <rect class="fil0" width="988328" height="408293"/>
   <g>
    <rect class="fil1" x="21977" y="9079" width="944373" height="390135"/>
    <path class="fil2" d="M90784 154950c2310,-37157 -9796,-25989 30413,-51964 11219,-7247 19248,-15712 26226,-11861 4719,2605 21588,15872 25140,16356 3709,506 20696,-12476 25392,-15473 8243,-5265 13343,1684 26244,10077 8338,5425 16416,11252 24831,16638 6364,4072 6712,4674 6697,14139 -41,28394 -4489,16937 20495,37716 7094,5900 4629,17762 4629,34241 0,24066 4372,18857 -19231,37474 -11019,8692 -3796,9056 -6000,31143 -696,6970 -4136,7296 -9152,10255 -8598,5073 -15536,9596 -23662,14344 -4097,2395 -20341,13085 -24018,13199 -6388,200 -20378,-12909 -25420,-12881 -4415,27 -18446,11849 -23786,12946 -4418,909 -41183,-22430 -47271,-26241 -14158,-8864 -11399,-6971 -11191,-27742 87,-8784 1415,-9275 -4101,-13524 -25540,-19663 -21037,-14686 -21100,-36689 -30,-10281 -2861,-29789 3420,-35478 4443,-4025 17279,-14579 21445,-16675zm-56717 -108066c-12546,3835 -9962,14095 -9960,27773 8,32967 -1256,263059 414,270193 2666,11394 14245,10183 26146,10173 32206,-22 255070,1345 262180,-581 11711,-3169 9832,-14619 9823,-27454 -29,-34100 1382,-261807 -320,-270261 -2396,-11895 -14090,-10424 -26257,-10404 -31109,53 -256509,-1125 -262026,561z"/>
    <path class="fil0" d="M116771 191118c63,14424 -2216,10924 -12290,17913 -3132,2174 -7455,4297 -8457,7552 -1571,5104 1077,8854 5489,9024 4967,192 14790,-8636 19299,-11213 5724,-3273 13440,4156 19486,6273l-81 24331c-36472,14501 -22154,28061 -11534,22121 7310,-4087 32688,-19722 38142,-21551l-303 40256c-12571,5935 -16408,16159 -29473,3752 4788,-2811 9425,-5454 14212,-8301 5807,-3453 7525,-8061 1855,-13169 -7072,-1523 -8577,1356 -13756,4371 -18368,10696 -13796,10593 -23699,4569 -3912,-2380 -7819,-4086 -11286,-7144l130 -17403c4673,-1886 10430,-5617 15143,-8457 4743,-2859 11663,-4591 10682,-11696 -1896,-13704 -21628,3230 -27705,5632 -4250,-1728 -11496,-7995 -14900,-10923 -8142,-7001 -9309,-3797 -8431,-17668 2491,-5224 30716,-12187 25979,-23186 -6018,-9801 -17709,3818 -26192,6230l236 -11942c6245,-3262 13038,-11491 18888,-14138 22237,15036 18515,10831 18566,24767zm13227 -78034c13278,-6758 9366,-11267 19195,-4364 5412,3801 12015,8550 17450,11550 781,15365 106,32499 100,48060 -10,18865 14919,12845 22384,23671 3250,4715 4899,11211 14844,7944 4892,-1608 8791,-8433 5508,-15269 -3504,-7300 -9649,-3260 -16513,-6937 -3942,-2110 -11090,-5556 -13011,-9455l177 -47956c30712,-18651 15671,-20171 43832,-2017 7955,5128 17948,10038 18200,15719 -3319,1516 -7555,892 -12403,892 -28546,0 -12886,-3886 -24358,-4107 -7628,-147 -13371,7722 -9734,15548 5318,11442 18370,2714 18802,2598 3738,-1011 22764,-384 27906,-278 303,14890 619,12596 9411,19684 5180,4176 10943,9538 15701,12243l65 38264c-4382,-1369 -5931,-2980 -9740,-5349 -13996,-8706 -5960,-11314 -14900,-13373 -15524,-3576 -17639,16970 -7226,20220 3995,1248 9963,-1130 19916,8425 -3714,6526 -11904,7220 -13046,14037 -1157,6912 409,19035 -412,27066 -5469,4992 -22682,14408 -30440,19089 -20422,12323 -11692,5745 -31751,-3136l361 -24813c3551,-138 9559,-341 12980,-58 6270,517 3546,1826 8561,3465 18064,5907 18656,-25260 636,-20525 -8321,2186 1864,3763 -22444,3369 -246,-10651 -140,-21534 -78,-32201 88,-15511 -645,-13412 -10515,-19937 -3961,-2618 -17626,-13209 -18383,-559 -385,6414 10388,12388 15710,14652l-143 19551c-4122,3607 -8228,5467 -12912,7745 -2012,-20807 8515,-22527 -23679,-36006l192 -21057c4935,-2255 15479,-8291 20045,-11135 8814,-5491 4664,-38575 3427,-40317 -1727,-2428 -6652,-4697 -10068,-799 -3360,3834 -1405,22785 -2028,29637 -2565,2519 -6045,4228 -9683,6312 -10636,6096 -8326,3979 -19635,-3728 -9382,-6394 -9172,-6354 -7694,-29153l12026 -7251c456,7124 -85,14266 92,21360 90,3625 -215,5925 2490,7954 2641,1984 5427,1936 7992,356 4770,-2941 2805,-31307 2793,-39631zm-39214 41866c-4166,2096 -17002,12650 -21445,16675 -6281,5689 -3450,25197 -3420,35478 63,22003 -4440,17026 21100,36689 5516,4249 4188,4740 4101,13524 -208,20771 -2967,18878 11191,27742 6088,3811 42853,27150 47271,26241 5340,-1097 19371,-12919 23786,-12946 5042,-28 19032,13081 25420,12881 3677,-114 19921,-10804 24018,-13199 8126,-4748 15064,-9271 23662,-14344 5016,-2959 8456,-3285 9152,-10255 2204,-22087 -5019,-22451 6000,-31143 23603,-18617 19231,-13408 19231,-37474 0,-16479 2465,-28341 -4629,-34241 -24984,-20779 -20536,-9322 -20495,-37716 15,-9465 -333,-10067 -6697,-14139 -8415,-5386 -16493,-11213 -24831,-16638 -12901,-8393 -18001,-15342 -26244,-10077 -4696,2997 -21683,15979 -25392,15473 -3552,-484 -20421,-13751 -25140,-16356 -6978,-3851 -15007,4614 -26226,11861 -40209,25975 -28103,14807 -30413,51964z"/>
    <path class="fil2" d="M129998 113084c12,8324 1977,36690 -2793,39631 -2565,1580 -5351,1628 -7992,-356 -2705,-2029 -2400,-4329 -2490,-7954 -177,-7094 364,-14236 -92,-21360l-12026 7251c-1478,22799 -1688,22759 7694,29153 11309,7707 8999,9824 19635,3728 3638,-2084 7118,-3793 9683,-6312 623,-6852 -1332,-25803 2028,-29637 3416,-3898 8341,-1629 10068,799 1237,1742 5387,34826 -3427,40317 -4566,2844 -15110,8880 -20045,11135l-192 21057c32194,13479 21667,15199 23679,36006 4684,-2278 8790,-4138 12912,-7745l143 -19551c-5322,-2264 -16095,-8238 -15710,-14652 757,-12650 14422,-2059 18383,559 9870,6525 10603,4426 10515,19937 -62,10667 -168,21550 78,32201 24308,394 14123,-1183 22444,-3369 18020,-4735 17428,26432 -636,20525 -5015,-1639 -2291,-2948 -8561,-3465 -3421,-283 -9429,-80 -12980,58l-361 24813c20059,8881 11329,15459 31751,3136 7758,-4681 24971,-14097 30440,-19089 821,-8031 -745,-20154 412,-27066 1142,-6817 9332,-7511 13046,-14037 -9953,-9555 -15921,-7177 -19916,-8425 -10413,-3250 -8298,-23796 7226,-20220 8940,2059 904,4667 14900,13373 3809,2369 5358,3980 9740,5349l-65 -38264c-4758,-2705 -10521,-8067 -15701,-12243 -8792,-7088 -9108,-4794 -9411,-19684 -5142,-106 -24168,-733 -27906,278 -432,116 -13484,8844 -18802,-2598 -3637,-7826 2106,-15695 9734,-15548 11472,221 -4188,4107 24358,4107 4848,0 9084,624 12403,-892 -252,-5681 -10245,-10591 -18200,-15719 -28161,-18154 -13120,-16634 -43832,2017l-177 47956c1921,3899 9069,7345 13011,9455 6864,3677 13009,-363 16513,6937 3283,6836 -616,13661 -5508,15269 -9945,3267 -11594,-3229 -14844,-7944 -7465,-10826 -22394,-4806 -22384,-23671 6,-15561 681,-32695 -100,-48060 -5435,-3000 -12038,-7749 -17450,-11550 -9829,-6903 -5917,-2394 -19195,4364z"/>
    <path class="fil2" d="M79317 180489l-236 11942c8483,-2412 20174,-16031 26192,-6230 4737,10999 -23488,17962 -25979,23186 -878,13871 289,10667 8431,17668 3404,2928 10650,9195 14900,10923 6077,-2402 25809,-19336 27705,-5632 981,7105 -5939,8837 -10682,11696 -4713,2840 -10470,6571 -15143,8457l-130 17403c3467,3058 7374,4764 11286,7144 9903,6024 5331,6127 23699,-4569 5179,-3015 6684,-5894 13756,-4371 5670,5108 3952,9716 -1855,13169 -4787,2847 -9424,5490 -14212,8301 13065,12407 16902,2183 29473,-3752l303 -40256c-5454,1829 -30832,17464 -38142,21551 -10620,5940 -24938,-7620 11534,-22121l81 -24331c-6046,-2117 -13762,-9546 -19486,-6273 -4509,2577 -14332,11405 -19299,11213 -4412,-170 -7060,-3920 -5489,-9024 1002,-3255 5325,-5378 8457,-7552 10074,-6989 12353,-3489 12290,-17913 -51,-13936 3671,-9731 -18566,-24767 -5850,2647 -12643,10876 -18888,14138z"/>
    <path class="fil3" d="M626803 324607l15923 -92 -123 -57318 18088 36180 16200 323c3800,-7726 16154,-30557 17998,-37228l417 58142 15868 -96 -166 -85228 -19669 -512 -20839 45276c-1033,1460 -1315,1701 -2222,2688l-21549 -47486 -19833 -523 -93 85874z"/>
    <path class="fil3" d="M521973 98696c-1334,-1249 -562,-555 -1924,-2279 -155,-197 -458,-601 -625,-813l-14787 -2555 -32 63375 17502 76 106 -47980c7150,-3366 10972,-3947 18312,-2219 4256,10968 1898,35926 2006,50199l17446 -191 0 -48319c25150,-6652 19399,-3226 20359,48423l17411 84c145,-10837 1385,-47765 -1170,-55182 -6064,-17610 -27526,-7751 -39441,-2352 -9345,-13522 -28238,-6831 -35163,-267z"/>
    <path class="fil3" d="M525104 275332l799 31355c-13522,6189 -22571,2582 -22846,-14458 -275,-17227 6242,-22413 22047,-16897zm393 42342c3068,29418 -18673,18286 -34965,17184l88 11439c18682,9353 43114,6824 50373,-11978 4335,-11233 2423,-57395 2423,-73034l-11630 216c-7591,1989 1181,207 -6089,4238 -7815,-10256 -39664,-11984 -40161,24973 -353,26406 19018,42012 39961,26962z"/>
    <path class="fil3" d="M457144 88622l9861 35008 -20145 -434 10284 -34574zm-38810 67769l19265 50 5243 -19316 27584 -193 6677 19446 14723 65 4558 -4 -28941 -85660 -20227 -211 -28882 85823z"/>
    <path class="fil3" d="M351483 308195l158 13490c11787,6918 33304,6584 44902,510 16574,-8676 15324,-29465 8285,-37542 -8841,-10144 -30422,-13009 -34498,-19029 -5892,-8701 2303,-13300 9973,-13887 9421,-723 15948,2237 23718,3081l267 -13625c-51124,-18338 -64517,23453 -46327,38857 12979,10991 31625,9309 33188,20025 2695,18457 -28721,9697 -39666,8120z"/>
    <path class="fil3" d="M828251 290440c4195,-3698 22667,-24865 24536,-29146l-20644 -9c-6684,8672 -13483,17760 -20763,26392l-92 -54760 -17272 -48 -5 91784 17191 -39 298 -28011c29090,32144 11066,27950 43253,28047 -6517,-9661 -22998,-26161 -26502,-34210z"/>
    <path class="fil3" d="M759155 108041c18216,-14995 24540,25980 12846,34285 -16499,11720 -23164,-19046 -16583,-30402 2354,-4064 2150,-2576 3737,-3883zm-23297 24815c2591,17755 17092,29284 37988,24625 16812,-3750 24752,-19422 21544,-40631 -5768,-38123 -67098,-35801 -59532,16006z"/>
    <path class="fil3" d="M827430 109442c27653,-15523 22223,11675 21730,47088l17716 -441c-668,-11716 1420,-47089 -1809,-55008 -6479,-15894 -29687,-9542 -38740,-1478 -2863,-7029 1134,-6503 -16418,-6560l35 63433 17531 27 -45 -47061z"/>
    <path class="fil3" d="M455443 298773l154 10776c-22488,15767 -31689,-16403 -154,-10776zm-31807 -34049l-148 11196c16638,-651 31908,-12795 32196,12138 -10421,489 -15518,-2893 -25828,2189 -23677,11668 -6191,52013 26153,29848 3549,4846 -1857,4555 16131,4599 -120,-12590 1871,-47283 -2882,-56457 -6327,-12212 -32490,-10237 -45622,-3513z"/>
    <path class="fil3" d="M646726 130665l174 10674c-22476,16280 -31249,-17098 -174,-10674zm-31835 -34217l-66 11360c25070,-2353 32044,-10596 32119,12020 -6973,297 -38375,-5444 -36311,21590 1592,20847 22851,19245 36689,10518 3468,4870 -2230,4682 16070,4501 126,-12374 1690,-47258 -2889,-56270 -6376,-12556 -32603,-10184 -45612,-3719z"/>
    <path class="fil3" d="M760895 309471c-24197,15297 -30546,-16154 -102,-10690l102 10690zm-32000 -44752l-109 11261c12240,-747 16007,-5004 30273,-1605 2087,5206 2153,7007 1612,14269 -17744,-1851 -36760,-1037 -36105,19746 690,21826 22890,20994 36732,11712 3622,4966 -2170,4543 15948,4592 386,-12089 1859,-47444 -2768,-56359 -6287,-12110 -32400,-10622 -45583,-3616z"/>
    <path class="fil3" d="M573016 286275c917,-7940 4111,-13479 11666,-14168 9219,-842 11374,5585 11861,14172l-23527 -4zm37484 10870c1311,-17958 -225,-33319 -16539,-36869 -17450,-3797 -30542,4834 -34906,17539 -8642,25162 1976,60435 51175,44276l-221 -12127c-13746,2545 -37436,7654 -36380,-12625l36871 -194z"/>
    <path class="fil3" d="M872573 286324c964,-7923 4022,-13488 11702,-14180 9678,-873 11458,5330 11790,14168l-23492 12zm37146 35805l-97 -12143c-13561,2436 -37689,8466 -36380,-12689l36799 39c1596,-17383 852,-32560 -15323,-36787 -17567,-4593 -31144,4140 -35679,16218 -8526,22708 -1802,61776 50680,45362z"/>
    <path class="fil3" d="M694961 142706c5718,-6624 12077,-14643 18093,-21570 9246,-10646 13120,-9033 13120,-28090l-49589 10 -12 13720 29176 -45c-3633,6475 -12734,16441 -17781,22500 -8699,10447 -12458,8225 -12556,27222l51446 -389 82 -12737 -31979 -621z"/>
    <path class="fil3" d="M923886 273059l-20 51586 17569 2 80 -44890c8936,-2978 11999,-2675 21549,-2294l66 -16505c-14052,-264 -13175,1495 -22084,8586 -2154,-2765 -2010,-3893 -2718,-8305l-14450 24 8 11796z"/>
   </g>
  </g>
 </g>
</svg>
