<?xml version="1.0" encoding="UTF-8"?>
<!DOCTYPE svg PUBLIC "-//W3C//DTD SVG 1.1//EN" "http://www.w3.org/Graphics/SVG/1.1/DTD/svg11.dtd">
<!-- Creator: CorelDRAW X7 -->
<svg xmlns="http://www.w3.org/2000/svg" xml:space="preserve" width="1452px" height="600px" version="1.1" style="shape-rendering:geometricPrecision; text-rendering:geometricPrecision; image-rendering:optimizeQuality; fill-rule:evenodd; clip-rule:evenodd"
viewBox="0 0 1003391 414516"
 xmlns:xlink="http://www.w3.org/1999/xlink">
 <defs>
  <style type="text/css">
   <![CDATA[
    .fil1 {fill:#08A3D5}
    .fil0 {fill:white}
   ]]>
  </style>
 </defs>
 <g id="Capa_x0020_1">
  <metadata id="CorelCorpID_0Corel-Layer"/>
  <g id="_1853325999616">
   <rect class="fil0" width="1003391" height="414516"/>
   <path class="fil1" d="M593730 174463c0,16576 3982,36109 8377,49385 29158,88084 128768,87901 174097,50295 8375,-6948 14771,-12725 20384,-23900 4179,-8321 9981,-23158 7977,-34310 -1037,-5771 -3939,-10692 -7475,-13784 -14192,-12410 -29155,-4352 -37503,16869 -22166,56348 -115796,58513 -115796,-40704 0,-37878 15400,-84718 53913,-84718 26311,0 36712,-1138 54257,20832 11473,14367 10512,31154 32386,31154 39484,0 20555,-92421 -78942,-92421 -72986,0 -111675,57353 -111675,121302z"/>
   <path class="fil1" d="M285663 151358c51870,0 57460,109749 -1925,109749 -13985,0 -25501,-8618 -30825,-17312 -16233,-26514 -13575,-92437 32750,-92437zm-86644 3850c0,30582 -1982,170457 2318,192149 3172,15994 28259,19793 37298,3427 5024,-9096 2743,-69168 2743,-81975 4968,3639 3998,5405 9097,10157 3347,3118 7092,5208 11266,7987 22024,14665 59917,12121 83337,-8791 296,-264 738,-627 1030,-895 293,-268 722,-643 1009,-917l1926 -1924c43887,-45825 24104,-155800 -46052,-155800 -44458,0 -41062,13194 -61613,26956 0,-24068 -7109,-26956 -23105,-26956 -17285,0 -19254,19065 -19254,36582z"/>
   <path class="fil1" d="M468578 266883c-25771,0 -49458,-36477 -155,-46365l44439 -11397c0,29379 -3819,57762 -44284,57762zm-65465 -103973c0,21091 17603,19254 28882,19254l15043 -21539c11607,-13303 65824,-22254 65824,13838l0 7701c-8983,201 -59072,12895 -70867,15778 -12965,3168 -20565,5856 -30039,14245 -195,173 -14619,8543 -14619,39293 0,20578 17055,35396 34061,41031 32655,10822 62573,-4622 85316,-19852 4430,6615 15226,23105 25030,23105 38628,0 15513,-39867 15331,-65391 -321,-44942 12838,-111747 -61542,-111747 -23364,0 -48789,-853 -68579,10362 -10224,5794 -23841,19214 -23841,33922z"/>
   <path class="fil1" d="M828632 137880c0,6983 14643,40456 18149,49240l39513 97366c3148,8634 -29,13247 -5638,24794 -1747,3595 -3449,7982 -6334,10994 -12407,12953 -26711,1584 -39766,6341 -18471,6729 -16523,34614 19107,34614 35913,0 53060,-5073 67970,-39854 5163,-12047 8510,-22450 13451,-34684l39880 -104527c4511,-11263 8966,-22826 12739,-35456 8858,-29644 -23709,-36762 -34419,-18956l-43785 117951c-2533,-10877 -7075,-22216 -10824,-33459l-23577 -68844c-6645,-20237 -9259,-24774 -27212,-24774 -9855,0 -19254,10126 -19254,19254z"/>
   <path class="fil1" d="M16103 164835c0,18870 7253,32178 19571,40119 30723,19803 75068,15247 83822,35663 12433,28997 -41709,34648 -60628,14309 -4092,-4398 -6251,-8327 -9589,-13517 -13262,-20625 -31106,-2232 -35101,444 0,20478 1933,30973 23851,43539 28109,16116 126332,20983 126332,-43539 0,-20807 -5104,-30720 -24992,-40473 -34382,-16860 -73850,-14024 -80660,-31173 -6655,-16761 10771,-24625 26710,-24625 19549,0 24319,14037 37047,24566 19358,16017 34194,-4218 34194,-9162 0,-24381 -32645,-42360 -57764,-42360l-19253 0c-29598,0 -63540,17778 -63540,46209z"/>
  </g>
 </g>
</svg>
