<?xml version="1.0" encoding="UTF-8"?>
<!DOCTYPE svg PUBLIC "-//W3C//DTD SVG 1.1//EN" "http://www.w3.org/Graphics/SVG/1.1/DTD/svg11.dtd">
<!-- Creator: CorelDRAW X7 -->
<svg xmlns="http://www.w3.org/2000/svg" xml:space="preserve" width="1452px" height="600px" version="1.1" style="shape-rendering:geometricPrecision; text-rendering:geometricPrecision; image-rendering:optimizeQuality; fill-rule:evenodd; clip-rule:evenodd"
viewBox="0 0 958385 395923"
 xmlns:xlink="http://www.w3.org/1999/xlink">
 <defs>
  <style type="text/css">
   <![CDATA[
    .fil1 {fill:#03A9F4}
    .fil3 {fill:#4FC3F7}
    .fil4 {fill:#B3E5FB}
    .fil2 {fill:#FBBE2C}
    .fil0 {fill:white}
    .fil5 {fill:#373435;fill-rule:nonzero}
   ]]>
  </style>
 </defs>
 <g id="Capa_x0020_1">
  <metadata id="CorelCorpID_0Corel-Layer"/>
  <g id="_1591331918160">
   <rect class="fil0" width="958385" height="395923"/>
   <path class="fil1" d="M132636 329980l58763 0 0 -175719 16790 0 0 -87860c-5903,0 -70183,-1808 -75548,1758l-5 261821z"/>
   <path class="fil2" d="M132636 329980l5 -261821c-1144,1375 -850,778 -2064,3113l-95314 258708c32458,0 64916,0 97373,0z"/>
   <polygon class="fil3" points="191399,329980 250160,329980 250160,242120 266950,242120 266950,154261 208189,154261 191399,154261 "/>
   <polygon class="fil4" points="250160,329980 325711,329980 325711,242120 266950,242120 250160,242120 "/>
   <path class="fil5" d="M292063 289298l75563 -196979 28658 0 80195 196979 -29666 0 -22789 -59699 -82946 0 -21367 59699 -27648 0zm56672 -80883l67128 0 -20542 -54609c-6190,-16598 -10867,-30308 -14123,-41129 -2705,12838 -6327,25448 -10866,37920l-21597 57818zm144846 80883l0 -196979 24210 0 0 196979 -24210 0zm114217 -21596l3302 21367c-6786,1422 -12885,2155 -18203,2155 -8758,0 -15544,-1375 -20405,-4173 -4814,-2796 -8207,-6419 -10179,-10958 -1971,-4540 -2934,-14077 -2934,-28611l0 -82259 -17882 0 0 -18707 17882 0 0 -35307 24209 -14534 0 49841 24210 0 0 18707 -24210 0 0 83634c0,6923 414,11371 1284,13343 825,1971 2201,3531 4127,4722 1926,1147 4677,1743 8253,1743 2660,0 6190,-321 10546,-963zm117152 3714c-8987,7658 -17653,13022 -25952,16186 -8300,3164 -17195,4723 -26732,4723 -15681,0 -27740,-3806 -36177,-11463 -8437,-7612 -12655,-17378 -12655,-29254 0,-6970 1605,-13343 4768,-19120 3210,-5778 7383,-10363 12518,-13847 5181,-3486 10959,-6145 17424,-7933 4769,-1238 11967,-2430 21550,-3622 19533,-2292 33976,-5090 43192,-8299 92,-3301 138,-5410 138,-6282 0,-9812 -2293,-16736 -6878,-20771 -6189,-5456 -15406,-8162 -27603,-8162 -11417,0 -19854,2018 -25264,6007 -5457,3989 -9445,11050 -12059,21229l-23660 -3301c2156,-10133 5686,-18341 10638,-24577 4952,-6236 12105,-11004 21458,-14397 9308,-3347 20175,-5044 32464,-5044 12196,0 22146,1422 29804,4310 7611,2889 13251,6465 16827,10821 3577,4356 6098,9859 7566,16507 779,4126 1192,11555 1192,22238l0 32097c0,22421 504,36589 1513,42596 963,6006 2980,11738 5915,17240l-25311 0c-2430,-5089 -3988,-11050 -4676,-17882zm-1926 -53647c-8803,3577 -22008,6603 -39616,9079 -9996,1421 -17057,3026 -21184,4815 -4126,1788 -7290,4402 -9537,7794 -2247,3440 -3392,7245 -3392,11463 0,6374 2430,11738 7336,16002 4906,4265 12058,6420 21458,6420 9308,0 17607,-2018 24898,-6099 7245,-4034 12609,-9583 16002,-16598 2614,-5456 3897,-13480 3897,-24072l138 -8804zm61671 -97939l0 -27511 24210 0 0 27511 -24210 0zm0 169468l0 -142782 24210 0 0 142782 -24210 0zm60845 0l0 -142782 21734 0 0 21871c5548,-10133 10683,-16828 15406,-20037 4723,-3256 9904,-4861 15544,-4861 8162,0 16461,2568 24897,7658l-8619 22330c-5870,-3302 -11739,-4952 -17607,-4952 -5274,0 -9997,1604 -14169,4768 -4172,3164 -7153,7566 -8941,13206 -2706,8573 -4035,17974 -4035,28198l0 74601 -24210 0z"/>
  </g>
 </g>
</svg>
