<?xml version="1.0" encoding="UTF-8"?>
<!DOCTYPE svg PUBLIC "-//W3C//DTD SVG 1.1//EN" "http://www.w3.org/Graphics/SVG/1.1/DTD/svg11.dtd">
<!-- Creator: CorelDRAW X7 -->
<svg xmlns="http://www.w3.org/2000/svg" xml:space="preserve" width="1452px" height="600px" version="1.1" style="shape-rendering:geometricPrecision; text-rendering:geometricPrecision; image-rendering:optimizeQuality; fill-rule:evenodd; clip-rule:evenodd"
viewBox="0 0 980669 405129"
 xmlns:xlink="http://www.w3.org/1999/xlink">
 <defs>
  <style type="text/css">
   <![CDATA[
    .str0 {stroke:#B1B1B1;stroke-width:797.498}
    .fil6 {fill:none}
    .fil7 {fill:#004CFF}
    .fil1 {fill:#11557C}
    .fil3 {fill:#799FB5}
    .fil2 {fill:#FDFEFE}
    .fil15 {fill:#FF6800}
    .fil0 {fill:white}
    .fil8 {fill:black;fill-rule:nonzero}
    .fil4 {fill:#15587F;fill-rule:nonzero}
    .fil5 {fill:#B1B1B1;fill-rule:nonzero}
    .fil9 {fill:#CEFF29;fill-opacity:0.560784}
    .fil11 {fill:#FF6800;fill-opacity:0.560784}
    .fil12 {fill:#FFC400;fill-opacity:0.560784}
    .fil10 {fill:black;fill-rule:nonzero;fill-opacity:0.560784}
    .fil13 {fill:#29FFCE;fill-opacity:0.600000}
    .fil14 {fill:black;fill-rule:nonzero;fill-opacity:0.600000}
   ]]>
  </style>
 </defs>
 <g id="Capa_x0020_1">
  <metadata id="CorelCorpID_0Corel-Layer"/>
  <g id="_1853325962464">
   <rect class="fil0" width="980669" height="405129"/>
   <g>
    <path class="fil1" d="M55748 169305c-1656,1169 2102,1594 -2079,836l902 -1795c31,-3209 767,-9932 -504,-12578l-21457 1145 -5871 100834 24438 -1453c8795,-28503 -7304,-72204 23755,-79425 32840,-7635 6091,70461 13921,79398l24385 -124c8108,-29837 -6771,-70852 23228,-79137 33447,-9237 6888,69340 14398,79410l23889 -89c5238,-8070 6819,-77445 2936,-86540 -4635,-10855 -15369,-17555 -30760,-16215 -18014,1568 -24347,14289 -30994,16560 -7375,-10390 -11514,-17547 -29729,-16680 -11449,545 -26804,10029 -30458,15853z"/>
    <path class="fil1" d="M904829 176432c30586,-7201 26517,59667 366,61064 -29530,1576 -28817,-54365 -366,-61064zm-49264 80130l20114 1181c1871,-2373 2032,-10291 2454,-13610 11286,7662 22501,25981 49475,11428 30476,-16442 35220,-79868 10381,-96791 -23189,-15799 -38249,2900 -50273,7668 81,-8780 6012,-51881 2010,-54829 -3984,-2932 -22385,-2911 -24462,2436 -715,1840 -11824,138315 -9699,142517z"/>
    <path class="fil1" d="M434130 176851c30174,-9065 26786,59141 526,60655 -27852,1605 -30734,-51580 -526,-60655zm-21456 -6663c231,-2989 1307,-12489 -167,-14489 -2835,13 -20301,-808 -21194,993l-9382 138892 24378 -27 4787 -48106c14160,7846 25734,22638 50185,5513 12981,-9091 19945,-27041 21603,-48155 1789,-22797 -4183,-42064 -20274,-48851 -26662,-11246 -39332,9962 -49936,14230z"/>
    <path class="fil1" d="M260181 213708c-2141,62885 -80258,0 0,0zm1194 -16572c-30685,2102 -65189,1388 -62670,37702 2225,32081 45077,30174 62827,12461l421 9711c19995,8537 21310,-2812 22470,-17374 993,-12462 1924,-25342 2808,-37950 2148,-30639 -205,-45785 -31780,-48048 -12464,-893 -24443,1152 -34897,5228 -15410,6009 -15622,23029 -8298,23795 7013,734 55909,-30236 49119,14475z"/>
    <path class="fil1" d="M320286 155460l-14972 889 -1585 19319c3327,2384 10476,1544 14651,1737 1166,20096 -9290,56273 514,71950 7998,12789 53085,21156 45382,-13876 -11088,-1323 -24075,12060 -22413,-16624l3413 -41486c4832,-80 20296,243 23903,-829l1807 -19618c-2941,-2164 -19711,-1282 -24356,-1369 1635,-17225 6795,-25629 -11625,-25472 -18013,154 -13742,7843 -14719,25379z"/>
    <path class="fil1" d="M683593 155633l-11606 159c13655,21860 23081,50459 10572,80952 -1343,3272 -1848,5909 -2115,8554 -201,1977 522,3634 1686,4870 2977,3163 9086,7679 19583,9413 6015,529 17646,-177 22158,-3135 3809,-2498 6064,-15822 2896,-20386 -891,-3167 -23849,13529 -21597,-16976 981,-13285 1460,-29030 3429,-41854 4541,-57 21109,599 24147,-982l1432 -19568c-2650,-1650 -19817,-1039 -24100,-1113 313,-16841 7973,-25659 -11934,-25480 -17062,153 -14131,8529 -14551,25546z"/>
    <path class="fil1" d="M748751 256140l24449 168c3380,-10772 5137,-63215 6414,-78978 1051,-12989 2051,-26421 2930,-39526 1173,-17486 7883,-27990 -11091,-27978 -18677,13 -14142,8881 -15364,27095 -893,13305 -1899,26564 -2963,39829 -777,9702 -7072,76586 -4375,79390z"/>
    <path class="fil1" d="M502401 256136l26047 41c4791,-21205 -13542,-42548 -2225,-76331 5904,-17626 7684,-12141 9413,-34846 807,-10588 7437,-33596 -5016,-34933 -23201,-2489 -19062,3743 -20572,22775 -1360,17160 -10191,120657 -7647,123294z"/>
    <path class="fil1" d="M802367 256239l24466 13c3226,-20044 5026,-60527 6756,-83680 1077,-14427 4665,-17331 -11838,-17362 -18153,-34 -13273,1232 -16727,44436 -691,8635 -6182,52658 -2657,56593z"/>
    <path class="fil2" d="M904829 176432c-28451,6699 -29164,62640 366,61064 26151,-1397 30220,-68265 -366,-61064z"/>
    <path class="fil2" d="M434130 176851c-30208,9075 -27326,62260 526,60655 26260,-1514 29648,-69720 -526,-60655z"/>
    <path class="fil2" d="M260181 213708c-80258,0 -2141,62885 0,0z"/>
    <path class="fil1" d="M817251 114368c-11980,3068 -17203,33004 12391,26242 13722,-3135 16218,-33567 -12391,-26242z"/>
    <path class="fil3" d="M55748 169305c-1430,403 -963,614 -1177,-959l-902 1795c4181,758 423,333 2079,-836z"/>
    <g>
     <g>
      <path class="fil4" d="M684360 205202l-2021 0 0 0 -99 -3964 -298 -3910 -489 -3853 -678 -3792 -859 -3724 -1038 -3653 -1210 -3577 -1378 -3496 -1542 -3410 -1700 -3320 -1854 -3224 -2003 -3124 -2147 -3019 -2285 -2908 -2420 -2793 -2549 -2675 -2675 -2549 -2793 -2420 -2908 -2285 -3019 -2147 -3123 -2003 -3225 -1853 -3319 -1700 -3410 -1542 -3495 -1378 -3577 -1210 -3653 -1037 -3724 -860 -3791 -677 -3852 -490 -3910 -297 -3963 -100 0 -2014 4065 103 4012 305 3954 502 3892 695 3822 882 3749 1066 3673 1242 3588 1415 3499 1581 3407 1745 3309 1903 3206 2055 3097 2203 2984 2345 2867 2483 2744 2616 2616 2743 2482 2867 2346 2984 2202 3098 2056 3205 1902 3309 1744 3407 1582 3499 1415 3587 1242 3672 1065 3750 882 3821 694 3891 503 3954 305 4012 103 4064 0 0zm-79007 79003l0 -2014 0 0 3963 -100 3910 -297 3852 -490 3791 -677 3724 -860 3653 -1037 3577 -1210 3495 -1378 3410 -1542 3319 -1700 3225 -1854 3123 -2002 3019 -2147 2908 -2285 2793 -2420 2675 -2549 2549 -2675 2420 -2793 2285 -2908 2147 -3019 2003 -3124 1854 -3224 1700 -3319 1542 -3410 1378 -3497 1210 -3577 1038 -3652 859 -3725 678 -3792 489 -3852 298 -3911 99 -3963 2021 0 -103 4064 -305 4012 -503 3953 -694 3890 -882 3823 -1065 3750 -1242 3671 -1415 3588 -1582 3499 -1744 3407 -1902 3308 -2056 3205 -2202 3098 -2346 2985 -2482 2866 -2616 2743 -2744 2616 -2867 2483 -2984 2345 -3097 2203 -3206 2055 -3309 1903 -3407 1745 -3499 1581 -3588 1415 -3673 1242 -3749 1066 -3822 882 -3892 694 -3954 503 -4012 305 -4065 103 0 0zm-79007 -79003l2020 0 0 0 100 3963 298 3911 489 3852 677 3792 860 3725 1038 3652 1210 3577 1378 3497 1542 3410 1700 3319 1854 3224 2003 3124 2147 3019 2284 2908 2421 2793 2549 2675 2674 2549 2794 2420 2908 2285 3019 2147 3123 2002 3224 1854 3320 1700 3410 1542 3495 1378 3577 1210 3653 1037 3724 860 3791 677 3852 490 3910 297 3963 100 0 2014 -4065 -103 -4012 -305 -3954 -503 -3892 -694 -3822 -882 -3749 -1066 -3673 -1242 -3588 -1415 -3499 -1581 -3407 -1745 -3309 -1903 -3206 -2055 -3097 -2203 -2985 -2345 -2867 -2483 -2743 -2616 -2616 -2743 -2482 -2866 -2346 -2985 -2203 -3098 -2055 -3205 -1902 -3308 -1745 -3407 -1581 -3499 -1415 -3588 -1242 -3671 -1065 -3750 -882 -3823 -695 -3890 -502 -3953 -306 -4012 -102 -4064 0 0zm79007 -79004l0 2014 0 0 -3963 100 -3910 297 -3852 490 -3791 677 -3724 860 -3653 1037 -3577 1210 -3495 1378 -3410 1542 -3320 1700 -3224 1853 -3123 2003 -3019 2147 -2908 2285 -2794 2420 -2674 2549 -2549 2675 -2421 2793 -2284 2908 -2147 3019 -2003 3124 -1854 3224 -1700 3320 -1542 3410 -1378 3496 -1210 3577 -1038 3653 -860 3724 -677 3792 -489 3853 -298 3910 -100 3964 -2020 0 102 -4064 306 -4012 502 -3954 695 -3891 882 -3821 1065 -3750 1242 -3672 1415 -3587 1581 -3499 1745 -3407 1902 -3309 2055 -3205 2203 -3098 2346 -2984 2482 -2867 2616 -2743 2743 -2616 2867 -2483 2985 -2345 3097 -2203 3206 -2055 3309 -1903 3407 -1745 3499 -1581 3588 -1415 3673 -1242 3749 -1066 3822 -882 3892 -695 3954 -502 4012 -305 4065 -103 0 0z"/>
     </g>
     <g>
      <path class="fil5" d="M665206 203754l-1007 0 0 0 -75 -3021 -227 -2984 -371 -2939 -514 -2891 -653 -2840 -789 -2787 -919 -2729 -1047 -2666 -1170 -2600 -1292 -2532 -1408 -2460 -1521 -2382 -1630 -2302 -1736 -2219 -1838 -2130 -1937 -2039 -2030 -1945 -2122 -1846 -2208 -1742 -2293 -1638 -2373 -1527 -2448 -1414 -2521 -1297 -2590 -1175 -2655 -1051 -2716 -923 -2775 -792 -2829 -655 -2879 -516 -2926 -374 -2970 -226 -3008 -77 0 -1004 3060 78 3020 230 2977 381 2929 524 2878 668 2822 805 2765 938 2701 1070 2635 1197 2565 1319 2490 1438 2414 1552 2331 1666 2247 1773 2158 1877 2066 1977 1968 2075 1870 2167 1765 2256 1659 2341 1546 2424 1433 2501 1313 2575 1192 2645 1064 2712 935 2776 801 2834 665 2889 523 2942 378 2988 230 3033 77 3072 0 0zm-59477 59724l0 -1005 0 0 3008 -76 2970 -226 2926 -374 2879 -517 2829 -654 2775 -792 2716 -923 2655 -1051 2590 -1176 2521 -1296 2448 -1414 2373 -1528 2293 -1637 2208 -1742 2122 -1847 2030 -1944 1937 -2039 1838 -2130 1736 -2219 1630 -2302 1521 -2382 1408 -2460 1292 -2532 1170 -2601 1047 -2666 919 -2729 789 -2786 653 -2840 514 -2892 371 -2938 227 -2984 75 -3022 1007 0 -77 3073 -230 3033 -378 2988 -523 2941 -665 2890 -801 2834 -935 2775 -1064 2713 -1192 2645 -1313 2575 -1433 2501 -1546 2424 -1659 2340 -1765 2257 -1870 2167 -1968 2074 -2066 1978 -2158 1877 -2247 1772 -2331 1666 -2414 1553 -2490 1438 -2565 1319 -2635 1196 -2701 1071 -2765 938 -2822 805 -2878 667 -2929 525 -2977 381 -3020 230 -3060 78 0 0zm-59478 -59724l1007 0 0 0 75 3022 227 2984 371 2938 514 2892 653 2840 789 2786 919 2729 1047 2666 1170 2601 1292 2532 1408 2460 1521 2382 1630 2302 1736 2219 1837 2130 1938 2039 2030 1945 2121 1846 2209 1742 2293 1637 2372 1528 2449 1414 2521 1296 2590 1176 2654 1051 2717 923 2775 792 2828 654 2880 517 2926 374 2969 226 3010 76 0 1005 -3061 -78 -3020 -230 -2977 -381 -2930 -525 -2877 -667 -2823 -805 -2764 -938 -2701 -1071 -2635 -1196 -2565 -1319 -2491 -1438 -2413 -1553 -2331 -1666 -2247 -1772 -2158 -1878 -2066 -1977 -1969 -2074 -1869 -2167 -1765 -2257 -1659 -2340 -1546 -2424 -1433 -2501 -1313 -2575 -1192 -2645 -1064 -2713 -935 -2775 -801 -2834 -665 -2890 -523 -2941 -378 -2988 -230 -3033 -77 -3073 0 0zm59478 -59723l0 1004 0 0 -3010 77 -2969 226 -2926 374 -2880 516 -2828 655 -2775 792 -2717 923 -2654 1051 -2590 1175 -2521 1297 -2449 1414 -2372 1527 -2293 1638 -2209 1742 -2121 1846 -2030 1945 -1938 2039 -1837 2130 -1736 2219 -1630 2302 -1521 2382 -1408 2460 -1292 2532 -1170 2600 -1047 2666 -919 2729 -789 2787 -653 2840 -514 2891 -371 2939 -227 2984 -75 3021 -1007 0 77 -3072 230 -3033 378 -2988 523 -2942 665 -2889 801 -2834 935 -2776 1064 -2712 1192 -2645 1313 -2575 1433 -2501 1546 -2424 1659 -2341 1765 -2256 1869 -2167 1969 -2075 2066 -1977 2158 -1877 2247 -1773 2331 -1666 2413 -1552 2491 -1438 2565 -1319 2635 -1197 2701 -1070 2764 -938 2823 -805 2877 -668 2930 -524 2977 -381 3020 -230 3061 -78 0 0z"/>
     </g>
     <g>
      <path class="fil5" d="M649249 204242l-1010 0 0 0 -55 -2203 -165 -2175 -271 -2142 -374 -2108 -476 -2071 -575 -2031 -670 -1990 -763 -1943 -853 -1897 -941 -1845 -1026 -1793 -1110 -1737 -1187 -1678 -1266 -1617 -1339 -1554 -1410 -1486 -1481 -1418 -1547 -1346 -1609 -1270 -1671 -1194 -1728 -1113 -1786 -1030 -1836 -945 -1888 -858 -1935 -766 -1979 -673 -2022 -577 -2061 -478 -2098 -376 -2132 -273 -2165 -165 -2193 -56 0 -1006 2244 57 2216 169 2183 279 2149 385 2111 490 2069 591 2028 689 1981 784 1932 878 1881 967 1827 1056 1770 1139 1711 1222 1647 1301 1582 1377 1516 1450 1444 1522 1371 1590 1294 1655 1216 1718 1135 1777 1050 1836 964 1888 873 1942 781 1989 686 2036 587 2079 488 2120 383 2158 278 2192 168 2224 57 2254 0 0zm-43622 43816l0 -1007 0 0 2193 -55 2165 -166 2132 -272 2098 -376 2061 -478 2022 -577 1979 -673 1935 -766 1888 -858 1836 -945 1786 -1030 1728 -1114 1671 -1193 1609 -1271 1547 -1345 1481 -1418 1410 -1487 1339 -1553 1266 -1618 1187 -1677 1110 -1738 1026 -1792 941 -1846 853 -1896 763 -1944 670 -1989 575 -2032 476 -2071 374 -2107 271 -2143 165 -2175 55 -2204 1010 0 -57 2255 -168 2224 -278 2193 -383 2157 -488 2120 -587 2079 -686 2036 -781 1990 -873 1940 -964 1890 -1050 1835 -1135 1777 -1216 1718 -1294 1656 -1371 1590 -1444 1522 -1516 1450 -1582 1377 -1647 1301 -1711 1222 -1770 1139 -1827 1056 -1881 967 -1932 878 -1981 784 -2028 689 -2069 591 -2111 490 -2149 385 -2183 279 -2216 168 -2244 58 0 0zm-43622 -43816l1010 0 0 0 55 2204 165 2175 271 2143 374 2107 476 2071 575 2032 670 1989 763 1944 853 1896 941 1846 1026 1792 1109 1738 1188 1677 1265 1618 1339 1553 1411 1487 1480 1418 1547 1345 1610 1271 1671 1193 1729 1114 1784 1030 1837 945 1888 858 1934 766 1980 673 2022 577 2062 478 2097 376 2133 272 2164 166 2193 55 0 1007 -2244 -58 -2215 -168 -2184 -279 -2148 -385 -2111 -490 -2071 -591 -2027 -689 -1981 -784 -1932 -878 -1882 -967 -1826 -1056 -1770 -1139 -1711 -1222 -1648 -1301 -1582 -1377 -1515 -1450 -1444 -1522 -1371 -1590 -1295 -1656 -1216 -1718 -1135 -1777 -1050 -1835 -963 -1890 -873 -1940 -781 -1990 -686 -2036 -588 -2079 -487 -2120 -384 -2157 -277 -2193 -168 -2224 -57 -2255 0 0zm43622 -43814l0 1006 0 0 -2193 56 -2164 165 -2133 273 -2097 376 -2062 478 -2022 577 -1980 673 -1934 766 -1888 858 -1837 945 -1784 1030 -1729 1113 -1671 1194 -1610 1270 -1547 1346 -1480 1418 -1411 1486 -1339 1554 -1265 1617 -1188 1678 -1109 1737 -1026 1793 -941 1845 -853 1897 -763 1943 -670 1990 -575 2031 -476 2071 -374 2108 -271 2142 -165 2175 -55 2203 -1010 0 57 -2254 168 -2224 277 -2192 384 -2158 487 -2120 588 -2079 686 -2036 781 -1989 873 -1942 963 -1888 1050 -1836 1135 -1777 1216 -1718 1295 -1655 1371 -1590 1444 -1522 1515 -1450 1582 -1377 1648 -1301 1711 -1222 1770 -1139 1826 -1056 1882 -967 1932 -878 1981 -784 2027 -689 2071 -591 2111 -490 2148 -385 2184 -279 2215 -169 2244 -57 0 0z"/>
     </g>
     <g>
      <path class="fil5" d="M632205 205632l-1004 0 0 0 -34 -1321 -100 -1303 -164 -1283 -226 -1264 -287 -1241 -347 -1217 -405 -1192 -462 -1165 -516 -1136 -569 -1106 -620 -1075 -671 -1040 -718 -1007 -765 -969 -811 -930 -853 -891 -895 -851 -934 -806 -975 -761 -1010 -716 -1046 -668 -1079 -618 -1111 -566 -1142 -514 -1170 -460 -1198 -403 -1222 -346 -1247 -287 -1269 -225 -1290 -163 -1310 -99 -1326 -34 0 -1006 1377 35 1360 102 1339 170 1319 234 1296 299 1270 359 1244 418 1216 478 1187 534 1154 589 1122 642 1086 693 1050 743 1011 791 971 838 930 883 887 926 842 968 795 1007 746 1044 696 1083 646 1116 591 1150 537 1181 479 1212 421 1239 361 1265 300 1290 235 1314 170 1334 103 1354 35 1372 0 0zm-26776 26662l0 -1007 0 0 1326 -33 1310 -99 1290 -164 1269 -225 1247 -287 1222 -346 1198 -403 1170 -460 1142 -513 1111 -566 1079 -619 1046 -667 1010 -716 975 -761 934 -806 895 -850 853 -892 811 -931 765 -969 718 -1006 671 -1041 620 -1074 569 -1106 516 -1137 462 -1164 405 -1191 347 -1218 287 -1241 226 -1263 164 -1284 100 -1303 34 -1320 1004 0 -35 1371 -103 1355 -170 1334 -235 1312 -300 1291 -361 1265 -421 1240 -479 1210 -537 1181 -591 1151 -646 1116 -696 1082 -746 1045 -795 1007 -842 967 -887 927 -930 882 -971 838 -1011 791 -1050 744 -1086 693 -1122 642 -1154 588 -1187 535 -1216 477 -1244 419 -1270 359 -1296 298 -1319 235 -1339 169 -1360 103 -1377 35 0 0zm-26776 -26662l1005 0 0 0 33 1320 100 1303 164 1284 226 1263 288 1241 346 1218 406 1191 461 1164 516 1137 569 1106 621 1074 669 1041 719 1006 765 969 811 931 852 892 896 850 935 806 973 761 1011 716 1046 667 1078 619 1112 566 1141 513 1170 460 1198 403 1223 346 1247 287 1269 225 1290 164 1309 99 1327 33 0 1007 -1378 -35 -1359 -103 -1339 -169 -1320 -235 -1295 -298 -1271 -359 -1244 -419 -1216 -477 -1186 -535 -1155 -588 -1121 -642 -1086 -693 -1050 -744 -1012 -791 -970 -838 -931 -882 -886 -927 -842 -967 -794 -1006 -748 -1046 -696 -1082 -645 -1116 -591 -1151 -537 -1181 -479 -1210 -421 -1240 -361 -1265 -299 -1291 -236 -1312 -170 -1334 -103 -1355 -35 -1371 0 0zm26776 -26663l0 1006 0 0 -1327 34 -1309 99 -1290 163 -1269 225 -1247 287 -1223 346 -1198 403 -1170 460 -1141 514 -1112 566 -1078 618 -1046 668 -1011 716 -973 761 -935 806 -896 851 -852 891 -811 930 -765 970 -719 1006 -669 1040 -621 1075 -569 1106 -516 1136 -461 1165 -406 1192 -346 1217 -288 1241 -226 1264 -164 1283 -100 1303 -33 1321 -1005 0 35 -1372 103 -1354 170 -1334 236 -1314 299 -1290 361 -1265 421 -1239 479 -1212 537 -1181 591 -1150 645 -1116 696 -1083 748 -1045 794 -1006 842 -968 886 -926 931 -883 970 -838 1012 -791 1050 -743 1086 -693 1121 -642 1155 -589 1186 -534 1216 -478 1244 -418 1271 -359 1295 -299 1320 -234 1339 -170 1359 -102 1378 -35 0 0z"/>
     </g>
     <g>
      <path class="fil5" d="M614774 204626l-1007 0 0 0 -11 -428 -33 -423 -54 -415 -74 -410 -95 -402 -113 -395 -134 -386 -152 -378 -169 -368 -188 -359 -204 -348 -221 -338 -236 -326 -253 -315 -265 -303 -282 -288 -296 -277 -307 -262 -320 -247 -335 -233 -345 -217 -355 -201 -367 -183 -375 -167 -387 -150 -395 -130 -403 -113 -411 -93 -419 -74 -426 -53 -431 -32 -439 -11 0 -1010 488 11 483 37 474 60 468 81 459 105 451 125 441 147 431 166 420 187 410 206 398 225 385 242 373 260 359 276 345 294 329 308 315 324 300 339 281 352 266 366 247 379 230 390 209 404 191 414 171 424 149 434 130 444 106 453 83 459 61 468 36 474 13 481 0 0zm-9502 9334l0 -1010 0 0 439 -11 431 -32 426 -53 419 -74 411 -93 403 -112 395 -131 387 -149 375 -168 367 -183 355 -201 345 -217 335 -233 320 -247 307 -262 296 -276 282 -289 265 -302 253 -315 237 -327 220 -337 204 -349 188 -358 169 -369 152 -378 134 -386 114 -394 94 -402 74 -410 54 -415 33 -423 11 -428 1007 0 -13 481 -36 474 -61 468 -83 459 -107 453 -129 444 -149 433 -171 425 -191 414 -209 403 -230 391 -247 379 -266 366 -281 351 -300 339 -315 324 -329 309 -345 293 -359 276 -373 260 -385 243 -398 224 -410 206 -420 187 -431 167 -441 146 -451 125 -459 105 -468 81 -474 60 -483 37 -488 11 0 0zm-9502 -9334l1007 0 0 0 11 428 32 423 55 415 74 410 94 402 114 394 134 386 152 378 169 369 188 358 204 349 220 337 237 327 252 314 267 303 281 289 295 276 309 262 321 247 332 233 345 217 356 201 367 183 376 168 387 149 394 131 403 112 412 93 418 74 426 53 432 32 438 11 0 1010 -488 -11 -482 -37 -474 -60 -468 -81 -459 -105 -451 -125 -441 -146 -431 -167 -422 -187 -409 -206 -398 -224 -386 -243 -372 -260 -358 -276 -345 -293 -331 -309 -314 -324 -299 -338 -282 -352 -266 -366 -247 -379 -230 -391 -209 -403 -191 -414 -171 -425 -150 -433 -128 -444 -107 -453 -84 -459 -60 -468 -36 -474 -13 -481 0 0zm9502 -9335l0 1010 0 0 -438 11 -432 32 -426 53 -418 74 -412 93 -403 113 -394 130 -387 150 -376 167 -367 183 -356 201 -345 217 -332 233 -321 247 -309 262 -295 277 -281 288 -267 303 -252 315 -236 326 -221 338 -204 348 -188 359 -169 368 -152 378 -134 386 -113 395 -95 402 -74 410 -55 415 -32 423 -11 428 -1007 0 13 -481 36 -474 60 -468 84 -459 106 -453 129 -444 150 -434 171 -424 191 -414 209 -404 230 -390 246 -379 267 -366 282 -353 299 -338 314 -324 331 -308 345 -294 358 -276 372 -260 386 -242 398 -225 409 -206 422 -187 431 -166 441 -147 451 -125 459 -105 468 -81 474 -60 482 -37 488 -11 0 0z"/>
     </g>
     <g>
      <line class="fil6 str0" x1="527356" y1="205200" x2="683351" y2= "205200" />
     </g>
     <g>
      <line class="fil6 str0" x1="605353" y1="127204" x2="605353" y2= "283198" />
     </g>
     <g>
      <line class="fil6 str0" x1="659737" y1="261111" x2="551363" y2= "148911" />
     </g>
     <g>
      <line class="fil6 str0" x1="549591" y1="259736" x2="660119" y2= "149666" />
     </g>
     <g>
      <polygon class="fil7" points="604770,202493 621354,197494 621377,197538 621447,197758 621470,197868 621540,198088 621563,198199 621633,198418 621726,198771 621796,199079 621865,199432 621912,199696 621935,199806 621958,200026 621958,200137 622005,200401 622005,200511 622028,200731 622051,200841 622074,201061 622097,201215 622097,201369 622120,201589 622120,201699 622120,201919 622120,202073 622120,202227 622120,202382 622120,202601 604909,202603 "/>
      <path id="1" class="fil8" d="M621500 197976l-16584 4998 -292 -963 16584 -4999 593 248 -301 716zm-292 -964c266,-80 549,71 629,336 81,266 -71,547 -337,628l-292 -964zm-278 760l-24 -44 895 -468 23 43 35 83 -929 386zm894 -469c130,246 35,551 -212,681 -246,129 -553,34 -682,-212l894 -469zm-858 607l-71 -220 964 -304 70 220 13 49 -976 255zm963 -304c84,264 -63,548 -329,632 -265,84 -550,-63 -634,-328l963 -304zm-953 365l-23 -110 989 -206 23 110 -976 254 -13 -48zm989 -206c56,272 -118,539 -391,596 -273,57 -541,-118 -598,-390l989 -206zm-907 474l-69 -220 963 -302 69 220 13 49 -976 253zm963 -302c83,265 -64,548 -330,631 -265,83 -550,-64 -633,-329l963 -302zm-953 364l-23 -111 989 -204 23 111 -975 255 -14 -51zm989 -204c57,272 -119,539 -391,595 -273,56 -541,-119 -598,-391l989 -204zm-905 474l-70 -219 962 -306 70 219 8 26 -970 280zm962 -306c84,264 -62,548 -328,633 -265,84 -549,-63 -634,-327l962 -306zm-877 633l-93 -352 978 -255 92 352 4 17 -981 238zm977 -255c71,269 -91,545 -361,615 -269,70 -546,-91 -616,-360l977 -255zm-911 547l-70 -308 985 -222 71 309 2 14 -988 207zm986 -221c61,271 -110,541 -382,602 -272,60 -543,-110 -604,-381l986 -221zm-919 559l-70 -352 991 -193 69 352 3 9 -993 184zm990 -193c54,272 -125,538 -398,591 -272,52 -539,-126 -592,-398l990 -193zm-945 449l-48 -264 996 -176 47 264 -992 191 -3 -15zm995 -176c48,273 -135,535 -409,583 -275,48 -538,-135 -586,-407l995 -176zm-969 301l-23 -110 989 -206 23 110 8 50 -997 156zm989 -206c56,272 -118,539 -391,596 -273,56 -542,-118 -598,-390l989 -206zm-974 376l-23 -220 1005 -106 23 220 2 53 -1007 53zm1005 -106c29,276 -173,525 -450,554 -277,29 -526,-172 -555,-448l1005 -106zm-1007 164l0 -111 1009 0 0 111 -1002 87 -7 -87zm1009 0c0,277 -226,503 -505,503 -278,0 -504,-226 -504,-503l1009 0zm-956 351l-46 -264 995 -174 46 264 7 87 -1002 87zm995 -174c48,274 -136,535 -410,583 -275,48 -537,-136 -585,-409l995 -174zm-1002 197l0 -110 1009 0 0 110 -1007 53 -2 -53zm1009 0c0,277 -226,503 -504,503 -279,0 -505,-226 -505,-503l1009 0zm-984 273l-23 -220 1005 -106 23 220 -997 156 -8 -50zm1005 -106c29,276 -173,525 -450,554 -276,29 -526,-172 -555,-448l1005 -106zm-974 266l-23 -110 989 -206 23 110 8 50 -997 156zm989 -206c57,272 -118,539 -390,596 -273,57 -542,-118 -599,-390l989 -206zm-973 376l-24 -220 1005 -106 23 221 -1001 126 -3 -21zm1004 -105c29,276 -173,524 -449,553 -277,29 -527,-172 -555,-448l1004 -105zm-978 280l-23 -154 998 -148 23 154 6 74 -1004 74zm998 -148c41,274 -149,531 -424,572 -275,40 -533,-149 -574,-424l998 -148zm-1004 228l0 -154 1010 0 0 154 -1007 53 -3 -53zm1010 0c0,278 -227,503 -505,503 -278,0 -505,-225 -505,-503l1010 0zm-984 273l-23 -220 1005 -106 23 221 2 52 -1007 53zm1005 -105c28,275 -173,524 -450,553 -277,29 -526,-172 -555,-448l1005 -105zm-1008 162l0 -110 1010 0 0 110 0 0 -1010 0zm1010 0c0,278 -226,503 -505,503 -278,0 -505,-225 -505,-503l1010 0zm-1010 220l0 -220 1010 0 0 220 0 0 -1010 0zm1010 0c0,278 -226,504 -505,504 -278,0 -505,-226 -505,-504l1010 0zm-1010 154l0 -154 1010 0 0 154 0 0 -1010 0zm1010 0c0,278 -226,503 -505,503 -278,0 -505,-225 -505,-503l1010 0zm-1010 154l0 -154 1010 0 0 154 0 0 -1010 0zm1010 0c0,278 -226,503 -505,503 -278,0 -505,-225 -505,-503l1010 0zm-1010 155l0 -155 1010 0 0 155 0 0 -1010 0zm1010 0c0,277 -226,503 -505,503 -278,0 -505,-226 -505,-503l1010 0zm-1010 219l0 -219 1010 0 0 219 -505 503 -505 -503zm1010 0c0,278 -226,503 -505,503 -278,0 -505,-225 -505,-503l1010 0zm-17716 -501l17211 -2 0 1006 -17211 2 -313 -108 313 -898zm0 1006c-278,0 -504,-226 -504,-503 0,-278 226,-503 504,-503l0 1006zm174 -1008l140 110 -627 790 -139 -110 167 -877 459 87zm-626 790c-219,-173 -256,-490 -83,-708 173,-218 491,-254 709,-82l-626 790z"/>
     </g>
     <g>
      <polygon class="fil9" points="604770,202493 623424,156338 624355,156668 625285,157020 625424,157086 626168,157394 626308,157460 627192,157857 628216,158342 628913,158694 629192,158848 629774,159134 630053,159288 630750,159663 630890,159751 631728,160235 632565,160720 632705,160808 633402,161249 633541,161336 634356,161864 635170,162393 635309,162481 635960,162921 636193,163097 636705,163472 636937,163692 637170,163912 604955,202162 "/>
      <path id="1" class="fil10" d="M623892 156526l-18654 46155 -936 -376 18654 -46156 637 -286 299 663zm-936 -377c104,-257 399,-382 657,-278 259,104 383,397 279,655l-936 -377zm1230 993l-931 -330 338 -949 931 330 10 4 -348 945zm338 -949c262,93 400,382 307,644 -93,261 -383,399 -645,305l338 -949zm581 1298l-930 -353 359 -941 930 353 38 16 -397 925zm359 -941c260,98 392,390 293,649 -99,259 -392,390 -652,292l359 -941zm-257 991l-139 -66 434 -909 139 66 -410 919 -24 -10zm434 -909c251,119 359,420 239,671 -119,250 -421,357 -673,238l434 -909zm334 1227l-744 -308 387 -930 744 308 23 11 -410 919zm387 -930c258,106 380,402 273,658 -107,256 -403,378 -660,272l387 -930zm-271 986l-140 -66 434 -909 140 66 -424 914 -10 -5zm434 -909c251,119 359,420 239,671 -120,250 -422,357 -673,238l434 -909zm460 1310l-884 -396 414 -919 885 396 9 5 -424 914zm415 -919c254,114 367,413 253,666 -114,254 -414,367 -668,253l415 -919zm599 1399l-1024 -485 434 -909 1023 485 12 6 -445 903zm433 -909c252,119 359,420 240,671 -120,250 -422,357 -673,238l433 -909zm253 1256l-698 -352 457 -898 697 352 17 9 -473 889zm456 -898c249,125 348,429 223,676 -125,248 -430,347 -679,222l456 -898zm-194 1043l-278 -154 489 -880 279 154 -469 891 -21 -11zm490 -880c243,134 331,442 197,684 -135,243 -444,330 -687,196l490 -880zm114 1178l-583 -287 447 -902 582 286 22 11 -468 892zm446 -903c250,123 353,425 230,674 -123,249 -427,352 -676,229l446 -903zm-189 1046l-279 -154 490 -881 279 154 -485 883 -5 -2zm490 -881c243,134 332,442 197,684 -135,243 -444,330 -687,197l490 -881zm212 1258l-697 -375 480 -885 697 374 30 17 -510 869zm480 -886c245,132 337,438 204,682 -132,244 -439,335 -684,204l480 -886zm-370 957l-140 -88 540 -852 139 88 -523 861 -16 -9zm539 -852c236,148 306,460 158,695 -148,234 -461,305 -697,157l539 -852zm315 1345l-838 -484 507 -871 838 484 0 0 -507 871zm507 -871c241,139 323,448 184,688 -140,240 -450,322 -691,183l507 -871zm331 1356l-838 -485 507 -871 838 485 16 10 -523 861zm507 -871c241,140 323,449 183,689 -139,240 -450,322 -690,182l507 -871zm-384 949l-139 -87 539 -852 139 88 1 0 -540 851zm539 -851c236,148 306,460 158,694 -148,235 -461,306 -697,157l539 -851zm157 1292l-697 -441 541 -851 697 441 -540 851 -1 0zm541 -851c235,149 305,461 156,695 -149,235 -461,304 -697,156l541 -851zm-400 939l-140 -88 539 -851 140 87 5 4 -544 848zm539 -852c236,149 306,461 158,695 -149,234 -461,305 -697,157l539 -852zm269 1376l-814 -528 550 -844 815 528 0 0 -551 844zm551 -844c233,151 300,464 148,697 -152,232 -465,298 -699,147l551 -844zm263 1373l-814 -529 551 -844 815 529 -546 848 -6 -4zm552 -844c233,152 300,464 147,697 -152,233 -466,298 -699,147l552 -844zm-406 936l-140 -88 539 -852 140 88 14 9 -553 843zm539 -852c236,148 306,460 158,694 -149,235 -461,306 -697,158l539 -852zm97 1282l-651 -440 568 -833 651 441 22 15 -590 817zm568 -832c230,155 290,469 134,698 -156,230 -471,290 -702,134l568 -832zm-356 993l-233 -176 611 -802 232 176 -604 807 -6 -5zm610 -802c222,167 265,485 97,706 -168,221 -486,264 -707,96l610 -802zm-92 1182l-512 -375 598 -812 512 375 49 42 -647 770zm598 -812c224,164 273,480 108,704 -165,224 -482,272 -706,108l598 -812zm-415 991l-233 -221 697 -728 233 220 -697 729 0 0zm697 -729c201,191 209,510 17,711 -192,201 -513,209 -714,18l697 -729zm-464 949l-233 -220 696 -730 233 220 39 689 -735 41zm696 -730c202,191 210,510 19,711 -192,201 -512,210 -715,19l696 -730zm-32950 38291l32215 -38250 774 648 -32215 38250 -828 -569 54 -79zm774 648c-179,212 -499,240 -712,61 -213,-179 -240,-497 -62,-709l774 648zm-1013 -238l185 -331 882 490 -185 331 -909 -433 27 -57zm882 490c-136,242 -443,329 -687,194 -243,-135 -331,-442 -195,-684l882 490z"/>
     </g>
     <g>
      <polygon class="fil11" points="604770,202493 560181,151911 561205,151119 562484,150150 563275,149599 563507,149423 564298,148872 564833,148520 565368,148167 565903,147815 566438,147462 567252,146956 567531,146780 568368,146295 568647,146142 569811,145480 570974,144864 572415,144115 573299,143675 573602,143542 574765,142992 575928,142463 577440,141847 578370,141495 578673,141384 579882,140944 581115,140504 582673,139998 583603,139711 583906,139623 585162,139270 586418,138940 587999,138544 588930,138324 589255,138257 604607,201853 "/>
      <path id="1" class="fil10" d="M560561 151579l44589 50581 -760 665 -44589 -50581 70 -730 690 65zm-760 665c-183,-208 -162,-527 47,-711 209,-183 529,-162 713,46l-760 665zm1714 -728l-1024 793 -620 -795 1024 -792 5 -4 615 798zm-620 -794c220,-170 538,-131 709,88 170,219 131,536 -89,706l-620 -794zm1895 -172l-1280 969 -610 -801 1279 -969 16 -12 595 813zm-611 -801c221,-167 539,-125 707,96 168,221 125,538 -96,705l-611 -801zm1385 263l-790 550 -579 -825 790 -550 595 814 -16 11zm-579 -825c228,-159 544,-103 703,125 160,227 104,541 -124,700l-579 -825zm828 637l-233 177 -611 -803 233 -176 16 -11 595 813zm-611 -802c222,-167 539,-124 707,97 169,220 126,538 -96,705l-611 -802zm1385 262l-790 552 -579 -825 790 -551 11 -8 568 832zm-579 -824c228,-159 544,-104 704,123 159,228 103,543 -125,701l-579 -824zm1103 480l-535 352 -557 -840 535 -353 0 0 557 841zm-557 -841c233,-153 547,-89 700,143 153,232 89,545 -143,698l-557 -841zm1092 488l-535 353 -557 -841 536 -352 0 0 556 840zm-556 -840c232,-153 546,-89 699,143 153,232 89,544 -143,697l-556 -840zm1091 488l-535 352 -556 -840 535 -353 0 0 556 841zm-556 -841c232,-153 546,-89 699,143 153,232 89,545 -143,698l-556 -841zm1092 488l-536 353 -556 -841 535 -352 10 -6 547 846zm-557 -840c232,-153 546,-89 699,143 153,232 90,544 -142,697l-557 -840zm1360 340l-814 507 -536 -853 814 -507 538 852 -2 1zm-536 -853c236,-147 548,-75 696,160 147,236 76,547 -160,693l-536 -853zm817 676l-279 176 -541 -850 279 -177 17 -10 524 861zm-541 -851c236,-148 548,-78 697,156 150,234 79,546 -156,695l-541 -851zm1362 377l-838 484 -507 -871 838 -484 8 -5 499 876zm-507 -871c240,-140 551,-57 690,183 140,240 58,548 -183,688l-507 -871zm777 722l-279 154 -490 -881 279 -154 496 878 -6 3zm-490 -881c244,-134 552,-46 687,196 135,243 46,551 -197,685l-490 -881zm1659 216l-1163 662 -501 -875 1163 -661 14 -7 487 881zm-501 -874c242,-137 551,-53 689,188 138,241 54,549 -188,686l-501 -874zm1650 265l-1162 617 -474 -889 1163 -616 3 -3 470 891zm-473 -888c245,-130 552,-37 682,208 131,245 37,550 -209,680l-473 -888zm1912 142l-1442 749 -467 -894 1442 -749 8 -4 459 898zm-467 -894c247,-128 553,-32 682,214 128,247 32,551 -215,680l-467 -894zm1343 457l-884 441 -451 -902 883 -440 23 -10 429 911zm-452 -901c249,-123 553,-23 677,226 125,249 24,552 -225,675l-452 -901zm732 779l-303 133 -406 -922 304 -132 419 915 -14 6zm-405 -921c255,-111 553,4 665,259 111,254 -5,552 -260,662l-405 -921zm1582 365l-1163 550 -434 -909 1163 -550 7 -4 427 913zm-434 -909c251,-119 553,-12 673,238 120,250 12,552 -239,671l-434 -909zm1589 383l-1162 529 -420 -916 1163 -528 18 -8 401 923zm-419 -915c253,-115 553,-4 669,249 116,252 4,551 -250,666l-419 -915zm1913 307l-1512 616 -383 -931 1512 -617 12 -5 371 937zm-383 -932c258,-104 554,19 659,275 105,257 -18,552 -276,657l-383 -932zm1301 584l-930 353 -359 -942 930 -352 6 -2 353 943zm-359 -941c260,-98 553,33 652,292 99,259 -33,551 -293,649l-359 -941zm656 833l-303 110 -347 -945 304 -110 346 945zm-346 -945c261,-95 552,39 647,300 95,261 -40,550 -301,645l-346 -945zm1555 505l-1209 440 -346 -945 1209 -441 2 0 344 946zm-346 -946c261,-95 552,39 647,300 95,261 -40,551 -301,646l-346 -946zm1576 507l-1233 440 -341 -947 1233 -441 14 -4 327 952zm-341 -948c262,-93 552,43 646,304 94,262 -42,550 -305,644l-341 -948zm1885 446l-1558 507 -313 -957 1559 -507 7 -2 305 959zm-312 -957c264,-86 550,58 636,322 86,264 -59,549 -324,635l-312 -957zm1235 672l-930 287 -298 -961 930 -287 8 -3 290 964zm-298 -961c266,-83 549,66 631,331 82,266 -67,548 -333,630l-298 -961zm593 876l-303 88 -282 -967 303 -88 4 -1 278 968zm-282 -967c267,-77 548,77 626,343 77,267 -77,547 -344,624l-282 -967zm1534 616l-1256 353 -274 -970 1256 -353 8 -1 266 971zm-274 -970c268,-75 548,82 623,349 75,267 -81,546 -349,621l-274 -970zm1522 642l-1256 330 -258 -973 1256 -330 6 -2 252 975zm-258 -973c268,-71 546,90 617,358 71,268 -90,544 -359,615l-258 -973zm1833 578l-1581 396 -246 -976 1582 -396 6 -2 239 978zm-245 -976c270,-68 544,96 612,365 68,269 -96,543 -367,611l-245 -976zm1169 757l-930 220 -233 -979 931 -220 15 -3 217 982zm-232 -979c271,-64 543,103 607,373 64,271 -103,543 -375,606l-232 -979zm543 916l-326 67 -202 -986 325 -66 593 374 -390 611zm-203 -985c273,-55 541,120 597,392 55,272 -122,538 -394,593l-203 -985zm14962 64206l-15352 -63596 983 -236 15351 63596 -980 242 -2 -6zm982 -236c65,270 -102,543 -373,608 -271,64 -544,-101 -609,-372l982 -236zm-818 881l-162 -639 979 -247 163 639 -870 456 -110 -209zm980 -247c68,269 -95,544 -366,612 -270,68 -545,-96 -614,-365l980 -247z"/>
     </g>
     <g>
      <polygon class="fil12" points="604770,202493 544853,212776 544784,212424 544667,211719 544551,210992 544504,210640 544411,209913 544364,209561 544272,208834 544225,208481 544109,207381 544016,206279 543946,205179 543923,204826 543900,204100 543900,203747 543876,203020 543876,202667 543876,201941 543876,201214 543876,200862 543900,200135 543923,199782 543969,199056 544016,198328 544016,197976 544086,197249 544132,196897 544202,196170 544295,195443 544342,195090 544434,194364 544481,194011 544598,193285 544667,192932 544900,191831 545132,190774 545365,189717 545458,189364 545643,188660 545737,188308 545923,187603 546016,187250 546248,186546 546481,185841 546597,185488 546829,184828 546946,184476 547179,183815 547411,183155 547550,182825 547782,182165 547922,181834 548201,181173 548341,180843 548806,179830 549271,178839 549736,177848 549899,177518 604212,202273 "/>
      <path id="1" class="fil10" d="M544768 212280l59917 -10283 170 992 -59917 10284 -580 -400 410 -593zm170 993c-274,47 -535,-138 -583,-411 -47,-274 138,-535 413,-582l170 993zm341 -946l69 353 -990 193 -70 -353 -3 -14 994 -179zm-991 193c-53,-271 126,-537 398,-590 273,-52 540,126 593,397l-991 193zm878 -883l116 705 -997 164 -116 -705 0 -2 997 -162zm-997 164c-45,-274 141,-534 416,-579 275,-45 536,141 581,415l-997 164zm880 -888l117 726 -997 160 -117 -727 -2 -13 999 -146zm-997 159c-43,-274 144,-533 419,-576 275,-44 534,142 578,417l-997 159zm953 -498l47 352 -1002 133 -47 -353 0 -3 1002 -129zm-1002 132c-37,-275 158,-529 434,-565 276,-36 531,158 568,433l-1002 132zm909 -856l93 727 -1002 126 -93 -727 1002 -129 0 3zm-1002 126c-35,-275 162,-527 437,-562 276,-34 530,161 565,436l-1002 126zm955 -481l47 352 -1002 133 -47 -353 0 -3 1002 -129zm-1002 132c-36,-275 158,-529 434,-565 276,-36 531,158 568,433l-1002 132zm910 -856l92 727 -1002 126 -92 -727 1002 -130 0 4zm-1002 126c-35,-275 161,-528 437,-563 276,-34 529,162 565,437l-1002 126zm954 -482l48 352 -1002 133 -47 -353 -2 -13 1003 -119zm-1001 132c-37,-275 158,-529 434,-565 276,-36 531,158 567,433l-1001 132zm887 -1219l116 1101 -1005 105 -115 -1101 -1 -10 1005 -95zm-1004 105c-29,-276 173,-525 449,-553 277,-29 527,172 555,448l-1004 105zm912 -1196l93 1101 -1006 85 -94 -1101 0 -11 1007 -74zm-1007 85c-23,-277 184,-521 461,-544 278,-23 523,182 546,459l-1007 85zm938 -1175l70 1100 -1008 64 -70 -1100 1008 -65 0 1zm-1008 64c-17,-277 194,-517 472,-535 279,-17 519,194 536,471l-1008 64zm985 -417l23 352 -1008 65 -23 -352 -1 -17 1009 -48zm-1008 65c-17,-277 193,-518 472,-535 278,-18 519,193 536,470l-1008 65zm986 -775l23 726 -1010 32 -23 -726 0 -16 1010 -16zm-1010 32c-9,-278 211,-511 489,-520 278,-8 512,210 521,488l-1010 32zm1010 -369l0 353 -1010 0 0 -353 1010 -17 0 17zm-1010 0c0,-277 227,-503 505,-503 278,0 505,226 505,503l-1010 0zm986 -744l24 727 -1010 34 -24 -727 0 -17 1010 -17zm-1010 34c-8,-278 210,-512 488,-520 279,-9 513,209 522,486l-1010 34zm1010 -370l0 353 -1010 0 0 -353 0 0 1010 0zm-1010 0c0,-277 227,-503 505,-503 278,0 505,226 505,503l-1010 0zm1010 -726l0 726 -1010 0 0 -726 0 0 1010 0zm-1010 0c0,-278 227,-503 505,-503 278,0 505,225 505,503l-1010 0zm1010 -727l0 727 -1010 0 0 -727 0 0 1010 0zm-1010 0c0,-277 227,-503 505,-503 278,0 505,226 505,503l-1010 0zm1010 -352l0 352 -1010 0 0 -352 0 -17 1010 17zm-1010 0c0,-278 227,-503 505,-503 278,0 505,225 505,503l-1010 0zm1034 -711l-24 728 -1010 -34 24 -727 1 -16 1009 49zm-1010 -33c9,-278 244,-495 522,-487 278,9 497,243 488,520l-1010 -33zm1032 -303l-23 352 -1008 -65 23 -353 1008 65 0 1zm-1008 -66c18,-276 259,-487 537,-469 278,17 489,258 471,535l-1008 -66zm1054 -662l-46 727 -1008 -64 46 -726 1008 63zm-1008 -63c18,-277 258,-488 536,-471 279,18 490,258 472,534l-1008 -63zm1055 -664l-47 727 -1008 -63 47 -728 1009 32 -1 32zm-1008 -64c17,-276 257,-488 536,-470 278,17 489,257 472,534l-1008 -64zm1009 -320l0 352 -1010 0 0 -352 2 -48 1008 48zm-1010 0c0,-278 226,-504 505,-504 278,0 505,226 505,504l-1010 0zm1077 -679l-70 727 -1005 -96 70 -727 2 -17 1003 113zm-1005 -96c27,-276 275,-479 552,-453 276,27 480,273 453,549l-1005 -96zm1050 -239l-46 353 -1002 -131 46 -353 1004 114 -2 17zm-1002 -131c36,-275 291,-469 567,-434 275,36 471,290 435,565l-1002 -131zm1074 -613l-70 727 -1005 -96 70 -727 2 -15 1003 111zm-1005 -96c26,-276 274,-479 551,-453 277,27 480,273 454,549l-1005 -96zm1096 -616l-93 727 -1001 -126 92 -727 0 -3 1002 129zm-1002 -126c35,-275 289,-471 565,-436 276,34 472,287 437,562l-1002 -126zm1049 -223l-47 352 -1002 -132 47 -353 1002 129 0 4zm-1002 -133c37,-275 292,-469 568,-433 276,36 470,290 434,566l-1002 -133zm1094 -597l-92 726 -1002 -126 93 -726 0 -3 1001 129zm-1001 -126c35,-275 288,-471 564,-436 276,34 472,287 437,562l-1001 -126zm1048 -223l-47 352 -1001 -132 47 -353 2 -13 999 146zm-1001 -133c36,-275 292,-469 567,-433 276,36 471,290 434,566l-1001 -133zm1115 -580l-116 726 -997 -159 116 -727 4 -17 993 177zm-997 -160c44,-274 304,-461 579,-417 275,44 462,302 418,577l-997 -160zm1064 -176l-70 352 -990 -193 69 -352 1 -7 990 200zm-991 -193c53,-272 320,-450 593,-397 272,52 451,318 398,590l-991 -193zm1223 -901l-233 1101 -989 -207 233 -1102 0 -4 989 212zm-989 -208c57,-272 326,-445 599,-389 272,57 447,325 390,597l-989 -208zm1220 -845l-232 1057 -988 -216 233 -1056 0 0 987 215zm-987 -215c59,-272 329,-444 601,-385 272,59 445,329 386,600l-987 -215zm1220 -843l-233 1058 -987 -215 232 -1058 5 -20 983 235zm-988 -215c60,-271 331,-442 603,-383 271,59 445,327 385,598l-988 -215zm1075 -117l-92 352 -978 -255 93 -352 0 -1 977 256zm-977 -255c70,-269 347,-430 616,-360 270,70 432,346 361,615l-977 -255zm1163 -448l-186 704 -977 -257 186 -704 0 0 977 257zm-977 -257c70,-268 347,-429 617,-358 269,70 430,347 360,615l-977 -257zm1070 -96l-94 353 -976 -257 94 -353 977 256 -1 1zm-976 -257c71,-268 348,-428 617,-358 269,70 430,347 359,615l-976 -257zm1162 -449l-185 705 -978 -255 186 -705 0 -1 977 256zm-977 -255c70,-268 347,-429 617,-359 269,70 431,346 360,614l-977 -255zm1070 -96l-93 352 -977 -257 94 -352 8 -29 968 286zm-976 -257c71,-268 348,-428 617,-358 269,70 430,347 359,615l-976 -257zm1200 -419l-232 704 -960 -314 232 -704 0 0 960 314zm-960 -314c87,-264 373,-408 638,-322 265,87 409,372 322,636l-960 -314zm1193 -391l-233 705 -960 -314 233 -705 0 0 960 314zm-960 -314c87,-263 373,-407 638,-321 264,86 409,372 322,635l-960 -314zm1076 -38l-116 352 -960 -314 116 -353 3 -9 957 324zm-960 -315c87,-263 373,-406 638,-320 265,86 409,371 322,635l-960 -315zm1189 -336l-232 660 -954 -333 232 -661 957 324 -3 10zm-954 -334c92,-262 381,-400 644,-308 263,92 402,379 310,642l-954 -334zm1074 -28l-117 352 -960 -314 117 -352 4 -10 956 324zm-960 -314c87,-264 373,-407 638,-321 264,86 409,372 322,635l-960 -314zm1189 -337l-233 660 -952 -333 232 -660 954 333 -1 0zm-953 -333c92,-262 382,-400 644,-308 262,92 400,379 309,641l-953 -333zm1186 -327l-232 660 -954 -333 232 -661 11 -28 943 362zm-954 -334c91,-262 380,-400 643,-308 264,91 402,379 311,642l-954 -334zm1082 32l-140 330 -931 -390 139 -331 943 363 -11 28zm-932 -391c108,-256 406,-376 662,-268 257,107 378,403 270,659l-932 -391zm1175 -298l-232 661 -954 -334 232 -660 12 -29 942 362zm-954 -333c92,-263 381,-401 644,-309 263,92 402,380 310,642l-954 -333zm1083 32l-140 330 -931 -391 139 -330 932 391zm-932 -391c108,-256 405,-376 662,-269 257,108 377,404 270,660l-932 -391zm1211 -270l-279 661 -932 -391 279 -661 0 0 932 391zm-932 -391c108,-256 405,-377 662,-269 257,108 377,404 270,660l-932 -391zm1071 60l-139 331 -932 -391 140 -330 6 -15 925 405zm-931 -390c107,-256 405,-377 662,-269 257,108 377,403 269,659l-931 -390zm1391 -608l-466 1013 -919 -420 466 -1013 2 -3 917 423zm-919 -420c116,-252 416,-363 670,-248 253,116 364,415 249,668l-919 -420zm1382 -568l-465 991 -915 -426 464 -991 0 0 916 426zm-916 -426c118,-251 419,-360 672,-243 253,117 362,418 244,669l-916 -426zm1381 -565l-465 991 -916 -426 465 -990 5 -9 911 434zm-916 -425c118,-252 419,-361 672,-244 253,118 362,418 244,669l-916 -425zm1074 104l-163 330 -906 -443 163 -330 663 -236 243 679zm-906 -443c123,-250 426,-353 675,-231 250,122 354,424 231,674l-906 -443zm54556 25433l-54313 -24754 420 -915 54312 24754 -395 926 -24 -11zm419 -915c254,116 366,415 250,667 -116,253 -415,364 -669,248l419 -915zm163 1146l-558 -220 371 -936 559 220 -101 964 -271 -28zm372 -936c259,102 386,394 284,653 -102,258 -397,385 -656,283l372 -936z"/>
     </g>
     <g>
      <polygon class="fil13" points="604770,202493 576021,221034 575904,220858 575625,220462 575509,220286 575277,219933 575137,219713 574904,219361 574766,219141 574579,218832 574416,218568 574231,218259 574068,217995 573905,217731 573719,217401 573579,217114 573416,216784 604445,202625 "/>
      <path id="1" class="fil14" d="M575747 220611l28749 -18541 548 845 -28749 18541 -696 -145 148 -700zm548 845c-233,151 -548,84 -698,-149 -151,-233 -84,-545 150,-696l548 845zm31 -875l117 176 -844 554 -116 -177 835 -566 8 13zm-843 553c-154,-232 -89,-544 144,-697 233,-152 546,-88 699,144l-843 553zm555 -962l280 396 -827 579 -279 -396 -9 -12 835 -567zm-826 579c-160,-226 -105,-541 123,-701 228,-159 543,-104 703,122l-826 579zm719 -742l116 176 -844 554 -116 -177 -1 0 845 -553zm-844 553c-153,-232 -88,-544 144,-697 233,-152 547,-88 700,144l-844 553zm613 -905l232 353 -846 552 -232 -353 -4 -7 850 -545zm-846 552c-152,-232 -87,-545 146,-697 233,-152 547,-87 700,145l-846 552zm710 -765l140 220 -854 538 -139 -220 848 -546 5 8zm-853 538c-149,-235 -79,-546 157,-695 235,-148 548,-77 696,157l-853 538zm615 -898l233 352 -844 554 -232 -353 -6 -8 849 -545zm-843 553c-154,-232 -89,-544 144,-697 233,-152 546,-88 699,144l-843 553zm710 -764l139 220 -855 536 -139 -221 -5 -8 860 -527zm-855 535c-148,-234 -77,-546 159,-693 236,-148 548,-77 696,158l-855 535zm673 -836l187 309 -865 519 -186 -308 863 -523 1 3zm-864 520c-144,-238 -67,-548 171,-692 239,-143 550,-66 693,172l-864 520zm700 -787l163 264 -862 526 -162 -264 -3 -4 864 -522zm-861 526c-145,-237 -71,-547 166,-692 238,-145 550,-71 695,166l-861 526zm678 -831l185 309 -866 518 -186 -309 864 -522 3 4zm-867 518c-143,-237 -65,-547 174,-690 238,-143 549,-66 693,172l-867 518zm701 -786l163 264 -861 526 -163 -264 0 0 861 -526zm-861 526c-145,-236 -71,-547 167,-692 238,-145 549,-71 694,166l-861 526zm699 -790l162 264 -861 526 -162 -263 -10 -16 871 -511zm-861 527c-146,-237 -71,-548 166,-693 238,-145 550,-71 695,166l-861 527zm684 -841l186 330 -880 495 -187 -331 -14 -28 895 -466zm-881 494c-136,-241 -50,-549 193,-685 242,-137 551,-51 688,191l-881 494zm756 -753l139 287 -909 438 -140 -287 908 -441 2 3zm-910 438c-121,-249 -16,-551 235,-672 250,-120 553,-16 675,234l-910 438zm745 -771l163 330 -906 444 -163 -330 243 -680 663 236zm-906 444c-123,-250 -19,-552 231,-674 249,-122 552,-19 675,230l-906 444zm31692 -13923l-31028 14159 -421 -916 31028 -14159 20 -8 401 924zm-421 -916c254,-115 554,-4 670,248 116,253 5,552 -249,668l-421 -916zm727 791l-326 133 -381 -932 325 -132 465 888 -83 43zm-382 -931c258,-104 554,18 658,275 105,257 -19,552 -276,656l-382 -931z"/>
     </g>
     <g>
      <polygon class="fil15" points="604770,202493 659570,243120 658756,244089 657825,245191 656965,246137 655988,247173 655057,248053 654034,249044 653103,249925 652034,250894 651057,251730 649940,252655 648940,253448 648172,254043 605235,202999 "/>
      <path id="1" class="fil8" d="M659269 243524l-54801 -40628 603 -807 54800 40628 87 726 -689 81zm602 -807c224,166 270,482 104,704 -166,223 -483,269 -706,103l602 -807zm-1503 1049l814 -969 776 646 -815 969 -1 2 -774 -648zm775 646c-178,213 -498,241 -712,63 -214,-177 -241,-496 -63,-709l775 646zm-1704 454l931 -1101 772 649 -931 1101 -12 14 -760 -663zm772 649c-179,213 -498,240 -711,61 -213,-179 -240,-498 -61,-710l772 649zm-1620 284l860 -946 748 676 -860 947 -7 6 -741 -683zm748 677c-187,205 -507,221 -713,35 -207,-187 -222,-506 -35,-712l748 677zm-1719 352l977 -1035 735 689 -977 1035 -20 21 -715 -710zm735 689c-190,203 -511,212 -713,22 -203,-189 -213,-508 -22,-711l735 689zm-1646 171l931 -881 695 731 -930 880 -700 -726 4 -4zm696 730c-202,192 -523,183 -714,-18 -191,-201 -184,-521 18,-712l696 730zm-1723 265l1023 -991 704 722 -1024 992 -4 4 -699 -727zm703 723c-199,193 -520,189 -713,-11 -194,-199 -189,-518 10,-712l703 723zm-1630 153l931 -880 695 731 -930 880 -8 7 -688 -738zm696 731c-202,191 -523,183 -714,-18 -191,-201 -183,-521 18,-713l696 731zm-1757 231l1069 -969 680 745 -1070 969 -10 10 -669 -755zm679 745c-206,187 -526,172 -713,-33 -188,-205 -173,-525 34,-712l679 745zm-1646 82l977 -836 659 764 -977 836 -6 5 -653 -769zm659 764c-211,181 -530,157 -712,-54 -182,-210 -158,-529 53,-710l659 764zm-1769 157l1117 -926 646 774 -1117 925 -9 7 -637 -780zm646 773c-214,178 -533,148 -711,-64 -178,-213 -149,-532 65,-709l646 773zm-1637 12l1000 -793 628 788 -1000 793 -4 3 -624 -791zm628 788c-217,173 -536,136 -709,-80 -173,-217 -137,-535 81,-708l628 788zm-1392 -196l768 -595 620 794 -768 595 -697 -74 77 -720zm620 794c-220,170 -538,131 -709,-88 -170,-220 -131,-536 89,-706l620 794zm-42860 -51764l42937 51044 -774 646 -42937 -51044 759 -663 15 17zm-774 646c-179,-213 -151,-531 62,-709 213,-178 533,-150 712,63l-774 646zm294 -1169l465 506 -745 680 -465 -507 674 -743 71 64zm-745 679c-188,-204 -173,-523 32,-711 205,-187 525,-173 713,32l-745 679z"/>
     </g>
     <g>
      <path class="fil8" d="M621500 197976l-16584 4998 -292 -963 16584 -4999 593 248 -301 716zm-292 -964c266,-80 549,71 629,336 81,266 -71,547 -337,628l-292 -964zm-278 760l-24 -44 895 -468 23 43 35 83 -929 386zm894 -469c130,246 35,551 -212,681 -246,129 -553,34 -682,-212l894 -469zm-858 607l-71 -220 964 -304 70 220 13 49 -976 255zm963 -304c84,264 -63,548 -329,632 -265,84 -550,-63 -634,-328l963 -304zm-953 365l-23 -110 989 -206 23 110 -976 254 -13 -48zm989 -206c56,272 -118,539 -391,596 -273,57 -541,-118 -598,-390l989 -206zm-907 474l-69 -220 963 -302 69 220 13 49 -976 253zm963 -302c83,265 -64,548 -330,631 -265,83 -550,-64 -633,-329l963 -302zm-953 364l-23 -111 989 -204 23 111 -975 255 -14 -51zm989 -204c57,272 -119,539 -391,595 -273,56 -541,-119 -598,-391l989 -204zm-905 474l-70 -219 962 -306 70 219 8 26 -970 280zm962 -306c84,264 -62,548 -328,633 -265,84 -549,-63 -634,-327l962 -306zm-877 633l-93 -352 978 -255 92 352 4 17 -981 238zm977 -255c71,269 -91,545 -361,615 -269,70 -546,-91 -616,-360l977 -255zm-911 547l-70 -308 985 -222 71 309 2 14 -988 207zm986 -221c61,271 -110,541 -382,602 -272,60 -543,-110 -604,-381l986 -221zm-919 559l-70 -352 991 -193 69 352 3 9 -993 184zm990 -193c54,272 -125,538 -398,591 -272,52 -539,-126 -592,-398l990 -193zm-945 449l-48 -264 996 -176 47 264 -992 191 -3 -15zm995 -176c48,273 -135,535 -409,583 -275,48 -538,-135 -586,-407l995 -176zm-969 301l-23 -110 989 -206 23 110 8 50 -997 156zm989 -206c56,272 -118,539 -391,596 -273,56 -542,-118 -598,-390l989 -206zm-974 376l-23 -220 1005 -106 23 220 2 53 -1007 53zm1005 -106c29,276 -173,525 -450,554 -277,29 -526,-172 -555,-448l1005 -106zm-1007 164l0 -111 1009 0 0 111 -1002 87 -7 -87zm1009 0c0,277 -226,503 -505,503 -278,0 -504,-226 -504,-503l1009 0zm-956 351l-46 -264 995 -174 46 264 7 87 -1002 87zm995 -174c48,274 -136,535 -410,583 -275,48 -537,-136 -585,-409l995 -174zm-1002 197l0 -110 1009 0 0 110 -1007 53 -2 -53zm1009 0c0,277 -226,503 -504,503 -279,0 -505,-226 -505,-503l1009 0zm-984 273l-23 -220 1005 -106 23 220 -997 156 -8 -50zm1005 -106c29,276 -173,525 -450,554 -276,29 -526,-172 -555,-448l1005 -106zm-974 266l-23 -110 989 -206 23 110 8 50 -997 156zm989 -206c57,272 -118,539 -390,596 -273,57 -542,-118 -599,-390l989 -206zm-973 376l-24 -220 1005 -106 23 221 -1001 126 -3 -21zm1004 -105c29,276 -173,524 -449,553 -277,29 -527,-172 -555,-448l1004 -105zm-978 280l-23 -154 998 -148 23 154 6 74 -1004 74zm998 -148c41,274 -149,531 -424,572 -275,40 -533,-149 -574,-424l998 -148zm-1004 228l0 -154 1010 0 0 154 -1007 53 -3 -53zm1010 0c0,278 -227,503 -505,503 -278,0 -505,-225 -505,-503l1010 0zm-984 273l-23 -220 1005 -106 23 221 2 52 -1007 53zm1005 -105c28,275 -173,524 -450,553 -277,29 -526,-172 -555,-448l1005 -105zm-1008 162l0 -110 1010 0 0 110 0 0 -1010 0zm1010 0c0,278 -226,503 -505,503 -278,0 -505,-225 -505,-503l1010 0zm-1010 220l0 -220 1010 0 0 220 0 0 -1010 0zm1010 0c0,278 -226,504 -505,504 -278,0 -505,-226 -505,-504l1010 0zm-1010 154l0 -154 1010 0 0 154 0 0 -1010 0zm1010 0c0,278 -226,503 -505,503 -278,0 -505,-225 -505,-503l1010 0zm-1010 154l0 -154 1010 0 0 154 0 0 -1010 0zm1010 0c0,278 -226,503 -505,503 -278,0 -505,-225 -505,-503l1010 0zm-1010 155l0 -155 1010 0 0 155 0 0 -1010 0zm1010 0c0,277 -226,503 -505,503 -278,0 -505,-226 -505,-503l1010 0zm-1010 219l0 -219 1010 0 0 219 -505 503 -505 -503zm1010 0c0,278 -226,503 -505,503 -278,0 -505,-225 -505,-503l1010 0zm-17716 -501l17211 -2 0 1006 -17211 2 -313 -108 313 -898zm0 1006c-278,0 -504,-226 -504,-503 0,-278 226,-503 504,-503l0 1006zm174 -1008l140 110 -627 790 -139 -110 167 -877 459 87zm-626 790c-219,-173 -256,-490 -83,-708 173,-218 491,-254 709,-82l-626 790z"/>
     </g>
     <g>
      <path class="fil8" d="M623892 156526l-18654 46155 -936 -376 18654 -46156 637 -286 299 663zm-936 -377c104,-257 399,-382 657,-278 259,104 383,397 279,655l-936 -377zm1230 993l-931 -330 338 -949 931 330 10 4 -348 945zm338 -949c262,93 400,382 307,644 -93,261 -383,399 -645,305l338 -949zm581 1298l-930 -353 359 -941 930 353 38 16 -397 925zm359 -941c260,98 392,390 293,649 -99,259 -392,390 -652,292l359 -941zm-257 991l-139 -66 434 -909 139 66 -410 919 -24 -10zm434 -909c251,119 359,420 239,671 -119,250 -421,357 -673,238l434 -909zm334 1227l-744 -308 387 -930 744 308 23 11 -410 919zm387 -930c258,106 380,402 273,658 -107,256 -403,378 -660,272l387 -930zm-271 986l-140 -66 434 -909 140 66 -424 914 -10 -5zm434 -909c251,119 359,420 239,671 -120,250 -422,357 -673,238l434 -909zm460 1310l-884 -396 414 -919 885 396 9 5 -424 914zm415 -919c254,114 367,413 253,666 -114,254 -414,367 -668,253l415 -919zm599 1399l-1024 -485 434 -909 1023 485 12 6 -445 903zm433 -909c252,119 359,420 240,671 -120,250 -422,357 -673,238l433 -909zm253 1256l-698 -352 457 -898 697 352 17 9 -473 889zm456 -898c249,125 348,429 223,676 -125,248 -430,347 -679,222l456 -898zm-194 1043l-278 -154 489 -880 279 154 -469 891 -21 -11zm490 -880c243,134 331,442 197,684 -135,243 -444,330 -687,196l490 -880zm114 1178l-583 -287 447 -902 582 286 22 11 -468 892zm446 -903c250,123 353,425 230,674 -123,249 -427,352 -676,229l446 -903zm-189 1046l-279 -154 490 -881 279 154 -485 883 -5 -2zm490 -881c243,134 332,442 197,684 -135,243 -444,330 -687,197l490 -881zm212 1258l-697 -375 480 -885 697 374 30 17 -510 869zm480 -886c245,132 337,438 204,682 -132,244 -439,335 -684,204l480 -886zm-370 957l-140 -88 540 -852 139 88 -523 861 -16 -9zm539 -852c236,148 306,460 158,695 -148,234 -461,305 -697,157l539 -852zm315 1345l-838 -484 507 -871 838 484 0 0 -507 871zm507 -871c241,139 323,448 184,688 -140,240 -450,322 -691,183l507 -871zm331 1356l-838 -485 507 -871 838 485 16 10 -523 861zm507 -871c241,140 323,449 183,689 -139,240 -450,322 -690,182l507 -871zm-384 949l-139 -87 539 -852 139 88 1 0 -540 851zm539 -851c236,148 306,460 158,694 -148,235 -461,306 -697,157l539 -851zm157 1292l-697 -441 541 -851 697 441 -540 851 -1 0zm541 -851c235,149 305,461 156,695 -149,235 -461,304 -697,156l541 -851zm-400 939l-140 -88 539 -851 140 87 5 4 -544 848zm539 -852c236,149 306,461 158,695 -149,234 -461,305 -697,157l539 -852zm269 1376l-814 -528 550 -844 815 528 0 0 -551 844zm551 -844c233,151 300,464 148,697 -152,232 -465,298 -699,147l551 -844zm263 1373l-814 -529 551 -844 815 529 -546 848 -6 -4zm552 -844c233,152 300,464 147,697 -152,233 -466,298 -699,147l552 -844zm-406 936l-140 -88 539 -852 140 88 14 9 -553 843zm539 -852c236,148 306,460 158,694 -149,235 -461,306 -697,158l539 -852zm97 1282l-651 -440 568 -833 651 441 22 15 -590 817zm568 -832c230,155 290,469 134,698 -156,230 -471,290 -702,134l568 -832zm-356 993l-233 -176 611 -802 232 176 -604 807 -6 -5zm610 -802c222,167 265,485 97,706 -168,221 -486,264 -707,96l610 -802zm-92 1182l-512 -375 598 -812 512 375 49 42 -647 770zm598 -812c224,164 273,480 108,704 -165,224 -482,272 -706,108l598 -812zm-415 991l-233 -221 697 -728 233 220 -697 729 0 0zm697 -729c201,191 209,510 17,711 -192,201 -513,209 -714,18l697 -729zm-464 949l-233 -220 696 -730 233 220 39 689 -735 41zm696 -730c202,191 210,510 19,711 -192,201 -512,210 -715,19l696 -730zm-32950 38291l32215 -38250 774 648 -32215 38250 -828 -569 54 -79zm774 648c-179,212 -499,240 -712,61 -213,-179 -240,-497 -62,-709l774 648zm-1013 -238l185 -331 882 490 -185 331 -909 -433 27 -57zm882 490c-136,242 -443,329 -687,194 -243,-135 -331,-442 -195,-684l882 490z"/>
     </g>
     <g>
      <path class="fil8" d="M560561 151579l44589 50581 -760 665 -44589 -50581 70 -730 690 65zm-760 665c-183,-208 -162,-527 47,-711 209,-183 529,-162 713,46l-760 665zm1714 -728l-1024 793 -620 -795 1024 -792 5 -4 615 798zm-620 -794c220,-170 538,-131 709,88 170,219 131,536 -89,706l-620 -794zm1895 -172l-1280 969 -610 -801 1279 -969 16 -12 595 813zm-611 -801c221,-167 539,-125 707,96 168,221 125,538 -96,705l-611 -801zm1385 263l-790 550 -579 -825 790 -550 595 814 -16 11zm-579 -825c228,-159 544,-103 703,125 160,227 104,541 -124,700l-579 -825zm828 637l-233 177 -611 -803 233 -176 16 -11 595 813zm-611 -802c222,-167 539,-124 707,97 169,220 126,538 -96,705l-611 -802zm1385 262l-790 552 -579 -825 790 -551 11 -8 568 832zm-579 -824c228,-159 544,-104 704,123 159,228 103,543 -125,701l-579 -824zm1103 480l-535 352 -557 -840 535 -353 0 0 557 841zm-557 -841c233,-153 547,-89 700,143 153,232 89,545 -143,698l-557 -841zm1092 488l-535 353 -557 -841 536 -352 0 0 556 840zm-556 -840c232,-153 546,-89 699,143 153,232 89,544 -143,697l-556 -840zm1091 488l-535 352 -556 -840 535 -353 0 0 556 841zm-556 -841c232,-153 546,-89 699,143 153,232 89,545 -143,698l-556 -841zm1092 488l-536 353 -556 -841 535 -352 10 -6 547 846zm-557 -840c232,-153 546,-89 699,143 153,232 90,544 -142,697l-557 -840zm1360 340l-814 507 -536 -853 814 -507 538 852 -2 1zm-536 -853c236,-147 548,-75 696,160 147,236 76,547 -160,693l-536 -853zm817 676l-279 176 -541 -850 279 -177 17 -10 524 861zm-541 -851c236,-148 548,-78 697,156 150,234 79,546 -156,695l-541 -851zm1362 377l-838 484 -507 -871 838 -484 8 -5 499 876zm-507 -871c240,-140 551,-57 690,183 140,240 58,548 -183,688l-507 -871zm777 722l-279 154 -490 -881 279 -154 496 878 -6 3zm-490 -881c244,-134 552,-46 687,196 135,243 46,551 -197,685l-490 -881zm1659 216l-1163 662 -501 -875 1163 -661 14 -7 487 881zm-501 -874c242,-137 551,-53 689,188 138,241 54,549 -188,686l-501 -874zm1650 265l-1162 617 -474 -889 1163 -616 3 -3 470 891zm-473 -888c245,-130 552,-37 682,208 131,245 37,550 -209,680l-473 -888zm1912 142l-1442 749 -467 -894 1442 -749 8 -4 459 898zm-467 -894c247,-128 553,-32 682,214 128,247 32,551 -215,680l-467 -894zm1343 457l-884 441 -451 -902 883 -440 23 -10 429 911zm-452 -901c249,-123 553,-23 677,226 125,249 24,552 -225,675l-452 -901zm732 779l-303 133 -406 -922 304 -132 419 915 -14 6zm-405 -921c255,-111 553,4 665,259 111,254 -5,552 -260,662l-405 -921zm1582 365l-1163 550 -434 -909 1163 -550 7 -4 427 913zm-434 -909c251,-119 553,-12 673,238 120,250 12,552 -239,671l-434 -909zm1589 383l-1162 529 -420 -916 1163 -528 18 -8 401 923zm-419 -915c253,-115 553,-4 669,249 116,252 4,551 -250,666l-419 -915zm1913 307l-1512 616 -383 -931 1512 -617 12 -5 371 937zm-383 -932c258,-104 554,19 659,275 105,257 -18,552 -276,657l-383 -932zm1301 584l-930 353 -359 -942 930 -352 6 -2 353 943zm-359 -941c260,-98 553,33 652,292 99,259 -33,551 -293,649l-359 -941zm656 833l-303 110 -347 -945 304 -110 346 945zm-346 -945c261,-95 552,39 647,300 95,261 -40,550 -301,645l-346 -945zm1555 505l-1209 440 -346 -945 1209 -441 2 0 344 946zm-346 -946c261,-95 552,39 647,300 95,261 -40,551 -301,646l-346 -946zm1576 507l-1233 440 -341 -947 1233 -441 14 -4 327 952zm-341 -948c262,-93 552,43 646,304 94,262 -42,550 -305,644l-341 -948zm1885 446l-1558 507 -313 -957 1559 -507 7 -2 305 959zm-312 -957c264,-86 550,58 636,322 86,264 -59,549 -324,635l-312 -957zm1235 672l-930 287 -298 -961 930 -287 8 -3 290 964zm-298 -961c266,-83 549,66 631,331 82,266 -67,548 -333,630l-298 -961zm593 876l-303 88 -282 -967 303 -88 4 -1 278 968zm-282 -967c267,-77 548,77 626,343 77,267 -77,547 -344,624l-282 -967zm1534 616l-1256 353 -274 -970 1256 -353 8 -1 266 971zm-274 -970c268,-75 548,82 623,349 75,267 -81,546 -349,621l-274 -970zm1522 642l-1256 330 -258 -973 1256 -330 6 -2 252 975zm-258 -973c268,-71 546,90 617,358 71,268 -90,544 -359,615l-258 -973zm1833 578l-1581 396 -246 -976 1582 -396 6 -2 239 978zm-245 -976c270,-68 544,96 612,365 68,269 -96,543 -367,611l-245 -976zm1169 757l-930 220 -233 -979 931 -220 15 -3 217 982zm-232 -979c271,-64 543,103 607,373 64,271 -103,543 -375,606l-232 -979zm543 916l-326 67 -202 -986 325 -66 593 374 -390 611zm-203 -985c273,-55 541,120 597,392 55,272 -122,538 -394,593l-203 -985zm14962 64206l-15352 -63596 983 -236 15351 63596 -980 242 -2 -6zm982 -236c65,270 -102,543 -373,608 -271,64 -544,-101 -609,-372l982 -236zm-818 881l-162 -639 979 -247 163 639 -870 456 -110 -209zm980 -247c68,269 -95,544 -366,612 -270,68 -545,-96 -614,-365l980 -247z"/>
     </g>
     <g>
      <path class="fil14" d="M544768 212280l59917 -10283 170 992 -59917 10284 -580 -400 410 -593zm170 993c-274,47 -535,-138 -583,-411 -47,-274 138,-535 413,-582l170 993zm341 -946l69 353 -990 193 -70 -353 -3 -14 994 -179zm-991 193c-53,-271 126,-537 398,-590 273,-52 540,126 593,397l-991 193zm878 -883l116 705 -997 164 -116 -705 0 -2 997 -162zm-997 164c-45,-274 141,-534 416,-579 275,-45 536,141 581,415l-997 164zm880 -888l117 726 -997 160 -117 -727 -2 -13 999 -146zm-997 159c-43,-274 144,-533 419,-576 275,-44 534,142 578,417l-997 159zm953 -498l47 352 -1002 133 -47 -353 0 -3 1002 -129zm-1002 132c-37,-275 158,-529 434,-565 276,-36 531,158 568,433l-1002 132zm909 -856l93 727 -1002 126 -93 -727 1002 -129 0 3zm-1002 126c-35,-275 162,-527 437,-562 276,-34 530,161 565,436l-1002 126zm955 -481l47 352 -1002 133 -47 -353 0 -3 1002 -129zm-1002 132c-36,-275 158,-529 434,-565 276,-36 531,158 568,433l-1002 132zm910 -856l92 727 -1002 126 -92 -727 1002 -130 0 4zm-1002 126c-35,-275 161,-528 437,-563 276,-34 529,162 565,437l-1002 126zm954 -482l48 352 -1002 133 -47 -353 -2 -13 1003 -119zm-1001 132c-37,-275 158,-529 434,-565 276,-36 531,158 567,433l-1001 132zm887 -1219l116 1101 -1005 105 -115 -1101 -1 -10 1005 -95zm-1004 105c-29,-276 173,-525 449,-553 277,-29 527,172 555,448l-1004 105zm912 -1196l93 1101 -1006 85 -94 -1101 0 -11 1007 -74zm-1007 85c-23,-277 184,-521 461,-544 278,-23 523,182 546,459l-1007 85zm938 -1175l70 1100 -1008 64 -70 -1100 1008 -65 0 1zm-1008 64c-17,-277 194,-517 472,-535 279,-17 519,194 536,471l-1008 64zm985 -417l23 352 -1008 65 -23 -352 -1 -17 1009 -48zm-1008 65c-17,-277 193,-518 472,-535 278,-18 519,193 536,470l-1008 65zm986 -775l23 726 -1010 32 -23 -726 0 -16 1010 -16zm-1010 32c-9,-278 211,-511 489,-520 278,-8 512,210 521,488l-1010 32zm1010 -369l0 353 -1010 0 0 -353 1010 -17 0 17zm-1010 0c0,-277 227,-503 505,-503 278,0 505,226 505,503l-1010 0zm986 -744l24 727 -1010 34 -24 -727 0 -17 1010 -17zm-1010 34c-8,-278 210,-512 488,-520 279,-9 513,209 522,486l-1010 34zm1010 -370l0 353 -1010 0 0 -353 0 0 1010 0zm-1010 0c0,-277 227,-503 505,-503 278,0 505,226 505,503l-1010 0zm1010 -726l0 726 -1010 0 0 -726 0 0 1010 0zm-1010 0c0,-278 227,-503 505,-503 278,0 505,225 505,503l-1010 0zm1010 -727l0 727 -1010 0 0 -727 0 0 1010 0zm-1010 0c0,-277 227,-503 505,-503 278,0 505,226 505,503l-1010 0zm1010 -352l0 352 -1010 0 0 -352 0 -17 1010 17zm-1010 0c0,-278 227,-503 505,-503 278,0 505,225 505,503l-1010 0zm1034 -711l-24 728 -1010 -34 24 -727 1 -16 1009 49zm-1010 -33c9,-278 244,-495 522,-487 278,9 497,243 488,520l-1010 -33zm1032 -303l-23 352 -1008 -65 23 -353 1008 65 0 1zm-1008 -66c18,-276 259,-487 537,-469 278,17 489,258 471,535l-1008 -66zm1054 -662l-46 727 -1008 -64 46 -726 1008 63zm-1008 -63c18,-277 258,-488 536,-471 279,18 490,258 472,534l-1008 -63zm1055 -664l-47 727 -1008 -63 47 -728 1009 32 -1 32zm-1008 -64c17,-276 257,-488 536,-470 278,17 489,257 472,534l-1008 -64zm1009 -320l0 352 -1010 0 0 -352 2 -48 1008 48zm-1010 0c0,-278 226,-504 505,-504 278,0 505,226 505,504l-1010 0zm1077 -679l-70 727 -1005 -96 70 -727 2 -17 1003 113zm-1005 -96c27,-276 275,-479 552,-453 276,27 480,273 453,549l-1005 -96zm1050 -239l-46 353 -1002 -131 46 -353 1004 114 -2 17zm-1002 -131c36,-275 291,-469 567,-434 275,36 471,290 435,565l-1002 -131zm1074 -613l-70 727 -1005 -96 70 -727 2 -15 1003 111zm-1005 -96c26,-276 274,-479 551,-453 277,27 480,273 454,549l-1005 -96zm1096 -616l-93 727 -1001 -126 92 -727 0 -3 1002 129zm-1002 -126c35,-275 289,-471 565,-436 276,34 472,287 437,562l-1002 -126zm1049 -223l-47 352 -1002 -132 47 -353 1002 129 0 4zm-1002 -133c37,-275 292,-469 568,-433 276,36 470,290 434,566l-1002 -133zm1094 -597l-92 726 -1002 -126 93 -726 0 -3 1001 129zm-1001 -126c35,-275 288,-471 564,-436 276,34 472,287 437,562l-1001 -126zm1048 -223l-47 352 -1001 -132 47 -353 2 -13 999 146zm-1001 -133c36,-275 292,-469 567,-433 276,36 471,290 434,566l-1001 -133zm1115 -580l-116 726 -997 -159 116 -727 4 -17 993 177zm-997 -160c44,-274 304,-461 579,-417 275,44 462,302 418,577l-997 -160zm1064 -176l-70 352 -990 -193 69 -352 1 -7 990 200zm-991 -193c53,-272 320,-450 593,-397 272,52 451,318 398,590l-991 -193zm1223 -901l-233 1101 -989 -207 233 -1102 0 -4 989 212zm-989 -208c57,-272 326,-445 599,-389 272,57 447,325 390,597l-989 -208zm1220 -845l-232 1057 -988 -216 233 -1056 0 0 987 215zm-987 -215c59,-272 329,-444 601,-385 272,59 445,329 386,600l-987 -215zm1220 -843l-233 1058 -987 -215 232 -1058 5 -20 983 235zm-988 -215c60,-271 331,-442 603,-383 271,59 445,327 385,598l-988 -215zm1075 -117l-92 352 -978 -255 93 -352 0 -1 977 256zm-977 -255c70,-269 347,-430 616,-360 270,70 432,346 361,615l-977 -255zm1163 -448l-186 704 -977 -257 186 -704 0 0 977 257zm-977 -257c70,-268 347,-429 617,-358 269,70 430,347 360,615l-977 -257zm1070 -96l-94 353 -976 -257 94 -353 977 256 -1 1zm-976 -257c71,-268 348,-428 617,-358 269,70 430,347 359,615l-976 -257zm1162 -449l-185 705 -978 -255 186 -705 0 -1 977 256zm-977 -255c70,-268 347,-429 617,-359 269,70 431,346 360,614l-977 -255zm1070 -96l-93 352 -977 -257 94 -352 8 -29 968 286zm-976 -257c71,-268 348,-428 617,-358 269,70 430,347 359,615l-976 -257zm1200 -419l-232 704 -960 -314 232 -704 0 0 960 314zm-960 -314c87,-264 373,-408 638,-322 265,87 409,372 322,636l-960 -314zm1193 -391l-233 705 -960 -314 233 -705 0 0 960 314zm-960 -314c87,-263 373,-407 638,-321 264,86 409,372 322,635l-960 -314zm1076 -38l-116 352 -960 -314 116 -353 3 -9 957 324zm-960 -315c87,-263 373,-406 638,-320 265,86 409,371 322,635l-960 -315zm1189 -336l-232 660 -954 -333 232 -661 957 324 -3 10zm-954 -334c92,-262 381,-400 644,-308 263,92 402,379 310,642l-954 -334zm1074 -28l-117 352 -960 -314 117 -352 4 -10 956 324zm-960 -314c87,-264 373,-407 638,-321 264,86 409,372 322,635l-960 -314zm1189 -337l-233 660 -952 -333 232 -660 954 333 -1 0zm-953 -333c92,-262 382,-400 644,-308 262,92 400,379 309,641l-953 -333zm1186 -327l-232 660 -954 -333 232 -661 11 -28 943 362zm-954 -334c91,-262 380,-400 643,-308 264,91 402,379 311,642l-954 -334zm1082 32l-140 330 -931 -390 139 -331 943 363 -11 28zm-932 -391c108,-256 406,-376 662,-268 257,107 378,403 270,659l-932 -391zm1175 -298l-232 661 -954 -334 232 -660 12 -29 942 362zm-954 -333c92,-263 381,-401 644,-309 263,92 402,380 310,642l-954 -333zm1083 32l-140 330 -931 -391 139 -330 932 391zm-932 -391c108,-256 405,-376 662,-269 257,108 377,404 270,660l-932 -391zm1211 -270l-279 661 -932 -391 279 -661 0 0 932 391zm-932 -391c108,-256 405,-377 662,-269 257,108 377,404 270,660l-932 -391zm1071 60l-139 331 -932 -391 140 -330 6 -15 925 405zm-931 -390c107,-256 405,-377 662,-269 257,108 377,403 269,659l-931 -390zm1391 -608l-466 1013 -919 -420 466 -1013 2 -3 917 423zm-919 -420c116,-252 416,-363 670,-248 253,116 364,415 249,668l-919 -420zm1382 -568l-465 991 -915 -426 464 -991 0 0 916 426zm-916 -426c118,-251 419,-360 672,-243 253,117 362,418 244,669l-916 -426zm1381 -565l-465 991 -916 -426 465 -990 5 -9 911 434zm-916 -425c118,-252 419,-361 672,-244 253,118 362,418 244,669l-916 -425zm1074 104l-163 330 -906 -443 163 -330 663 -236 243 679zm-906 -443c123,-250 426,-353 675,-231 250,122 354,424 231,674l-906 -443zm54556 25433l-54313 -24754 420 -915 54312 24754 -395 926 -24 -11zm419 -915c254,116 366,415 250,667 -116,253 -415,364 -669,248l419 -915zm163 1146l-558 -220 371 -936 559 220 -101 964 -271 -28zm372 -936c259,102 386,394 284,653 -102,258 -397,385 -656,283l372 -936z"/>
     </g>
     <g>
      <path class="fil10" d="M575747 220611l28749 -18541 548 845 -28749 18541 -696 -145 148 -700zm548 845c-233,151 -548,84 -698,-149 -151,-233 -84,-545 150,-696l548 845zm31 -875l117 176 -844 554 -116 -177 835 -566 8 13zm-843 553c-154,-232 -89,-544 144,-697 233,-152 546,-88 699,144l-843 553zm555 -962l280 396 -827 579 -279 -396 -9 -12 835 -567zm-826 579c-160,-226 -105,-541 123,-701 228,-159 543,-104 703,122l-826 579zm719 -742l116 176 -844 554 -116 -177 -1 0 845 -553zm-844 553c-153,-232 -88,-544 144,-697 233,-152 547,-88 700,144l-844 553zm613 -905l232 353 -846 552 -232 -353 -4 -7 850 -545zm-846 552c-152,-232 -87,-545 146,-697 233,-152 547,-87 700,145l-846 552zm710 -765l140 220 -854 538 -139 -220 848 -546 5 8zm-853 538c-149,-235 -79,-546 157,-695 235,-148 548,-77 696,157l-853 538zm615 -898l233 352 -844 554 -232 -353 -6 -8 849 -545zm-843 553c-154,-232 -89,-544 144,-697 233,-152 546,-88 699,144l-843 553zm710 -764l139 220 -855 536 -139 -221 -5 -8 860 -527zm-855 535c-148,-234 -77,-546 159,-693 236,-148 548,-77 696,158l-855 535zm673 -836l187 309 -865 519 -186 -308 863 -523 1 3zm-864 520c-144,-238 -67,-548 171,-692 239,-143 550,-66 693,172l-864 520zm700 -787l163 264 -862 526 -162 -264 -3 -4 864 -522zm-861 526c-145,-237 -71,-547 166,-692 238,-145 550,-71 695,166l-861 526zm678 -831l185 309 -866 518 -186 -309 864 -522 3 4zm-867 518c-143,-237 -65,-547 174,-690 238,-143 549,-66 693,172l-867 518zm701 -786l163 264 -861 526 -163 -264 0 0 861 -526zm-861 526c-145,-236 -71,-547 167,-692 238,-145 549,-71 694,166l-861 526zm699 -790l162 264 -861 526 -162 -263 -10 -16 871 -511zm-861 527c-146,-237 -71,-548 166,-693 238,-145 550,-71 695,166l-861 527zm684 -841l186 330 -880 495 -187 -331 -14 -28 895 -466zm-881 494c-136,-241 -50,-549 193,-685 242,-137 551,-51 688,191l-881 494zm756 -753l139 287 -909 438 -140 -287 908 -441 2 3zm-910 438c-121,-249 -16,-551 235,-672 250,-120 553,-16 675,234l-910 438zm745 -771l163 330 -906 444 -163 -330 243 -680 663 236zm-906 444c-123,-250 -19,-552 231,-674 249,-122 552,-19 675,230l-906 444zm31692 -13923l-31028 14159 -421 -916 31028 -14159 20 -8 401 924zm-421 -916c254,-115 554,-4 670,248 116,253 5,552 -249,668l-421 -916zm727 791l-326 133 -381 -932 325 -132 465 888 -83 43zm-382 -931c258,-104 554,18 658,275 105,257 -19,552 -276,656l-382 -931z"/>
     </g>
     <g>
      <path class="fil14" d="M659269 243524l-54801 -40628 603 -807 54800 40628 87 726 -689 81zm602 -807c224,166 270,482 104,704 -166,223 -483,269 -706,103l602 -807zm-1503 1049l814 -969 776 646 -815 969 -1 2 -774 -648zm775 646c-178,213 -498,241 -712,63 -214,-177 -241,-496 -63,-709l775 646zm-1704 454l931 -1101 772 649 -931 1101 -12 14 -760 -663zm772 649c-179,213 -498,240 -711,61 -213,-179 -240,-498 -61,-710l772 649zm-1620 284l860 -946 748 676 -860 947 -7 6 -741 -683zm748 677c-187,205 -507,221 -713,35 -207,-187 -222,-506 -35,-712l748 677zm-1719 352l977 -1035 735 689 -977 1035 -20 21 -715 -710zm735 689c-190,203 -511,212 -713,22 -203,-189 -213,-508 -22,-711l735 689zm-1646 171l931 -881 695 731 -930 880 -700 -726 4 -4zm696 730c-202,192 -523,183 -714,-18 -191,-201 -184,-521 18,-712l696 730zm-1723 265l1023 -991 704 722 -1024 992 -4 4 -699 -727zm703 723c-199,193 -520,189 -713,-11 -194,-199 -189,-518 10,-712l703 723zm-1630 153l931 -880 695 731 -930 880 -8 7 -688 -738zm696 731c-202,191 -523,183 -714,-18 -191,-201 -183,-521 18,-713l696 731zm-1757 231l1069 -969 680 745 -1070 969 -10 10 -669 -755zm679 745c-206,187 -526,172 -713,-33 -188,-205 -173,-525 34,-712l679 745zm-1646 82l977 -836 659 764 -977 836 -6 5 -653 -769zm659 764c-211,181 -530,157 -712,-54 -182,-210 -158,-529 53,-710l659 764zm-1769 157l1117 -926 646 774 -1117 925 -9 7 -637 -780zm646 773c-214,178 -533,148 -711,-64 -178,-213 -149,-532 65,-709l646 773zm-1637 12l1000 -793 628 788 -1000 793 -4 3 -624 -791zm628 788c-217,173 -536,136 -709,-80 -173,-217 -137,-535 81,-708l628 788zm-1392 -196l768 -595 620 794 -768 595 -697 -74 77 -720zm620 794c-220,170 -538,131 -709,-88 -170,-220 -131,-536 89,-706l620 794zm-42860 -51764l42937 51044 -774 646 -42937 -51044 759 -663 15 17zm-774 646c-179,-213 -151,-531 62,-709 213,-178 533,-150 712,63l-774 646zm294 -1169l465 506 -745 680 -465 -507 674 -743 71 64zm-745 679c-188,-204 -173,-523 32,-711 205,-187 525,-173 713,32l-745 679z"/>
     </g>
    </g>
   </g>
  </g>
 </g>
</svg>
