<?xml version="1.0" encoding="UTF-8"?>
<!DOCTYPE svg PUBLIC "-//W3C//DTD SVG 1.1//EN" "http://www.w3.org/Graphics/SVG/1.1/DTD/svg11.dtd">
<!-- Creator: CorelDRAW X7 -->
<svg xmlns="http://www.w3.org/2000/svg" xml:space="preserve" width="1452px" height="600px" version="1.1" style="shape-rendering:geometricPrecision; text-rendering:geometricPrecision; image-rendering:optimizeQuality; fill-rule:evenodd; clip-rule:evenodd"
viewBox="0 0 989676 408850"
 xmlns:xlink="http://www.w3.org/1999/xlink">
 <defs>
  <style type="text/css">
   <![CDATA[
    .fil3 {fill:black}
    .fil2 {fill:#00C5C3}
    .fil79 {fill:#01C6C4}
    .fil78 {fill:#02C7C5}
    .fil77 {fill:#02C8C6}
    .fil76 {fill:#03C8C6}
    .fil75 {fill:#04C9C7}
    .fil74 {fill:#04CAC8}
    .fil73 {fill:#05CAC8}
    .fil72 {fill:#05CBC9}
    .fil71 {fill:#06CBC9}
    .fil70 {fill:#06CCCA}
    .fil69 {fill:#07CCCA}
    .fil68 {fill:#07CDCB}
    .fil67 {fill:#08CDCB}
    .fil66 {fill:#08CECC}
    .fil65 {fill:#09CECC}
    .fil64 {fill:#09CFCD}
    .fil63 {fill:#0ACFCD}
    .fil62 {fill:#0AD0CE}
    .fil61 {fill:#0BD0CE}
    .fil60 {fill:#0BD1CF}
    .fil59 {fill:#0CD1CF}
    .fil58 {fill:#0CD2D0}
    .fil57 {fill:#0DD3D1}
    .fil56 {fill:#0ED4D2}
    .fil55 {fill:#0FD5D3}
    .fil54 {fill:#10D6D4}
    .fil53 {fill:#10D7D5}
    .fil52 {fill:#11D7D5}
    .fil51 {fill:#11D8D6}
    .fil50 {fill:#12D8D6}
    .fil49 {fill:#12D9D7}
    .fil48 {fill:#13D9D7}
    .fil47 {fill:#13DAD8}
    .fil46 {fill:#14DAD8}
    .fil45 {fill:#14DBD9}
    .fil44 {fill:#15DBD9}
    .fil43 {fill:#15DCDA}
    .fil42 {fill:#16DCDA}
    .fil41 {fill:#16DDDB}
    .fil40 {fill:#17DDDB}
    .fil39 {fill:#17DEDC}
    .fil38 {fill:#18DEDC}
    .fil37 {fill:#18DFDD}
    .fil36 {fill:#19E0DE}
    .fil35 {fill:#1AE0DE}
    .fil34 {fill:#1AE1DF}
    .fil33 {fill:#1BE2E0}
    .fil32 {fill:#1CE3E1}
    .fil31 {fill:#26EAE8}
    .fil30 {fill:#2DEEED}
    .fil29 {fill:#31F1F0}
    .fil80 {fill:#31F9F5}
    .fil28 {fill:#34F3F2}
    .fil27 {fill:#37F4F4}
    .fil26 {fill:#39F6F5}
    .fil25 {fill:#3AF7F6}
    .fil24 {fill:#3BF7F7}
    .fil23 {fill:#3CF8F8}
    .fil22 {fill:#3DF9F8}
    .fil21 {fill:#3EF9F9}
    .fil20 {fill:#3FFAF9}
    .fil19 {fill:#3FFAFA}
    .fil18 {fill:#40FAFA}
    .fil17 {fill:#40FBFA}
    .fil16 {fill:#41FBFB}
    .fil15 {fill:#42FBFB}
    .fil14 {fill:#42FCFB}
    .fil13 {fill:#42FCFC}
    .fil12 {fill:#43FCFC}
    .fil11 {fill:#43FDFC}
    .fil10 {fill:#44FDFD}
    .fil9 {fill:#45FDFD}
    .fil8 {fill:#45FEFD}
    .fil7 {fill:#45FEFE}
    .fil6 {fill:#46FEFE}
    .fil5 {fill:#46FFFE}
    .fil4 {fill:#46FFFF}
    .fil1 {fill:#47FFFF}
    .fil0 {fill:white}
   ]]>
  </style>
      <clipPath id="id0">
       <path d="M384753 154669c-3022,-14949 1862,-25986 -700,-41152 -1817,-10748 -4426,-33580 -9901,-39163 -17616,5733 -17715,18395 -29578,23817 -9092,4157 -29534,10936 -35376,16014 11504,0 17882,-646 27463,2141 13876,4038 8878,3436 12970,13366 4898,11886 18902,24633 35122,24977z"/>
      </clipPath>
      <clipPath id="id1">
       <path d="M49063 105998c5263,-13453 3642,-27674 10669,-41357 4979,-9696 17647,-29065 24552,-32731 15062,10788 10502,23384 20172,32137 7411,6711 24848,19350 28883,25956 -10967,-3477 -16851,-6020 -26826,-6258 -14448,-346 -9500,591 -16403,8820 -8262,9850 -25481,18006 -41047,13433z"/>
      </clipPath>
 </defs>
 <g id="Capa_x0020_1">
  <metadata id="CorelCorpID_0Corel-Layer"/>
  <g id="_1889722906944">
   <rect class="fil0" width="989676" height="408850"/>
   <g>
    <path class="fil1" d="M211093 207428c3766,1560 3659,48 10900,70 3368,-13921 0,-23578 0,-38810 26882,-599 18627,-21822 56043,-40505 5782,-2887 17617,-7232 21818,-10883 -12900,1073 -20680,10298 -37739,5040 -9637,-2971 -11080,-17218 -20180,-26540 -17106,-17523 -56684,-7702 -61986,12156l-46459 -17775c5220,8826 16577,16672 24269,24392 12993,13040 11843,11051 19086,29188 6494,16263 13752,15063 23062,25212 9291,10129 5708,30488 11186,38455z"/>
    <path class="fil2" d="M206421 299811c-6930,3500 -35851,10295 -35851,41728 0,22179 17548,38631 38060,41521 37280,5253 64582,-47486 29152,-74440 -13075,-9947 -5020,-4172 -9560,-10348 -4165,1712 -12002,1468 -21801,1539z"/>
    <path class="fil3" d="M846438 369569c0,1553 -16,2998 671,3283 1672,692 7954,702 9348,121 1532,-638 943,-11346 892,-17409l-11 -74757c-5,-20964 -1689,-28954 9652,-40179 16069,-15901 33517,-14324 54193,-14324 34249,1266 37375,22376 37374,57617l-5 70079c-54,10822 153,18560 414,19563 161,625 3969,216 8847,216l88 -121002c0,-26055 -27787,-37373 -54503,-37373 -29055,0 -42437,7685 -56060,23359l11 -70087c95,-11323 190,-14754 -390,-17937 -224,-1229 -5457,-739 -10521,-739l0 219569z"/>
    <path class="fil3" d="M525651 366453l-15572 0c-45757,0 -56060,-34170 -56060,-74746 0,-41509 21902,-65883 62382,-66838 50140,-1182 63752,29222 63752,73067 0,37627 -18008,68517 -54502,68517zm-17129 9344c25253,0 49419,-406 67004,-24871 20697,-28792 20486,-86845 -2891,-115547 -17785,-21837 -77573,-31384 -108924,618 -32635,33310 -32377,139800 44811,139800z"/>
    <path class="fil3" d="M703126 268301c14567,-57400 89661,-48324 107556,-23370 8009,11169 7354,15118 9283,24976l9343 0c0,-41398 -37607,-58017 -79585,-53114 -38335,4476 -60290,34498 -60634,76419 -371,45191 15942,75907 55160,81996 45111,7004 84232,-13678 85059,-50798 -4473,0 -6412,-533 -8060,-239 -1790,319 -1455,4792 -4595,12499 -1599,4823 -5984,11533 -9683,15231 -8094,8092 -21519,14155 -36789,14600 -62329,1820 -80326,-45912 -67055,-98200z"/>
    <path class="fil2" d="M373043 74953c5476,5583 8317,27904 10133,38651 2563,15167 -2057,26120 963,41068 27855,0 48592,-17507 44809,-48101 -2573,-20804 -32096,-45132 -55905,-31618z"/>
    <path class="fil3" d="M376158 218518l-24915 0c0,3938 -275,7361 111,8667 336,1133 27922,676 29475,676l0 119906c0,24531 20298,28030 40488,28030 9289,0 16355,75 18683,-243 1197,-163 839,-7690 839,-8643 -22738,1264 -41165,3793 -48477,-8334 -2812,-4663 -2189,-12092 -2189,-21710l0 -109006 49831 0c-107,-3636 -63,-5662 0,-9343l-49831 0 0 -32701 -8001 0c-309,8382 755,27260 -903,32453 -37,111 -4690,217 -5111,248z"/>
    <path class="fil2" d="M51587 106398c5000,-23931 1961,-15973 10663,-40362 3448,-9662 14000,-29559 22709,-33515 -4535,-4349 -12346,-6905 -20635,-7097l-2010 0c-4226,97 -8517,811 -12510,2218 -10277,3622 -20147,12874 -24511,22206 -11051,23627 5643,54453 26294,56550z"/>
    <g>
     <g style="clip-path:url(#id0)">
      <g>
       <polygon class="fil1" points="309198,74354 309345,74354 309345,154669 309198,154669 "/>
      </g>
      <g>
       <polygon id="1" class="fil1" points="309198,74354 309640,74354 309640,154669 309198,154669 "/>
      </g>
      <g>
       <polygon id="2" class="fil1" points="309493,74354 309936,74354 309936,154669 309493,154669 "/>
      </g>
      <g>
       <polygon id="3" class="fil1" points="309788,74354 310232,74354 310232,154669 309788,154669 "/>
      </g>
      <g>
       <polygon id="4" class="fil1" points="310084,74354 310527,74354 310527,154669 310084,154669 "/>
      </g>
      <g>
       <polygon id="5" class="fil1" points="310379,74354 310823,74354 310823,154669 310379,154669 "/>
      </g>
      <g>
       <polygon id="6" class="fil1" points="310674,74354 311118,74354 311118,154669 310674,154669 "/>
      </g>
      <g>
       <polygon id="7" class="fil1" points="310970,74354 311413,74354 311413,154669 310970,154669 "/>
      </g>
      <g>
       <polygon id="8" class="fil1" points="311265,74354 311709,74354 311709,154669 311265,154669 "/>
      </g>
      <g>
       <polygon id="9" class="fil1" points="311561,74354 312004,74354 312004,154669 311561,154669 "/>
      </g>
      <g>
       <polygon id="10" class="fil1" points="311856,74354 312299,74354 312299,154669 311856,154669 "/>
      </g>
      <g>
       <polygon id="11" class="fil1" points="312152,74354 312595,74354 312595,154669 312152,154669 "/>
      </g>
      <g>
       <polygon id="12" class="fil1" points="312447,74354 312890,74354 312890,154669 312447,154669 "/>
      </g>
      <g>
       <polygon id="13" class="fil1" points="312743,74354 313185,74354 313185,154669 312743,154669 "/>
      </g>
      <g>
       <polygon id="14" class="fil1" points="313038,74354 313481,74354 313481,154669 313038,154669 "/>
      </g>
      <g>
       <polygon id="15" class="fil1" points="313334,74354 313776,74354 313776,154669 313334,154669 "/>
      </g>
      <g>
       <polygon id="16" class="fil1" points="313629,74354 314072,74354 314072,154669 313629,154669 "/>
      </g>
      <g>
       <polygon id="17" class="fil1" points="313924,74354 314368,74354 314368,154669 313924,154669 "/>
      </g>
      <g>
       <polygon id="18" class="fil1" points="314220,74354 314663,74354 314663,154669 314220,154669 "/>
      </g>
      <g>
       <polygon id="19" class="fil1" points="314515,74354 314959,74354 314959,154669 314515,154669 "/>
      </g>
      <g>
       <polygon id="20" class="fil1" points="314810,74354 315254,74354 315254,154669 314810,154669 "/>
      </g>
      <g>
       <polygon id="21" class="fil1" points="315106,74354 315549,74354 315549,154669 315106,154669 "/>
      </g>
      <g>
       <polygon id="22" class="fil1" points="315401,74354 315845,74354 315845,154669 315401,154669 "/>
      </g>
      <g>
       <polygon id="23" class="fil1" points="315697,74354 316140,74354 316140,154669 315697,154669 "/>
      </g>
      <g>
       <polygon id="24" class="fil1" points="315992,74354 316435,74354 316435,154669 315992,154669 "/>
      </g>
      <g>
       <polygon id="25" class="fil1" points="316287,74354 316731,74354 316731,154669 316287,154669 "/>
      </g>
      <g>
       <polygon id="26" class="fil1" points="316583,74354 317026,74354 317026,154669 316583,154669 "/>
      </g>
      <g>
       <polygon id="27" class="fil1" points="316879,74354 317321,74354 317321,154669 316879,154669 "/>
      </g>
      <g>
       <polygon id="28" class="fil1" points="317174,74354 317617,74354 317617,154669 317174,154669 "/>
      </g>
      <g>
       <polygon id="29" class="fil1" points="317470,74354 317912,74354 317912,154669 317470,154669 "/>
      </g>
      <g>
       <polygon id="30" class="fil1" points="317765,74354 318208,74354 318208,154669 317765,154669 "/>
      </g>
      <g>
       <polygon id="31" class="fil1" points="318060,74354 318504,74354 318504,154669 318060,154669 "/>
      </g>
      <g>
       <polygon id="32" class="fil1" points="318356,74354 318799,74354 318799,154669 318356,154669 "/>
      </g>
      <g>
       <polygon id="33" class="fil1" points="318651,74354 319095,74354 319095,154669 318651,154669 "/>
      </g>
      <g>
       <polygon id="34" class="fil1" points="318946,74354 319390,74354 319390,154669 318946,154669 "/>
      </g>
      <g>
       <polygon id="35" class="fil1" points="319242,74354 319685,74354 319685,154669 319242,154669 "/>
      </g>
      <g>
       <polygon id="36" class="fil1" points="319537,74354 319981,74354 319981,154669 319537,154669 "/>
      </g>
      <g>
       <polygon id="37" class="fil1" points="319833,74354 320276,74354 320276,154669 319833,154669 "/>
      </g>
      <g>
       <polygon id="38" class="fil1" points="320128,74354 320571,74354 320571,154669 320128,154669 "/>
      </g>
      <g>
       <polygon id="39" class="fil1" points="320423,74354 320867,74354 320867,154669 320423,154669 "/>
      </g>
      <g>
       <polygon id="40" class="fil1" points="320719,74354 321162,74354 321162,154669 320719,154669 "/>
      </g>
      <g>
       <polygon id="41" class="fil1" points="321015,74354 321457,74354 321457,154669 321015,154669 "/>
      </g>
      <g>
       <polygon id="42" class="fil1" points="321310,74354 321753,74354 321753,154669 321310,154669 "/>
      </g>
      <g>
       <polygon id="43" class="fil1" points="321606,74354 322048,74354 322048,154669 321606,154669 "/>
      </g>
      <g>
       <polygon id="44" class="fil1" points="321901,74354 322344,74354 322344,154669 321901,154669 "/>
      </g>
      <g>
       <polygon id="45" class="fil1" points="322196,74354 322639,74354 322639,154669 322196,154669 "/>
      </g>
      <g>
       <polygon id="46" class="fil1" points="322492,74354 322935,74354 322935,154669 322492,154669 "/>
      </g>
      <g>
       <polygon id="47" class="fil1" points="322787,74354 323230,74354 323230,154669 322787,154669 "/>
      </g>
      <g>
       <polygon id="48" class="fil1" points="323082,74354 323526,74354 323526,154669 323082,154669 "/>
      </g>
      <g>
       <polygon id="49" class="fil1" points="323378,74354 323821,74354 323821,154669 323378,154669 "/>
      </g>
      <g>
       <polygon id="50" class="fil1" points="323673,74354 324117,74354 324117,154669 323673,154669 "/>
      </g>
      <g>
       <polygon id="51" class="fil1" points="323969,74354 324412,74354 324412,154669 323969,154669 "/>
      </g>
      <g>
       <polygon id="52" class="fil1" points="324264,74354 324707,74354 324707,154669 324264,154669 "/>
      </g>
      <g>
       <polygon id="53" class="fil4" points="324559,74354 325003,74354 325003,154669 324559,154669 "/>
      </g>
      <g>
       <polygon id="54" class="fil4" points="324855,74354 325298,74354 325298,154669 324855,154669 "/>
      </g>
      <g>
       <polygon id="55" class="fil4" points="325151,74354 325593,74354 325593,154669 325151,154669 "/>
      </g>
      <g>
       <polygon id="56" class="fil4" points="325446,74354 325889,74354 325889,154669 325446,154669 "/>
      </g>
      <g>
       <polygon id="57" class="fil4" points="325742,74354 326184,74354 326184,154669 325742,154669 "/>
      </g>
      <g>
       <polygon id="58" class="fil4" points="326037,74354 326480,74354 326480,154669 326037,154669 "/>
      </g>
      <g>
       <polygon id="59" class="fil4" points="326332,74354 326775,74354 326775,154669 326332,154669 "/>
      </g>
      <g>
       <polygon id="60" class="fil4" points="326628,74354 327071,74354 327071,154669 326628,154669 "/>
      </g>
      <g>
       <polygon id="61" class="fil4" points="326923,74354 327366,74354 327366,154669 326923,154669 "/>
      </g>
      <g>
       <polygon id="62" class="fil4" points="327218,74354 327662,74354 327662,154669 327218,154669 "/>
      </g>
      <g>
       <polygon id="63" class="fil4" points="327514,74354 327957,74354 327957,154669 327514,154669 "/>
      </g>
      <g>
       <polygon id="64" class="fil4" points="327809,74354 328253,74354 328253,154669 327809,154669 "/>
      </g>
      <g>
       <polygon id="65" class="fil4" points="328104,74354 328548,74354 328548,154669 328104,154669 "/>
      </g>
      <g>
       <polygon id="66" class="fil5" points="328400,74354 328843,74354 328843,154669 328400,154669 "/>
      </g>
      <g>
       <polygon id="67" class="fil5" points="328695,74354 329139,74354 329139,154669 328695,154669 "/>
      </g>
      <g>
       <polygon id="68" class="fil5" points="328991,74354 329434,74354 329434,154669 328991,154669 "/>
      </g>
      <g>
       <polygon id="69" class="fil6" points="329287,74354 329729,74354 329729,154669 329287,154669 "/>
      </g>
      <g>
       <polygon id="70" class="fil6" points="329582,74354 330025,74354 330025,154669 329582,154669 "/>
      </g>
      <g>
       <polygon id="71" class="fil6" points="329878,74354 330320,74354 330320,154669 329878,154669 "/>
      </g>
      <g>
       <polygon id="72" class="fil6" points="330173,74354 330616,74354 330616,154669 330173,154669 "/>
      </g>
      <g>
       <polygon id="73" class="fil6" points="330468,74354 330911,74354 330911,154669 330468,154669 "/>
      </g>
      <g>
       <polygon id="74" class="fil6" points="330764,74354 331207,74354 331207,154669 330764,154669 "/>
      </g>
      <g>
       <polygon id="75" class="fil6" points="331059,74354 331502,74354 331502,154669 331059,154669 "/>
      </g>
      <g>
       <polygon id="76" class="fil6" points="331354,74354 331798,74354 331798,154669 331354,154669 "/>
      </g>
      <g>
       <polygon id="77" class="fil6" points="331650,74354 332093,74354 332093,154669 331650,154669 "/>
      </g>
      <g>
       <polygon id="78" class="fil6" points="331945,74354 332389,74354 332389,154669 331945,154669 "/>
      </g>
      <g>
       <polygon id="79" class="fil6" points="332240,74354 332684,74354 332684,154669 332240,154669 "/>
      </g>
      <g>
       <polygon id="80" class="fil6" points="332536,74354 332979,74354 332979,154669 332536,154669 "/>
      </g>
      <g>
       <polygon id="81" class="fil6" points="332831,74354 333275,74354 333275,154669 332831,154669 "/>
      </g>
      <g>
       <polygon id="82" class="fil6" points="333127,74354 333570,74354 333570,154669 333127,154669 "/>
      </g>
      <g>
       <polygon id="83" class="fil6" points="333423,74354 333865,74354 333865,154669 333423,154669 "/>
      </g>
      <g>
       <polygon id="84" class="fil6" points="333718,74354 334161,74354 334161,154669 333718,154669 "/>
      </g>
      <g>
       <polygon id="85" class="fil6" points="334014,74354 334456,74354 334456,154669 334014,154669 "/>
      </g>
      <g>
       <polygon id="86" class="fil6" points="334309,74354 334752,74354 334752,154669 334309,154669 "/>
      </g>
      <g>
       <polygon id="87" class="fil6" points="334604,74354 335047,74354 335047,154669 334604,154669 "/>
      </g>
      <g>
       <polygon id="88" class="fil6" points="334900,74354 335343,74354 335343,154669 334900,154669 "/>
      </g>
      <g>
       <polygon id="89" class="fil6" points="335195,74354 335638,74354 335638,154669 335195,154669 "/>
      </g>
      <g>
       <polygon id="90" class="fil6" points="335490,74354 335934,74354 335934,154669 335490,154669 "/>
      </g>
      <g>
       <polygon id="91" class="fil6" points="335786,74354 336229,74354 336229,154669 335786,154669 "/>
      </g>
      <g>
       <polygon id="92" class="fil6" points="336081,74354 336525,74354 336525,154669 336081,154669 "/>
      </g>
      <g>
       <polygon id="93" class="fil6" points="336376,74354 336820,74354 336820,154669 336376,154669 "/>
      </g>
      <g>
       <polygon id="94" class="fil7" points="336672,74354 337115,74354 337115,154669 336672,154669 "/>
      </g>
      <g>
       <polygon id="95" class="fil7" points="336967,74354 337411,74354 337411,154669 336967,154669 "/>
      </g>
      <g>
       <polygon id="96" class="fil7" points="337263,74354 337706,74354 337706,154669 337263,154669 "/>
      </g>
      <g>
       <polygon id="97" class="fil7" points="337559,74354 338001,74354 338001,154669 337559,154669 "/>
      </g>
      <g>
       <polygon id="98" class="fil7" points="337854,74354 338297,74354 338297,154669 337854,154669 "/>
      </g>
      <g>
       <polygon id="99" class="fil7" points="338149,74354 338592,74354 338592,154669 338149,154669 "/>
      </g>
      <g>
       <polygon id="100" class="fil7" points="338445,74354 338888,74354 338888,154669 338445,154669 "/>
      </g>
      <g>
       <polygon id="101" class="fil7" points="338740,74354 339183,74354 339183,154669 338740,154669 "/>
      </g>
      <g>
       <polygon id="102" class="fil7" points="339036,74354 339478,74354 339478,154669 339036,154669 "/>
      </g>
      <g>
       <polygon id="103" class="fil7" points="339331,74354 339774,74354 339774,154669 339331,154669 "/>
      </g>
      <g>
       <polygon id="104" class="fil7" points="339626,74354 340070,74354 340070,154669 339626,154669 "/>
      </g>
      <g>
       <polygon id="105" class="fil7" points="339922,74354 340365,74354 340365,154669 339922,154669 "/>
      </g>
      <g>
       <polygon id="106" class="fil8" points="340217,74354 340661,74354 340661,154669 340217,154669 "/>
      </g>
      <g>
       <polygon id="107" class="fil8" points="340512,74354 340956,74354 340956,154669 340512,154669 "/>
      </g>
      <g>
       <polygon id="108" class="fil9" points="340808,74354 341251,74354 341251,154669 340808,154669 "/>
      </g>
      <g>
       <polygon id="109" class="fil9" points="341103,74354 341547,74354 341547,154669 341103,154669 "/>
      </g>
      <g>
       <polygon id="110" class="fil9" points="341399,74354 341842,74354 341842,154669 341399,154669 "/>
      </g>
      <g>
       <polygon id="111" class="fil10" points="341695,74354 342137,74354 342137,154669 341695,154669 "/>
      </g>
      <g>
       <polygon id="112" class="fil10" points="341990,74354 342433,74354 342433,154669 341990,154669 "/>
      </g>
      <g>
       <polygon id="113" class="fil10" points="342285,74354 342728,74354 342728,154669 342285,154669 "/>
      </g>
      <g>
       <polygon id="114" class="fil10" points="342581,74354 343023,74354 343023,154669 342581,154669 "/>
      </g>
      <g>
       <polygon id="115" class="fil10" points="342876,74354 343319,74354 343319,154669 342876,154669 "/>
      </g>
      <g>
       <polygon id="116" class="fil10" points="343172,74354 343614,74354 343614,154669 343172,154669 "/>
      </g>
      <g>
       <polygon id="117" class="fil10" points="343467,74354 343910,74354 343910,154669 343467,154669 "/>
      </g>
      <g>
       <polygon id="118" class="fil10" points="343762,74354 344206,74354 344206,154669 343762,154669 "/>
      </g>
      <g>
       <polygon id="119" class="fil10" points="344058,74354 344501,74354 344501,154669 344058,154669 "/>
      </g>
      <g>
       <polygon id="120" class="fil11" points="344353,74354 344797,74354 344797,154669 344353,154669 "/>
      </g>
      <g>
       <polygon id="121" class="fil11" points="344648,74354 345092,74354 345092,154669 344648,154669 "/>
      </g>
      <g>
       <polygon id="122" class="fil12" points="344944,74354 345387,74354 345387,154669 344944,154669 "/>
      </g>
      <g>
       <polygon id="123" class="fil12" points="345239,74354 345683,74354 345683,154669 345239,154669 "/>
      </g>
      <g>
       <polygon id="124" class="fil12" points="345535,74354 345978,74354 345978,154669 345535,154669 "/>
      </g>
      <g>
       <polygon id="125" class="fil12" points="345830,74354 346273,74354 346273,154669 345830,154669 "/>
      </g>
      <g>
       <polygon id="126" class="fil13" points="346126,74354 346569,74354 346569,154669 346126,154669 "/>
      </g>
      <g>
       <polygon id="127" class="fil13" points="346421,74354 346864,74354 346864,154669 346421,154669 "/>
      </g>
      <g>
       <polygon id="128" class="fil14" points="346717,74354 347159,74354 347159,154669 346717,154669 "/>
      </g>
      <g>
       <polygon id="129" class="fil15" points="347012,74354 347455,74354 347455,154669 347012,154669 "/>
      </g>
      <g>
       <polygon id="130" class="fil16" points="347308,74354 347750,74354 347750,154669 347308,154669 "/>
      </g>
      <g>
       <polygon id="131" class="fil16" points="347603,74354 348046,74354 348046,154669 347603,154669 "/>
      </g>
      <g>
       <polygon id="132" class="fil16" points="347898,74354 348342,74354 348342,154669 347898,154669 "/>
      </g>
      <g>
       <polygon id="133" class="fil17" points="348194,74354 348637,74354 348637,154669 348194,154669 "/>
      </g>
      <g>
       <polygon id="134" class="fil18" points="348489,74354 348933,74354 348933,154669 348489,154669 "/>
      </g>
      <g>
       <polygon id="135" class="fil19" points="348784,74354 349228,74354 349228,154669 348784,154669 "/>
      </g>
      <g>
       <polygon id="136" class="fil20" points="349080,74354 349523,74354 349523,154669 349080,154669 "/>
      </g>
      <g>
       <polygon id="137" class="fil21" points="349375,74354 349819,74354 349819,154669 349375,154669 "/>
      </g>
      <g>
       <polygon id="138" class="fil22" points="349671,74354 350114,74354 350114,154669 349671,154669 "/>
      </g>
      <g>
       <polygon id="139" class="fil23" points="349966,74354 350409,74354 350409,154669 349966,154669 "/>
      </g>
      <g>
       <polygon id="140" class="fil24" points="350262,74354 350705,74354 350705,154669 350262,154669 "/>
      </g>
      <g>
       <polygon id="141" class="fil25" points="350557,74354 351000,74354 351000,154669 350557,154669 "/>
      </g>
      <g>
       <polygon id="142" class="fil26" points="350853,74354 351295,74354 351295,154669 350853,154669 "/>
      </g>
      <g>
       <polygon id="143" class="fil27" points="351148,74354 351591,74354 351591,154669 351148,154669 "/>
      </g>
      <g>
       <polygon id="144" class="fil28" points="351444,74354 351886,74354 351886,154669 351444,154669 "/>
      </g>
      <g>
       <polygon id="145" class="fil29" points="351739,74354 352182,74354 352182,154669 351739,154669 "/>
      </g>
      <g>
       <polygon id="146" class="fil30" points="352034,74354 352478,74354 352478,154669 352034,154669 "/>
      </g>
      <g>
       <polygon id="147" class="fil31" points="352330,74354 352773,74354 352773,154669 352330,154669 "/>
      </g>
      <g>
       <polygon id="148" class="fil32" points="352625,74354 353068,74354 353068,154669 352625,154669 "/>
      </g>
      <g>
       <polygon id="149" class="fil32" points="352920,74354 353364,74354 353364,154669 352920,154669 "/>
      </g>
      <g>
       <polygon id="150" class="fil33" points="353216,74354 353659,74354 353659,154669 353216,154669 "/>
      </g>
      <g>
       <polygon id="151" class="fil33" points="353511,74354 353955,74354 353955,154669 353511,154669 "/>
      </g>
      <g>
       <polygon id="152" class="fil33" points="353807,74354 354250,74354 354250,154669 353807,154669 "/>
      </g>
      <g>
       <polygon id="153" class="fil33" points="354102,74354 354545,74354 354545,154669 354102,154669 "/>
      </g>
      <g>
       <polygon id="154" class="fil34" points="354398,74354 354841,74354 354841,154669 354398,154669 "/>
      </g>
      <g>
       <polygon id="155" class="fil34" points="354693,74354 355136,74354 355136,154669 354693,154669 "/>
      </g>
      <g>
       <polygon id="156" class="fil34" points="354989,74354 355431,74354 355431,154669 354989,154669 "/>
      </g>
      <g>
       <polygon id="157" class="fil35" points="355284,74354 355727,74354 355727,154669 355284,154669 "/>
      </g>
      <g>
       <polygon id="158" class="fil36" points="355580,74354 356022,74354 356022,154669 355580,154669 "/>
      </g>
      <g>
       <polygon id="159" class="fil36" points="355875,74354 356318,74354 356318,154669 355875,154669 "/>
      </g>
      <g>
       <polygon id="160" class="fil36" points="356170,74354 356614,74354 356614,154669 356170,154669 "/>
      </g>
      <g>
       <polygon id="161" class="fil37" points="356466,74354 356909,74354 356909,154669 356466,154669 "/>
      </g>
      <g>
       <polygon id="162" class="fil37" points="356761,74354 357204,74354 357204,154669 356761,154669 "/>
      </g>
      <g>
       <polygon id="163" class="fil37" points="357056,74354 357500,74354 357500,154669 357056,154669 "/>
      </g>
      <g>
       <polygon id="164" class="fil38" points="357352,74354 357795,74354 357795,154669 357352,154669 "/>
      </g>
      <g>
       <polygon id="165" class="fil39" points="357647,74354 358091,74354 358091,154669 357647,154669 "/>
      </g>
      <g>
       <polygon id="166" class="fil39" points="357942,74354 358386,74354 358386,154669 357942,154669 "/>
      </g>
      <g>
       <polygon id="167" class="fil39" points="358238,74354 358681,74354 358681,154669 358238,154669 "/>
      </g>
      <g>
       <polygon id="168" class="fil40" points="358533,74354 358977,74354 358977,154669 358533,154669 "/>
      </g>
      <g>
       <polygon id="169" class="fil41" points="358829,74354 359272,74354 359272,154669 358829,154669 "/>
      </g>
      <g>
       <polygon id="170" class="fil41" points="359125,74354 359567,74354 359567,154669 359125,154669 "/>
      </g>
      <g>
       <polygon id="171" class="fil42" points="359420,74354 359863,74354 359863,154669 359420,154669 "/>
      </g>
      <g>
       <polygon id="172" class="fil42" points="359716,74354 360158,74354 360158,154669 359716,154669 "/>
      </g>
      <g>
       <polygon id="173" class="fil43" points="360011,74354 360454,74354 360454,154669 360011,154669 "/>
      </g>
      <g>
       <polygon id="174" class="fil43" points="360306,74354 360750,74354 360750,154669 360306,154669 "/>
      </g>
      <g>
       <polygon id="175" class="fil44" points="360602,74354 361045,74354 361045,154669 360602,154669 "/>
      </g>
      <g>
       <polygon id="176" class="fil44" points="360897,74354 361340,74354 361340,154669 360897,154669 "/>
      </g>
      <g>
       <polygon id="177" class="fil45" points="361192,74354 361636,74354 361636,154669 361192,154669 "/>
      </g>
      <g>
       <polygon id="178" class="fil46" points="361488,74354 361931,74354 361931,154669 361488,154669 "/>
      </g>
      <g>
       <polygon id="179" class="fil46" points="361783,74354 362227,74354 362227,154669 361783,154669 "/>
      </g>
      <g>
       <polygon id="180" class="fil47" points="362078,74354 362522,74354 362522,154669 362078,154669 "/>
      </g>
      <g>
       <polygon id="181" class="fil47" points="362374,74354 362817,74354 362817,154669 362374,154669 "/>
      </g>
      <g>
       <polygon id="182" class="fil48" points="362669,74354 363113,74354 363113,154669 362669,154669 "/>
      </g>
      <g>
       <polygon id="183" class="fil48" points="362965,74354 363408,74354 363408,154669 362965,154669 "/>
      </g>
      <g>
       <polygon id="184" class="fil49" points="363261,74354 363703,74354 363703,154669 363261,154669 "/>
      </g>
      <g>
       <polygon id="185" class="fil50" points="363556,74354 363999,74354 363999,154669 363556,154669 "/>
      </g>
      <g>
       <polygon id="186" class="fil50" points="363852,74354 364294,74354 364294,154669 363852,154669 "/>
      </g>
      <g>
       <polygon id="187" class="fil50" points="364147,74354 364590,74354 364590,154669 364147,154669 "/>
      </g>
      <g>
       <polygon id="188" class="fil51" points="364442,74354 364885,74354 364885,154669 364442,154669 "/>
      </g>
      <g>
       <polygon id="189" class="fil52" points="364738,74354 365181,74354 365181,154669 364738,154669 "/>
      </g>
      <g>
       <polygon id="190" class="fil52" points="365033,74354 365476,74354 365476,154669 365033,154669 "/>
      </g>
      <g>
       <polygon id="191" class="fil52" points="365328,74354 365772,74354 365772,154669 365328,154669 "/>
      </g>
      <g>
       <polygon id="192" class="fil53" points="365624,74354 366067,74354 366067,154669 365624,154669 "/>
      </g>
      <g>
       <polygon id="193" class="fil54" points="365919,74354 366363,74354 366363,154669 365919,154669 "/>
      </g>
      <g>
       <polygon id="194" class="fil54" points="366214,74354 366658,74354 366658,154669 366214,154669 "/>
      </g>
      <g>
       <polygon id="195" class="fil54" points="366510,74354 366953,74354 366953,154669 366510,154669 "/>
      </g>
      <g>
       <polygon id="196" class="fil55" points="366805,74354 367249,74354 367249,154669 366805,154669 "/>
      </g>
      <g>
       <polygon id="197" class="fil55" points="367101,74354 367544,74354 367544,154669 367101,154669 "/>
      </g>
      <g>
       <polygon id="198" class="fil55" points="367397,74354 367839,74354 367839,154669 367397,154669 "/>
      </g>
      <g>
       <polygon id="199" class="fil55" points="367692,74354 368135,74354 368135,154669 367692,154669 "/>
      </g>
      <g>
       <polygon id="200" class="fil56" points="367987,74354 368430,74354 368430,154669 367987,154669 "/>
      </g>
      <g>
       <polygon id="201" class="fil56" points="368283,74354 368726,74354 368726,154669 368283,154669 "/>
      </g>
      <g>
       <polygon id="202" class="fil56" points="368578,74354 369021,74354 369021,154669 368578,154669 "/>
      </g>
      <g>
       <polygon id="203" class="fil56" points="368874,74354 369317,74354 369317,154669 368874,154669 "/>
      </g>
      <g>
       <polygon id="204" class="fil57" points="369169,74354 369612,74354 369612,154669 369169,154669 "/>
      </g>
      <g>
       <polygon id="205" class="fil57" points="369464,74354 369908,74354 369908,154669 369464,154669 "/>
      </g>
      <g>
       <polygon id="206" class="fil57" points="369760,74354 370203,74354 370203,154669 369760,154669 "/>
      </g>
      <g>
       <polygon id="207" class="fil57" points="370055,74354 370499,74354 370499,154669 370055,154669 "/>
      </g>
      <g>
       <polygon id="208" class="fil58" points="370350,74354 370794,74354 370794,154669 370350,154669 "/>
      </g>
      <g>
       <polygon id="209" class="fil58" points="370646,74354 371089,74354 371089,154669 370646,154669 "/>
      </g>
      <g>
       <polygon id="210" class="fil58" points="370941,74354 371385,74354 371385,154669 370941,154669 "/>
      </g>
      <g>
       <polygon id="211" class="fil59" points="371237,74354 371680,74354 371680,154669 371237,154669 "/>
      </g>
      <g>
       <polygon id="212" class="fil60" points="371533,74354 371975,74354 371975,154669 371533,154669 "/>
      </g>
      <g>
       <polygon id="213" class="fil60" points="371828,74354 372271,74354 372271,154669 371828,154669 "/>
      </g>
      <g>
       <polygon id="214" class="fil60" points="372123,74354 372566,74354 372566,154669 372123,154669 "/>
      </g>
      <g>
       <polygon id="215" class="fil61" points="372419,74354 372861,74354 372861,154669 372419,154669 "/>
      </g>
      <g>
       <polygon id="216" class="fil62" points="372714,74354 373157,74354 373157,154669 372714,154669 "/>
      </g>
      <g>
       <polygon id="217" class="fil62" points="373010,74354 373453,74354 373453,154669 373010,154669 "/>
      </g>
      <g>
       <polygon id="218" class="fil63" points="373305,74354 373748,74354 373748,154669 373305,154669 "/>
      </g>
      <g>
       <polygon id="219" class="fil63" points="373600,74354 374044,74354 374044,154669 373600,154669 "/>
      </g>
      <g>
       <polygon id="220" class="fil64" points="373896,74354 374339,74354 374339,154669 373896,154669 "/>
      </g>
      <g>
       <polygon id="221" class="fil64" points="374191,74354 374635,74354 374635,154669 374191,154669 "/>
      </g>
      <g>
       <polygon id="222" class="fil65" points="374486,74354 374930,74354 374930,154669 374486,154669 "/>
      </g>
      <g>
       <polygon id="223" class="fil65" points="374782,74354 375225,74354 375225,154669 374782,154669 "/>
      </g>
      <g>
       <polygon id="224" class="fil66" points="375077,74354 375521,74354 375521,154669 375077,154669 "/>
      </g>
      <g>
       <polygon id="225" class="fil66" points="375373,74354 375816,74354 375816,154669 375373,154669 "/>
      </g>
      <g>
       <polygon id="226" class="fil67" points="375669,74354 376111,74354 376111,154669 375669,154669 "/>
      </g>
      <g>
       <polygon id="227" class="fil68" points="375964,74354 376407,74354 376407,154669 375964,154669 "/>
      </g>
      <g>
       <polygon id="228" class="fil68" points="376259,74354 376702,74354 376702,154669 376259,154669 "/>
      </g>
      <g>
       <polygon id="229" class="fil69" points="376555,74354 376997,74354 376997,154669 376555,154669 "/>
      </g>
      <g>
       <polygon id="230" class="fil69" points="376850,74354 377293,74354 377293,154669 376850,154669 "/>
      </g>
      <g>
       <polygon id="231" class="fil70" points="377146,74354 377589,74354 377589,154669 377146,154669 "/>
      </g>
      <g>
       <polygon id="232" class="fil70" points="377441,74354 377884,74354 377884,154669 377441,154669 "/>
      </g>
      <g>
       <polygon id="233" class="fil71" points="377736,74354 378180,74354 378180,154669 377736,154669 "/>
      </g>
      <g>
       <polygon id="234" class="fil71" points="378032,74354 378475,74354 378475,154669 378032,154669 "/>
      </g>
      <g>
       <polygon id="235" class="fil72" points="378327,74354 378771,74354 378771,154669 378327,154669 "/>
      </g>
      <g>
       <polygon id="236" class="fil73" points="378622,74354 379066,74354 379066,154669 378622,154669 "/>
      </g>
      <g>
       <polygon id="237" class="fil73" points="378918,74354 379361,74354 379361,154669 378918,154669 "/>
      </g>
      <g>
       <polygon id="238" class="fil73" points="379213,74354 379657,74354 379657,154669 379213,154669 "/>
      </g>
      <g>
       <polygon id="239" class="fil74" points="379509,74354 379952,74354 379952,154669 379509,154669 "/>
      </g>
      <g>
       <polygon id="240" class="fil75" points="379805,74354 380247,74354 380247,154669 379805,154669 "/>
      </g>
      <g>
       <polygon id="241" class="fil75" points="380100,74354 380543,74354 380543,154669 380100,154669 "/>
      </g>
      <g>
       <polygon id="242" class="fil75" points="380395,74354 380838,74354 380838,154669 380395,154669 "/>
      </g>
      <g>
       <polygon id="243" class="fil76" points="380691,74354 381133,74354 381133,154669 380691,154669 "/>
      </g>
      <g>
       <polygon id="244" class="fil76" points="380986,74354 381429,74354 381429,154669 380986,154669 "/>
      </g>
      <g>
       <polygon id="245" class="fil76" points="381282,74354 381724,74354 381724,154669 381282,154669 "/>
      </g>
      <g>
       <polygon id="246" class="fil77" points="381577,74354 382020,74354 382020,154669 381577,154669 "/>
      </g>
      <g>
       <polygon id="247" class="fil78" points="381872,74354 382316,74354 382316,154669 381872,154669 "/>
      </g>
      <g>
       <polygon id="248" class="fil78" points="382168,74354 382611,74354 382611,154669 382168,154669 "/>
      </g>
      <g>
       <polygon id="249" class="fil78" points="382463,74354 382906,74354 382906,154669 382463,154669 "/>
      </g>
      <g>
       <polygon id="250" class="fil79" points="382758,74354 383202,74354 383202,154669 382758,154669 "/>
      </g>
      <g>
       <polygon id="251" class="fil79" points="383054,74354 383497,74354 383497,154669 383054,154669 "/>
      </g>
      <g>
       <polygon id="252" class="fil79" points="383349,74354 383793,74354 383793,154669 383349,154669 "/>
      </g>
      <g>
       <polygon id="253" class="fil79" points="383645,74354 384088,74354 384088,154669 383645,154669 "/>
      </g>
      <g>
       <polygon id="254" class="fil2" points="383941,74354 384383,74354 384383,154669 383941,154669 "/>
      </g>
      <g>
       <polygon id="255" class="fil2" points="384236,74354 386615,74354 386615,154669 384236,154669 "/>
      </g>
     </g>
    </g>
    <path class="fil3" d="M615969 246548l0 -28030 -9344 0 0 155721 9344 0 0 -94990c0,-27706 22333,-52945 49831,-52945 15110,-1840 27960,329 27972,-589 27,-2273 532,-491 1044,-5468 215,-2092 -51693,-6962 -69575,13771 -3755,4354 -5989,9019 -9272,12530z"/>
    <path class="fil32" d="M206421 299811c9799,-71 17636,173 21801,-1539 -42,-2067 -7561,-40689 -10900,-45495 -1427,17155 -7665,31791 -10901,47034z"/>
    <path class="fil80" d="M221993 207498c-7241,-22 -7134,1490 -10900,-70 0,16883 5011,29157 6229,43792 4475,-7054 4671,-36003 4671,-43722z"/>
    <polygon class="fil80" points="299854,117300 303202,116443 "/>
    <g>
     <g style="clip-path:url(#id1)">
      <g>
       <polygon class="fil1" points="121035,128814 120888,128768 145448,51300 145594,51346 "/>
      </g>
      <g>
       <polygon id="1" class="fil1" points="121035,128814 120596,128676 145155,51208 145594,51347 "/>
      </g>
      <g>
       <polygon id="2" class="fil1" points="120743,128722 120304,128583 144863,51115 145302,51254 "/>
      </g>
      <g>
       <polygon id="3" class="fil1" points="120451,128629 120012,128490 144571,51023 145010,51161 "/>
      </g>
      <g>
       <polygon id="4" class="fil1" points="120158,128537 119720,128397 144279,50929 144718,51068 "/>
      </g>
      <g>
       <polygon id="5" class="fil1" points="119865,128444 119428,128305 143987,50837 144425,50976 "/>
      </g>
      <g>
       <polygon id="6" class="fil1" points="119573,128352 119135,128212 143695,50744 144133,50883 "/>
      </g>
      <g>
       <polygon id="7" class="fil1" points="119281,128259 118843,128120 143403,50652 143840,50791 "/>
      </g>
      <g>
       <polygon id="8" class="fil1" points="118989,128166 118550,128027 143110,50559 143548,50698 "/>
      </g>
      <g>
       <polygon id="9" class="fil1" points="118697,128073 118258,127935 142817,50466 143256,50606 "/>
      </g>
      <g>
       <polygon id="10" class="fil1" points="118405,127980 117966,127842 142525,50374 142964,50512 "/>
      </g>
      <g>
       <polygon id="11" class="fil1" points="118113,127888 117674,127749 142233,50281 142672,50420 "/>
      </g>
      <g>
       <polygon id="12" class="fil1" points="117820,127795 117382,127656 141941,50189 142380,50327 "/>
      </g>
      <g>
       <polygon id="13" class="fil1" points="117527,127703 117090,127564 141649,50095 142087,50235 "/>
      </g>
      <g>
       <polygon id="14" class="fil1" points="117235,127610 116797,127471 141357,50003 141795,50142 "/>
      </g>
      <g>
       <polygon id="15" class="fil1" points="116943,127518 116505,127378 141064,49910 141502,50050 "/>
      </g>
      <g>
       <polygon id="16" class="fil1" points="116651,127425 116212,127286 140772,49818 141210,49957 "/>
      </g>
      <g>
       <polygon id="17" class="fil1" points="116359,127332 115920,127193 140479,49725 140918,49864 "/>
      </g>
      <g>
       <polygon id="18" class="fil1" points="116067,127239 115628,127101 140187,49633 140626,49771 "/>
      </g>
      <g>
       <polygon id="19" class="fil1" points="115775,127147 115336,127008 139895,49540 140334,49678 "/>
      </g>
      <g>
       <polygon id="20" class="fil1" points="115482,127054 115044,126915 139603,49448 140042,49586 "/>
      </g>
      <g>
       <polygon id="21" class="fil1" points="115189,126962 114752,126822 139311,49354 139749,49493 "/>
      </g>
      <g>
       <polygon id="22" class="fil1" points="114897,126869 114459,126730 139019,49262 139457,49401 "/>
      </g>
      <g>
       <polygon id="23" class="fil1" points="114605,126776 114167,126637 138726,49169 139164,49308 "/>
      </g>
      <g>
       <polygon id="24" class="fil1" points="114313,126684 113874,126545 138434,49076 138872,49216 "/>
      </g>
      <g>
       <polygon id="25" class="fil1" points="114021,126591 113582,126452 138141,48984 138580,49123 "/>
      </g>
      <g>
       <polygon id="26" class="fil1" points="113729,126498 113290,126360 137849,48891 138288,49031 "/>
      </g>
      <g>
       <polygon id="27" class="fil1" points="113437,126405 112998,126267 137557,48799 137996,48937 "/>
      </g>
      <g>
       <polygon id="28" class="fil1" points="113144,126313 112706,126174 137265,48706 137704,48845 "/>
      </g>
      <g>
       <polygon id="29" class="fil1" points="112851,126220 112414,126081 136973,48613 137411,48752 "/>
      </g>
      <g>
       <polygon id="30" class="fil1" points="112559,126128 112121,125989 136681,48520 137119,48660 "/>
      </g>
      <g>
       <polygon id="31" class="fil1" points="112267,126035 111829,125896 136388,48428 136826,48567 "/>
      </g>
      <g>
       <polygon id="32" class="fil1" points="111975,125943 111536,125803 136096,48335 136534,48474 "/>
      </g>
      <g>
       <polygon id="33" class="fil1" points="111683,125850 111244,125711 135803,48243 136242,48382 "/>
      </g>
      <g>
       <polygon id="34" class="fil1" points="111391,125757 110952,125618 135511,48150 135950,48289 "/>
      </g>
      <g>
       <polygon id="35" class="fil1" points="111099,125664 110660,125526 135219,48058 135658,48196 "/>
      </g>
      <g>
       <polygon id="36" class="fil1" points="110806,125572 110368,125432 134927,47965 135366,48103 "/>
      </g>
      <g>
       <polygon id="37" class="fil1" points="110513,125479 110076,125340 134635,47872 135073,48011 "/>
      </g>
      <g>
       <polygon id="38" class="fil1" points="110221,125387 109783,125247 134343,47779 134781,47918 "/>
      </g>
      <g>
       <polygon id="39" class="fil1" points="109929,125294 109490,125155 134050,47687 134488,47826 "/>
      </g>
      <g>
       <polygon id="40" class="fil1" points="109637,125201 109198,125062 133758,47594 134196,47733 "/>
      </g>
      <g>
       <polygon id="41" class="fil1" points="109345,125109 108906,124970 133465,47501 133904,47641 "/>
      </g>
      <g>
       <polygon id="42" class="fil1" points="109053,125016 108614,124877 133173,47409 133612,47548 "/>
      </g>
      <g>
       <polygon id="43" class="fil1" points="108761,124923 108322,124785 132881,47316 133320,47455 "/>
      </g>
      <g>
       <polygon id="44" class="fil1" points="108468,124830 108030,124692 132589,47224 133028,47362 "/>
      </g>
      <g>
       <polygon id="45" class="fil1" points="108175,124738 107738,124599 132297,47131 132735,47270 "/>
      </g>
      <g>
       <polygon id="46" class="fil1" points="107883,124645 107445,124506 132005,47038 132443,47177 "/>
      </g>
      <g>
       <polygon id="47" class="fil1" points="107591,124553 107152,124414 131712,46945 132150,47085 "/>
      </g>
      <g>
       <polygon id="48" class="fil1" points="107299,124460 106860,124321 131420,46853 131858,46992 "/>
      </g>
      <g>
       <polygon id="49" class="fil1" points="107007,124368 106568,124228 131127,46760 131566,46899 "/>
      </g>
      <g>
       <polygon id="50" class="fil1" points="106715,124274 106276,124136 130835,46668 131274,46807 "/>
      </g>
      <g>
       <polygon id="51" class="fil1" points="106423,124182 105984,124043 130543,46575 130982,46714 "/>
      </g>
      <g>
       <polygon id="52" class="fil1" points="106130,124089 105692,123951 130251,46483 130690,46621 "/>
      </g>
      <g>
       <polygon id="53" class="fil4" points="105837,123997 105400,123857 129959,46390 130397,46528 "/>
      </g>
      <g>
       <polygon id="54" class="fil4" points="105545,123904 105107,123765 129667,46297 130105,46436 "/>
      </g>
      <g>
       <polygon id="55" class="fil4" points="105253,123812 104814,123672 129374,46204 129812,46343 "/>
      </g>
      <g>
       <polygon id="56" class="fil4" points="104961,123719 104522,123580 129082,46112 129520,46251 "/>
      </g>
      <g>
       <polygon id="57" class="fil4" points="104669,123626 104230,123487 128789,46019 129228,46158 "/>
      </g>
      <g>
       <polygon id="58" class="fil4" points="104377,123534 103938,123395 128497,45926 128936,46066 "/>
      </g>
      <g>
       <polygon id="59" class="fil4" points="104085,123440 103646,123302 128205,45834 128644,45973 "/>
      </g>
      <g>
       <polygon id="60" class="fil4" points="103792,123348 103354,123210 127913,45741 128352,45880 "/>
      </g>
      <g>
       <polygon id="61" class="fil4" points="103499,123255 103062,123116 127621,45649 128059,45787 "/>
      </g>
      <g>
       <polygon id="62" class="fil4" points="103207,123163 102769,123024 127329,45556 127767,45695 "/>
      </g>
      <g>
       <polygon id="63" class="fil4" points="102915,123070 102476,122931 127036,45463 127474,45602 "/>
      </g>
      <g>
       <polygon id="64" class="fil4" points="102623,122978 102184,122838 126744,45370 127182,45510 "/>
      </g>
      <g>
       <polygon id="65" class="fil4" points="102331,122885 101892,122746 126451,45278 126890,45417 "/>
      </g>
      <g>
       <polygon id="66" class="fil5" points="102039,122793 101600,122653 126159,45185 126598,45324 "/>
      </g>
      <g>
       <polygon id="67" class="fil5" points="101746,122699 101308,122561 125867,45093 126306,45232 "/>
      </g>
      <g>
       <polygon id="68" class="fil5" points="101454,122607 101016,122468 125575,45000 126014,45138 "/>
      </g>
      <g>
       <polygon id="69" class="fil6" points="101161,122514 100724,122376 125283,44907 125721,45046 "/>
      </g>
      <g>
       <polygon id="70" class="fil6" points="100869,122422 100431,122282 124991,44815 125429,44953 "/>
      </g>
      <g>
       <polygon id="71" class="fil6" points="100577,122329 100138,122190 124698,44722 125136,44861 "/>
      </g>
      <g>
       <polygon id="72" class="fil6" points="100285,122236 99846,122097 124406,44629 124844,44768 "/>
      </g>
      <g>
       <polygon id="73" class="fil6" points="99993,122144 99554,122005 124113,44536 124552,44676 "/>
      </g>
      <g>
       <polygon id="74" class="fil6" points="99701,122051 99262,121912 123821,44444 124260,44583 "/>
      </g>
      <g>
       <polygon id="75" class="fil6" points="99408,121958 98970,121820 123529,44351 123968,44491 "/>
      </g>
      <g>
       <polygon id="76" class="fil6" points="99116,121865 98678,121727 123237,44259 123675,44398 "/>
      </g>
      <g>
       <polygon id="77" class="fil6" points="98823,121773 98386,121634 122945,44166 123383,44305 "/>
      </g>
      <g>
       <polygon id="78" class="fil6" points="98531,121680 98093,121541 122653,44074 123091,44212 "/>
      </g>
      <g>
       <polygon id="79" class="fil6" points="98239,121588 97800,121449 122360,43980 122798,44120 "/>
      </g>
      <g>
       <polygon id="80" class="fil6" points="97947,121495 97508,121356 122068,43888 122506,44027 "/>
      </g>
      <g>
       <polygon id="81" class="fil6" points="97655,121403 97216,121263 121775,43795 122214,43934 "/>
      </g>
      <g>
       <polygon id="82" class="fil6" points="97363,121310 96924,121171 121483,43703 121922,43842 "/>
      </g>
      <g>
       <polygon id="83" class="fil6" points="97070,121218 96632,121078 121191,43610 121630,43749 "/>
      </g>
      <g>
       <polygon id="84" class="fil6" points="96778,121124 96340,120986 120899,43518 121337,43657 "/>
      </g>
      <g>
       <polygon id="85" class="fil6" points="96485,121032 96048,120893 120607,43425 121045,43563 "/>
      </g>
      <g>
       <polygon id="86" class="fil6" points="96193,120939 95755,120800 120315,43332 120753,43471 "/>
      </g>
      <g>
       <polygon id="87" class="fil6" points="95901,120847 95462,120707 120022,43239 120460,43378 "/>
      </g>
      <g>
       <polygon id="88" class="fil6" points="95609,120754 95170,120615 119730,43147 120168,43286 "/>
      </g>
      <g>
       <polygon id="89" class="fil6" points="95317,120661 94878,120522 119438,43054 119876,43193 "/>
      </g>
      <g>
       <polygon id="90" class="fil6" points="95025,120569 94586,120430 119145,42961 119584,43101 "/>
      </g>
      <g>
       <polygon id="91" class="fil6" points="94732,120476 94294,120337 118853,42869 119292,43008 "/>
      </g>
      <g>
       <polygon id="92" class="fil6" points="94440,120383 94002,120245 118561,42776 118999,42916 "/>
      </g>
      <g>
       <polygon id="93" class="fil6" points="94147,120290 93710,120152 118269,42684 118707,42822 "/>
      </g>
      <g>
       <polygon id="94" class="fil7" points="93855,120198 93417,120059 117977,42591 118415,42730 "/>
      </g>
      <g>
       <polygon id="95" class="fil7" points="93563,120105 93124,119966 117684,42499 118122,42637 "/>
      </g>
      <g>
       <polygon id="96" class="fil7" points="93271,120013 92832,119874 117392,42405 117830,42545 "/>
      </g>
      <g>
       <polygon id="97" class="fil7" points="92979,119920 92540,119781 117100,42313 117538,42452 "/>
      </g>
      <g>
       <polygon id="98" class="fil7" points="92687,119828 92248,119688 116807,42220 117246,42359 "/>
      </g>
      <g>
       <polygon id="99" class="fil7" points="92394,119735 91956,119596 116515,42128 116954,42267 "/>
      </g>
      <g>
       <polygon id="100" class="fil7" points="92101,119642 91664,119503 116223,42035 116661,42174 "/>
      </g>
      <g>
       <polygon id="101" class="fil7" points="91809,119549 91372,119411 115931,41943 116369,42081 "/>
      </g>
      <g>
       <polygon id="102" class="fil7" points="91517,119457 91079,119318 115639,41850 116077,41988 "/>
      </g>
      <g>
       <polygon id="103" class="fil7" points="91225,119364 90786,119225 115346,41757 115784,41896 "/>
      </g>
      <g>
       <polygon id="104" class="fil7" points="90933,119272 90494,119132 115054,41664 115492,41803 "/>
      </g>
      <g>
       <polygon id="105" class="fil7" points="90641,119179 90202,119040 114762,41572 115200,41711 "/>
      </g>
      <g>
       <polygon id="106" class="fil8" points="90349,119086 89910,118947 114469,41479 114908,41618 "/>
      </g>
      <g>
       <polygon id="107" class="fil8" points="90056,118994 89618,118855 114177,41386 114616,41526 "/>
      </g>
      <g>
       <polygon id="108" class="fil9" points="89763,118901 89326,118762 113885,41294 114323,41433 "/>
      </g>
      <g>
       <polygon id="109" class="fil9" points="89471,118808 89034,118670 113593,41201 114031,41341 "/>
      </g>
      <g>
       <polygon id="110" class="fil9" points="89179,118715 88741,118577 113301,41109 113739,41247 "/>
      </g>
      <g>
       <polygon id="111" class="fil10" points="88887,118623 88448,118484 113008,41016 113446,41155 "/>
      </g>
      <g>
       <polygon id="112" class="fil10" points="88595,118530 88156,118391 112716,40923 113154,41062 "/>
      </g>
      <g>
       <polygon id="113" class="fil10" points="88303,118438 87864,118298 112424,40830 112862,40970 "/>
      </g>
      <g>
       <polygon id="114" class="fil10" points="88011,118345 87572,118206 112131,40738 112570,40877 "/>
      </g>
      <g>
       <polygon id="115" class="fil10" points="87718,118253 87280,118113 111839,40645 112278,40784 "/>
      </g>
      <g>
       <polygon id="116" class="fil10" points="87425,118160 86988,118021 111547,40553 111985,40692 "/>
      </g>
      <g>
       <polygon id="117" class="fil10" points="87133,118067 86696,117928 111255,40460 111693,40599 "/>
      </g>
      <g>
       <polygon id="118" class="fil10" points="86841,117974 86403,117836 110963,40367 111401,40506 "/>
      </g>
      <g>
       <polygon id="119" class="fil10" points="86549,117882 86110,117743 110670,40275 111108,40413 "/>
      </g>
      <g>
       <polygon id="120" class="fil11" points="86257,117789 85818,117650 110378,40182 110816,40321 "/>
      </g>
      <g>
       <polygon id="121" class="fil11" points="85965,117696 85526,117557 110086,40089 110524,40228 "/>
      </g>
      <g>
       <polygon id="122" class="fil12" points="85673,117604 85234,117465 109793,39996 110232,40136 "/>
      </g>
      <g>
       <polygon id="123" class="fil12" points="85380,117511 84942,117372 109501,39904 109940,40043 "/>
      </g>
      <g>
       <polygon id="124" class="fil12" points="85087,117419 84650,117280 109209,39811 109647,39951 "/>
      </g>
      <g>
       <polygon id="125" class="fil12" points="84795,117325 84357,117187 108917,39719 109355,39858 "/>
      </g>
      <g>
       <polygon id="126" class="fil13" points="84503,117233 84065,117094 108625,39626 109063,39765 "/>
      </g>
      <g>
       <polygon id="127" class="fil13" points="84211,117140 83772,117002 108332,39534 108770,39672 "/>
      </g>
      <g>
       <polygon id="128" class="fil14" points="83919,117048 83480,116909 108040,39441 108478,39580 "/>
      </g>
      <g>
       <polygon id="129" class="fil15" points="83627,116955 83188,116816 107748,39348 108186,39487 "/>
      </g>
      <g>
       <polygon id="130" class="fil16" points="83335,116863 82896,116723 107455,39255 107894,39394 "/>
      </g>
      <g>
       <polygon id="131" class="fil16" points="83042,116770 82604,116631 107163,39163 107602,39302 "/>
      </g>
      <g>
       <polygon id="132" class="fil16" points="82749,116678 82312,116538 106871,39070 107309,39209 "/>
      </g>
      <g>
       <polygon id="133" class="fil17" points="82457,116585 82019,116446 106579,38978 107017,39117 "/>
      </g>
      <g>
       <polygon id="134" class="fil18" points="82165,116492 81727,116353 106286,38885 106725,39024 "/>
      </g>
      <g>
       <polygon id="135" class="fil19" points="81873,116399 81434,116261 105994,38792 106432,38931 "/>
      </g>
      <g>
       <polygon id="136" class="fil20" points="81581,116307 81142,116167 105702,38700 106140,38838 "/>
      </g>
      <g>
       <polygon id="137" class="fil21" points="81289,116214 80850,116075 105410,38607 105848,38746 "/>
      </g>
      <g>
       <polygon id="138" class="fil22" points="80997,116121 80558,115982 105117,38514 105556,38653 "/>
      </g>
      <g>
       <polygon id="139" class="fil23" points="80704,116029 80266,115890 104825,38421 105264,38561 "/>
      </g>
      <g>
       <polygon id="140" class="fil24" points="80411,115936 79974,115797 104533,38329 104971,38468 "/>
      </g>
      <g>
       <polygon id="141" class="fil25" points="80119,115844 79681,115705 104241,38236 104679,38376 "/>
      </g>
      <g>
       <polygon id="142" class="fil26" points="79827,115750 79389,115612 103948,38144 104387,38283 "/>
      </g>
      <g>
       <polygon id="143" class="fil27" points="79535,115658 79096,115519 103656,38051 104094,38190 "/>
      </g>
      <g>
       <polygon id="144" class="fil28" points="79243,115565 78804,115426 103364,37959 103802,38097 "/>
      </g>
      <g>
       <polygon id="145" class="fil29" points="78951,115473 78512,115334 103072,37866 103510,38005 "/>
      </g>
      <g>
       <polygon id="146" class="fil30" points="78659,115380 78220,115241 102779,37773 103218,37912 "/>
      </g>
      <g>
       <polygon id="147" class="fil31" points="78366,115288 77928,115148 102487,37680 102926,37819 "/>
      </g>
      <g>
       <polygon id="148" class="fil32" points="78073,115195 77636,115056 102195,37588 102633,37727 "/>
      </g>
      <g>
       <polygon id="149" class="fil32" points="77781,115103 77343,114963 101903,37495 102341,37634 "/>
      </g>
      <g>
       <polygon id="150" class="fil33" points="77489,115009 77051,114871 101610,37403 102049,37542 "/>
      </g>
      <g>
       <polygon id="151" class="fil33" points="77197,114917 76758,114778 101318,37310 101756,37448 "/>
      </g>
      <g>
       <polygon id="152" class="fil33" points="76905,114824 76466,114686 101026,37217 101464,37356 "/>
      </g>
      <g>
       <polygon id="153" class="fil33" points="76613,114732 76174,114592 100734,37125 101172,37263 "/>
      </g>
      <g>
       <polygon id="154" class="fil34" points="76321,114639 75882,114500 100441,37032 100880,37171 "/>
      </g>
      <g>
       <polygon id="155" class="fil34" points="76028,114546 75590,114407 100149,36939 100588,37078 "/>
      </g>
      <g>
       <polygon id="156" class="fil34" points="75735,114454 75298,114315 99857,36846 100295,36986 "/>
      </g>
      <g>
       <polygon id="157" class="fil35" points="75443,114361 75005,114222 99565,36754 100003,36893 "/>
      </g>
      <g>
       <polygon id="158" class="fil36" points="75151,114268 74713,114129 99272,36661 99711,36801 "/>
      </g>
      <g>
       <polygon id="159" class="fil36" points="74859,114175 74420,114037 98980,36569 99418,36708 "/>
      </g>
      <g>
       <polygon id="160" class="fil36" points="74567,114083 74128,113944 98688,36476 99126,36615 "/>
      </g>
      <g>
       <polygon id="161" class="fil37" points="74275,113990 73836,113851 98396,36384 98834,36522 "/>
      </g>
      <g>
       <polygon id="162" class="fil37" points="73983,113898 73544,113758 98103,36290 98542,36429 "/>
      </g>
      <g>
       <polygon id="163" class="fil37" points="73690,113805 73252,113666 97811,36198 98250,36337 "/>
      </g>
      <g>
       <polygon id="164" class="fil38" points="73397,113713 72960,113573 97519,36105 97957,36244 "/>
      </g>
      <g>
       <polygon id="165" class="fil39" points="73105,113620 72667,113481 97227,36013 97665,36152 "/>
      </g>
      <g>
       <polygon id="166" class="fil39" points="72813,113527 72375,113388 96934,35920 97373,36059 "/>
      </g>
      <g>
       <polygon id="167" class="fil39" points="72521,113434 72082,113296 96642,35827 97080,35967 "/>
      </g>
      <g>
       <polygon id="168" class="fil40" points="72229,113342 71790,113203 96350,35735 96788,35873 "/>
      </g>
      <g>
       <polygon id="169" class="fil41" points="71937,113249 71498,113110 96058,35642 96496,35781 "/>
      </g>
      <g>
       <polygon id="170" class="fil41" points="71645,113156 71206,113017 95765,35550 96204,35688 "/>
      </g>
      <g>
       <polygon id="171" class="fil42" points="71352,113064 70914,112925 95473,35456 95912,35596 "/>
      </g>
      <g>
       <polygon id="172" class="fil42" points="71059,112971 70622,112832 95181,35364 95619,35503 "/>
      </g>
      <g>
       <polygon id="173" class="fil43" points="70767,112879 70329,112740 94889,35271 95327,35411 "/>
      </g>
      <g>
       <polygon id="174" class="fil43" points="70475,112786 70037,112647 94596,35179 95035,35318 "/>
      </g>
      <g>
       <polygon id="175" class="fil44" points="70183,112693 69744,112554 94304,35086 94742,35225 "/>
      </g>
      <g>
       <polygon id="176" class="fil44" points="69891,112600 69452,112462 94012,34994 94450,35132 "/>
      </g>
      <g>
       <polygon id="177" class="fil45" points="69599,112508 69160,112369 93720,34901 94158,35040 "/>
      </g>
      <g>
       <polygon id="178" class="fil46" points="69307,112415 68868,112276 93427,34809 93866,34947 "/>
      </g>
      <g>
       <polygon id="179" class="fil46" points="69014,112323 68576,112183 93135,34715 93574,34854 "/>
      </g>
      <g>
       <polygon id="180" class="fil47" points="68721,112230 68284,112091 92843,34623 93281,34762 "/>
      </g>
      <g>
       <polygon id="181" class="fil47" points="68429,112138 67991,111998 92551,34530 92989,34669 "/>
      </g>
      <g>
       <polygon id="182" class="fil48" points="68137,112045 67699,111906 92258,34438 92697,34577 "/>
      </g>
      <g>
       <polygon id="183" class="fil48" points="67845,111952 67406,111813 91966,34345 92404,34484 "/>
      </g>
      <g>
       <polygon id="184" class="fil49" points="67553,111859 67114,111721 91674,34252 92112,34392 "/>
      </g>
      <g>
       <polygon id="185" class="fil50" points="67261,111767 66822,111628 91382,34160 91820,34298 "/>
      </g>
      <g>
       <polygon id="186" class="fil50" points="66968,111674 66530,111535 91089,34067 91528,34206 "/>
      </g>
      <g>
       <polygon id="187" class="fil50" points="66676,111581 66238,111442 90797,33974 91236,34113 "/>
      </g>
      <g>
       <polygon id="188" class="fil51" points="66383,111489 65946,111350 90505,33881 90943,34021 "/>
      </g>
      <g>
       <polygon id="189" class="fil52" points="66091,111396 65653,111257 90213,33789 90651,33928 "/>
      </g>
      <g>
       <polygon id="190" class="fil52" points="65799,111304 65361,111165 89920,33696 90359,33836 "/>
      </g>
      <g>
       <polygon id="191" class="fil52" points="65507,111211 65068,111072 89628,33604 90066,33743 "/>
      </g>
      <g>
       <polygon id="192" class="fil53" points="65215,111118 64776,110979 89336,33511 89774,33650 "/>
      </g>
      <g>
       <polygon id="193" class="fil54" points="64923,111025 64484,110887 89044,33419 89482,33557 "/>
      </g>
      <g>
       <polygon id="194" class="fil54" points="64630,110933 64192,110794 88751,33326 89190,33465 "/>
      </g>
      <g>
       <polygon id="195" class="fil54" points="64338,110840 63900,110701 88459,33234 88897,33372 "/>
      </g>
      <g>
       <polygon id="196" class="fil55" points="64045,110748 63608,110608 88167,33140 88605,33279 "/>
      </g>
      <g>
       <polygon id="197" class="fil55" points="63753,110655 63315,110516 87875,33048 88313,33187 "/>
      </g>
      <g>
       <polygon id="198" class="fil55" points="63461,110563 63023,110423 87582,32955 88021,33094 "/>
      </g>
      <g>
       <polygon id="199" class="fil55" points="63169,110470 62730,110331 87290,32863 87728,33002 "/>
      </g>
      <g>
       <polygon id="200" class="fil56" points="62877,110377 62438,110238 86998,32770 87436,32909 "/>
      </g>
      <g>
       <polygon id="201" class="fil56" points="62585,110284 62146,110146 86706,32677 87144,32816 "/>
      </g>
      <g>
       <polygon id="202" class="fil56" points="62292,110191 61854,110053 86413,32585 86852,32723 "/>
      </g>
      <g>
       <polygon id="203" class="fil56" points="62000,110099 61562,109960 86121,32492 86559,32631 "/>
      </g>
      <g>
       <polygon id="204" class="fil57" points="61707,110006 61270,109867 85829,32399 86267,32538 "/>
      </g>
      <g>
       <polygon id="205" class="fil57" points="61415,109914 60977,109775 85537,32306 85975,32446 "/>
      </g>
      <g>
       <polygon id="206" class="fil57" points="61123,109821 60685,109682 85244,32214 85683,32353 "/>
      </g>
      <g>
       <polygon id="207" class="fil57" points="60831,109729 60392,109589 84952,32121 85390,32261 "/>
      </g>
      <g>
       <polygon id="208" class="fil58" points="60539,109635 60100,109497 84660,32029 85098,32168 "/>
      </g>
      <g>
       <polygon id="209" class="fil58" points="60247,109543 59808,109404 84368,31936 84806,32075 "/>
      </g>
      <g>
       <polygon id="210" class="fil58" points="59954,109450 59516,109312 84075,31844 84514,31982 "/>
      </g>
      <g>
       <polygon id="211" class="fil59" points="59662,109358 59224,109218 83783,31751 84221,31889 "/>
      </g>
      <g>
       <polygon id="212" class="fil60" points="59369,109265 58932,109126 83491,31658 83929,31797 "/>
      </g>
      <g>
       <polygon id="213" class="fil60" points="59077,109173 58639,109033 83199,31565 83637,31704 "/>
      </g>
      <g>
       <polygon id="214" class="fil60" points="58785,109080 58347,108941 82906,31473 83345,31612 "/>
      </g>
      <g>
       <polygon id="215" class="fil61" points="58493,108987 58054,108848 82614,31380 83052,31519 "/>
      </g>
      <g>
       <polygon id="216" class="fil62" points="58201,108895 57762,108756 82322,31287 82760,31427 "/>
      </g>
      <g>
       <polygon id="217" class="fil62" points="57909,108802 57470,108663 82030,31195 82468,31334 "/>
      </g>
      <g>
       <polygon id="218" class="fil63" points="57616,108709 57178,108571 81737,31102 82176,31241 "/>
      </g>
      <g>
       <polygon id="219" class="fil63" points="57324,108616 56886,108477 81445,31010 81883,31148 "/>
      </g>
      <g>
       <polygon id="220" class="fil64" points="57032,108524 56594,108385 81153,30917 81591,31056 "/>
      </g>
      <g>
       <polygon id="221" class="fil64" points="56739,108431 56301,108292 80861,30824 81299,30963 "/>
      </g>
      <g>
       <polygon id="222" class="fil65" points="56447,108339 56009,108200 80568,30731 81007,30871 "/>
      </g>
      <g>
       <polygon id="223" class="fil65" points="56155,108246 55716,108107 80276,30639 80715,30778 "/>
      </g>
      <g>
       <polygon id="224" class="fil66" points="55863,108154 55424,108014 79984,30546 80422,30685 "/>
      </g>
      <g>
       <polygon id="225" class="fil66" points="55571,108060 55132,107922 79692,30454 80130,30593 "/>
      </g>
      <g>
       <polygon id="226" class="fil67" points="55278,107968 54840,107829 79399,30361 79838,30500 "/>
      </g>
      <g>
       <polygon id="227" class="fil68" points="54986,107875 54548,107737 79107,30269 79545,30407 "/>
      </g>
      <g>
       <polygon id="228" class="fil68" points="54694,107783 54256,107643 78815,30176 79253,30314 "/>
      </g>
      <g>
       <polygon id="229" class="fil69" points="54401,107690 53963,107551 78523,30083 78961,30222 "/>
      </g>
      <g>
       <polygon id="230" class="fil69" points="54109,107598 53671,107458 78230,29990 78669,30129 "/>
      </g>
      <g>
       <polygon id="231" class="fil70" points="53817,107505 53378,107366 77938,29898 78377,30037 "/>
      </g>
      <g>
       <polygon id="232" class="fil70" points="53525,107412 53086,107273 77646,29805 78084,29944 "/>
      </g>
      <g>
       <polygon id="233" class="fil71" points="53233,107319 52794,107181 77354,29712 77792,29852 "/>
      </g>
      <g>
       <polygon id="234" class="fil71" points="52940,107227 52502,107088 77061,29620 77500,29759 "/>
      </g>
      <g>
       <polygon id="235" class="fil72" points="52648,107134 52210,106996 76769,29527 77207,29666 "/>
      </g>
      <g>
       <polygon id="236" class="fil73" points="52356,107041 51918,106902 76477,29435 76915,29573 "/>
      </g>
      <g>
       <polygon id="237" class="fil73" points="52063,106949 51625,106810 76185,29341 76623,29481 "/>
      </g>
      <g>
       <polygon id="238" class="fil73" points="51771,106856 51333,106717 75892,29249 76331,29388 "/>
      </g>
      <g>
       <polygon id="239" class="fil74" points="51479,106764 51040,106625 75600,29156 76039,29296 "/>
      </g>
      <g>
       <polygon id="240" class="fil75" points="51187,106671 50748,106532 75308,29064 75746,29203 "/>
      </g>
      <g>
       <polygon id="241" class="fil75" points="50895,106579 50456,106439 75016,28971 75454,29110 "/>
      </g>
      <g>
       <polygon id="242" class="fil75" points="50602,106485 50164,106347 74723,28879 75162,29018 "/>
      </g>
      <g>
       <polygon id="243" class="fil76" points="50310,106393 49872,106254 74431,28786 74869,28925 "/>
      </g>
      <g>
       <polygon id="244" class="fil76" points="50018,106300 49579,106161 74139,28694 74577,28832 "/>
      </g>
      <g>
       <polygon id="245" class="fil76" points="49725,106208 49287,106068 73847,28601 74285,28739 "/>
      </g>
      <g>
       <polygon id="246" class="fil77" points="49433,106115 48995,105976 73554,28508 73993,28647 "/>
      </g>
      <g>
       <polygon id="247" class="fil78" points="49141,106023 48702,105883 73262,28415 73701,28554 "/>
      </g>
      <g>
       <polygon id="248" class="fil78" points="48849,105930 48410,105791 72970,28323 73408,28462 "/>
      </g>
      <g>
       <polygon id="249" class="fil78" points="48557,105837 48118,105698 72678,28230 73116,28369 "/>
      </g>
      <g>
       <polygon id="250" class="fil79" points="48264,105744 47826,105606 72385,28137 72824,28277 "/>
      </g>
      <g>
       <polygon id="251" class="fil79" points="47972,105651 47534,105513 72093,28045 72531,28183 "/>
      </g>
      <g>
       <polygon id="252" class="fil79" points="47680,105559 47241,105421 71801,27952 72239,28091 "/>
      </g>
      <g>
       <polygon id="253" class="fil79" points="47387,105466 46949,105327 71508,27860 71947,27998 "/>
      </g>
      <g>
       <polygon id="254" class="fil2" points="47095,105374 46657,105235 71216,27766 71655,27906 "/>
      </g>
      <g>
       <polygon id="255" class="fil2" points="46803,105281 44400,104520 68960,27052 71363,27813 "/>
      </g>
     </g>
    </g>
   </g>
  </g>
 </g>
</svg>
