<?xml version="1.0" encoding="UTF-8"?>
<!DOCTYPE svg PUBLIC "-//W3C//DTD SVG 1.1//EN" "http://www.w3.org/Graphics/SVG/1.1/DTD/svg11.dtd">
<!-- Creator: CorelDRAW X7 -->
<svg xmlns="http://www.w3.org/2000/svg" xml:space="preserve" width="1452px" height="600px" version="1.1" style="shape-rendering:geometricPrecision; text-rendering:geometricPrecision; image-rendering:optimizeQuality; fill-rule:evenodd; clip-rule:evenodd"
viewBox="0 0 974431 402552"
 xmlns:xlink="http://www.w3.org/1999/xlink">
 <defs>
  <style type="text/css">
   <![CDATA[
    .fil1 {fill:#2A6787}
    .fil3 {fill:#646464}
    .fil4 {fill:#BEBEBE}
    .fil2 {fill:#E4AF34}
    .fil0 {fill:white}
   ]]>
  </style>
 </defs>
 <g id="Capa_x0020_1">
  <metadata id="CorelCorpID_0Corel-Layer"/>
  <g id="_1855098272080">
   <rect class="fil0" width="974431" height="402552"/>
   <g>
    <path class="fil1" d="M112442 81354c7318,-2306 14117,3261 15753,8613 2343,7669 -3228,14470 -8618,16120 -15711,4812 -24229,-19348 -7135,-24733zm-26810 42560l69016 0 0 8627c-27894,0 -55788,0 -83682,0 -20656,0 -50935,-3295 -54129,30260 -1069,11214 -1214,73891 854,82496 7230,30090 38410,25276 59314,25276 0,-24050 -3338,-42956 10701,-58303 14523,-15877 27127,-15027 54001,-15027 17128,0 51965,2781 64557,-4475 18467,-10639 17400,-26119 17400,-51600 0,-18122 3262,-50538 -6332,-62712 -14117,-17914 -26760,-14931 -54058,-14931 -18679,0 -49522,-3351 -62659,6333 -17707,13053 -14983,27739 -14983,54056z"/>
    <path class="fil2" d="M190082 297027c7322,-2300 14124,3256 15759,8613 2340,7671 -3225,14477 -8618,16125 -15739,4813 -24219,-19375 -7141,-24738zm42209 -134291c0,17109 -10296,29493 -20008,36069 -22518,15247 -80553,1179 -103153,8984 -12012,4149 -23498,16480 -23498,32589l0 64703c0,18544 15934,34508 34508,34508l69016 0c18650,0 34508,-15864 34508,-34508l0 -25881 -69016 0 0 -8627 103524 0c21062,0 34508,-13343 34508,-34508l0 -69015c0,-20073 -14504,-34509 -34508,-34509l-25881 0 0 30195z"/>
    <path class="fil3" d="M326223 162619c11516,-6694 31947,-14328 45389,-4774 20344,14458 25530,103573 -26031,89860 -5126,-1363 -17393,-6241 -19409,-9914l51 -75172zm-19444 979c0,46735 -1014,105786 85,151018l18932 6439 395 -68610c11384,4383 14933,10364 35354,10364 59618,0 59946,-106242 13288,-120266 -25992,-7812 -68054,8997 -68054,21055z"/>
    <path class="fil3" d="M429336 147057c-54,16622 -54,33404 -54,50186 0,14020 -2365,36190 4248,47052 5552,9117 17145,17869 33256,18067 23413,290 35718,-8013 41815,-8578 966,37135 -4917,50526 -48317,54537l3022 12303c17449,-305 34083,-5208 45912,-13666 12951,-9261 16349,-22403 17439,-43306 1482,-28465 304,-88001 304,-119830l-19405 -242 6 95510c-11084,4262 -16742,11364 -33811,9734 -32422,-3096 -25074,-35520 -25074,-63658 0,-10439 1275,-35780 -382,-44479l-18959 6370z"/>
    <path class="fil3" d="M626030 80472l-52 179748 19394 0 12 -90378c15029,-9140 46036,-28153 54699,4591 3502,13238 1365,68113 1365,85787l19395 0c0,-16966 0,-33933 0,-50899 0,-15029 2155,-35950 -3953,-48211 -5349,-10743 -15697,-18903 -32710,-18418 -17781,508 -26856,6404 -38808,13308l0 -81415 -19342 5887z"/>
    <path class="fil3" d="M786617 154528c25121,-5035 36592,19263 37667,41845 978,20560 -2577,49856 -27005,53574 -25276,3848 -35206,-18482 -37088,-41466 -2149,-26232 3467,-49351 26426,-53953zm-47851 44440c0,85845 106958,84234 106958,863 0,-32266 -20778,-59310 -54555,-59310 -31168,0 -52403,26912 -52403,58447z"/>
    <path class="fil3" d="M863220 161010l0 99210 19396 0c0,-25231 -922,-75835 156,-98145 27525,-16266 55056,-9256 55056,18777l0 79368 19394 0 0 -88857c0,-33243 -42467,-35819 -70889,-24739 -5767,2248 -20394,9629 -23113,14386z"/>
    <path class="fil3" d="M561820 143250c-188,99 -427,250 -567,293l-12491 157 455 11963 12474 -55c0,24522 -29,49042 -13,73560 17,25778 15647,33917 41311,32667l130 -10242c-24890,-855 -22034,-13905 -22033,-36232 0,-19741 0,-39482 0,-59222l21793 -574 43 -11551c-5882,0 -16767,795 -22132,-544l-25 -37673c-982,-1294 1492,-1665 -1701,-792l-17336 5917 92 32328z"/>
    <path class="fil0" d="M190082 297027c-17078,5363 -8598,29551 7141,24738 5393,-1648 10958,-8454 8618,-16125 -1635,-5357 -8437,-10913 -15759,-8613z"/>
    <path class="fil0" d="M112442 81354c-17094,5385 -8576,29545 7135,24733 5390,-1650 10961,-8451 8618,-16120 -1636,-5352 -8435,-10919 -15753,-8613z"/>
    <path class="fil4" d="M602922 144014c-3277,-2019 -16291,-764 -21257,-764l0 -39310c-3457,101 -1253,-144 -2601,1065 3193,-873 719,-502 1701,792l25 37673c5365,1339 16250,544 22132,544z"/>
    <path class="fil4" d="M549217 155663l-455 -11963 12491 -157c140,-43 379,-194 567,-293l-13058 450c-1503,1069 -1045,976 -1050,6104 0,293 13,3447 19,3477 503,2360 -66,1266 1486,2382z"/>
   </g>
  </g>
 </g>
</svg>
