<?xml version="1.0" encoding="UTF-8"?>
<!DOCTYPE svg PUBLIC "-//W3C//DTD SVG 1.1//EN" "http://www.w3.org/Graphics/SVG/1.1/DTD/svg11.dtd">
<!-- Creator: CorelDRAW X7 -->
<svg xmlns="http://www.w3.org/2000/svg" xml:space="preserve" width="1452px" height="600px" version="1.1" style="shape-rendering:geometricPrecision; text-rendering:geometricPrecision; image-rendering:optimizeQuality; fill-rule:evenodd; clip-rule:evenodd"
viewBox="0 0 988328 408293"
 xmlns:xlink="http://www.w3.org/1999/xlink">
 <defs>
  <style type="text/css">
   <![CDATA[
    .fil3 {fill:#010101}
    .fil2 {fill:#3598CD}
    .fil1 {fill:#F89938}
    .fil5 {fill:#FCCFA1}
    .fil4 {fill:#FFFFFE}
    .fil0 {fill:white}
   ]]>
  </style>
 </defs>
 <g id="Capa_x0020_1">
  <metadata id="CorelCorpID_0Corel-Layer"/>
  <g id="_1853326009024">
   <rect class="fil0" width="988328" height="408293"/>
   <g>
    <path class="fil1" d="M652177 191415l5457 21 -6 31034 -5335 51 -116 -31106zm-48155 0l5457 21 -7 31034 -5334 51 -116 -31106zm63496 -36l256 -8704 4314 -126c1495,172 738,195 981,298 661,1312 343,7067 343,8585l5444 -17 -15 4014 -5627 233c0,4792 0,9586 0,14379 0,9277 -1061,9898 5640,9231l0 4153c-9793,1021 -11106,-24 -11091,-8525 10,-6480 0,-12961 0,-19438l-4650 -21 -5 -4013 4410 -49zm-76254 20443l5249 -62c968,14942 -28492,18556 -29036,-3741 -589,-24147 30071,-20523 28604,-6196l-5214 -33c-3593,-11098 -17795,-8781 -17666,5829 110,12427 10309,13101 14800,10168 1771,-1158 2422,-3439 3263,-5965zm-57794 1367c7103,0 5442,-223 6212,1815 2392,6329 14499,4899 15709,554 1881,-6751 -9907,-4909 -17698,-9297 -5199,-2927 -5187,-12719 4854,-15203 6802,-1683 16758,-558 17386,8865l-5302 133c-403,-527 -74,-4 -509,-890 -201,-409 -271,-688 -507,-1175 -1275,-2636 -4236,-3107 -7474,-2870 -3762,275 -8097,3306 -5272,6646 3432,4056 15586,2270 19351,8105 1969,3051 945,7266 -875,9680 -3726,4939 -24945,8863 -25875,-6363zm89594 -33929c977,1414 447,16306 447,18635 0,1609 -544,4929 542,6177l448 -407 442 -411 444 -411 446 -409 445 -408 446 -410 446 -409 445 -409 445 -409 446 -408 446 -409 443 -411 445 -410 447 -406 444 -411 444 -411 445 -409 446 -408 445 -409 445 -410 442 -413 445 -408 445 -411 444 -410 445 -409 446 -409 444 -410 445 -409 446 -409 445 -409 492 -379 6734 38c-2468,3274 -9821,8009 -11601,11004 1324,1549 2152,3036 3422,4836l10331 15195 -6625 54c-1680,-2746 -3702,-5410 -5655,-8230l-4280 -6275c-275,-400 -472,-733 -685,-1003l-1098 -1095c-2484,1877 -5051,3748 -5181,6096 -185,3320 137,6952 -5,10348l-5376 122 -42 -43051 5230 -190zm29349 59l5225 5 -54 5745c-618,684 -38,407 -1232,602l-4012 -370c-647,-977 -716,-5459 73,-5982zm-48155 0l5225 5 -54 5745c-984,1089 -4502,629 -5244,232 -625,-944 -397,-1931 -401,-3201 -3,-1200 -316,-2257 474,-2781zm114688 140436c2468,-6007 989,-6699 6507,-17594l9404 -14932c34,-39 118,-139 187,-200 -1126,-830 184,-415 -4034,1112 -3669,1328 -12904,3352 -13403,3730l-9361 12228c-4799,4752 -4552,5145 -10790,10944 -6613,6149 -17088,14204 -24500,19656 -9108,6698 -24624,9867 -30163,-2342 -2547,-5616 -2804,-12055 -2788,-18638 -887,720 -8952,10813 -13085,14379 -4702,4056 -9067,8557 -17272,11191 -9182,2950 -16634,837 -21970,-3518 -1961,-1601 -4602,-5072 -6125,-7843 -794,-1447 -1433,-2939 -1994,-4697 -494,-1547 -717,-4098 -1476,-5425 -1284,1078 -2637,2488 -4042,3609l-13659 9992c-19779,14007 -55897,14438 -62460,-14484 -1396,742 -2341,1515 -3466,2543 -1390,1270 -2076,1531 -3393,2622 -15274,12647 -42657,28603 -59139,10481 -19561,-21506 5881,-82984 17974,-107843 2405,-4944 5334,-10776 8205,-15273 1384,-2166 5731,-2844 8438,-3758l18400 -6127c12537,-4168 10837,16385 10088,23004 -2290,20221 -13563,39628 -27430,54922 -1955,2156 -3665,4451 -5581,6315l-5960 5963c-3307,3490 -2764,2662 -3201,8518 -507,6785 -1048,14333 1972,20159 2892,5580 8241,8472 16860,5645 6770,-2220 10536,-5849 14946,-9218l6594 -5415c1042,-859 2437,-1835 3303,-2695 1317,-1308 975,-2373 1275,-4529 2362,-16906 15245,-33394 29941,-41471 31291,-17197 61333,9129 30656,30409 -9829,6818 -21860,10008 -35132,14136 2375,18346 21832,23103 35725,15941 3961,-2042 18756,-12908 19593,-15919 535,-1924 760,-3880 1319,-5766 9856,-33242 58236,-58580 72503,-35798l1679 2326 19261 -9566c3439,-1695 4234,-1334 8710,-1334 -2989,13645 -18400,47217 -16735,60517 796,6358 6307,7873 12288,4560 4149,-2298 8064,-6081 11295,-8870 4535,-3916 10957,-9723 14760,-14658 1433,-1861 3520,-3728 4442,-5733 -3338,-2625 -4653,-1792 -7374,-5527 -5503,-7553 3583,-23518 8673,-26877 4598,-3035 16630,-6094 19028,1128 2364,7120 -2754,14812 -4243,20861 8892,-867 14937,-5291 19166,-9283 3651,-3445 6727,-6913 9559,-11229 3580,-5456 909,-4152 10531,-4688 313,-1225 1037,-2548 1608,-3829l5208 -12318c7205,-17293 11120,-36024 13370,-54773 1421,-11846 501,-30554 -1362,-42380 -3261,-20699 -8691,-33929 -18073,-50946 -3212,-5826 -14405,-21403 -19985,-26555l-6081 -5866c-2210,-1988 -4094,-3677 -6300,-5669 -15676,-14147 -42699,-27193 -63183,-32634 -6529,-1735 -12801,-3197 -19843,-4416 -3080,-533 -7136,-1135 -10509,-1478 -2142,-218 -3421,-284 -5738,-506l-17201 -1125c-6153,-459 -28962,1392 -34885,2178 -24227,3212 -40738,7918 -62947,15843 -20385,7273 -49642,23247 -66473,35342 -4859,3491 -15653,11547 -20078,15541l-6304 5260c-6102,5550 -12048,11797 -17521,17841 -5691,6286 -15215,19666 -19492,27404 -15448,27947 -24278,53799 -28391,85793 -387,3014 -764,6945 -1188,9863 -535,3686 -213,6892 -834,10585 -579,3449 138,7440 -450,10931 -518,3075 -313,7915 -205,11179 69,2072 477,2489 481,4831 44,28681 8169,79496 28521,103085 12944,15003 72084,24042 95705,25644 3787,256 7980,311 11345,726l12025 518c37414,-174 56230,-807 90734,-7856 11638,-2378 17935,-4304 28592,-7477 16698,-4971 35136,-13740 49714,-22483 2754,-1652 4890,-3019 7381,-4696 7915,-5327 12700,-9197 19690,-15486 2018,-1815 4508,-3778 6280,-5686l11446 -11583c56,-57 174,-175 219,-221 45,-46 142,-150 218,-222z"/>
    <path class="fil2" d="M95583 258218c0,18943 5481,39565 14403,55463l6454 11198c4161,6872 10032,14053 15455,20105 853,950 1175,1315 2042,2211 969,999 1157,1436 2256,2424 7148,6422 10004,10391 19567,16811 5108,3430 11663,7319 17380,9870 2224,992 4034,1939 6342,2797l7015 2596c34654,12388 84501,14322 120778,3396 7283,-2194 14879,-5091 19528,-9559 8710,-8371 13133,-35253 14578,-47613 187,-1607 323,-4427 638,-6308l-70 -25911c-302,-1834 -503,-4706 -625,-6321 -1766,-23572 -12479,-51373 -28508,-69089l-5152 -5487c-2496,-2550 -6673,-5648 -9664,-8311 -12465,-11098 -35556,-22883 -51458,-28605 -22707,-8171 -48846,-11447 -73066,-7083 -11196,2016 -22097,5614 -31680,10771 -16924,9109 -30259,22665 -37926,39162 -4716,10149 -8287,23309 -8287,37483z"/>
    <path class="fil3" d="M718946 319755c-204,4411 -183,7324 1116,10693 614,1592 1152,2570 2063,3812 10836,14771 31779,1117 42778,-7532 1297,-1020 2398,-1706 3617,-2818l7083 -5774c0,4236 590,19735 1350,22671 3467,-69 19872,-4526 24303,-4858 0,-8016 421,-26029 3326,-32635 1538,-3496 4128,-6198 6709,-8943 590,-627 942,-831 1532,-1457 4316,-4591 9344,-9917 14401,-13765 2185,-1663 2511,-2358 5831,-4067 2137,-1101 2551,-1205 5104,-670 1455,2726 428,5409 -659,8313 -1008,2696 -1969,5111 -3135,7707l-3241 7610c-3507,9375 -10186,24516 -5125,34273 8238,15880 29702,5742 39424,-585 2469,-1606 17643,-12650 18160,-15242 390,-1958 31,-8474 31,-10903 -1112,671 -15977,17310 -23955,18543 -14160,2188 -2340,-20470 362,-26812 4218,-9905 15325,-33496 1913,-40647 -10169,-5422 -23227,3878 -30592,9181 -1430,1029 -2184,2059 -3724,3128 -5282,3669 -17203,16266 -18711,17174 286,-3100 3568,-12691 4780,-15941 992,-2662 1838,-5164 2813,-7591 953,-2370 2075,-5517 3208,-7641l-25048 4188c-2387,475 -1330,-121 -2292,1177 -367,494 -802,1649 -1077,2270 -5286,11913 -10683,21810 -13384,35733 -1676,8636 -1,5770 -4223,9561 -3717,3337 -12208,11107 -16339,12427 -5106,1631 -8702,340 -10638,-2926 -4673,-7883 7609,-33773 10951,-42136l8044 -19889 -2250 12c-9622,536 -6951,-768 -10531,4688 -2832,4316 -5908,7784 -9559,11229 -4229,3992 -10274,8416 -19166,9283 1489,-6049 6607,-13741 4243,-20861 -2398,-7222 -14430,-4163 -19028,-1128 -5090,3359 -14176,19324 -8673,26877 2721,3735 4036,2902 7374,5527 -922,2005 -3009,3872 -4442,5733 -3803,4935 -10225,10742 -14760,14658 -3231,2789 -7146,6572 -11295,8870 -5981,3313 -11492,1798 -12288,-4560 -1665,-13300 13746,-46872 16735,-60517 -4476,0 -5271,-361 -8710,1334l-19261 9566 -1679 -2326c-14267,-22782 -62647,2556 -72503,35798 -559,1886 -784,3842 -1319,5766 -837,3011 -15632,13877 -19593,15919 -13893,7162 -33350,2405 -35725,-15941 13272,-4128 25303,-7318 35132,-14136 30677,-21280 635,-47606 -30656,-30409 -14696,8077 -27579,24565 -29941,41471 -300,2156 42,3221 -1275,4529 -866,860 -2261,1836 -3303,2695l-6594 5415c-4410,3369 -8176,6998 -14946,9218 -8619,2827 -13968,-65 -16860,-5645 -3020,-5826 -2479,-13374 -1972,-20159 437,-5856 -106,-5028 3201,-8518l5960 -5963c1916,-1864 3626,-4159 5581,-6315 13867,-15294 25140,-34701 27430,-54922 749,-6619 2449,-27172 -10088,-23004l-18400 6127c-2707,914 -7054,1592 -8438,3758 -2871,4497 -5800,10329 -8205,15273 -12093,24859 -37535,86337 -17974,107843 16482,18122 43865,2166 59139,-10481 1317,-1091 2003,-1352 3393,-2622 1125,-1028 2070,-1801 3466,-2543 6563,28922 42681,28491 62460,14484l13659 -9992c1405,-1121 2758,-2531 4042,-3609 759,1327 982,3878 1476,5425 561,1758 1200,3250 1994,4697 1523,2771 4164,6242 6125,7843 5336,4355 12788,6468 21970,3518 8205,-2634 12570,-7135 17272,-11191 4133,-3566 12198,-13659 13085,-14379 -16,6583 241,13022 2788,18638 5539,12209 21055,9040 30163,2342 7412,-5452 17887,-13507 24500,-19656 6238,-5799 5991,-6192 10790,-10944l9361 -12228c499,-378 9734,-2402 13403,-3730 4218,-1527 2908,-1942 4034,-1112 -69,61 -153,161 -187,200l-9404 14932c-5518,10895 -4039,11587 -6507,17594zm-85756 -56307c8743,-2054 12782,4076 12819,11358 35,6846 -1896,14138 -4376,19978 -2563,6036 -5263,11131 -8702,16053 -11406,16322 -27002,13866 -27276,-390 -265,-13707 11332,-43191 27535,-46999zm-110813 35120c-821,-11924 3772,-25683 13406,-33016 5863,-4463 17661,-3458 13648,12699 -2641,10633 -15056,18111 -27054,20317zm-65156 -20644c-522,-696 -395,-160 -494,-1348l4472 -18180c1796,-6504 3653,-12497 5713,-18764 1116,-3394 12044,-35653 18438,-28396 6570,7457 -4164,31207 -7514,37820 -3918,7731 -9340,15656 -14975,22149 -1807,2083 -4479,4735 -5640,6719z"/>
    <path class="fil1" d="M633190 263448c-16203,3808 -27800,33292 -27535,46999 274,14256 15870,16712 27276,390 3439,-4922 6139,-10017 8702,-16053 2480,-5840 4411,-13132 4376,-19978 -37,-7282 -4076,-13412 -12819,-11358z"/>
    <path class="fil1" d="M457221 277924c1161,-1984 3833,-4636 5640,-6719 5635,-6493 11057,-14418 14975,-22149 3350,-6613 14084,-30363 7514,-37820 -6394,-7257 -17322,25002 -18438,28396 -2060,6267 -3917,12260 -5713,18764l-4472 18180c99,1188 -28,652 494,1348z"/>
    <path class="fil1" d="M522377 298568c11998,-2206 24413,-9684 27054,-20317 4013,-16157 -7785,-17162 -13648,-12699 -9634,7333 -14227,21092 -13406,33016z"/>
    <path class="fil4" d="M637895 191411l-492 379 -445 409 -446 409 -445 409 -444 410 -446 409 -445 409 -444 410 -445 411 -445 408 -442 413 -445 410 -445 409 -446 408 -445 409 -444 411 -444 411 -447 406 -445 410 -443 411 -446 409 -446 408 -445 409 -445 409 -446 409 -446 410 -445 408 -446 409 -444 411 -442 411 -448 407 -989 408 0 -25220 -5230 190 42 43051 5376 -122c142,-3396 -180,-7028 5,-10348 130,-2348 2697,-4219 5181,-6096l1098 1095c213,270 410,603 685,1003l4280 6275c1953,2820 3975,5484 5655,8230l6625 -54 -10331 -15195c-1270,-1800 -2098,-3287 -3422,-4836 1780,-2995 9133,-7730 11601,-11004l-6734 -38z"/>
    <path class="fil4" d="M533470 213189c930,15226 22149,11302 25875,6363 1820,-2414 2844,-6629 875,-9680 -3765,-5835 -15919,-4049 -19351,-8105 -2825,-3340 1510,-6371 5272,-6646 3238,-237 6199,234 7474,2870 236,487 306,766 507,1175 435,886 106,363 509,890l5302 -133c-628,-9423 -10584,-10548 -17386,-8865 -10041,2484 -10053,12276 -4854,15203 7791,4388 19579,2546 17698,9297 -1210,4345 -13317,5775 -15709,-554 -770,-2038 891,-1815 -6212,-1815z"/>
    <path class="fil4" d="M591264 211822c-841,2526 -1492,4807 -3263,5965 -4491,2933 -14690,2259 -14800,-10168 -129,-14610 14073,-16927 17666,-5829l5214 33c1467,-14327 -29193,-17951 -28604,6196 544,22297 30004,18683 29036,3741l-5249 62z"/>
    <path class="fil4" d="M667518 191379l-4410 49 5 4013 4650 21c0,6477 10,12958 0,19438 -15,8501 1298,9546 11091,8525l0 -4153c-6701,667 -5640,46 -5640,-9231 0,-4793 0,-9587 0,-14379l5627 -233 15 -4014 -5444 17 -483 -2013c-12,-652 27,-1383 29,-2049 4,-1548 -43,-2984 111,-4523l-5111 88 -272 8205c-13,-50 -111,159 -168,239z"/>
    <polygon class="fil4" points="604138,222521 609472,222470 609479,191436 604022,191415 "/>
    <polygon class="fil4" points="652293,222521 657628,222470 657634,191436 652177,191415 "/>
    <polygon class="fil4" points="604185,185301 609429,185069 609483,179324 604258,179319 "/>
    <polygon class="fil4" points="652340,185301 657584,185069 657638,179324 652413,179319 "/>
    <path class="fil5" d="M624053 204072l448 -407 442 -411 444 -411 446 -409 445 -408 446 -410 446 -409 445 -409 445 -409 446 -408 446 -409 443 -411 445 -410 447 -406 444 -411 444 -411 445 -409 446 -408 445 -409 445 -410 442 -413 445 -408 445 -411 444 -410 445 -409 446 -409 444 -410 445 -409 446 -409 445 -409 492 -379 -492 379 -445 409 -446 409 -445 409 -444 410 -446 409 -445 409 -444 410 -445 411 -445 408 -442 413 -445 410 -445 409 -446 408 -445 409 -444 411 -444 411 -447 406 -445 410 -443 411 -446 409 -446 408 -445 409 -445 409 -446 409 -446 410 -445 408 -446 409 -444 411 -442 411 -448 407c-1086,-1248 -542,-4568 -542,-6177 0,-2329 530,-17221 -447,-18635l0 25220 989 -408z"/>
    <path class="fil5" d="M667518 191379c57,-80 155,-289 168,-239l272 -8205 5111 -88c-154,1539 -107,2975 -111,4523 -2,666 -41,1397 -29,2049l483 2013c0,-1518 318,-7273 -343,-8585 -243,-103 514,-126 -981,-298l-4314 126 -256 8704z"/>
    <path class="fil5" d="M604185 185301c742,397 4260,857 5244,-232l-5244 232 73 -5982c-790,524 -477,1581 -474,2781 4,1270 -224,2257 401,3201z"/>
    <path class="fil5" d="M652340 185301l4012 370c1194,-195 614,82 1232,-602l-5244 232 73 -5982c-789,523 -720,5005 -73,5982z"/>
    <polygon class="fil3" points="880014,365503 886315,365503 886315,365099 880014,365099 "/>
   </g>
  </g>
 </g>
</svg>
