<?xml version="1.0" encoding="UTF-8"?>
<!DOCTYPE svg PUBLIC "-//W3C//DTD SVG 1.1//EN" "http://www.w3.org/Graphics/SVG/1.1/DTD/svg11.dtd">
<!-- Creator: CorelDRAW X7 -->
<svg xmlns="http://www.w3.org/2000/svg" xml:space="preserve" width="2415px" height="1377px" version="1.1" style="shape-rendering:geometricPrecision; text-rendering:geometricPrecision; image-rendering:optimizeQuality; fill-rule:evenodd; clip-rule:evenodd"
viewBox="0 0 2421734 1381288"
 xmlns:xlink="http://www.w3.org/1999/xlink">
 <defs>
  <style type="text/css">
   <![CDATA[
    .str1 {stroke:#303030;stroke-width:5922.31}
    .str0 {stroke:#303030;stroke-width:2368.92}
    .str2 {stroke:#303030;stroke-width:5922.31;stroke-linecap:round}
    .fil6 {fill:none}
    .fil4 {fill:#00BAFF}
    .fil2 {fill:#1E4158}
    .fil3 {fill:#E69C24}
    .fil1 {fill:#EAEBEC}
    .fil0 {fill:white}
    .fil5 {fill:#303030;fill-rule:nonzero}
   ]]>
  </style>
 </defs>
 <g id="Capa_x0020_1">
  <metadata id="CorelCorpID_0Corel-Layer"/>
  <g id="_1788096869792">
   <rect class="fil0 str0" x="1184" y="1184" width="2419365" height="1378919" rx="1184" ry="1071"/>
   <rect class="fil0 str1" x="172504" y="531871" width="346816" height="346816" rx="840" ry="840"/>
   <rect class="fil1 str1" x="604981" y="531871" width="346816" height="346816" rx="840" ry="840"/>
   <rect class="fil2 str1" x="1037457" y="531871" width="346816" height="346816" rx="840" ry="840"/>
   <rect class="fil3 str1" x="1469934" y="531871" width="346816" height="346816" rx="840" ry="840"/>
   <rect class="fil4 str1" x="1902412" y="531871" width="346816" height="346816" rx="840" ry="840"/>
   <path class="fil5" d="M310528 333661c0,4579 -1103,9526 -3376,14841 -2239,5315 -5783,10530 -10630,15644 -4814,5148 -10998,9294 -18486,12502 -7521,3176 -16279,4781 -26274,4781 -7554,0 -14441,-703 -20659,-2139 -6184,-1438 -11833,-3678 -16881,-6720 -5047,-3008 -9727,-7020 -13973,-11966 -3778,-4513 -7019,-9528 -9694,-15111 -2674,-5582 -4680,-11566 -6017,-17884 -1337,-6351 -2005,-13070 -2005,-20190 0,-11533 1671,-21895 5047,-31021 3342,-9160 8190,-16982 14441,-23467 6284,-6485 13606,-11432 22030,-14842 8423,-3376 17415,-5080 26942,-5080 11633,0 21963,2306 31055,6952 9058,4613 16011,10363 20859,17182 4814,6819 7254,13238 7254,19321 0,3344 -1204,6252 -3544,8826 -2339,2540 -5181,3810 -8523,3810 -3711,0 -6520,-903 -8358,-2640 -1871,-1772 -3944,-4814 -6217,-9126 -3812,-7120 -8257,-12435 -13372,-15979 -5147,-3509 -11432,-5281 -18953,-5281 -11968,0 -21462,4546 -28548,13604 -7087,9093 -10630,21996 -10630,38711 0,11165 1571,20458 4713,27879 3110,7420 7555,12936 13304,16613 5751,3643 12469,5483 20192,5483 8356,0 15410,-2073 21192,-6219 5784,-4144 10130,-10229 13071,-18284 1236,-3777 2775,-6853 4613,-9260 1805,-2373 4746,-3576 8791,-3576 3477,0 6452,1203 8926,3643 2474,2407 3710,5416 3710,8993zm124353 -6553c0,7989 -1236,15311 -3711,22029 -2506,6719 -6083,12502 -10796,17315 -4680,4848 -10330,8525 -16848,11099 -6519,2574 -13872,3878 -22030,3878 -8123,0 -15410,-1304 -21861,-3911 -6452,-2607 -12068,-6351 -16815,-11233 -4713,-4846 -8323,-10596 -10763,-17215 -2440,-6651 -3678,-13973 -3678,-21995 0,-8090 1238,-15511 3711,-22230 2508,-6719 6050,-12469 10697,-17249 4647,-4746 10262,-8424 16848,-10998 6585,-2574 13872,-3877 21861,-3877 8090,0 15445,1303 22030,3911 6586,2607 12234,6351 16947,11198 4715,4814 8290,10563 10732,17250 2440,6652 3676,14006 3676,22028zm-26875 0c0,-10897 -2407,-19355 -7188,-25439 -4813,-6050 -11232,-9093 -19322,-9093 -5248,0 -9827,1338 -13805,4045 -3978,2708 -7053,6720 -9193,12001 -2173,5282 -3242,11466 -3242,18486 0,6986 1069,13104 3175,18319 2139,5214 5148,9226 9092,12000 3946,2775 8625,4145 13973,4145 8090,0 14509,-3041 19322,-9159 4781,-6083 7188,-14540 7188,-25305zm47935 38075l0 -115928c0,-5349 1203,-9394 3577,-12135 2374,-2741 5582,-4111 9627,-4111 4011,0 7287,1370 9761,4078 2474,2707 3710,6752 3710,12168l0 115928c0,5415 -1270,9460 -3777,12168 -2508,2707 -5749,4078 -9694,4078 -3911,0 -7086,-1404 -9527,-4212 -2440,-2808 -3677,-6819 -3677,-12034zm154437 -38075c0,7989 -1236,15311 -3711,22029 -2506,6719 -6083,12502 -10796,17315 -4680,4848 -10330,8525 -16848,11099 -6519,2574 -13872,3878 -22030,3878 -8123,0 -15409,-1304 -21861,-3911 -6452,-2607 -12068,-6351 -16815,-11233 -4713,-4846 -8323,-10596 -10763,-17215 -2440,-6651 -3678,-13973 -3678,-21995 0,-8090 1238,-15511 3711,-22230 2508,-6719 6050,-12469 10697,-17249 4647,-4746 10262,-8424 16848,-10998 6585,-2574 13872,-3877 21861,-3877 8090,0 15445,1303 22030,3911 6586,2607 12234,6351 16947,11198 4715,4814 8291,10563 10732,17250 2440,6652 3676,14006 3676,22028zm-26875 0c0,-10897 -2407,-19355 -7188,-25439 -4813,-6050 -11232,-9093 -19322,-9093 -5248,0 -9827,1338 -13805,4045 -3978,2708 -7053,6720 -9193,12001 -2173,5282 -3242,11466 -3242,18486 0,6986 1069,13104 3175,18319 2139,5214 5148,9226 9092,12000 3946,2775 8626,4145 13973,4145 8090,0 14509,-3041 19322,-9159 4781,-6083 7188,-14540 7188,-25305zm74410 15745l0 22330c0,5415 -1271,9460 -3810,12168 -2541,2707 -5751,4078 -9662,4078 -3844,0 -7019,-1371 -9493,-4111 -2474,-2742 -3710,-6786 -3710,-12135l0 -74445c0,-12001 4346,-18017 13003,-18017 4412,0 7622,1404 9561,4212 1972,2807 3042,6986 3242,12468 3175,-5482 6451,-9661 9827,-12468 3377,-2808 7857,-4212 13472,-4212 5616,0 11065,1404 16347,4212 5282,2807 7922,6551 7922,11198 0,3276 -1103,5950 -3376,8090 -2240,2139 -4680,3176 -7288,3176 -969,0 -3343,-602 -7087,-1806 -3777,-1203 -7086,-1805 -9961,-1805 -3911,0 -7087,1037 -9594,3075 -2473,2073 -4412,5115 -5783,9160 -1370,4045 -2306,8858 -2841,14441 -501,5582 -769,12368 -769,20391zm136186 -55090l0 3243c5014,-6217 10262,-10798 15678,-13706 5415,-2907 11533,-4379 18385,-4379 8257,0 15811,2106 22731,6351 6919,4246 12402,10464 16413,18620 4012,8156 6017,17817 6017,28982 0,8223 -1169,15778 -3476,22664 -2307,6887 -5515,12669 -9560,17349 -4045,4680 -8826,8257 -14341,10765 -5516,2507 -11432,3777 -17784,3777 -7621,0 -14040,-1538 -19221,-4614 -5182,-3041 -10129,-7554 -14842,-13504l0 40181c0,11766 -4279,17649 -12836,17649 -5015,0 -8358,-1504 -9996,-4546 -1638,-3042 -2440,-7455 -2440,-13270l0 -115428c0,-5081 1103,-8892 3343,-11399 2207,-2507 5248,-3777 9093,-3777 3777,0 6885,1303 9259,3877 2374,2608 3577,6318 3577,11165zm52348 38877c0,-7053 -1069,-13103 -3243,-18152 -2139,-5047 -5114,-8958 -8924,-11665 -3845,-2708 -8057,-4045 -12669,-4045 -7388,0 -13606,2908 -18653,8691 -5049,5816 -7589,14374 -7589,25639 0,10631 2507,18921 7521,24804 5048,5916 11265,8859 18721,8859 4412,0 8523,-1304 12301,-3878 3778,-2574 6819,-6419 9125,-11567 2273,-5180 3410,-11399 3410,-18686zm115895 39779c-6485,5015 -12736,8758 -18753,11266 -6050,2507 -12836,3744 -20324,3744 -6853,0 -12903,-1371 -18085,-4078 -5181,-2708 -9192,-6351 -12001,-10998 -2807,-4647 -4212,-9660 -4212,-15076 0,-7321 2308,-13538 6954,-18687 4646,-5181 11031,-8624 19154,-10396 1672,-400 5883,-1270 12603,-2640 6718,-1371 12502,-2608 17281,-3778 4781,-1137 9996,-2507 15611,-4145 -334,-7054 -1737,-12234 -4245,-15511 -2540,-3309 -7721,-4947 -15644,-4947 -6786,0 -11900,936 -15310,2841 -3444,1872 -6385,4713 -8825,8525 -2441,3777 -4178,6250 -5182,7487 -1036,1203 -3208,1805 -6518,1805 -3008,0 -5615,-969 -7789,-2908 -2172,-1906 -3276,-4379 -3276,-7387 0,-4713 1671,-9294 4981,-13739 3343,-4446 8524,-8090 15578,-10964 7053,-2875 15844,-4313 26374,-4313 11733,0 20994,1405 27712,4179 6719,2774 11467,7153 14241,13170 2774,6017 4178,13973 4178,23901 0,6285 -33,11599 -67,15980 -33,4378 -66,9258 -134,14608 0,5013 836,10262 2507,15710 1672,5416 2475,8925 2475,10497 0,2741 -1271,5248 -3845,7488 -2607,2239 -5516,3376 -8791,3376 -2742,0 -5450,-1270 -8123,-3845 -2675,-2574 -5516,-6284 -8525,-11165zm-1772 -38742c-3911,1436 -9594,2975 -17081,4546 -7455,1605 -12636,2808 -15510,3544 -2876,768 -5617,2238 -8224,4412 -2607,2206 -3911,5248 -3911,9192 0,4045 1537,7489 4613,10330 3042,2840 7053,4278 12035,4278 5281,0 10161,-1170 14608,-3476 4478,-2341 7754,-5315 9860,-8993 2407,-4044 3610,-10730 3610,-20023l0 -3810zm53385 37506l0 -115928c0,-5349 1204,-9394 3577,-12135 2374,-2741 5583,-4111 9628,-4111 4010,0 7287,1370 9761,4078 2473,2707 3710,6752 3710,12168l0 115928c0,5415 -1270,9460 -3778,12168 -2507,2707 -5749,4078 -9693,4078 -3911,0 -7087,-1404 -9528,-4212 -2440,-2808 -3677,-6819 -3677,-12034zm128933 -31489l-52316 0c67,6083 1304,11432 3677,16079 2373,4645 5549,8123 9493,10462 3946,2374 8325,3544 13071,3544 3210,0 6118,-368 8759,-1137 2673,-735 5214,-1906 7688,-3510 2507,-1604 4780,-3309 6852,-5147 2106,-1840 4814,-4313 8157,-7455 1371,-1170 3309,-1772 5850,-1772 2741,0 4980,769 6686,2273 1671,1471 2541,3610 2541,6352 0,2407 -970,5214 -2842,8457 -1906,3209 -4747,6318 -8591,9259 -3811,2975 -8591,5450 -14374,7388 -5783,1973 -12436,2942 -19923,2942 -17183,0 -30520,-4915 -40047,-14709 -9528,-9794 -14274,-23065 -14274,-39846 0,-7889 1169,-15243 3510,-21996 2340,-6752 5782,-12535 10262,-17382 4513,-4813 10062,-8524 16648,-11098 6585,-2574 13905,-3878 21929,-3878 10462,0 19421,2207 26875,6619 7488,4412 13071,10095 16815,17115 3711,6986 5582,14107 5582,21361 0,6719 -1939,11098 -5782,13103 -3845,1973 -9260,2976 -16246,2976zm-52316 -15244l48471 0c-635,-9125 -3109,-15945 -7388,-20491 -4278,-4513 -9895,-6786 -16881,-6786 -6686,0 -12134,2306 -16413,6886 -4279,4614 -6886,11400 -7789,20391zm98379 -43322l2941 0 0 -16079c0,-4313 101,-7688 336,-10130 233,-2473 868,-4579 1904,-6317 1037,-1839 2541,-3343 4513,-4479 1939,-1137 4112,-1706 6552,-1706 3376,0 6418,1271 9160,3812 1838,1705 2974,3777 3476,6250 501,2440 736,5917 736,10430l0 18219 9794 0c3777,0 6685,903 8657,2673 2007,1806 3009,4113 3009,6887 0,3610 -1437,6118 -4278,7554 -2842,1438 -6887,2139 -12202,2139l-4980 0 0 49140c0,4179 132,7421 433,9661 301,2240 1071,4078 2341,5483 1304,1403 3376,2106 6251,2106 1538,0 3677,-268 6351,-837 2675,-534 4781,-835 6251,-835 2173,0 4112,869 5850,2607 1739,1738 2574,3878 2574,6419 0,4311 -2340,7588 -7019,9861 -4714,2306 -11467,3443 -20291,3443 -8358,0 -14676,-1404 -18954,-4212 -4313,-2808 -7120,-6685 -8457,-11667 -1337,-4946 -2007,-11565 -2007,-19856l0 -51313 -3509 0c-3878,0 -6819,-902 -8826,-2740 -2038,-1805 -3041,-4145 -3041,-6953 0,-2774 1069,-5081 3175,-6887 2139,-1770 5215,-2673 9260,-2673zm71002 0l2941 0 0 -16079c0,-4313 100,-7688 335,-10130 233,-2473 868,-4579 1905,-6317 1036,-1839 2540,-3343 4512,-4479 1939,-1137 4113,-1706 6553,-1706 3376,0 6417,1271 9159,3812 1839,1705 2974,3777 3477,6250 501,2440 735,5917 735,10430l0 18219 9795 0c3777,0 6685,903 8657,2673 2006,1806 3008,4113 3008,6887 0,3610 -1436,6118 -4278,7554 -2842,1438 -6886,2139 -12201,2139l-4981 0 0 49140c0,4179 133,7421 434,9661 301,2240 1070,4078 2340,5483 1304,1403 3376,2106 6252,2106 1537,0 3676,-268 6351,-837 2674,-534 4780,-835 6250,-835 2174,0 4113,869 5850,2607 1739,1738 2574,3878 2574,6419 0,4311 -2339,7588 -7019,9861 -4714,2306 -11467,3443 -20291,3443 -8358,0 -14675,-1404 -18954,-4212 -4312,-2808 -7120,-6685 -8457,-11667 -1337,-4946 -2006,-11565 -2006,-19856l0 -51313 -3510 0c-3878,0 -6819,-902 -8825,-2740 -2039,-1805 -3042,-4145 -3042,-6953 0,-2774 1070,-5081 3176,-6887 2139,-1770 5215,-2673 9260,-2673zm144109 58566l-52316 0c67,6083 1304,11432 3677,16079 2373,4645 5549,8123 9493,10462 3946,2374 8325,3544 13071,3544 3210,0 6117,-368 8759,-1137 2673,-735 5214,-1906 7688,-3510 2507,-1604 4779,-3309 6852,-5147 2106,-1840 4814,-4313 8157,-7455 1371,-1170 3309,-1772 5850,-1772 2740,0 4980,769 6686,2273 1671,1471 2541,3610 2541,6352 0,2407 -971,5214 -2842,8457 -1906,3209 -4747,6318 -8591,9259 -3811,2975 -8591,5450 -14375,7388 -5782,1973 -12435,2942 -19922,2942 -17183,0 -30520,-4915 -40047,-14709 -9528,-9794 -14274,-23065 -14274,-39846 0,-7889 1169,-15243 3510,-21996 2340,-6752 5782,-12535 10262,-17382 4513,-4813 10062,-8524 16648,-11098 6585,-2574 13905,-3878 21929,-3878 10462,0 19421,2207 26875,6619 7488,4412 13071,10095 16815,17115 3711,6986 5582,14107 5582,21361 0,6719 -1939,11098 -5782,13103 -3845,1973 -9261,2976 -16246,2976zm-52316 -15244l48471 0c-635,-9125 -3109,-15945 -7388,-20491 -4278,-4513 -9895,-6786 -16881,-6786 -6686,0 -12135,2306 -16413,6886 -4279,4614 -6886,11400 -7789,20391z"/>
   <path class="fil5" d="M227129 978058l1053 -5333c-2624,-58 -3940,-1101 -3940,-3149 0,-945 332,-1726 985,-2330 653,-595 1628,-897 2896,-897l1345 0 1629 -8306 -2974 0c-1238,0 -2194,-313 -2867,-926 -672,-625 -1014,-1385 -1014,-2283 0,-945 332,-1715 985,-2300 653,-576 1628,-868 2896,-868l4260 0 1336 -6542c215,-1102 449,-1970 703,-2604 253,-624 613,-1101 1062,-1423 438,-321 1023,-487 1754,-487 1005,0 1776,263 2311,799 537,537 800,1219 800,2058 0,194 -166,1150 -487,2885l-1053 5314 6249 0 1375 -6542c185,-995 370,-1795 536,-2399 176,-613 488,-1131 937,-1550 447,-419 1090,-623 1949,-623 994,0 1754,253 2300,770 546,516 820,1208 820,2086 0,400 -30,790 -78,1170 -49,380 -108,751 -185,1101 -78,352 -127,576 -137,673l-1063 5373c2721,58 4085,1111 4085,3168 0,955 -322,1717 -974,2291 -644,576 -1609,859 -2876,859l-1463 0 -1716 8306 3179 0c1267,0 2232,302 2876,916 652,605 974,1385 974,2311 0,936 -322,1696 -955,2281 -644,576 -1609,868 -2895,868l-4398 0 -1346 6552c-214,1043 -399,1852 -555,2428 -166,565 -478,1062 -926,1491 -459,430 -1121,644 -1980,644 -945,0 -1696,-264 -2251,-799 -556,-527 -829,-1228 -829,-2078 0,-779 136,-1744 400,-2905l1053 -5333 -6309 0 -1336 6552c-350,1619 -701,2778 -1072,3490 -370,712 -1170,1073 -2389,1073 -965,0 -1735,-264 -2281,-799 -555,-527 -829,-1228 -829,-2078 0,-438 50,-926 156,-1472 108,-535 196,-1014 274,-1433zm16701 -20015l-6309 0 -1686 8306 6366 0 1629 -8306zm41807 -10238l-16712 0 0 10706 13972 0c1286,0 2262,292 2896,867 634,585 955,1365 955,2331 0,975 -321,1744 -966,2320 -652,575 -1618,858 -2885,858l-13972 0 0 13786c0,1755 -399,3051 -1189,3900 -790,848 -1804,1267 -3032,1267 -1258,0 -2282,-430 -3072,-1287 -789,-858 -1189,-2155 -1189,-3880l0 -32224c0,-1217 185,-2212 546,-2982 361,-771 926,-1336 1696,-1687 771,-352 1756,-527 2954,-527l19998 0c1355,0 2359,302 3012,897 654,605 985,1395 985,2359 0,995 -331,1795 -985,2399 -653,594 -1657,897 -3012,897zm35332 0l-16711 0 0 10706 13971 0c1287,0 2263,292 2896,867 634,585 955,1365 955,2331 0,975 -321,1744 -965,2320 -653,575 -1618,858 -2886,858l-13971 0 0 13786c0,1755 -400,3051 -1190,3900 -790,848 -1804,1267 -3032,1267 -1258,0 -2281,-430 -3071,-1287 -789,-858 -1189,-2155 -1189,-3880l0 -32224c0,-1217 184,-2212 546,-2982 361,-771 926,-1336 1696,-1687 771,-352 1755,-527 2954,-527l19997 0c1355,0 2360,302 3012,897 654,605 986,1395 986,2359 0,995 -332,1795 -986,2399 -652,594 -1657,897 -3012,897zm35333 0l-16712 0 0 10706 13972 0c1286,0 2262,292 2896,867 634,585 955,1365 955,2331 0,975 -321,1744 -966,2320 -652,575 -1618,858 -2885,858l-13972 0 0 13786c0,1755 -399,3051 -1189,3900 -790,848 -1804,1267 -3032,1267 -1258,0 -2282,-430 -3072,-1287 -789,-858 -1189,-2155 -1189,-3880l0 -32224c0,-1217 185,-2212 546,-2982 361,-771 926,-1336 1696,-1687 771,-352 1756,-527 2954,-527l19998 0c1355,0 2359,302 3012,897 654,605 985,1395 985,2359 0,995 -331,1795 -985,2399 -653,594 -1657,897 -3012,897zm35332 0l-16711 0 0 10706 13971 0c1287,0 2263,292 2896,867 634,585 955,1365 955,2331 0,975 -321,1744 -965,2320 -653,575 -1618,858 -2886,858l-13971 0 0 13786c0,1755 -400,3051 -1190,3900 -790,848 -1804,1267 -3032,1267 -1258,0 -2281,-430 -3071,-1287 -789,-858 -1189,-2155 -1189,-3880l0 -32224c0,-1217 184,-2212 546,-2982 361,-771 926,-1336 1696,-1687 771,-352 1755,-527 2954,-527l19997 0c1355,0 2360,302 3012,897 654,605 986,1395 986,2359 0,995 -332,1795 -986,2399 -652,594 -1657,897 -3012,897zm35333 0l-16712 0 0 10706 13972 0c1286,0 2262,292 2896,867 634,585 955,1365 955,2331 0,975 -321,1744 -966,2320 -652,575 -1618,858 -2885,858l-13972 0 0 13786c0,1755 -399,3051 -1189,3900 -790,848 -1804,1267 -3032,1267 -1258,0 -2282,-430 -3072,-1287 -789,-858 -1189,-2155 -1189,-3880l0 -32224c0,-1217 185,-2212 546,-2982 361,-771 926,-1336 1696,-1687 771,-352 1756,-527 2954,-527l19998 0c1355,0 2359,302 3012,897 654,605 985,1395 985,2359 0,995 -331,1795 -985,2399 -653,594 -1657,897 -3012,897zm35332 0l-16711 0 0 10706 13971 0c1287,0 2263,292 2897,867 633,585 954,1365 954,2331 0,975 -321,1744 -965,2320 -653,575 -1618,858 -2886,858l-13971 0 0 13786c0,1755 -400,3051 -1190,3900 -790,848 -1804,1267 -3032,1267 -1258,0 -2281,-430 -3071,-1287 -789,-858 -1189,-2155 -1189,-3880l0 -32224c0,-1217 184,-2212 546,-2982 361,-771 926,-1336 1696,-1687 771,-352 1755,-527 2954,-527l19997 0c1355,0 2360,302 3012,897 654,605 986,1395 986,2359 0,995 -332,1795 -986,2399 -652,594 -1657,897 -3012,897z"/>
   <path class="fil5" d="M653772 978058l1053 -5333c-2623,-58 -3939,-1101 -3939,-3149 0,-945 331,-1726 984,-2330 654,-595 1629,-897 2896,-897l1346 0 1628 -8306 -2974 0c-1238,0 -2194,-313 -2866,-926 -673,-625 -1014,-1385 -1014,-2283 0,-945 331,-1715 984,-2300 654,-576 1629,-868 2896,-868l4260 0 1337 -6542c214,-1102 448,-1970 702,-2604 253,-624 613,-1101 1062,-1423 439,-321 1024,-487 1755,-487 1004,0 1775,263 2310,799 537,537 800,1219 800,2058 0,194 -166,1150 -487,2885l-1053 5314 6249 0 1376 -6542c184,-995 369,-1795 535,-2399 176,-613 488,-1131 937,-1550 448,-419 1091,-623 1949,-623 994,0 1755,253 2301,770 546,516 819,1208 819,2086 0,400 -29,790 -78,1170 -48,380 -108,751 -185,1101 -78,352 -126,576 -137,673l-1062 5373c2720,58 4085,1111 4085,3168 0,955 -322,1717 -975,2291 -643,576 -1609,859 -2876,859l-1463 0 -1716 8306 3179 0c1267,0 2233,302 2876,916 653,605 975,1385 975,2311 0,936 -322,1696 -956,2281 -643,576 -1609,868 -2895,868l-4398 0 -1345 6552c-215,1043 -400,1852 -556,2428 -166,565 -477,1062 -926,1491 -459,430 -1121,644 -1979,644 -946,0 -1697,-264 -2252,-799 -556,-527 -829,-1228 -829,-2078 0,-779 136,-1744 400,-2905l1053 -5333 -6308 0 -1336 6552c-351,1619 -702,2778 -1072,3490 -371,712 -1171,1073 -2389,1073 -966,0 -1736,-264 -2282,-799 -555,-527 -829,-1228 -829,-2078 0,-438 50,-926 157,-1472 107,-535 195,-1014 273,-1433zm16701 -20015l-6308 0 -1687 8306 6366 0 1629 -8306zm44381 -10238l-19109 0 0 10296 17597 0c1297,0 2263,292 2896,868 644,574 955,1344 955,2291 0,945 -311,1726 -936,2320 -633,595 -1599,897 -2915,897l-17597 0 0 11933 19761 0c1336,0 2341,313 3014,926 682,615 1023,1444 1023,2468 0,984 -341,1793 -1023,2408 -673,614 -1678,926 -3014,926l-23047 0c-1843,0 -3170,-410 -3978,-1228 -809,-820 -1219,-2145 -1219,-3968l0 -31493c0,-1217 186,-2212 546,-2982 361,-771 926,-1336 1696,-1687 771,-352 1755,-527 2955,-527l22395 0c1355,0 2359,302 3012,897 654,605 985,1395 985,2359 0,995 -331,1795 -985,2399 -653,594 -1657,897 -3012,897zm38228 30584l-1998 -5254 -17023 0 -1999 5362c-780,2097 -1443,3510 -1999,4242 -546,731 -1452,1101 -2710,1101 -1063,0 -2008,-391 -2827,-1170 -820,-780 -1229,-1668 -1229,-2652 0,-576 98,-1170 283,-1774 195,-615 507,-1454 946,-2546l10705 -27181c312,-780 673,-1716 1102,-2808 429,-1102 887,-2009 1374,-2730 488,-722 1121,-1307 1911,-1756 789,-447 1765,-671 2925,-671 1189,0 2175,224 2963,671 790,449 1424,1025 1912,1726 487,703 897,1463 1228,2272 332,810 761,1892 1268,3237l10940 27017c857,2057 1286,3548 1286,4485 0,964 -399,1862 -1209,2671 -809,809 -1794,1209 -2934,1209 -664,0 -1239,-117 -1717,-361 -468,-233 -868,-555 -1198,-965 -323,-410 -664,-1044 -1034,-1881 -381,-849 -692,-1599 -966,-2244zm-16788 -11631l12509 0 -6309 -17256 -6200 17256zm59648 -18953l-19109 0 0 10296 17598 0c1297,0 2262,292 2896,868 643,574 954,1344 954,2291 0,945 -311,1726 -935,2320 -634,595 -1599,897 -2915,897l-17598 0 0 11933 19762 0c1336,0 2340,313 3013,926 682,615 1023,1444 1023,2468 0,984 -341,1793 -1023,2408 -673,614 -1677,926 -3013,926l-23048 0c-1843,0 -3169,-410 -3978,-1228 -809,-820 -1219,-2145 -1219,-3968l0 -31493c0,-1217 186,-2212 546,-2982 361,-771 926,-1336 1696,-1687 771,-352 1756,-527 2955,-527l22395 0c1355,0 2359,302 3012,897 654,605 986,1395 986,2359 0,995 -332,1795 -986,2399 -653,594 -1657,897 -3012,897zm29318 35333l-12802 0c-1852,0 -3168,-410 -3958,-1238 -790,-829 -1190,-2156 -1190,-3958l0 -31493c0,-1842 410,-3168 1219,-3977 809,-809 2116,-1219 3929,-1219l13572 0c1998,0 3734,127 5196,371 1472,253 2788,721 3949,1433 995,585 1862,1336 2632,2242 761,907 1336,1901 1736,2993 399,1102 604,2253 604,3472 0,4192 -2096,7263 -6288,9203 5509,1756 8258,5157 8258,10228 0,2339 -605,4455 -1804,6327 -1200,1881 -2818,3266 -4855,4153 -1278,537 -2740,917 -4398,1131 -1657,224 -3597,332 -5800,332zm-634 -18602l-8834 0 0 12226 9116 0c5744,0 8610,-2067 8610,-6201 0,-2116 -742,-3647 -2233,-4602 -1482,-946 -3705,-1423 -6659,-1423zm-8834 -16907l0 10822 7781 0c2116,0 3744,-204 4894,-604 1160,-400 2038,-1160 2652,-2281 478,-799 712,-1696 712,-2682 0,-2115 -751,-3519 -2262,-4211 -1502,-692 -3802,-1044 -6883,-1044l-6894 0zm61238 176l-19109 0 0 10296 17598 0c1297,0 2262,292 2896,868 643,574 955,1344 955,2291 0,945 -312,1726 -936,2320 -634,595 -1599,897 -2915,897l-17598 0 0 11933 19762 0c1336,0 2340,313 3013,926 682,615 1024,1444 1024,2468 0,984 -342,1793 -1024,2408 -673,614 -1677,926 -3013,926l-23047 0c-1843,0 -3170,-410 -3979,-1228 -809,-820 -1219,-2145 -1219,-3968l0 -31493c0,-1217 186,-2212 546,-2982 362,-771 927,-1336 1696,-1687 772,-352 1756,-527 2956,-527l22394 0c1355,0 2360,302 3012,897 654,605 986,1395 986,2359 0,995 -332,1795 -986,2399 -652,594 -1657,897 -3012,897zm47121 22103c0,1336 -321,2778 -985,4329 -654,1550 -1686,3071 -3101,4562 -1403,1502 -3207,2710 -5391,3647 -2194,927 -4748,1394 -7664,1394 -2203,0 -4211,-205 -6024,-624 -1804,-419 -3451,-1073 -4924,-1960 -1472,-877 -2838,-2047 -4075,-3490 -1102,-1317 -2048,-2778 -2828,-4407 -780,-1629 -1364,-3373 -1755,-5216 -390,-1853 -585,-3812 -585,-5889 0,-3363 488,-6386 1472,-9047 975,-2673 2389,-4954 4212,-6845 1833,-1891 3968,-3335 6426,-4328 2456,-986 5079,-1482 7857,-1482 3394,0 6406,671 9058,2028 2642,1345 4670,3021 6083,5011 1405,1989 2117,3860 2117,5635 0,974 -352,1824 -1034,2573 -682,742 -1511,1113 -2486,1113 -1083,0 -1901,-265 -2438,-771 -546,-517 -1150,-1404 -1813,-2662 -1111,-2076 -2408,-3627 -3900,-4660 -1501,-1024 -3334,-1541 -5527,-1541 -3491,0 -6260,1327 -8327,3968 -2067,2652 -3101,6417 -3101,11291 0,3256 458,5967 1375,8131 907,2164 2203,3774 3880,4846 1678,1062 3637,1599 5890,1599 2437,0 4493,-604 6181,-1814 1687,-1209 2954,-2983 3812,-5333 361,-1102 809,-1999 1345,-2701 526,-692 1385,-1042 2565,-1042 1014,0 1881,350 2602,1062 723,703 1083,1579 1083,2623z"/>
   <path class="fil5" d="M1096665 978058l1053 -5333c-2623,-58 -3939,-1101 -3939,-3149 0,-945 331,-1726 984,-2330 654,-595 1629,-897 2896,-897l1345 0 1629 -8306 -2974 0c-1238,0 -2194,-313 -2867,-926 -672,-625 -1013,-1385 -1013,-2283 0,-945 331,-1715 984,-2300 654,-576 1629,-868 2896,-868l4260 0 1336 -6542c215,-1102 449,-1970 703,-2604 253,-624 613,-1101 1062,-1423 439,-321 1024,-487 1755,-487 1004,0 1775,263 2310,799 537,537 800,1219 800,2058 0,194 -166,1150 -487,2885l-1053 5314 6249 0 1375 -6542c185,-995 370,-1795 536,-2399 176,-613 488,-1131 937,-1550 448,-419 1091,-623 1949,-623 994,0 1755,253 2301,770 546,516 819,1208 819,2086 0,400 -29,790 -78,1170 -48,380 -108,751 -185,1101 -78,352 -126,576 -137,673l-1063 5373c2721,58 4086,1111 4086,3168 0,955 -322,1717 -975,2291 -643,576 -1609,859 -2876,859l-1463 0 -1716 8306 3179 0c1267,0 2233,302 2876,916 653,605 975,1385 975,2311 0,936 -322,1696 -956,2281 -643,576 -1609,868 -2895,868l-4398 0 -1345 6552c-215,1043 -400,1852 -556,2428 -166,565 -477,1062 -926,1491 -459,430 -1121,644 -1979,644 -946,0 -1697,-264 -2252,-799 -556,-527 -829,-1228 -829,-2078 0,-779 136,-1744 400,-2905l1053 -5333 -6308 0 -1336 6552c-351,1619 -702,2778 -1072,3490 -371,712 -1171,1073 -2389,1073 -966,0 -1736,-264 -2282,-799 -555,-527 -829,-1228 -829,-2078 0,-438 50,-926 157,-1472 107,-535 195,-1014 273,-1433zm16701 -20015l-6308 0 -1687 8306 6366 0 1629 -8306zm28722 21176l0 -25973c-4835,3705 -8092,5557 -9768,5557 -800,0 -1512,-322 -2126,-956 -625,-633 -927,-1375 -927,-2213 0,-975 302,-1687 908,-2144 613,-449 1686,-1044 3226,-1765 2311,-1083 4154,-2223 5528,-3423 1385,-1199 2604,-2544 3677,-4026 1062,-1491 1765,-2399 2086,-2740 322,-341 935,-516 1833,-516 1004,0 1823,389 2427,1169 615,780 917,1852 917,3227l0 32681c0,3832 -1307,5743 -3920,5743 -1160,0 -2096,-391 -2797,-1170 -712,-780 -1064,-1931 -1064,-3451zm50417 -31414l-19109 0 0 10296 17597 0c1297,0 2263,292 2896,868 644,574 955,1344 955,2291 0,945 -311,1726 -936,2320 -633,595 -1599,897 -2915,897l-17597 0 0 11933 19761 0c1336,0 2341,313 3014,926 682,615 1023,1444 1023,2468 0,984 -341,1793 -1023,2408 -673,614 -1678,926 -3014,926l-23047 0c-1843,0 -3170,-410 -3979,-1228 -809,-820 -1218,-2145 -1218,-3968l0 -31493c0,-1217 186,-2212 546,-2982 361,-771 926,-1336 1696,-1687 771,-352 1755,-527 2955,-527l22395 0c1355,0 2359,302 3012,897 654,605 985,1395 985,2359 0,995 -331,1795 -985,2399 -653,594 -1657,897 -3012,897zm27338 31697l0 -5314 -14341 0c-1804,0 -3159,-410 -4066,-1229 -907,-819 -1355,-1930 -1355,-3344 0,-360 68,-721 195,-1092 136,-371 330,-761 604,-1170 263,-409 537,-809 829,-1190 282,-380 634,-848 1053,-1394l15141 -20249c984,-1327 1804,-2292 2438,-2896 643,-595 1403,-897 2300,-897 2896,0 4339,1657 4339,4973l0 22111 1228 0c1463,0 2642,195 3530,595 887,400 1325,1278 1325,2623 0,1102 -360,1901 -1081,2408 -732,498 -1814,751 -3256,751l-1746 0 0 5314c0,1461 -321,2553 -975,3265 -643,712 -1512,1073 -2594,1073 -1063,0 -1930,-370 -2583,-1101 -653,-732 -985,-1815 -985,-3237zm-12285 -11691l12285 0 0 -16613 -12285 16613zm43065 11408l0 -25973c-4835,3705 -8093,5557 -9769,5557 -799,0 -1511,-322 -2126,-956 -624,-633 -926,-1375 -926,-2213 0,-975 302,-1687 907,-2144 614,-449 1687,-1044 3227,-1765 2311,-1083 4154,-2223 5528,-3423 1384,-1199 2603,-2544 3676,-4026 1063,-1491 1765,-2399 2086,-2740 322,-341 936,-516 1834,-516 1004,0 1823,389 2427,1169 614,780 916,1852 916,3227l0 32681c0,3832 -1306,5743 -3919,5743 -1161,0 -2096,-391 -2798,-1170 -711,-780 -1063,-1931 -1063,-3451zm45347 -30888l-13572 0 -1628 9243c2700,-1443 5196,-2164 7488,-2164 1823,0 3528,341 5127,1023 1590,693 2984,1638 4173,2848 1200,1209 2145,2642 2828,4290 683,1657 1024,3441 1024,5342 0,2759 -615,5265 -1852,7536 -1239,2263 -3023,4057 -5353,5392 -2320,1336 -5011,1999 -8064,1999 -3402,0 -6171,-624 -8296,-1882 -2126,-1258 -3627,-2700 -4515,-4329 -887,-1618 -1325,-3042 -1325,-4260 0,-741 311,-1453 926,-2116 624,-663 1394,-995 2330,-995 1599,0 2788,917 3568,2769 761,1697 1795,3014 3091,3959 1297,945 2739,1414 4338,1414 1463,0 2750,-380 3852,-1141 1111,-761 1959,-1814 2563,-3149 596,-1327 898,-2847 898,-4544 0,-1822 -322,-3382 -974,-4679 -645,-1297 -1512,-2263 -2594,-2906 -1083,-634 -2302,-956 -3627,-956 -1638,0 -2809,205 -3519,606 -703,399 -1717,1092 -3043,2095 -1316,995 -2408,1502 -3266,1502 -936,0 -1765,-341 -2486,-1014 -721,-682 -1083,-1443 -1083,-2302 0,-97 98,-740 313,-1940l2397 -13678c265,-1638 762,-2827 1483,-3569 731,-751 1911,-1120 3549,-1120l15072 0c2965,0 4447,1130 4447,3402 0,995 -361,1794 -1083,2408 -721,614 -1784,916 -3187,916zm11592 3569c0,-1901 517,-3695 1560,-5382 1034,-1687 2555,-3032 4563,-4046 2009,-1005 4358,-1512 7050,-1512 2261,0 4249,293 5966,888 1716,585 3140,1404 4290,2437 1140,1044 1989,2214 2535,3510 555,1306 829,2691 829,4163 0,1862 -479,3530 -1444,4993 -955,1461 -2397,2661 -4300,3597 1619,624 2965,1452 4027,2467 1072,1024 1883,2203 2418,3539 546,1345 820,2837 820,4465 0,2398 -586,4573 -1746,6522 -1160,1950 -2867,3482 -5109,4583 -2252,1102 -4904,1657 -7945,1657 -3159,0 -5870,-555 -8113,-1657 -2251,-1101 -3949,-2622 -5089,-4553 -1141,-1931 -1715,-4095 -1715,-6493 0,-5119 2417,-8629 7263,-10530 -3910,-1823 -5860,-4710 -5860,-8648zm20475 18895c0,-1482 -302,-2779 -917,-3881 -604,-1111 -1463,-1959 -2564,-2544 -1102,-594 -2340,-887 -3715,-887 -1940,0 -3558,643 -4875,1940 -1316,1296 -1969,3109 -1969,5431 0,1491 312,2798 927,3929 623,1131 1461,2007 2525,2632 1062,614 2252,926 3567,926 1337,0 2526,-312 3599,-945 1062,-625 1901,-1512 2505,-2652 615,-1150 917,-2457 917,-3949zm-7138 -24394c-1784,0 -3226,556 -4318,1677 -1092,1111 -1638,2545 -1638,4300 0,1619 555,2974 1677,4046 1121,1082 2574,1619 4338,1619 897,0 1706,-147 2438,-430 731,-282 1365,-682 1881,-1189 527,-507 937,-1102 1219,-1804 283,-692 429,-1462 429,-2301 0,-1121 -254,-2135 -761,-3032 -496,-896 -1208,-1599 -2125,-2115 -907,-518 -1960,-771 -3140,-771z"/>
   <path class="fil5" d="M1523716 978058l1053 -5333c-2624,-58 -3940,-1101 -3940,-3149 0,-945 332,-1726 985,-2330 653,-595 1628,-897 2896,-897l1345 0 1629 -8306 -2974 0c-1238,0 -2194,-313 -2867,-926 -673,-625 -1014,-1385 -1014,-2283 0,-945 332,-1715 985,-2300 653,-576 1628,-868 2896,-868l4260 0 1336 -6542c215,-1102 449,-1970 703,-2604 253,-624 613,-1101 1062,-1423 438,-321 1023,-487 1754,-487 1005,0 1776,263 2311,799 537,537 800,1219 800,2058 0,194 -166,1150 -487,2885l-1053 5314 6249 0 1375 -6542c185,-995 370,-1795 536,-2399 176,-613 488,-1131 937,-1550 447,-419 1090,-623 1949,-623 994,0 1754,253 2300,770 546,516 820,1208 820,2086 0,400 -30,790 -78,1170 -49,380 -108,751 -185,1101 -78,352 -127,576 -137,673l-1063 5373c2721,58 4085,1111 4085,3168 0,955 -322,1717 -974,2291 -644,576 -1609,859 -2876,859l-1463 0 -1716 8306 3179 0c1267,0 2232,302 2876,916 652,605 974,1385 974,2311 0,936 -322,1696 -955,2281 -644,576 -1609,868 -2895,868l-4398 0 -1346 6552c-214,1043 -399,1852 -555,2428 -166,565 -478,1062 -926,1491 -459,430 -1121,644 -1980,644 -945,0 -1696,-264 -2251,-799 -556,-527 -830,-1228 -830,-2078 0,-779 137,-1744 401,-2905l1053 -5333 -6309 0 -1336 6552c-350,1619 -701,2778 -1072,3490 -370,712 -1170,1073 -2389,1073 -965,0 -1735,-264 -2281,-799 -555,-527 -829,-1228 -829,-2078 0,-438 50,-926 156,-1472 108,-535 196,-1014 274,-1433zm16701 -20015l-6309 0 -1686 8306 6366 0 1629 -8306zm44380 -10238l-19109 0 0 10296 17598 0c1297,0 2262,292 2896,868 643,574 955,1344 955,2291 0,945 -312,1726 -936,2320 -634,595 -1599,897 -2915,897l-17598 0 0 11933 19762 0c1336,0 2341,313 3013,926 683,615 1024,1444 1024,2468 0,984 -341,1793 -1024,2408 -672,614 -1677,926 -3013,926l-23047 0c-1843,0 -3170,-410 -3979,-1228 -809,-820 -1219,-2145 -1219,-3968l0 -31493c0,-1217 186,-2212 546,-2982 362,-771 927,-1336 1697,-1687 771,-352 1755,-527 2955,-527l22394 0c1355,0 2360,302 3012,897 654,605 986,1395 986,2359 0,995 -332,1795 -986,2399 -652,594 -1657,897 -3012,897zm17472 12685c1287,-1551 2701,-2691 4222,-3433 1521,-751 3226,-1120 5108,-1120 1804,0 3482,341 5012,1014 1530,672 2876,1638 4027,2885 1150,1248 2037,2721 2662,4407 633,1697 945,3471 945,5314 0,2691 -614,5127 -1843,7312 -1229,2193 -2934,3900 -5138,5128 -2194,1229 -4690,1843 -7469,1843 -3198,0 -5956,-780 -8277,-2340 -2320,-1560 -4094,-3871 -5323,-6922 -1229,-3052 -1843,-6795 -1843,-11203 0,-3597 371,-6815 1111,-9652 742,-2837 1814,-5187 3199,-7049 1394,-1872 3080,-3276 5060,-4232 1979,-945 4232,-1422 6766,-1422 2438,0 4582,477 6434,1422 1864,956 3258,2136 4203,3539 936,1405 1414,2760 1414,4047 0,780 -303,1492 -887,2126 -585,633 -1336,954 -2253,954 -799,0 -1540,-253 -2223,-760 -682,-496 -1189,-1199 -1510,-2095 -440,-1141 -1131,-2058 -2087,-2751 -946,-691 -2058,-1042 -3316,-1042 -1003,0 -2007,292 -3012,867 -995,585 -1843,1375 -2525,2359 -1394,2019 -2214,5627 -2457,10804zm7712 17734c1920,0 3519,-789 4777,-2360 1258,-1569 1882,-3627 1882,-6180 0,-1726 -292,-3219 -887,-4466 -585,-1248 -1394,-2203 -2428,-2857 -1033,-652 -2164,-984 -3403,-984 -1180,0 -2311,312 -3383,945 -1082,624 -1940,1531 -2603,2721 -653,1189 -984,2583 -984,4182 0,2574 663,4719 1998,6425 1336,1716 3013,2574 5031,2574zm40257 -13854c-1258,1491 -2662,2613 -4212,3363 -1551,751 -3276,1131 -5157,1131 -1795,0 -3461,-351 -5021,-1042 -1551,-693 -2896,-1668 -4027,-2916 -1132,-1248 -2008,-2701 -2613,-4368 -614,-1667 -917,-3412 -917,-5235 0,-1970 342,-3822 1034,-5587 682,-1765 1666,-3286 2935,-4583 1277,-1297 2798,-2300 4563,-3032 1764,-721 3714,-1081 5839,-1081 2458,0 4651,447 6582,1345 1920,887 3539,2194 4855,3890 1316,1706 2320,3851 3032,6445 702,2583 1053,5518 1053,8784 0,3656 -370,6873 -1112,9661 -751,2790 -1823,5129 -3247,7030 -1422,1892 -3119,3295 -5099,4222 -1979,926 -4231,1384 -6746,1384 -2477,0 -4632,-468 -6454,-1413 -1833,-936 -3228,-2106 -4173,-3500 -956,-1405 -1434,-2750 -1434,-4037 0,-799 293,-1511 888,-2145 594,-624 1345,-935 2262,-935 839,0 1588,233 2252,701 672,458 1170,1161 1520,2096 420,1141 1113,2058 2088,2749 965,693 2066,1044 3285,1044 1082,0 2116,-273 3081,-828 975,-546 1804,-1336 2486,-2341 1374,-2037 2194,-5635 2457,-10802zm-653 -8746c0,-1286 -176,-2486 -527,-3578 -351,-1092 -848,-2037 -1491,-2837 -634,-799 -1394,-1433 -2281,-1892 -888,-458 -1853,-682 -2906,-682 -1804,0 -3345,780 -4602,2330 -1257,1551 -1882,3598 -1882,6152 0,2525 625,4544 1882,6055 1257,1501 2856,2252 4777,2252 1180,0 2311,-312 3383,-926 1083,-625 1960,-1521 2633,-2701 673,-1180 1014,-2574 1014,-4173zm51849 14284c0,1336 -321,2778 -985,4329 -653,1550 -1686,3071 -3100,4562 -1404,1502 -3208,2710 -5392,3647 -2194,927 -4747,1394 -7664,1394 -2203,0 -4210,-205 -6024,-624 -1804,-419 -3451,-1073 -4924,-1960 -1472,-877 -2838,-2047 -4075,-3490 -1102,-1317 -2048,-2778 -2828,-4407 -780,-1629 -1364,-3373 -1755,-5216 -390,-1853 -585,-3812 -585,-5889 0,-3363 488,-6386 1472,-9047 975,-2673 2389,-4954 4212,-6845 1834,-1891 3968,-3335 6426,-4328 2456,-986 5079,-1482 7858,-1482 3393,0 6405,671 9057,2028 2643,1345 4670,3021 6084,5011 1404,1989 2116,3860 2116,5635 0,974 -352,1824 -1034,2573 -682,742 -1511,1113 -2486,1113 -1083,0 -1901,-265 -2438,-771 -546,-517 -1150,-1404 -1813,-2662 -1111,-2076 -2408,-3627 -3899,-4660 -1502,-1024 -3335,-1541 -5528,-1541 -3491,0 -6260,1327 -8327,3968 -2067,2652 -3101,6417 -3101,11291 0,3256 458,5967 1375,8131 908,2164 2203,3774 3881,4846 1677,1062 3636,1599 5889,1599 2437,0 4494,-604 6181,-1814 1687,-1209 2954,-2983 3812,-5333 361,-1102 809,-1999 1346,-2701 525,-692 1384,-1042 2564,-1042 1014,0 1881,350 2602,1062 723,703 1083,1579 1083,2623zm16097 6502l14906 0c1492,0 2624,303 3403,917 781,604 1170,1433 1170,2477 0,926 -311,1716 -926,2369 -624,643 -1560,965 -2818,965l-21030 0c-1433,0 -2544,-390 -3344,-1180 -799,-790 -1200,-1716 -1200,-2788 0,-682 254,-1590 772,-2721 516,-1131 1081,-2018 1686,-2671 2535,-2622 4816,-4875 6854,-6756 2038,-1872 3500,-3110 4368,-3695 1569,-1102 2866,-2214 3899,-3335 1044,-1112 1834,-2252 2380,-3422 536,-1170 809,-2320 809,-3442 0,-1218 -293,-2310 -869,-3276 -584,-965 -1374,-1705 -2368,-2242 -1005,-537 -2096,-799 -3276,-799 -2496,0 -4455,1092 -5879,3285 -196,283 -517,1063 -966,2341 -447,1277 -945,2261 -1511,2943 -555,684 -1385,1034 -2466,1034 -956,0 -1746,-322 -2369,-946 -634,-623 -946,-1482 -946,-2574 0,-1307 292,-2681 887,-4104 585,-1433 1472,-2730 2642,-3890 1171,-1161 2652,-2097 4456,-2808 1794,-712 3909,-1072 6328,-1072 2905,0 5391,458 7448,1364 1336,615 2515,1452 3520,2516 1014,1072 1804,2300 2359,3705 565,1394 848,2846 848,4348 0,2369 -585,4514 -1755,6445 -1169,1930 -2369,3451 -3588,4543 -1219,1091 -3256,2817 -6122,5158 -2867,2339 -4836,4163 -5899,5449 -458,517 -926,1141 -1403,1862zm42177 3092l0 -5314 -14341 0c-1804,0 -3159,-410 -4067,-1229 -906,-819 -1355,-1930 -1355,-3344 0,-360 69,-721 196,-1092 136,-371 330,-761 604,-1170 263,-409 536,-809 829,-1190 282,-380 634,-848 1053,-1394l15141 -20249c984,-1327 1804,-2292 2438,-2896 643,-595 1403,-897 2300,-897 2896,0 4339,1657 4339,4973l0 22111 1228 0c1463,0 2642,195 3529,595 888,400 1326,1278 1326,2623 0,1102 -360,1901 -1082,2408 -732,498 -1813,751 -3256,751l-1745 0 0 5314c0,1461 -321,2553 -975,3265 -643,712 -1512,1073 -2594,1073 -1063,0 -1930,-370 -2584,-1101 -652,-732 -984,-1815 -984,-3237zm-12285 -11691l12285 0 0 -16613 -12285 16613z"/>
   <path class="fil5" d="M1955040 978058l1053 -5333c-2623,-58 -3939,-1101 -3939,-3149 0,-945 331,-1726 984,-2330 654,-595 1629,-897 2896,-897l1345 0 1629 -8306 -2974 0c-1238,0 -2194,-313 -2866,-926 -673,-625 -1014,-1385 -1014,-2283 0,-945 331,-1715 984,-2300 654,-576 1629,-868 2896,-868l4260 0 1337 -6542c214,-1102 448,-1970 702,-2604 253,-624 613,-1101 1062,-1423 439,-321 1024,-487 1755,-487 1004,0 1775,263 2310,799 537,537 800,1219 800,2058 0,194 -166,1150 -487,2885l-1053 5314 6249 0 1376 -6542c184,-995 369,-1795 535,-2399 176,-613 488,-1131 937,-1550 448,-419 1091,-623 1949,-623 994,0 1755,253 2301,770 546,516 819,1208 819,2086 0,400 -29,790 -78,1170 -48,380 -108,751 -185,1101 -78,352 -126,576 -137,673l-1063 5373c2721,58 4086,1111 4086,3168 0,955 -322,1717 -975,2291 -643,576 -1609,859 -2876,859l-1463 0 -1716 8306 3179 0c1267,0 2233,302 2876,916 653,605 975,1385 975,2311 0,936 -322,1696 -956,2281 -643,576 -1609,868 -2895,868l-4398 0 -1345 6552c-215,1043 -400,1852 -556,2428 -166,565 -477,1062 -926,1491 -459,430 -1121,644 -1979,644 -946,0 -1697,-264 -2252,-799 -556,-527 -829,-1228 -829,-2078 0,-779 136,-1744 400,-2905l1053 -5333 -6308 0 -1336 6552c-351,1619 -702,2778 -1072,3490 -371,712 -1171,1073 -2389,1073 -966,0 -1736,-264 -2282,-799 -555,-527 -829,-1228 -829,-2078 0,-438 50,-926 157,-1472 107,-535 195,-1014 273,-1433zm16701 -20015l-6308 0 -1687 8306 6366 0 1629 -8306zm44224 4553c0,3129 -194,5810 -574,8053 -380,2252 -1083,4289 -2117,6113 -1296,2242 -2963,3977 -5021,5196 -2057,1219 -4348,1823 -6864,1823 -2885,0 -5488,-818 -7779,-2456 -2292,-1639 -4018,-3901 -5187,-6786 -585,-1580 -1014,-3334 -1297,-5245 -274,-1912 -410,-3979 -410,-6211 0,-2876 157,-5460 459,-7761 302,-2311 780,-4290 1423,-5947 1121,-2740 2759,-4827 4895,-6260 2145,-1433 4699,-2155 7672,-2155 1961,0 3745,323 5344,956 1599,643 3002,1570 4212,2798 1208,1228 2232,2750 3071,4553 1452,3140 2173,7585 2173,13329zm-7838 -566c0,-3480 -205,-6337 -625,-8551 -419,-2222 -1130,-3899 -2115,-5030 -994,-1132 -2369,-1697 -4114,-1697 -2516,0 -4260,1268 -5246,3803 -984,2525 -1472,6424 -1472,11699 0,3578 205,6513 624,8794 420,2292 1131,4017 2116,5187 995,1170 2340,1755 4036,1755 1745,0 3120,-604 4115,-1823 984,-1218 1676,-2964 2076,-5225 400,-2272 605,-5237 605,-8912zm42596 566c0,3129 -194,5810 -574,8053 -380,2252 -1083,4289 -2117,6113 -1296,2242 -2963,3977 -5021,5196 -2057,1219 -4348,1823 -6864,1823 -2885,0 -5488,-818 -7779,-2456 -2292,-1639 -4018,-3901 -5187,-6786 -585,-1580 -1014,-3334 -1297,-5245 -274,-1912 -410,-3979 -410,-6211 0,-2876 157,-5460 459,-7761 302,-2311 780,-4290 1423,-5947 1121,-2740 2759,-4827 4895,-6260 2145,-1433 4700,-2155 7673,-2155 1960,0 3744,323 5343,956 1599,643 3002,1570 4212,2798 1208,1228 2232,2750 3071,4553 1452,3140 2173,7585 2173,13329zm-7838 -566c0,-3480 -205,-6337 -625,-8551 -419,-2222 -1130,-3899 -2115,-5030 -994,-1132 -2369,-1697 -4114,-1697 -2515,0 -4260,1268 -5246,3803 -984,2525 -1472,6424 -1472,11699 0,3578 205,6513 624,8794 420,2292 1131,4017 2116,5187 995,1170 2340,1755 4036,1755 1745,0 3120,-604 4115,-1823 984,-1218 1676,-2964 2077,-5225 399,-2272 604,-5237 604,-8912zm33052 21108l-12802 0c-1852,0 -3168,-410 -3958,-1238 -790,-829 -1189,-2156 -1189,-3958l0 -31493c0,-1842 410,-3168 1219,-3977 808,-809 2115,-1219 3928,-1219l13572 0c1998,0 3735,127 5196,371 1472,253 2788,721 3949,1433 995,585 1862,1336 2632,2242 762,907 1336,1901 1736,2993 400,1102 605,2253 605,3472 0,4192 -2097,7263 -6289,9203 5509,1756 8258,5157 8258,10228 0,2339 -605,4455 -1804,6327 -1199,1881 -2817,3266 -4855,4153 -1278,537 -2739,917 -4398,1131 -1657,224 -3597,332 -5800,332zm-634 -18602l-8833 0 0 12226 9115 0c5744,0 8610,-2067 8610,-6201 0,-2116 -741,-3647 -2233,-4602 -1481,-946 -3705,-1423 -6659,-1423zm-8833 -16907l0 10822 7780 0c2116,0 3744,-204 4895,-604 1159,-400 2037,-1160 2652,-2281 477,-799 711,-1696 711,-2682 0,-2115 -751,-3519 -2262,-4211 -1502,-692 -3802,-1044 -6883,-1044l-6893 0zm58215 30760l-1998 -5254 -17024 0 -1999 5362c-779,2097 -1443,3510 -1998,4242 -546,731 -1452,1101 -2710,1101 -1064,0 -2009,-391 -2827,-1170 -820,-780 -1230,-1668 -1230,-2652 0,-576 98,-1170 283,-1774 196,-615 507,-1454 947,-2546l10705 -27181c311,-780 673,-1716 1101,-2808 429,-1102 887,-2009 1374,-2730 488,-722 1122,-1307 1912,-1756 789,-447 1765,-671 2924,-671 1190,0 2175,224 2964,671 790,449 1424,1025 1912,1726 486,703 896,1463 1228,2272 332,810 760,1892 1267,3237l10940 27017c858,2057 1286,3548 1286,4485 0,964 -399,1862 -1209,2671 -809,809 -1793,1209 -2934,1209 -663,0 -1239,-117 -1716,-361 -468,-233 -868,-555 -1199,-965 -322,-410 -663,-1044 -1034,-1881 -380,-849 -692,-1599 -965,-2244zm-16789 -11631l12509 0 -6308 -17256 -6201 17256zm57075 -18953l-16712 0 0 10706 13972 0c1286,0 2262,292 2896,867 634,585 955,1365 955,2331 0,975 -321,1744 -966,2320 -652,575 -1618,858 -2885,858l-13972 0 0 13786c0,1755 -399,3051 -1189,3900 -790,848 -1804,1267 -3032,1267 -1258,0 -2282,-430 -3072,-1287 -788,-858 -1189,-2155 -1189,-3880l0 -32224c0,-1217 185,-2212 546,-2982 361,-771 926,-1336 1696,-1687 771,-352 1756,-527 2954,-527l19998 0c1355,0 2359,302 3012,897 654,605 985,1395 985,2359 0,995 -331,1795 -985,2399 -653,594 -1657,897 -3012,897zm35332 0l-16711 0 0 10706 13972 0c1286,0 2262,292 2896,867 633,585 954,1365 954,2331 0,975 -321,1744 -965,2320 -653,575 -1618,858 -2885,858l-13972 0 0 13786c0,1755 -400,3051 -1190,3900 -790,848 -1804,1267 -3032,1267 -1258,0 -2281,-430 -3071,-1287 -789,-858 -1189,-2155 -1189,-3880l0 -32224c0,-1217 184,-2212 546,-2982 361,-771 926,-1336 1696,-1687 771,-352 1755,-527 2954,-527l19997 0c1355,0 2360,302 3012,897 654,605 986,1395 986,2359 0,995 -332,1795 -986,2399 -652,594 -1657,897 -3012,897z"/>
   <g>
    <line class="fil6 str2" x1="280714" y1="1010506" x2="280714" y2= "1069006" />
    <line class="fil6 str2" x1="801983" y1="1007373" x2="801983" y2= "1065873" />
    <line class="fil6 str2" x1="280714" y1="1069006" x2="801983" y2= "1065873" />
    <line class="fil6 str2" x1="541349" y1="1067439" x2="541870" y2= "1111836" />
   </g>
   <path class="fil5" d="M431387 1147657l0 1081c1571,-2073 3287,-3588 5148,-4557 1861,-970 4000,-1449 6417,-1449 2351,0 4447,512 6307,1538 1851,1014 3232,2462 4145,4334 591,1092 970,2262 1148,3532 168,1259 257,2864 257,4825l0 16591c0,1784 -413,3132 -1226,4045 -814,914 -1884,1370 -3188,1370 -1325,0 -2407,-467 -3242,-1403 -824,-936 -1236,-2273 -1236,-4012l0 -14864c0,-2930 -412,-5181 -1226,-6740 -814,-1550 -2440,-2330 -4881,-2330 -1581,0 -3030,469 -4345,1415 -1304,948 -2262,2251 -2864,3911 -435,1327 -657,3800 -657,7443l0 11165c0,1805 -424,3154 -1259,4057 -837,902 -1917,1358 -3232,1358 -1281,0 -2340,-467 -3164,-1403 -825,-936 -1237,-2273 -1237,-4012l0 -25761c0,-1694 367,-2964 1103,-3799 746,-837 1749,-1260 3031,-1260 779,0 1493,190 2116,557 636,367 1137,925 1517,1661 379,735 568,1649 568,2707zm57172 15400l-17438 0c23,2027 435,3810 1226,5359 791,1548 1849,2708 3164,3487 1314,792 2775,1181 4357,1181 1070,0 2039,-122 2919,-379 892,-245 1739,-635 2563,-1169 836,-535 1593,-1104 2285,-1716 701,-612 1604,-1438 2718,-2485 457,-390 1103,-591 1950,-591 914,0 1660,257 2229,758 557,490 847,1203 847,2118 0,802 -324,1737 -948,2819 -635,1069 -1582,2106 -2864,3085 -1270,993 -2863,1817 -4791,2463 -1927,658 -4144,980 -6641,980 -5727,0 -10172,-1638 -13349,-4902 -3176,-3264 -4757,-7688 -4757,-13281 0,-2631 390,-5082 1169,-7332 781,-2252 1928,-4179 3421,-5795 1504,-1605 3354,-2841 5549,-3700 2195,-857 4636,-1292 7309,-1292 3489,0 6475,735 8960,2207 2495,1471 4356,3365 5605,5704 1236,2330 1860,4702 1860,7121 0,2240 -646,3699 -1928,4367 -1280,657 -3085,993 -5415,993zm-17438 -5082l16157 0c-212,-3041 -1036,-5314 -2462,-6831 -1427,-1504 -3299,-2261 -5628,-2261 -2229,0 -4045,769 -5471,2295 -1426,1538 -2295,3799 -2596,6797zm55423 15968l0 -1148c-1069,1348 -2184,2485 -3365,3398 -1170,914 -2452,1594 -3844,2039 -1393,446 -2975,669 -4758,669 -2162,0 -4089,-445 -5794,-1337 -1705,-892 -3031,-2117 -3966,-3689 -1104,-1893 -1661,-4612 -1661,-8166l0 -17651c0,-1794 402,-3120 1203,-4000 802,-880 1872,-1326 3198,-1326 1338,0 2430,446 3254,1338 825,890 1237,2217 1237,3988l0 14263c0,2061 177,3800 523,5203 346,1404 969,2508 1872,3299 902,790 2128,1192 3677,1192 1505,0 2920,-446 4246,-1338 1326,-890 2295,-2061 2907,-3498 503,-1260 748,-4023 748,-8291l0 -10830c0,-1771 412,-3098 1236,-3988 835,-892 1917,-1338 3242,-1338 1327,0 2396,446 3198,1326 814,880 1216,2206 1216,4000l0 25817c0,1694 -390,2965 -1160,3823 -779,847 -1771,1269 -2997,1269 -1215,0 -2229,-445 -3020,-1325 -790,-880 -1192,-2118 -1192,-3699zm17751 -30409l979 0 0 -5359c0,-1437 35,-2564 112,-3376 78,-824 290,-1527 636,-2106 344,-614 847,-1115 1504,-1494 645,-379 1370,-568 2184,-568 1125,0 2139,424 3052,1271 614,568 992,1259 1159,2083 168,814 245,1972 245,3477l0 6072 3266 0c1259,0 2228,301 2885,892 669,602 1003,1371 1003,2296 0,1202 -480,2038 -1426,2518 -947,478 -2295,713 -4067,713l-1661 0 0 16379c0,1393 45,2474 146,3220 99,746 356,1360 779,1828 435,468 1125,702 2084,702 512,0 1225,-90 2117,-279 891,-178 1593,-279 2084,-279 724,0 1370,291 1949,870 580,579 859,1292 859,2139 0,1438 -780,2530 -2340,3287 -1571,768 -3823,1147 -6764,1147 -2785,0 -4891,-467 -6317,-1403 -1438,-936 -2374,-2228 -2819,-3889 -446,-1648 -670,-3855 -670,-6618l0 -17104 -1169 0c-1293,0 -2273,-301 -2942,-915 -680,-601 -1014,-1381 -1014,-2316 0,-925 357,-1694 1059,-2296 713,-591 1738,-892 3087,-892zm32000 22575l0 7443c0,1805 -423,3154 -1269,4057 -847,902 -1917,1358 -3221,1358 -1282,0 -2339,-456 -3165,-1370 -824,-913 -1236,-2261 -1236,-4045l0 -24814c0,-4000 1448,-6006 4335,-6006 1470,0 2540,468 3186,1404 657,936 1014,2329 1081,4156 1058,-1827 2150,-3220 3275,-4156 1127,-936 2619,-1404 4492,-1404 1871,0 3687,468 5448,1404 1760,936 2641,2184 2641,3732 0,1092 -368,1984 -1126,2697 -746,713 -1560,1059 -2429,1059 -322,0 -1113,-201 -2362,-602 -1259,-401 -2362,-601 -3320,-601 -1304,0 -2363,344 -3198,1024 -824,691 -1471,1706 -1928,3054 -456,1348 -769,2953 -947,4814 -167,1860 -257,4123 -257,6796zm41317 7855c-2162,1673 -4245,2920 -6252,3756 -2016,835 -4278,1247 -6774,1247 -2285,0 -4302,-456 -6029,-1358 -1727,-903 -3064,-2118 -4000,-3666 -935,-1549 -1403,-3221 -1403,-5026 0,-2440 769,-4512 2317,-6229 1549,-1727 3677,-2874 6385,-3464 557,-134 1962,-424 4200,-882 2240,-456 4168,-868 5761,-1259 1593,-379 3332,-835 5204,-1381 -112,-2351 -579,-4078 -1415,-5170 -846,-1104 -2575,-1649 -5215,-1649 -2262,0 -3966,312 -5104,947 -1147,624 -2127,1572 -2941,2841 -813,1259 -1393,2084 -1727,2496 -345,401 -1069,602 -2173,602 -1002,0 -1871,-324 -2596,-969 -724,-635 -1092,-1461 -1092,-2463 0,-1572 557,-3097 1660,-4580 1115,-1482 2842,-2696 5193,-3654 2351,-958 5281,-1438 8791,-1438 3911,0 6998,468 9238,1393 2239,925 3822,2384 4747,4391 924,2005 1392,4657 1392,7966 0,2094 -11,3866 -22,5327 -12,1459 -22,3085 -45,4869 0,1671 279,3421 837,5237 556,1805 824,2975 824,3499 0,913 -424,1749 -1282,2495 -869,746 -1838,1125 -2930,1125 -914,0 -1817,-422 -2708,-1281 -892,-858 -1838,-2094 -2841,-3722zm-591 -12914c-1303,480 -3198,993 -5694,1516 -2485,534 -4212,936 -5170,1181 -958,256 -1872,746 -2741,1471 -869,736 -1304,1750 -1304,3064 0,1348 513,2496 1537,3444 1015,946 2351,1426 4012,1426 1760,0 3388,-391 4869,-1160 1494,-779 2586,-1771 3287,-2996 803,-1350 1204,-3578 1204,-6675l0 -1271zm17795 12502l0 -38642c0,-1782 400,-3131 1192,-4045 791,-914 1860,-1370 3210,-1370 1336,0 2428,456 3252,1358 826,903 1238,2252 1238,4057l0 38642c0,1805 -424,3154 -1259,4057 -836,902 -1917,1358 -3231,1358 -1305,0 -2363,-467 -3177,-1403 -813,-936 -1225,-2273 -1225,-4012z"/>
   <line class="fil6 str2" x1="1210434" y1="1009511" x2="1210434" y2= "1091024" />
   <g>
    <line class="fil6 str2" x1="1584369" y1="1010506" x2="1584369" y2= "1069006" />
    <line class="fil6 str2" x1="2105637" y1="1007373" x2="2105637" y2= "1065873" />
    <line class="fil6 str2" x1="1584369" y1="1069006" x2="2105637" y2= "1065873" />
    <line class="fil6 str2" x1="1845004" y1="1067439" x2="1845525" y2= "1111836" />
   </g>
   <path class="fil5" d="M1088549 1147746l0 1080c1671,-2071 3421,-3598 5226,-4568 1805,-969 3845,-1459 6128,-1459 2753,0 5271,702 7577,2118 2308,1414 4134,3487 5471,6205 1338,2719 2007,5940 2007,9662 0,2740 -391,5259 -1160,7554 -768,2296 -1838,4223 -3186,5783 -1349,1560 -2942,2752 -4780,3587 -1839,837 -3811,1259 -5929,1259 -2540,0 -4679,-511 -6406,-1537 -1727,-1014 -3376,-2518 -4948,-4501l0 13393c0,3923 -1426,5883 -4278,5883 -1671,0 -2786,-501 -3332,-1515 -546,-1014 -814,-2485 -814,-4424l0 -38475c0,-1694 369,-2964 1115,-3799 735,-837 1749,-1260 3031,-1260 1259,0 2295,435 3087,1293 791,869 1191,2106 1191,3721zm17450 12959c0,-2351 -357,-4368 -1081,-6050 -713,-1683 -1705,-2987 -2975,-3890 -1281,-902 -2685,-1347 -4224,-1347 -2462,0 -4534,970 -6217,2897 -1682,1939 -2529,4791 -2529,8546 0,3544 835,6307 2507,8268 1683,1972 3755,2953 6239,2953 1471,0 2842,-434 4101,-1293 1259,-858 2273,-2139 3043,-3856 757,-1727 1136,-3798 1136,-6228zm24937 5404l0 7443c0,1805 -422,3154 -1269,4057 -847,902 -1917,1358 -3221,1358 -1282,0 -2339,-456 -3165,-1370 -824,-913 -1236,-2261 -1236,-4045l0 -24814c0,-4000 1448,-6006 4335,-6006 1470,0 2540,468 3186,1404 657,936 1014,2329 1081,4156 1058,-1827 2150,-3220 3275,-4156 1127,-936 2619,-1404 4492,-1404 1871,0 3687,468 5448,1404 1761,936 2641,2184 2641,3732 0,1092 -368,1984 -1126,2697 -746,713 -1560,1059 -2429,1059 -322,0 -1113,-201 -2362,-602 -1259,-401 -2362,-601 -3320,-601 -1304,0 -2363,344 -3198,1024 -824,691 -1471,1706 -1928,3054 -456,1348 -769,2953 -947,4814 -167,1860 -257,4123 -257,6796zm29350 -18318l0 25761c0,1784 -424,3132 -1271,4045 -847,914 -1916,1370 -3219,1370 -1304,0 -2363,-467 -3177,-1403 -812,-936 -1225,-2273 -1225,-4012l0 -25494c0,-1771 413,-3098 1225,-3988 814,-892 1873,-1338 3177,-1338 1303,0 2372,446 3219,1338 847,890 1271,2139 1271,3721zm-4401 -9204c-1237,0 -2296,-379 -3176,-1136 -880,-758 -1315,-1840 -1315,-3232 0,-1248 446,-2284 1348,-3098 903,-812 1950,-1226 3143,-1226 1158,0 2172,369 3064,1104 891,746 1337,1816 1337,3220 0,1371 -435,2441 -1304,3209 -869,769 -1894,1159 -3097,1159zm43243 22920l0 11845c0,1871 -423,3276 -1270,4212 -846,936 -1972,1403 -3354,1403 -1348,0 -2440,-467 -3275,-1403 -836,-936 -1259,-2341 -1259,-4212l0 -14196c0,-2250 -78,-3989 -235,-5226 -144,-1236 -556,-2262 -1236,-3053 -680,-790 -1739,-1192 -3210,-1192 -2919,0 -4835,1003 -5760,3009 -925,1994 -1393,4869 -1393,8613l0 12045c0,1850 -424,3254 -1259,4201 -836,947 -1939,1414 -3299,1414 -1348,0 -2450,-467 -3309,-1414 -858,-947 -1292,-2351 -1292,-4201l0 -25494c0,-1672 389,-2953 1158,-3823 770,-868 1784,-1303 3043,-1303 1225,0 2240,413 3052,1225 814,814 1226,1939 1226,3377l0 847c1538,-1850 3198,-3209 4958,-4078 1762,-870 3722,-1304 5873,-1304 2250,0 4167,445 5782,1337 1616,892 2943,2240 3979,4045 1504,-1828 3120,-3176 4836,-4056 1715,-881 3621,-1326 5716,-1326 2440,0 4534,479 6296,1438 1760,958 3086,2328 3955,4111 758,1605 1137,4146 1137,7599l0 17405c0,1871 -424,3276 -1271,4212 -847,936 -1972,1403 -3353,1403 -1348,0 -2452,-467 -3310,-1414 -858,-947 -1292,-2351 -1292,-4201l0 -14987c0,-1917 -78,-3443 -245,-4602 -167,-1147 -602,-2116 -1327,-2908 -713,-780 -1805,-1170 -3264,-1170 -1181,0 -2296,345 -3355,1047 -1047,691 -1871,1628 -2462,2809 -657,1492 -981,4156 -981,7966zm52060 12457c-2162,1673 -4245,2920 -6252,3756 -2016,835 -4278,1247 -6774,1247 -2285,0 -4302,-456 -6029,-1358 -1727,-903 -3064,-2118 -4000,-3666 -935,-1549 -1403,-3221 -1403,-5026 0,-2440 768,-4512 2317,-6229 1549,-1727 3677,-2874 6385,-3464 557,-134 1961,-424 4200,-882 2240,-456 4168,-868 5761,-1259 1593,-379 3332,-835 5204,-1381 -112,-2351 -580,-4078 -1415,-5170 -846,-1104 -2575,-1649 -5215,-1649 -2262,0 -3967,312 -5104,947 -1147,624 -2127,1572 -2941,2841 -813,1259 -1393,2084 -1727,2496 -345,401 -1069,602 -2173,602 -1002,0 -1872,-324 -2596,-969 -724,-635 -1092,-1461 -1092,-2463 0,-1572 557,-3097 1660,-4580 1115,-1482 2842,-2696 5193,-3654 2351,-958 5281,-1438 8791,-1438 3911,0 6998,468 9238,1393 2239,925 3822,2384 4747,4391 924,2005 1392,4657 1392,7966 0,2094 -11,3866 -22,5327 -12,1459 -22,3085 -45,4869 0,1671 279,3421 836,5237 557,1805 825,2975 825,3499 0,913 -424,1749 -1282,2495 -869,746 -1838,1125 -2930,1125 -914,0 -1817,-422 -2708,-1281 -892,-858 -1838,-2094 -2841,-3722zm-591 -12914c-1303,480 -3198,993 -5694,1516 -2485,534 -4212,936 -5170,1181 -958,256 -1872,746 -2741,1471 -869,736 -1304,1750 -1304,3064 0,1348 513,2496 1537,3444 1015,946 2351,1426 4012,1426 1760,0 3388,-391 4869,-1160 1494,-779 2586,-1771 3287,-2996 803,-1350 1204,-3578 1204,-6675l0 -1271zm26619 5059l0 7443c0,1805 -423,3154 -1269,4057 -847,902 -1917,1358 -3221,1358 -1282,0 -2339,-456 -3165,-1370 -824,-913 -1236,-2261 -1236,-4045l0 -24814c0,-4000 1448,-6006 4335,-6006 1470,0 2540,468 3186,1404 657,936 1014,2329 1081,4156 1058,-1827 2150,-3220 3275,-4156 1127,-936 2619,-1404 4492,-1404 1871,0 3687,468 5448,1404 1760,936 2640,2184 2640,3732 0,1092 -367,1984 -1125,2697 -746,713 -1560,1059 -2429,1059 -322,0 -1114,-201 -2362,-602 -1259,-401 -2362,-601 -3320,-601 -1304,0 -2363,344 -3198,1024 -824,691 -1471,1706 -1928,3054 -456,1348 -769,2953 -947,4814 -167,1860 -257,4123 -257,6796zm28670 13984l825 -1994 -10965 -27623c-680,-1593 -1014,-2752 -1014,-3465 0,-758 200,-1471 591,-2129 390,-645 924,-1169 1616,-1560 680,-389 1393,-590 2128,-590 1292,0 2261,413 2908,1225 657,814 1226,1984 1727,3511l7544 21940 7142 -20403c569,-1660 1080,-2953 1538,-3888 457,-936 935,-1572 1448,-1894 513,-324 1237,-491 2173,-491 669,0 1315,178 1938,535 614,368 1093,847 1438,1460 334,602 501,1247 501,1927 -88,412 -222,1003 -422,1760 -202,758 -435,1539 -713,2318l-11622 30431c-1004,2686 -1984,4780 -2931,6307 -958,1526 -2229,2697 -3811,3509 -1571,814 -3699,1226 -6374,1226 -2607,0 -4568,-278 -5871,-847 -1304,-567 -1962,-1604 -1962,-3097 0,-1025 312,-1816 936,-2362 613,-558 1537,-836 2753,-836 478,0 946,67 1403,189 569,134 1059,200 1471,200 1025,0 1828,-155 2407,-456 591,-300 1115,-836 1583,-1582 467,-758 1013,-1861 1615,-3321z"/>
   <path class="fil5" d="M1731155 1167335c0,2452 -601,4558 -1793,6307 -1193,1750 -2965,3075 -5304,3978 -2340,902 -5182,1347 -8535,1347 -3198,0 -5939,-490 -8224,-1469 -2283,-971 -3967,-2196 -5059,-3666 -1080,-1461 -1626,-2932 -1626,-4414 0,-980 345,-1815 1047,-2506 691,-702 1571,-1048 2640,-1048 937,0 1650,234 2151,692 501,456 981,1090 1438,1927 913,1582 2006,2774 3275,3554 1271,791 3009,1181 5205,1181 1782,0 3242,-401 4379,-1191 1148,-792 1715,-1706 1715,-2731 0,-1571 -590,-2707 -1771,-3432 -1193,-713 -3142,-1404 -5862,-2061 -3064,-758 -5560,-1560 -7487,-2396 -1916,-835 -3455,-1950 -4613,-3320 -1148,-1371 -1727,-3065 -1727,-5059 0,-1795 534,-3477 1593,-5070 1069,-1594 2641,-2853 4725,-3799 2073,-948 4579,-1427 7521,-1427 2306,0 4379,234 6207,713 1838,479 3375,1126 4601,1928 1237,813 2173,1705 2809,2685 645,980 969,1928 969,2874 0,1016 -346,1862 -1037,2508 -680,657 -1660,981 -2920,981 -913,0 -1693,-256 -2339,-781 -635,-523 -1370,-1303 -2207,-2350 -668,-869 -1459,-1572 -2373,-2095 -913,-524 -2150,-781 -3722,-781 -1604,0 -2941,346 -4010,1026 -1059,691 -1595,1549 -1595,2574 0,936 391,1704 1171,2295 791,602 1838,1103 3164,1493 1326,391 3154,869 5482,1438 2764,668 5026,1481 6775,2417 1750,937 3075,2040 3978,3321 902,1270 1359,2719 1359,4357zm32414 -4278l-17437 0c22,2027 435,3810 1226,5359 791,1548 1849,2708 3163,3487 1315,792 2776,1181 4358,1181 1070,0 2039,-122 2919,-379 891,-245 1738,-635 2563,-1169 836,-535 1593,-1104 2285,-1716 701,-612 1603,-1438 2718,-2485 457,-390 1103,-591 1950,-591 914,0 1660,257 2229,758 556,490 847,1203 847,2118 0,802 -324,1737 -948,2819 -635,1069 -1582,2106 -2864,3085 -1270,993 -2863,1817 -4791,2463 -1927,658 -4145,980 -6641,980 -5727,0 -10173,-1638 -13349,-4902 -3176,-3264 -4757,-7688 -4757,-13281 0,-2631 390,-5082 1169,-7332 781,-2252 1928,-4179 3421,-5795 1504,-1605 3354,-2841 5549,-3700 2195,-857 4636,-1292 7309,-1292 3488,0 6474,735 8959,2207 2496,1471 4357,3365 5605,5704 1237,2330 1861,4702 1861,7121 0,2240 -647,3699 -1928,4367 -1281,657 -3086,993 -5416,993zm-17437 -5082l16157 0c-212,-3041 -1036,-5314 -2462,-6831 -1428,-1504 -3299,-2261 -5628,-2261 -2229,0 -4045,769 -5471,2295 -1426,1538 -2295,3799 -2596,6797zm64270 9972c0,1104 -334,2296 -1002,3555 -658,1259 -1671,2462 -3031,3599 -1360,1137 -3076,2061 -5148,2753 -2062,701 -4391,1047 -6987,1047 -5504,0 -9805,-1605 -12892,-4813 -3097,-3209 -4646,-7511 -4646,-12915 0,-3655 713,-6886 2128,-9695 1416,-2807 3466,-4980 6139,-6506 2687,-1538 5883,-2307 9605,-2307 2307,0 4424,334 6352,1014 1917,680 3555,1549 4891,2619 1337,1069 2363,2206 3064,3410 714,1214 1071,2339 1071,3386 0,1071 -402,1973 -1193,2720 -802,735 -1760,1102 -2897,1102 -736,0 -1348,-189 -1838,-568 -491,-378 -1037,-992 -1649,-1838 -1092,-1649 -2229,-2898 -3410,-3722 -1193,-824 -2697,-1237 -4524,-1237 -2630,0 -4758,1025 -6363,3087 -1615,2050 -2417,4858 -2417,8424 0,1671 211,3209 623,4612 412,1405 1003,2608 1794,3589 780,992 1727,1738 2842,2251 1103,513 2329,768 3654,768 1784,0 3309,-412 4580,-1236 1282,-825 2407,-2096 3388,-3789 534,-1002 1125,-1783 1760,-2340 624,-568 1404,-858 2318,-858 1092,0 1995,424 2708,1248 713,824 1080,1705 1080,2640zm41116 -7086c0,2663 -412,5103 -1236,7343 -837,2240 -2028,4167 -3600,5772 -1560,1616 -3442,2842 -5616,3699 -2172,858 -4624,1292 -7342,1292 -2708,0 -5137,-434 -7288,-1302 -2150,-870 -4022,-2118 -5605,-3745 -1570,-1615 -2774,-3532 -3588,-5738 -813,-2218 -1226,-4658 -1226,-7332 0,-2697 413,-5170 1238,-7410 835,-2240 2016,-4156 3565,-5749 1550,-1583 3421,-2809 5616,-3666 2196,-858 4624,-1293 7288,-1293 2696,0 5148,435 7342,1303 2195,870 4079,2118 5650,3734 1571,1604 2764,3521 3576,5749 814,2217 1226,4669 1226,7343zm-8958 0c0,-3632 -803,-6451 -2396,-8480 -1605,-2016 -3744,-3030 -6440,-3030 -1749,0 -3276,446 -4603,1348 -1325,903 -2350,2240 -3064,4000 -724,1761 -1080,3822 -1080,6162 0,2329 356,4368 1059,6107 713,1737 1715,3075 3029,4000 1315,925 2876,1381 4659,1381 2696,0 4835,-1014 6440,-3053 1593,-2027 2396,-4846 2396,-8435zm24046 -13204l0 1081c1570,-2073 3287,-3588 5148,-4557 1860,-970 3999,-1449 6417,-1449 2351,0 4446,512 6307,1538 1850,1014 3231,2462 4145,4334 591,1092 970,2262 1147,3532 169,1259 257,2864 257,4825l0 16591c0,1784 -412,3132 -1226,4045 -813,914 -1883,1370 -3187,1370 -1325,0 -2407,-467 -3242,-1403 -824,-936 -1236,-2273 -1236,-4012l0 -14864c0,-2930 -413,-5181 -1226,-6740 -814,-1550 -2440,-2330 -4881,-2330 -1582,0 -3030,469 -4345,1415 -1304,948 -2262,2251 -2864,3911 -435,1327 -657,3800 -657,7443l0 11165c0,1805 -424,3154 -1260,4057 -836,902 -1916,1358 -3231,1358 -1281,0 -2340,-467 -3165,-1403 -824,-936 -1236,-2273 -1236,-4012l0 -25761c0,-1694 367,-2964 1103,-3799 746,-837 1749,-1260 3031,-1260 779,0 1493,190 2116,557 636,367 1137,925 1516,1661 379,735 569,1649 569,2707zm56715 26218l0 -880c-1192,1371 -2373,2485 -3543,3343 -1159,859 -2430,1516 -3788,1961 -1360,446 -2842,668 -4458,668 -2128,0 -4100,-456 -5917,-1358 -1816,-903 -3398,-2184 -4724,-3867 -1326,-1672 -2328,-3644 -3020,-5906 -680,-2261 -1025,-4713 -1025,-7343 0,-5571 1360,-9917 4078,-13025 2719,-3109 6308,-4669 10742,-4669 2574,0 4736,445 6496,1326 1760,880 3488,2239 5159,4078l0 -13159c0,-1828 368,-3210 1093,-4146 734,-935 1770,-1403 3119,-1403 1348,0 2385,435 3120,1292 724,858 1092,2129 1092,3800l0 39288c0,1694 -391,2976 -1170,3823 -791,847 -1805,1269 -3042,1269 -1215,0 -2229,-445 -3020,-1325 -791,-880 -1192,-2139 -1192,-3767zm-17517 -13081c0,2418 379,4468 1127,6174 746,1693 1771,2963 3085,3821 1304,859 2731,1293 4268,1293 1572,0 2998,-412 4290,-1226 1292,-813 2329,-2062 3097,-3744 770,-1694 1160,-3789 1160,-6318 0,-2362 -390,-4401 -1160,-6106 -768,-1716 -1815,-3020 -3130,-3923 -1315,-902 -2753,-1347 -4323,-1347 -1628,0 -3087,457 -4369,1382 -1281,924 -2273,2250 -2986,3977 -702,1739 -1059,3744 -1059,6017zm57420 13170c-2162,1673 -4246,2920 -6252,3756 -2016,835 -4278,1247 -6774,1247 -2285,0 -4302,-456 -6029,-1358 -1727,-903 -3064,-2118 -4000,-3666 -935,-1549 -1403,-3221 -1403,-5026 0,-2440 768,-4512 2316,-6229 1550,-1727 3678,-2874 6386,-3464 557,-134 1961,-424 4200,-882 2240,-456 4168,-868 5761,-1259 1593,-379 3332,-835 5204,-1381 -112,-2351 -580,-4078 -1415,-5170 -847,-1104 -2575,-1649 -5215,-1649 -2262,0 -3967,312 -5104,947 -1147,624 -2127,1572 -2941,2841 -813,1259 -1393,2084 -1727,2496 -346,401 -1069,602 -2173,602 -1002,0 -1872,-324 -2597,-969 -723,-635 -1092,-1461 -1092,-2463 0,-1572 558,-3097 1661,-4580 1115,-1482 2842,-2696 5193,-3654 2351,-958 5281,-1438 8791,-1438 3911,0 6998,468 9237,1393 2240,925 3823,2384 4748,4391 924,2005 1391,4657 1391,7966 0,2094 -10,3866 -21,5327 -12,1459 -22,3085 -45,4869 0,1671 278,3421 836,5237 557,1805 825,2975 825,3499 0,913 -424,1749 -1282,2495 -869,746 -1838,1125 -2930,1125 -915,0 -1817,-422 -2708,-1281 -892,-858 -1838,-2094 -2841,-3722zm-591 -12914c-1303,480 -3198,993 -5694,1516 -2485,534 -4212,936 -5170,1181 -959,256 -1872,746 -2741,1471 -870,736 -1304,1750 -1304,3064 0,1348 513,2496 1537,3444 1015,946 2351,1426 4012,1426 1760,0 3388,-391 4869,-1160 1494,-779 2586,-1771 3287,-2996 803,-1350 1204,-3578 1204,-6675l0 -1271zm26619 5059l0 7443c0,1805 -423,3154 -1270,4057 -846,902 -1916,1358 -3220,1358 -1282,0 -2339,-456 -3165,-1370 -824,-913 -1237,-2261 -1237,-4045l0 -24814c0,-4000 1449,-6006 4336,-6006 1469,0 2540,468 3186,1404 657,936 1014,2329 1081,4156 1058,-1827 2150,-3220 3275,-4156 1127,-936 2619,-1404 4492,-1404 1871,0 3687,468 5448,1404 1760,936 2640,2184 2640,3732 0,1092 -367,1984 -1125,2697 -746,713 -1560,1059 -2429,1059 -322,0 -1114,-201 -2362,-602 -1259,-401 -2362,-601 -3320,-601 -1304,0 -2363,344 -3198,1024 -825,691 -1471,1706 -1928,3054 -456,1348 -769,2953 -947,4814 -167,1860 -257,4123 -257,6796zm28670 13984l824 -1994 -10964 -27623c-680,-1593 -1014,-2752 -1014,-3465 0,-758 200,-1471 591,-2129 390,-645 924,-1169 1616,-1560 680,-389 1393,-590 2128,-590 1292,0 2261,413 2908,1225 657,814 1226,1984 1727,3511l7544 21940 7142 -20403c569,-1660 1080,-2953 1538,-3888 457,-936 935,-1572 1448,-1894 513,-324 1237,-491 2172,-491 670,0 1316,178 1939,535 614,368 1092,847 1438,1460 334,602 501,1247 501,1927 -89,412 -222,1003 -423,1760 -201,758 -434,1539 -713,2318l-11622 30431c-1003,2686 -1983,4780 -2930,6307 -958,1526 -2229,2697 -3811,3509 -1571,814 -3700,1226 -6374,1226 -2607,0 -4569,-278 -5871,-847 -1305,-567 -1962,-1604 -1962,-3097 0,-1025 312,-1816 936,-2362 613,-558 1537,-836 2753,-836 478,0 946,67 1403,189 569,134 1059,200 1471,200 1025,0 1828,-155 2407,-456 591,-300 1115,-836 1582,-1582 468,-758 1014,-1861 1616,-3321z"/>
  </g>
 </g>
</svg>
