<?xml version="1.0" encoding="UTF-8"?>
<!DOCTYPE svg PUBLIC "-//W3C//DTD SVG 1.1//EN" "http://www.w3.org/Graphics/SVG/1.1/DTD/svg11.dtd">
<!-- Creator: CorelDRAW X7 -->
<svg xmlns="http://www.w3.org/2000/svg" xml:space="preserve" width="2347px" height="1760px" version="1.1" style="shape-rendering:geometricPrecision; text-rendering:geometricPrecision; image-rendering:optimizeQuality; fill-rule:evenodd; clip-rule:evenodd"
viewBox="0 0 2387369 1790272"
 xmlns:xlink="http://www.w3.org/1999/xlink">
 <defs>
  <style type="text/css">
   <![CDATA[
    .str0 {stroke:#414242;stroke-width:12014.2;stroke-linecap:round}
    .fil3 {fill:none}
    .fil0 {fill:#EAEBEC}
    .fil1 {fill:#414242;fill-rule:nonzero}
    .fil2 {fill:#585959;fill-rule:nonzero}
   ]]>
  </style>
 </defs>
 <g id="Capa_x0020_1">
  <metadata id="CorelCorpID_0Corel-Layer"/>
  <g id="_1959381194880">
   <path class="fil0" d="M1644 0l2384081 0c905,0 1644,680 1644,1511l0 1787249c0,832 -739,1512 -1644,1512l-2384081 0c-905,0 -1644,-680 -1644,-1512l0 -1787249c0,-831 739,-1511 1644,-1511z"/>
   <g>
    <path class="fil1" d="M470302 374809l-11435 52374c-15736,-3936 -31472,-5971 -47209,-5971 -24208,0 -40615,9635 -49088,28901 -8611,19269 -12779,58887 -12779,118996 25957,0 62408,-1222 109076,-3936l-2284 59295c-53128,-1629 -88768,-2443 -106792,-2443 0,120622 1481,226182 4709,316819l-70611 0c3765,-88196 5649,-193891 5649,-316819 -16140,0 -44117,814 -83926,2443l2687 -58481c36314,2170 63349,3122 81239,3122 0,-70151 9683,-121301 29051,-153188 19501,-31884 50436,-47894 93069,-47894 18561,0 38200,2304 58644,6782zm312552 564035l-75586 0c4709,-87516 6993,-186294 6993,-296605 0,-107053 -3764,-194568 -11431,-262680l80024 -3936c-4975,72048 -7396,160922 -7396,266616 0,108956 2421,207868 7396,296605zm544735 0l-61867 2441c-3095,-13024 -4708,-25371 -4708,-37041l-3899 0c-32415,29715 -76396,44503 -132078,44503 -30262,0 -56200,-9013 -78007,-26865 -21738,-17797 -32683,-43282 -32683,-76525 0,-40705 17064,-73599 51243,-98369 34117,-24724 97512,-37720 190315,-39076 806,-6378 1210,-13704 1210,-21846 0,-32698 -8626,-54426 -25823,-65262 -17201,-10840 -43310,-16282 -78277,-16282 -41293,0 -81776,5154 -121721,15468l6726 -54817c39405,-11398 84732,-17096 135839,-17096 46805,0 83034,9743 108407,29173 25435,19481 38197,52778 38197,99589 0,12484 -540,35144 -1750,67843 -1211,32697 -1748,54544 -1748,65400 0,48166 3498,91178 10624,128762zm-69804 -77067c-1211,-40298 -1880,-76526 -1880,-108547 -49362,0 -87119,3403 -112711,11124 -43103,13006 -64692,38535 -64692,75849 0,36089 25287,54138 75722,54138 43308,0 77875,-10856 103561,-32564zm385893 77067l-75586 0c4709,-87516 6993,-186294 6993,-296605 0,-107053 -3764,-194568 -11431,-262680l80024 -3936c-4975,72048 -7396,160922 -7396,266616 0,108956 2421,207868 7396,296605zm564561 180864l-70072 0c2285,-72590 3495,-144365 3495,-215464l-4301 0c-27034,30257 -68327,45318 -123739,45318 -49629,0 -89197,-18539 -118626,-55494 -29363,-36875 -44114,-80868 -44114,-131749 0,-57256 15987,-107438 48016,-150470 32009,-43009 77470,-64587 135976,-64587 47879,0 82849,8821 105175,26325l3227 0 16140 -12350 48823 -4339c-3632,89006 -5512,178287 -5512,267838 0,107053 1880,205420 5512,294972zm-66577 -267973c0,-87381 -1210,-163769 -3495,-228896 -24479,-18317 -53800,-27409 -87960,-27409 -43310,0 -75748,15416 -97108,46133 -21293,30629 -32010,67705 -32010,110852 0,39211 10282,72919 30666,100948 20384,28026 49226,42199 86346,42199 47209,0 81772,-14654 103561,-43827z"/>
    <g>
     <path class="fil2" d="M1170111 1421110l-40227 0c0,-8602 -8009,-35595 -24021,-80972l-110077 0c-15753,44723 -23630,71712 -23630,80972l-38536 0c0,-4729 16404,-45773 49213,-123066 32808,-77225 49211,-119714 49211,-127463l44265 0c0,7617 15624,49449 46870,125691 31311,76176 46932,117811 46932,124838zm-73036 -106188c-29879,-75322 -44851,-115315 -44851,-120044l-2083 0c0,3942 -15429,43998 -46348,120044l93282 0zm278413 -82152c0,29223 -11001,51090 -33004,65604 -22001,14512 -51555,21736 -88661,21736 -4687,0 -8787,-132 -12237,-394 0,27974 1042,61729 3060,101394l-36584 0c1888,-36446 2863,-80315 2863,-131602 0,-44130 -975,-83728 -2863,-118927l27274 0c2930,0 11263,-130 25063,-525 13799,-395 25516,-593 35217,-593 24410,0 43809,5583 58259,16812 14387,11231 21613,26729 21613,46495zm-31831 11163c0,-32966 -22327,-49449 -66984,-49449 -10871,0 -23174,919 -36779,2889 912,20885 1367,53456 1367,97718 4427,262 9894,394 16404,394 57283,0 85992,-17206 85992,-51552zm116454 177177l-36194 0c1889,-41569 2865,-85435 2865,-131602 0,-45378 -976,-85043 -2865,-118927l36194 0c-1757,35067 -2669,74665 -2669,118927 0,46428 912,90295 2669,131602z"/>
     <g>
      <line class="fil3 str0" x1="500157" y1="1305726" x2="780358" y2= "1305726" />
     </g>
     <g>
      <line class="fil3 str0" x1="1633495" y1="1305726" x2="1913698" y2= "1305726" />
     </g>
    </g>
   </g>
  </g>
 </g>
</svg>
