<?xml version="1.0" encoding="UTF-8"?>
<!DOCTYPE svg PUBLIC "-//W3C//DTD SVG 1.1//EN" "http://www.w3.org/Graphics/SVG/1.1/DTD/svg11.dtd">
<!-- Creator: CorelDRAW X7 -->
<svg xmlns="http://www.w3.org/2000/svg" xml:space="preserve" width="1640px" height="1337px" version="1.1" style="shape-rendering:geometricPrecision; text-rendering:geometricPrecision; image-rendering:optimizeQuality; fill-rule:evenodd; clip-rule:evenodd"
viewBox="0 0 1679851 1369514"
 xmlns:xlink="http://www.w3.org/1999/xlink">
 <defs>
  <style type="text/css">
   <![CDATA[
    .str0 {stroke:#414242;stroke-width:12096.8;stroke-linecap:round}
    .fil7 {fill:none}
    .fil3 {fill:#ACACAD}
    .fil2 {fill:#C5C6C7}
    .fil0 {fill:#EAEBEC}
    .fil1 {fill:white}
    .fil5 {fill:#414242;fill-rule:nonzero}
    .fil6 {fill:#585959;fill-rule:nonzero}
    .fil4 {fill:#C5C6C7;fill-rule:nonzero}
   ]]>
  </style>
 </defs>
 <g id="Capa_x0020_1">
  <metadata id="CorelCorpID_0Corel-Layer"/>
  <g id="_1479898439072">
   <path class="fil0" d="M1156 0l1677538 0c636,0 1157,520 1157,1156l0 1367202c0,636 -521,1156 -1157,1156l-1677538 0c-636,0 -1156,-520 -1156,-1156l0 -1367202c0,-636 520,-1156 1156,-1156z"/>
   <g>
    <g>
     <circle class="fil1" cx="149608" cy="69171" r="9334"/>
     <circle class="fil1" cx="200742" cy="69171" r="9334"/>
     <circle class="fil1" cx="251877" cy="69171" r="9334"/>
     <circle class="fil1" cx="303011" cy="69171" r="9334"/>
     <circle class="fil1" cx="354145" cy="69171" r="9334"/>
     <circle class="fil1" cx="405280" cy="69171" r="9334"/>
     <circle class="fil1" cx="456414" cy="69171" r="9334"/>
     <circle class="fil1" cx="507549" cy="69171" r="9334"/>
     <circle class="fil1" cx="558683" cy="69171" r="9334"/>
     <circle class="fil1" cx="609817" cy="69171" r="9334"/>
     <circle class="fil1" cx="660952" cy="69171" r="9334"/>
     <circle class="fil1" cx="712086" cy="69171" r="9334"/>
     <circle class="fil1" cx="763221" cy="69171" r="9334"/>
     <circle class="fil1" cx="814355" cy="69171" r="9334"/>
     <circle class="fil1" cx="865489" cy="69171" r="9334"/>
     <circle class="fil1" cx="916624" cy="69171" r="9334"/>
     <circle class="fil1" cx="967758" cy="69171" r="9334"/>
     <circle class="fil1" cx="1018893" cy="69171" r="9334"/>
     <circle class="fil1" cx="1070027" cy="69171" r="9334"/>
     <circle class="fil1" cx="1121161" cy="69171" r="9334"/>
     <circle class="fil1" cx="1172296" cy="69171" r="9334"/>
     <circle class="fil1" cx="1223430" cy="69171" r="9334"/>
     <circle class="fil1" cx="1274565" cy="69171" r="9334"/>
     <circle class="fil1" cx="1325699" cy="69171" r="9334"/>
     <circle class="fil1" cx="1376833" cy="69171" r="9334"/>
     <circle class="fil1" cx="1427968" cy="69171" r="9334"/>
     <circle class="fil1" cx="1479102" cy="69171" r="9334"/>
     <circle class="fil1" cx="1530237" cy="69171" r="9334"/>
     <circle class="fil1" cx="1581371" cy="69171" r="9334"/>
     <circle class="fil1" cx="1632511" cy="69171" r="9334"/>
     <circle class="fil1" cx="47339" cy="69171" r="9334"/>
     <circle class="fil1" cx="98473" cy="69171" r="9334"/>
    </g>
    <g>
     <circle class="fil1" cx="149608" cy="151249" r="9334"/>
     <circle class="fil1" cx="200742" cy="151249" r="9334"/>
     <circle class="fil1" cx="251877" cy="151249" r="9334"/>
     <circle class="fil1" cx="303011" cy="151249" r="9334"/>
     <circle class="fil1" cx="354145" cy="151249" r="9334"/>
     <circle class="fil1" cx="405280" cy="151249" r="9334"/>
     <circle class="fil1" cx="456414" cy="151249" r="9334"/>
     <circle class="fil1" cx="507549" cy="151249" r="9334"/>
     <circle class="fil1" cx="558683" cy="151249" r="9334"/>
     <circle class="fil1" cx="609817" cy="151249" r="9334"/>
     <circle class="fil1" cx="660952" cy="151249" r="9334"/>
     <circle class="fil1" cx="712086" cy="151249" r="9334"/>
     <circle class="fil1" cx="763221" cy="151249" r="9334"/>
     <circle class="fil1" cx="814355" cy="151249" r="9334"/>
     <circle class="fil1" cx="865489" cy="151249" r="9334"/>
     <circle class="fil1" cx="916624" cy="151249" r="9334"/>
     <circle class="fil1" cx="967758" cy="151249" r="9334"/>
     <circle class="fil1" cx="1018893" cy="151249" r="9334"/>
     <circle class="fil1" cx="1070027" cy="151249" r="9334"/>
     <circle class="fil1" cx="1121161" cy="151249" r="9334"/>
     <circle class="fil1" cx="1172296" cy="151249" r="9334"/>
     <circle class="fil1" cx="1223430" cy="151249" r="9334"/>
     <circle class="fil1" cx="1274565" cy="151249" r="9334"/>
     <circle class="fil1" cx="1325699" cy="151249" r="9334"/>
     <circle class="fil1" cx="1376833" cy="151249" r="9334"/>
     <circle class="fil1" cx="1427968" cy="151249" r="9334"/>
     <circle class="fil1" cx="1479102" cy="151249" r="9334"/>
     <circle class="fil1" cx="1530237" cy="151249" r="9334"/>
     <circle class="fil1" cx="1581371" cy="151249" r="9334"/>
     <circle class="fil1" cx="1632511" cy="151249" r="9334"/>
     <circle class="fil1" cx="47339" cy="151249" r="9334"/>
     <circle class="fil1" cx="98473" cy="151249" r="9334"/>
    </g>
    <g>
     <circle class="fil1" cx="149608" cy="233327" r="9334"/>
     <circle class="fil1" cx="200742" cy="233327" r="9334"/>
     <circle class="fil1" cx="251877" cy="233327" r="9334"/>
     <circle class="fil1" cx="303011" cy="233327" r="9334"/>
     <circle class="fil1" cx="354145" cy="233327" r="9334"/>
     <circle class="fil1" cx="405280" cy="233327" r="9334"/>
     <circle class="fil1" cx="456414" cy="233327" r="9334"/>
     <circle class="fil1" cx="507549" cy="233327" r="9334"/>
     <circle class="fil1" cx="558683" cy="233327" r="9334"/>
     <circle class="fil1" cx="609817" cy="233327" r="9334"/>
     <circle class="fil1" cx="660952" cy="233327" r="9334"/>
     <circle class="fil1" cx="712086" cy="233327" r="9334"/>
     <circle class="fil1" cx="763221" cy="233327" r="9334"/>
     <circle class="fil1" cx="814355" cy="233327" r="9334"/>
     <circle class="fil1" cx="865489" cy="233327" r="9334"/>
     <circle class="fil1" cx="916624" cy="233327" r="9334"/>
     <circle class="fil1" cx="967758" cy="233327" r="9334"/>
     <circle class="fil1" cx="1018893" cy="233327" r="9334"/>
     <circle class="fil1" cx="1070027" cy="233327" r="9334"/>
     <circle class="fil1" cx="1121161" cy="233327" r="9334"/>
     <circle class="fil1" cx="1172296" cy="233327" r="9334"/>
     <circle class="fil1" cx="1223430" cy="233327" r="9334"/>
     <circle class="fil1" cx="1274565" cy="233327" r="9334"/>
     <circle class="fil1" cx="1325699" cy="233327" r="9334"/>
     <circle class="fil1" cx="1376833" cy="233327" r="9334"/>
     <circle class="fil1" cx="1427968" cy="233327" r="9334"/>
     <circle class="fil1" cx="1479102" cy="233327" r="9334"/>
     <circle class="fil1" cx="1530237" cy="233327" r="9334"/>
     <circle class="fil1" cx="1581371" cy="233327" r="9334"/>
     <circle class="fil1" cx="1632511" cy="233327" r="9334"/>
     <circle class="fil1" cx="47339" cy="233327" r="9334"/>
     <circle class="fil1" cx="98473" cy="233327" r="9334"/>
    </g>
    <g>
     <circle class="fil1" cx="149608" cy="315405" r="9334"/>
     <circle class="fil1" cx="200742" cy="315405" r="9334"/>
     <circle class="fil1" cx="251877" cy="315405" r="9334"/>
     <circle class="fil1" cx="303011" cy="315405" r="9334"/>
     <circle class="fil1" cx="354145" cy="315405" r="9334"/>
     <circle class="fil1" cx="405280" cy="315405" r="9334"/>
     <circle class="fil1" cx="456414" cy="315405" r="9334"/>
     <circle class="fil1" cx="507549" cy="315405" r="9334"/>
     <circle class="fil1" cx="558683" cy="315405" r="9334"/>
     <circle class="fil1" cx="609817" cy="315405" r="9334"/>
     <circle class="fil1" cx="660952" cy="315405" r="9334"/>
     <circle class="fil1" cx="712086" cy="315405" r="9334"/>
     <circle class="fil1" cx="763221" cy="315405" r="9334"/>
     <circle class="fil1" cx="814355" cy="315405" r="9334"/>
     <circle class="fil1" cx="865489" cy="315405" r="9334"/>
     <circle class="fil1" cx="916624" cy="315405" r="9334"/>
     <circle class="fil1" cx="967758" cy="315405" r="9334"/>
     <circle class="fil1" cx="1018893" cy="315405" r="9334"/>
     <circle class="fil1" cx="1070027" cy="315405" r="9334"/>
     <circle class="fil1" cx="1121161" cy="315405" r="9334"/>
     <circle class="fil1" cx="1172296" cy="315405" r="9334"/>
     <circle class="fil1" cx="1223430" cy="315405" r="9334"/>
     <circle class="fil1" cx="1274565" cy="315405" r="9334"/>
     <circle class="fil1" cx="1325699" cy="315405" r="9334"/>
     <circle class="fil1" cx="1376833" cy="315405" r="9334"/>
     <circle class="fil1" cx="1427968" cy="315405" r="9334"/>
     <circle class="fil1" cx="1479102" cy="315405" r="9334"/>
     <circle class="fil1" cx="1530237" cy="315405" r="9334"/>
     <circle class="fil1" cx="1581371" cy="315405" r="9334"/>
     <circle class="fil1" cx="1632511" cy="315405" r="9334"/>
     <circle class="fil1" cx="47339" cy="315405" r="9334"/>
     <circle class="fil1" cx="98473" cy="315405" r="9334"/>
    </g>
    <g>
     <circle class="fil1" cx="149608" cy="397483" r="9334"/>
     <circle class="fil1" cx="200742" cy="397483" r="9334"/>
     <circle class="fil1" cx="251877" cy="397483" r="9334"/>
     <circle class="fil1" cx="303011" cy="397483" r="9334"/>
     <circle class="fil1" cx="354145" cy="397483" r="9334"/>
     <circle class="fil1" cx="405280" cy="397483" r="9334"/>
     <circle class="fil1" cx="456414" cy="397483" r="9334"/>
     <circle class="fil1" cx="507549" cy="397483" r="9334"/>
     <circle class="fil1" cx="558683" cy="397483" r="9334"/>
     <circle class="fil1" cx="609817" cy="397483" r="9334"/>
     <circle class="fil1" cx="660952" cy="397483" r="9334"/>
     <circle class="fil1" cx="712086" cy="397483" r="9334"/>
     <circle class="fil1" cx="763221" cy="397483" r="9334"/>
     <circle class="fil1" cx="814355" cy="397483" r="9334"/>
     <circle class="fil1" cx="865489" cy="397483" r="9334"/>
     <circle class="fil1" cx="916624" cy="397483" r="9334"/>
     <circle class="fil1" cx="967758" cy="397483" r="9334"/>
     <circle class="fil1" cx="1018893" cy="397483" r="9334"/>
     <circle class="fil1" cx="1070027" cy="397483" r="9334"/>
     <circle class="fil1" cx="1121161" cy="397483" r="9334"/>
     <circle class="fil1" cx="1172296" cy="397483" r="9334"/>
     <circle class="fil1" cx="1223430" cy="397483" r="9334"/>
     <circle class="fil1" cx="1274565" cy="397483" r="9334"/>
     <circle class="fil1" cx="1325699" cy="397483" r="9334"/>
     <circle class="fil1" cx="1376833" cy="397483" r="9334"/>
     <circle class="fil1" cx="1427968" cy="397483" r="9334"/>
     <circle class="fil1" cx="1479102" cy="397483" r="9334"/>
     <circle class="fil1" cx="1530237" cy="397483" r="9334"/>
     <circle class="fil1" cx="1581371" cy="397483" r="9334"/>
     <circle class="fil1" cx="1632511" cy="397483" r="9334"/>
     <circle class="fil1" cx="47339" cy="397483" r="9334"/>
     <circle class="fil1" cx="98473" cy="397483" r="9334"/>
    </g>
    <g>
     <circle class="fil1" cx="149608" cy="479561" r="9334"/>
     <circle class="fil1" cx="200742" cy="479561" r="9334"/>
     <circle class="fil1" cx="251877" cy="479561" r="9334"/>
     <circle class="fil1" cx="303011" cy="479561" r="9334"/>
     <circle class="fil1" cx="354145" cy="479561" r="9334"/>
     <circle class="fil1" cx="405280" cy="479561" r="9334"/>
     <circle class="fil1" cx="456414" cy="479561" r="9334"/>
     <circle class="fil1" cx="507549" cy="479561" r="9334"/>
     <circle class="fil1" cx="558683" cy="479561" r="9334"/>
     <circle class="fil1" cx="609817" cy="479561" r="9334"/>
     <circle class="fil1" cx="660952" cy="479561" r="9334"/>
     <circle class="fil1" cx="712086" cy="479561" r="9334"/>
     <circle class="fil1" cx="763221" cy="479561" r="9334"/>
     <circle class="fil1" cx="814355" cy="479561" r="9334"/>
     <circle class="fil1" cx="865489" cy="479561" r="9334"/>
     <circle class="fil1" cx="916624" cy="479561" r="9334"/>
     <circle class="fil1" cx="967758" cy="479561" r="9334"/>
     <circle class="fil1" cx="1018893" cy="479561" r="9334"/>
     <circle class="fil1" cx="1070027" cy="479561" r="9334"/>
     <circle class="fil1" cx="1121161" cy="479561" r="9334"/>
     <circle class="fil1" cx="1172296" cy="479561" r="9334"/>
     <circle class="fil1" cx="1223430" cy="479561" r="9334"/>
     <circle class="fil1" cx="1274565" cy="479561" r="9334"/>
     <circle class="fil1" cx="1325699" cy="479561" r="9334"/>
     <circle class="fil1" cx="1376833" cy="479561" r="9334"/>
     <circle class="fil1" cx="1427968" cy="479561" r="9334"/>
     <circle class="fil1" cx="1479102" cy="479561" r="9334"/>
     <circle class="fil1" cx="1530237" cy="479561" r="9334"/>
     <circle class="fil1" cx="1581371" cy="479561" r="9334"/>
     <circle class="fil1" cx="1632511" cy="479561" r="9334"/>
     <circle class="fil1" cx="47339" cy="479561" r="9334"/>
     <circle class="fil1" cx="98473" cy="479561" r="9334"/>
    </g>
    <g>
     <circle class="fil1" cx="149608" cy="561639" r="9334"/>
     <circle class="fil1" cx="200742" cy="561639" r="9334"/>
     <circle class="fil1" cx="251877" cy="561639" r="9334"/>
     <circle class="fil1" cx="303011" cy="561639" r="9334"/>
     <circle class="fil1" cx="354145" cy="561639" r="9334"/>
     <circle class="fil1" cx="405280" cy="561639" r="9334"/>
     <circle class="fil1" cx="456414" cy="561639" r="9334"/>
     <circle class="fil1" cx="507549" cy="561639" r="9334"/>
     <circle class="fil1" cx="558683" cy="561639" r="9334"/>
     <circle class="fil1" cx="609817" cy="561639" r="9334"/>
     <circle class="fil1" cx="660952" cy="561639" r="9334"/>
     <circle class="fil1" cx="712086" cy="561639" r="9334"/>
     <circle class="fil1" cx="763221" cy="561639" r="9334"/>
     <circle class="fil1" cx="814355" cy="561639" r="9334"/>
     <circle class="fil1" cx="865489" cy="561639" r="9334"/>
     <circle class="fil1" cx="916624" cy="561639" r="9334"/>
     <circle class="fil1" cx="967758" cy="561639" r="9334"/>
     <circle class="fil1" cx="1018893" cy="561639" r="9334"/>
     <circle class="fil1" cx="1070027" cy="561639" r="9334"/>
     <circle class="fil1" cx="1121161" cy="561639" r="9334"/>
     <circle class="fil1" cx="1172296" cy="561639" r="9334"/>
     <circle class="fil1" cx="1223430" cy="561639" r="9334"/>
     <circle class="fil1" cx="1274565" cy="561639" r="9334"/>
     <circle class="fil1" cx="1325699" cy="561639" r="9334"/>
     <circle class="fil1" cx="1376833" cy="561639" r="9334"/>
     <circle class="fil1" cx="1427968" cy="561639" r="9334"/>
     <circle class="fil1" cx="1479102" cy="561639" r="9334"/>
     <circle class="fil1" cx="1530237" cy="561639" r="9334"/>
     <circle class="fil1" cx="1581371" cy="561639" r="9334"/>
     <circle class="fil1" cx="1632511" cy="561639" r="9334"/>
     <circle class="fil1" cx="47339" cy="561639" r="9334"/>
     <circle class="fil1" cx="98473" cy="561639" r="9334"/>
    </g>
    <g>
     <circle class="fil1" cx="149608" cy="643718" r="9334"/>
     <circle class="fil1" cx="200742" cy="643718" r="9334"/>
     <circle class="fil1" cx="251877" cy="643718" r="9334"/>
     <circle class="fil1" cx="303011" cy="643718" r="9334"/>
     <circle class="fil1" cx="354145" cy="643718" r="9334"/>
     <circle class="fil1" cx="405280" cy="643718" r="9334"/>
     <circle class="fil1" cx="456414" cy="643718" r="9334"/>
     <circle class="fil1" cx="507549" cy="643718" r="9334"/>
     <circle class="fil1" cx="558683" cy="643718" r="9334"/>
     <circle class="fil1" cx="609817" cy="643718" r="9334"/>
     <circle class="fil1" cx="660952" cy="643718" r="9334"/>
     <circle class="fil1" cx="712086" cy="643718" r="9334"/>
     <circle class="fil1" cx="763221" cy="643718" r="9334"/>
     <circle class="fil1" cx="814355" cy="643718" r="9334"/>
     <circle class="fil1" cx="865489" cy="643718" r="9334"/>
     <circle class="fil1" cx="916624" cy="643718" r="9334"/>
     <circle class="fil1" cx="967758" cy="643718" r="9334"/>
     <circle class="fil1" cx="1018893" cy="643718" r="9334"/>
     <circle class="fil1" cx="1070027" cy="643718" r="9334"/>
     <circle class="fil1" cx="1121161" cy="643718" r="9334"/>
     <circle class="fil1" cx="1172296" cy="643718" r="9334"/>
     <circle class="fil1" cx="1223430" cy="643718" r="9334"/>
     <circle class="fil1" cx="1274565" cy="643718" r="9334"/>
     <circle class="fil1" cx="1325699" cy="643718" r="9334"/>
     <circle class="fil1" cx="1376833" cy="643718" r="9334"/>
     <circle class="fil1" cx="1427968" cy="643718" r="9334"/>
     <circle class="fil1" cx="1479102" cy="643718" r="9334"/>
     <circle class="fil1" cx="1530237" cy="643718" r="9334"/>
     <circle class="fil1" cx="1581371" cy="643718" r="9334"/>
     <circle class="fil1" cx="1632511" cy="643718" r="9334"/>
     <circle class="fil1" cx="47339" cy="643718" r="9334"/>
     <circle class="fil1" cx="98473" cy="643718" r="9334"/>
    </g>
    <g>
     <circle class="fil1" cx="149608" cy="725796" r="9334"/>
     <circle class="fil1" cx="200742" cy="725796" r="9334"/>
     <circle class="fil1" cx="251877" cy="725796" r="9334"/>
     <circle class="fil1" cx="303011" cy="725796" r="9334"/>
     <circle class="fil1" cx="354145" cy="725796" r="9334"/>
     <circle class="fil1" cx="405280" cy="725796" r="9334"/>
     <circle class="fil1" cx="456414" cy="725796" r="9334"/>
     <circle class="fil1" cx="507549" cy="725796" r="9334"/>
     <circle class="fil1" cx="558683" cy="725796" r="9334"/>
     <circle class="fil1" cx="609817" cy="725796" r="9334"/>
     <circle class="fil1" cx="660952" cy="725796" r="9334"/>
     <circle class="fil1" cx="712086" cy="725796" r="9334"/>
     <circle class="fil1" cx="763221" cy="725796" r="9334"/>
     <circle class="fil1" cx="814355" cy="725796" r="9334"/>
     <circle class="fil1" cx="865489" cy="725796" r="9334"/>
     <circle class="fil1" cx="916624" cy="725796" r="9334"/>
     <circle class="fil1" cx="967758" cy="725796" r="9334"/>
     <circle class="fil1" cx="1018893" cy="725796" r="9334"/>
     <circle class="fil1" cx="1070027" cy="725796" r="9334"/>
     <circle class="fil1" cx="1121161" cy="725796" r="9334"/>
     <circle class="fil1" cx="1172296" cy="725796" r="9334"/>
     <circle class="fil1" cx="1223430" cy="725796" r="9334"/>
     <circle class="fil1" cx="1274565" cy="725796" r="9334"/>
     <circle class="fil1" cx="1325699" cy="725796" r="9334"/>
     <circle class="fil1" cx="1376833" cy="725796" r="9334"/>
     <circle class="fil1" cx="1427968" cy="725796" r="9334"/>
     <circle class="fil1" cx="1479102" cy="725796" r="9334"/>
     <circle class="fil1" cx="1530237" cy="725796" r="9334"/>
     <circle class="fil1" cx="1581371" cy="725796" r="9334"/>
     <circle class="fil1" cx="1632511" cy="725796" r="9334"/>
     <circle class="fil1" cx="47339" cy="725796" r="9334"/>
     <circle class="fil1" cx="98473" cy="725796" r="9334"/>
    </g>
    <g>
     <circle class="fil1" cx="149608" cy="807874" r="9334"/>
     <circle class="fil1" cx="200742" cy="807874" r="9334"/>
     <circle class="fil1" cx="251877" cy="807874" r="9334"/>
     <circle class="fil1" cx="303011" cy="807874" r="9334"/>
     <circle class="fil1" cx="354145" cy="807874" r="9334"/>
     <circle class="fil1" cx="405280" cy="807874" r="9334"/>
     <circle class="fil1" cx="456414" cy="807874" r="9334"/>
     <circle class="fil1" cx="507549" cy="807874" r="9334"/>
     <circle class="fil1" cx="558683" cy="807874" r="9334"/>
     <circle class="fil1" cx="609817" cy="807874" r="9334"/>
     <circle class="fil1" cx="660952" cy="807874" r="9334"/>
     <circle class="fil1" cx="712086" cy="807874" r="9334"/>
     <circle class="fil1" cx="763221" cy="807874" r="9334"/>
     <circle class="fil1" cx="814355" cy="807874" r="9334"/>
     <circle class="fil1" cx="865489" cy="807874" r="9334"/>
     <circle class="fil1" cx="916624" cy="807874" r="9334"/>
     <circle class="fil1" cx="967758" cy="807874" r="9334"/>
     <circle class="fil1" cx="1018893" cy="807874" r="9334"/>
     <circle class="fil1" cx="1070027" cy="807874" r="9334"/>
     <circle class="fil1" cx="1121161" cy="807874" r="9334"/>
     <circle class="fil1" cx="1172296" cy="807874" r="9334"/>
     <circle class="fil1" cx="1223430" cy="807874" r="9334"/>
     <circle class="fil1" cx="1274565" cy="807874" r="9334"/>
     <circle class="fil1" cx="1325699" cy="807874" r="9334"/>
     <circle class="fil1" cx="1376833" cy="807874" r="9334"/>
     <circle class="fil1" cx="1427968" cy="807874" r="9334"/>
     <circle class="fil1" cx="1479102" cy="807874" r="9334"/>
     <circle class="fil1" cx="1530237" cy="807874" r="9334"/>
     <circle class="fil1" cx="1581371" cy="807874" r="9334"/>
     <circle class="fil1" cx="1632511" cy="807874" r="9334"/>
     <circle class="fil1" cx="47339" cy="807874" r="9334"/>
     <circle class="fil1" cx="98473" cy="807874" r="9334"/>
    </g>
    <g>
     <circle class="fil1" cx="149608" cy="889952" r="9334"/>
     <circle class="fil1" cx="200742" cy="889952" r="9334"/>
     <circle class="fil1" cx="251877" cy="889952" r="9334"/>
     <circle class="fil1" cx="303011" cy="889952" r="9334"/>
     <circle class="fil1" cx="354145" cy="889952" r="9334"/>
     <circle class="fil1" cx="405280" cy="889952" r="9334"/>
     <circle class="fil1" cx="456414" cy="889952" r="9334"/>
     <circle class="fil1" cx="507549" cy="889952" r="9334"/>
     <circle class="fil1" cx="558683" cy="889952" r="9334"/>
     <circle class="fil1" cx="609817" cy="889952" r="9334"/>
     <circle class="fil1" cx="660952" cy="889952" r="9334"/>
     <circle class="fil1" cx="712086" cy="889952" r="9334"/>
     <circle class="fil1" cx="763221" cy="889952" r="9334"/>
     <circle class="fil1" cx="814355" cy="889952" r="9334"/>
     <circle class="fil1" cx="865489" cy="889952" r="9334"/>
     <circle class="fil1" cx="916624" cy="889952" r="9334"/>
     <circle class="fil1" cx="967758" cy="889952" r="9334"/>
     <circle class="fil1" cx="1018893" cy="889952" r="9334"/>
     <circle class="fil1" cx="1070027" cy="889952" r="9334"/>
     <circle class="fil1" cx="1121161" cy="889952" r="9334"/>
     <circle class="fil1" cx="1172296" cy="889952" r="9334"/>
     <circle class="fil1" cx="1223430" cy="889952" r="9334"/>
     <circle class="fil1" cx="1274565" cy="889952" r="9334"/>
     <circle class="fil1" cx="1325699" cy="889952" r="9334"/>
     <circle class="fil1" cx="1376833" cy="889952" r="9334"/>
     <circle class="fil1" cx="1427968" cy="889952" r="9334"/>
     <circle class="fil1" cx="1479102" cy="889952" r="9334"/>
     <circle class="fil1" cx="1530237" cy="889952" r="9334"/>
     <circle class="fil1" cx="1581371" cy="889952" r="9334"/>
     <circle class="fil1" cx="1632511" cy="889952" r="9334"/>
     <circle class="fil1" cx="47339" cy="889952" r="9334"/>
     <circle class="fil1" cx="98473" cy="889952" r="9334"/>
    </g>
    <g>
     <circle class="fil1" cx="149608" cy="972030" r="9334"/>
     <circle class="fil1" cx="200742" cy="972030" r="9334"/>
     <circle class="fil1" cx="251877" cy="972030" r="9334"/>
     <circle class="fil1" cx="303011" cy="972030" r="9334"/>
     <circle class="fil1" cx="354145" cy="972030" r="9334"/>
     <circle class="fil1" cx="405280" cy="972030" r="9334"/>
     <circle class="fil1" cx="456414" cy="972030" r="9334"/>
     <circle class="fil1" cx="507549" cy="972030" r="9334"/>
     <circle class="fil1" cx="558683" cy="972030" r="9334"/>
     <circle class="fil1" cx="609817" cy="972030" r="9334"/>
     <circle class="fil1" cx="660952" cy="972030" r="9334"/>
     <circle class="fil1" cx="712086" cy="972030" r="9334"/>
     <circle class="fil1" cx="763221" cy="972030" r="9334"/>
     <circle class="fil1" cx="814355" cy="972030" r="9334"/>
     <circle class="fil1" cx="865489" cy="972030" r="9334"/>
     <circle class="fil1" cx="916624" cy="972030" r="9334"/>
     <circle class="fil1" cx="967758" cy="972030" r="9334"/>
     <circle class="fil1" cx="1018893" cy="972030" r="9334"/>
     <circle class="fil1" cx="1070027" cy="972030" r="9334"/>
     <circle class="fil1" cx="1121161" cy="972030" r="9334"/>
     <circle class="fil1" cx="1172296" cy="972030" r="9334"/>
     <circle class="fil1" cx="1223430" cy="972030" r="9334"/>
     <circle class="fil1" cx="1274565" cy="972030" r="9334"/>
     <circle class="fil1" cx="1325699" cy="972030" r="9334"/>
     <circle class="fil1" cx="1376833" cy="972030" r="9334"/>
     <circle class="fil1" cx="1427968" cy="972030" r="9334"/>
     <circle class="fil1" cx="1479102" cy="972030" r="9334"/>
     <circle class="fil1" cx="1530237" cy="972030" r="9334"/>
     <circle class="fil1" cx="1581371" cy="972030" r="9334"/>
     <circle class="fil1" cx="1632511" cy="972030" r="9334"/>
     <circle class="fil1" cx="47339" cy="972030" r="9334"/>
     <circle class="fil1" cx="98473" cy="972030" r="9334"/>
    </g>
    <g>
     <circle class="fil1" cx="149608" cy="1054108" r="9334"/>
     <circle class="fil1" cx="200742" cy="1054108" r="9334"/>
     <circle class="fil1" cx="251877" cy="1054108" r="9334"/>
     <circle class="fil1" cx="303011" cy="1054108" r="9334"/>
     <circle class="fil1" cx="354145" cy="1054108" r="9334"/>
     <circle class="fil1" cx="405280" cy="1054108" r="9334"/>
     <circle class="fil1" cx="456414" cy="1054108" r="9334"/>
     <circle class="fil1" cx="507549" cy="1054108" r="9334"/>
     <circle class="fil1" cx="558683" cy="1054108" r="9334"/>
     <circle class="fil1" cx="609817" cy="1054108" r="9334"/>
     <circle class="fil1" cx="660952" cy="1054108" r="9334"/>
     <circle class="fil1" cx="712086" cy="1054108" r="9334"/>
     <circle class="fil1" cx="763221" cy="1054108" r="9334"/>
     <circle class="fil1" cx="814355" cy="1054108" r="9334"/>
     <circle class="fil1" cx="865489" cy="1054108" r="9334"/>
     <circle class="fil1" cx="916624" cy="1054108" r="9334"/>
     <circle class="fil1" cx="967758" cy="1054108" r="9334"/>
     <circle class="fil1" cx="1018893" cy="1054108" r="9334"/>
     <circle class="fil1" cx="1070027" cy="1054108" r="9334"/>
     <circle class="fil1" cx="1121161" cy="1054108" r="9334"/>
     <circle class="fil1" cx="1172296" cy="1054108" r="9334"/>
     <circle class="fil1" cx="1223430" cy="1054108" r="9334"/>
     <circle class="fil1" cx="1274565" cy="1054108" r="9334"/>
     <circle class="fil1" cx="1325699" cy="1054108" r="9334"/>
     <circle class="fil1" cx="1376833" cy="1054108" r="9334"/>
     <circle class="fil1" cx="1427968" cy="1054108" r="9334"/>
     <circle class="fil1" cx="1479102" cy="1054108" r="9334"/>
     <circle class="fil1" cx="1530237" cy="1054108" r="9334"/>
     <circle class="fil1" cx="1581371" cy="1054108" r="9334"/>
     <circle class="fil1" cx="1632511" cy="1054108" r="9334"/>
     <circle class="fil1" cx="47339" cy="1054108" r="9334"/>
     <circle class="fil1" cx="98473" cy="1054108" r="9334"/>
    </g>
    <g>
     <circle class="fil1" cx="149608" cy="1136186" r="9334"/>
     <circle class="fil1" cx="200742" cy="1136186" r="9334"/>
     <circle class="fil1" cx="251877" cy="1136186" r="9334"/>
     <circle class="fil1" cx="303011" cy="1136186" r="9334"/>
     <circle class="fil1" cx="354145" cy="1136186" r="9334"/>
     <circle class="fil1" cx="405280" cy="1136186" r="9334"/>
     <circle class="fil1" cx="456414" cy="1136186" r="9334"/>
     <circle class="fil1" cx="507549" cy="1136186" r="9334"/>
     <circle class="fil1" cx="558683" cy="1136186" r="9334"/>
     <circle class="fil1" cx="609817" cy="1136186" r="9334"/>
     <circle class="fil1" cx="660952" cy="1136186" r="9334"/>
     <circle class="fil1" cx="712086" cy="1136186" r="9334"/>
     <circle class="fil1" cx="763221" cy="1136186" r="9334"/>
     <circle class="fil1" cx="814355" cy="1136186" r="9334"/>
     <circle class="fil1" cx="865489" cy="1136186" r="9334"/>
     <circle class="fil1" cx="916624" cy="1136186" r="9334"/>
     <circle class="fil1" cx="967758" cy="1136186" r="9334"/>
     <circle class="fil1" cx="1018893" cy="1136186" r="9334"/>
     <circle class="fil1" cx="1070027" cy="1136186" r="9334"/>
     <circle class="fil1" cx="1121161" cy="1136186" r="9334"/>
     <circle class="fil1" cx="1172296" cy="1136186" r="9334"/>
     <circle class="fil1" cx="1223430" cy="1136186" r="9334"/>
     <circle class="fil1" cx="1274565" cy="1136186" r="9334"/>
     <circle class="fil1" cx="1325699" cy="1136186" r="9334"/>
     <circle class="fil1" cx="1376833" cy="1136186" r="9334"/>
     <circle class="fil1" cx="1427968" cy="1136186" r="9334"/>
     <circle class="fil1" cx="1479102" cy="1136186" r="9334"/>
     <circle class="fil1" cx="1530237" cy="1136186" r="9334"/>
     <circle class="fil1" cx="1581371" cy="1136186" r="9334"/>
     <circle class="fil1" cx="1632511" cy="1136186" r="9334"/>
     <circle class="fil1" cx="47339" cy="1136186" r="9334"/>
     <circle class="fil1" cx="98473" cy="1136186" r="9334"/>
    </g>
    <g>
     <circle class="fil1" cx="149608" cy="1218264" r="9334"/>
     <circle class="fil1" cx="200742" cy="1218264" r="9334"/>
     <circle class="fil1" cx="251877" cy="1218264" r="9334"/>
     <circle class="fil1" cx="303011" cy="1218264" r="9334"/>
     <circle class="fil1" cx="354145" cy="1218264" r="9334"/>
     <circle class="fil1" cx="405280" cy="1218264" r="9334"/>
     <circle class="fil1" cx="456414" cy="1218264" r="9334"/>
     <circle class="fil1" cx="507549" cy="1218264" r="9334"/>
     <circle class="fil1" cx="558683" cy="1218264" r="9334"/>
     <circle class="fil1" cx="609817" cy="1218264" r="9334"/>
     <circle class="fil1" cx="660952" cy="1218264" r="9334"/>
     <circle class="fil1" cx="712086" cy="1218264" r="9334"/>
     <circle class="fil1" cx="763221" cy="1218264" r="9334"/>
     <circle class="fil1" cx="814355" cy="1218264" r="9334"/>
     <circle class="fil1" cx="865489" cy="1218264" r="9334"/>
     <circle class="fil1" cx="916624" cy="1218264" r="9334"/>
     <circle class="fil1" cx="967758" cy="1218264" r="9334"/>
     <circle class="fil1" cx="1018893" cy="1218264" r="9334"/>
     <circle class="fil1" cx="1070027" cy="1218264" r="9334"/>
     <circle class="fil1" cx="1121161" cy="1218264" r="9334"/>
     <circle class="fil1" cx="1172296" cy="1218264" r="9334"/>
     <circle class="fil1" cx="1223430" cy="1218264" r="9334"/>
     <circle class="fil1" cx="1274565" cy="1218264" r="9334"/>
     <circle class="fil1" cx="1325699" cy="1218264" r="9334"/>
     <circle class="fil1" cx="1376833" cy="1218264" r="9334"/>
     <circle class="fil1" cx="1427968" cy="1218264" r="9334"/>
     <circle class="fil1" cx="1479102" cy="1218264" r="9334"/>
     <circle class="fil1" cx="1530237" cy="1218264" r="9334"/>
     <circle class="fil1" cx="1581371" cy="1218264" r="9334"/>
     <circle class="fil1" cx="1632511" cy="1218264" r="9334"/>
     <circle class="fil1" cx="47339" cy="1218264" r="9334"/>
     <circle class="fil1" cx="98473" cy="1218264" r="9334"/>
    </g>
    <g>
     <circle class="fil1" cx="149608" cy="1300342" r="9334"/>
     <circle class="fil1" cx="200742" cy="1300342" r="9334"/>
     <circle class="fil1" cx="251877" cy="1300342" r="9334"/>
     <circle class="fil1" cx="303011" cy="1300342" r="9334"/>
     <circle class="fil1" cx="354145" cy="1300342" r="9334"/>
     <circle class="fil1" cx="405280" cy="1300342" r="9334"/>
     <circle class="fil1" cx="456414" cy="1300342" r="9334"/>
     <circle class="fil1" cx="507549" cy="1300342" r="9334"/>
     <circle class="fil1" cx="558683" cy="1300342" r="9334"/>
     <circle class="fil1" cx="609817" cy="1300342" r="9334"/>
     <circle class="fil1" cx="660952" cy="1300342" r="9334"/>
     <circle class="fil1" cx="712086" cy="1300342" r="9334"/>
     <circle class="fil1" cx="763221" cy="1300342" r="9334"/>
     <circle class="fil1" cx="814355" cy="1300342" r="9334"/>
     <circle class="fil1" cx="865489" cy="1300342" r="9334"/>
     <circle class="fil1" cx="916624" cy="1300342" r="9334"/>
     <circle class="fil1" cx="967758" cy="1300342" r="9334"/>
     <circle class="fil1" cx="1018893" cy="1300342" r="9334"/>
     <circle class="fil1" cx="1070027" cy="1300342" r="9334"/>
     <circle class="fil1" cx="1121161" cy="1300342" r="9334"/>
     <circle class="fil1" cx="1172296" cy="1300342" r="9334"/>
     <circle class="fil1" cx="1223430" cy="1300342" r="9334"/>
     <circle class="fil1" cx="1274565" cy="1300342" r="9334"/>
     <circle class="fil1" cx="1325699" cy="1300342" r="9334"/>
     <circle class="fil1" cx="1376833" cy="1300342" r="9334"/>
     <circle class="fil1" cx="1427968" cy="1300342" r="9334"/>
     <circle class="fil1" cx="1479102" cy="1300342" r="9334"/>
     <circle class="fil1" cx="1530237" cy="1300342" r="9334"/>
     <circle class="fil1" cx="1581371" cy="1300342" r="9334"/>
     <circle class="fil1" cx="1632511" cy="1300342" r="9334"/>
     <circle class="fil1" cx="47339" cy="1300342" r="9334"/>
     <circle class="fil1" cx="98473" cy="1300342" r="9334"/>
    </g>
   </g>
   <g>
    <g>
     <g>
      <path class="fil2" d="M920671 1038731c0,-8106 175,-13683 5712,-19967 8402,-9537 50179,-15102 50179,15435 0,10366 234,16757 -5979,25744 -18844,27251 -49912,-9257 -49912,-21212zm-24168 3022c0,12046 8297,22688 14725,29079 12604,12526 22458,14342 26059,19257 -7084,1892 -10176,6121 -14089,11590 -3479,4859 -1888,-1142 -2527,6537 7350,-1557 3088,-2845 4532,1511 12003,-999 6576,-13810 42832,3994 18024,8853 48585,27431 60838,9043 3538,-5311 6600,-12378 6600,-20590 -3760,-1517 -946,-34 -3258,-2785 -2881,-3428 2658,731 -2784,-3258l-12085 19638c-3456,-1658 -7034,-1287 -17249,-5409 -6029,-2436 -10976,-4401 -16205,-6453 -8245,-3233 -24965,-11637 -33009,-12307 3569,-4873 842,-1959 8095,-3988 36364,-10177 50614,-55306 33792,-77174 -5405,-7026 -4926,-6727 -12060,-12108 -20306,-15311 -50271,-4713 -68209,11083l-11000 13169c-3077,5801 -4998,10849 -4998,19171z"/>
      <path class="fil2" d="M1135064 1028157l9210 18105 -19679 658 -5054 208c1137,-5144 9702,-22281 12461,-26856l3062 7885zm49952 45859c-1375,-1484 -231,118 -2374,-2671l-8494 -15657c-6278,-12566 -24913,-47678 -27436,-56232 -721,-4182 -1745,-3306 -3991,-7551l-10573 0c-3670,6933 -6288,14121 -10063,21658 -6315,12605 -24746,60328 -35254,64983l-3182 2083 2069 7950 2821 0c7750,-3944 20840,-709 30146,-844l1235 -5198c-620,-2902 -183,-2423 -1367,-4532l-7553 -222 -4673 -1498 8017 -18976 35600 -8 1790 4088c577,1052 6614,12579 6720,13105 826,4072 -5366,4284 -14222,5021 1924,4010 1378,1617 1511,7553 1451,1212 1499,498 3020,1018l77783 -685 1645 -4864c1040,-4565 -517,-2744 -3900,-4309 -5392,-2237 -4758,-2451 -5032,-10733l376 -71112c185,-8206 1150,-12852 10698,-18584 -797,-2454 -404,-2053 -1511,-4022 -6358,531 -11721,4354 -17127,7042 -7237,3598 -11093,6897 -16104,8064 0,9700 3050,13647 3063,24126l-312 57173c-512,3616 -659,7875 -4669,8864 -3713,913 -6386,-3098 -8657,-5030z"/>
      <path class="fil2" d="M863270 1071963c-13853,0 -17918,-3885 -25679,-4531 1753,-6568 6148,-7631 10937,-11721 12399,-10592 9490,-9427 19274,-9427 10476,15644 4184,25679 -4532,25679zm18126 -74017c-5061,0 -10766,-3886 -15752,-5395 -24550,-7432 -65278,21155 -61973,42326 1766,11307 9991,17103 17303,28023l-10573 18126c9451,2523 -1981,2856 20237,8464 22198,5602 36484,6707 51899,-8834 34087,-34367 -3686,-57030 -17756,-57030 -2610,0 -11510,7931 -13989,10180 -4829,4383 -7867,7395 -13201,10967 -22015,-14741 -2155,-47077 35637,-23552 5582,3474 3904,3915 11190,3915 2809,-5309 12085,-23488 12085,-30210 0,-823 -2448,-6012 -9065,-7553 -660,2839 -3268,10573 -6042,10573z"/>
      <path class="fil2" d="M1430089 1088579c7541,-3503 19511,-1185 28337,-729 2165,-1649 895,-386 2725,-2461 30,-35 1609,-2202 1806,-2465l0 -3409 -4531 -1295c-5513,-2423 -5163,-3727 -5130,-12268 48,-12766 691,-32413 17752,-31833l2691 4612c5678,14155 1303,22910 1303,37764 -9322,6242 -7398,3644 -7552,10573 2164,1217 1733,835 4908,1511 7564,-3501 19486,-1160 28323,-744 1841,-1508 977,-591 2650,-2536 115,-132 1636,-2224 1883,-2546l0 -3238 -4533 -1230c-7373,-4276 -6250,-14990 -4361,-27355 1431,-9363 6402,-16010 15201,-17400l4933 5201c5365,9778 843,25882 843,37764 -9322,6242 -7398,3644 -7553,10573 2163,1215 1733,834 4900,1511 7782,-3615 19390,-611 28334,-1081l3153 -6472c-2399,-3180 -501,-1847 -4666,-3518 -4083,-2037 -4196,-2939 -3857,-9577 204,-4009 572,-8325 772,-12570 532,-11308 2372,-15116 -1730,-25693 -14639,-26751 -32301,-3482 -42011,3020 -2345,-8779 -9337,-12763 -16616,-16616 -4984,2392 -6084,1860 -11224,5393 -4611,3171 -4876,5249 -9454,6692l-4937 5763 615 -13315 -3983 -4262 -20865 10304c6465,13472 4532,32191 4532,49848 -9322,6242 -7399,3644 -7552,10573 2159,1215 1732,834 4894,1511z"/>
      <path class="fil2" d="M1543018 1131478c4969,-4258 1976,-7470 8476,-10276 9934,-4286 39878,-4522 50365,-3373l-719 3981c-2333,5053 -4043,6887 -5255,12085 2254,1267 1768,836 5154,1511 4087,-5018 14761,-21294 15418,-30212 -2064,-4883 -1832,-3674 -6757,-4740 -14909,-3230 -21841,-28 -34961,309l-9655 840c10444,-9507 23685,-18885 32292,-28175 9520,-10275 21013,-18398 19105,-39229 -770,-8829 -13864,-14564 -20596,-18127 -10750,9346 -26175,8652 1511,27191 0,8985 -1926,18933 -9059,24169 -2268,2021 2918,1734 -2829,1691 -3940,-11701 -18026,-31301 -18099,-42476 3873,-4136 5796,-5249 10351,-8166 -2201,-2848 -319,574 -1511,-3918 -8940,199 -27980,10576 -34744,15105 9838,18588 18859,37289 28701,55890 -31542,21122 -26696,33333 -31721,43806l4533 2114z"/>
      <path class="fil2" d="M1287734 1079515l-1511 1511c337,4048 -842,2059 1153,4910 2103,3010 2775,1845 3380,2112l30210 -697c1367,-832 1124,-534 2520,-2229 562,-686 1477,-2008 2012,-2698 -1687,-4474 918,-1883 -4532,-4115l-4248 -1989c-3062,-16947 -2722,-35276 13695,-43264l6206 5675c4764,10442 1666,35292 -1093,38728 -4186,5210 -5271,-546 -5496,9609 2141,1204 1724,833 4841,1511 8264,-3859 20316,-127 29779,-1288l2447 -7776c-2409,-975 -2532,-952 -5345,-2120 -5039,-2346 -3920,-4557 -3560,-11450 229,-4408 457,-8961 781,-13360 790,-10743 1874,-13591 -1967,-22917 -2578,-4458 -10997,-13644 -17430,-13013 -3509,345 -7691,3084 -10192,4815 -4299,2977 -5264,4062 -9615,6687 -2211,4672 -16,2079 -4433,5492 -786,-7659 886,-23559 985,-32687 152,-14186 1395,-17549 10688,-23073 -794,-2538 -384,-2103 -1511,-4112 -6360,531 -11722,4354 -17127,7042 -7238,3598 -11095,6897 -16106,8064 150,6750 2560,13306 3026,19634l-2 58916c-445,5880 -1363,3861 -1513,10572l-6042 1510z"/>
      <path class="fil2" d="M1085718 1088579l-2069 -7950 3182 -2083c0,-10963 5695,-22782 -9063,-26220 -534,6424 -4260,17259 -8734,19967 -5811,3518 -18377,2692 -27520,2692 -6642,-13846 -3442,-53197 0,-67976 6696,-1559 7037,-1150 12085,-4531 -1576,-6765 -3004,-4851 -4532,-10573 -6962,0 -7975,1597 -24210,1553 -8811,-24 -13648,-1553 -24127,-1553 -1691,7258 -2632,6926 559,10015 4369,4232 8221,4019 11526,6600 0,21018 2704,49880 -1511,67975 -4153,967 -7931,2052 -12085,3020 0,22853 26387,6362 63324,10693 9505,1114 13411,3955 23175,-1629z"/>
      <path class="fil2" d="M1392496 1043263l-5222 3297c392,-8759 759,-11980 6199,-16233 1663,414 3709,696 5308,1504 5180,1823 2924,2246 4194,3879 658,1209 -31,1701 1071,3021 -5490,1280 -6459,3104 -11550,4532zm-8087 43681c15097,4828 30271,-4184 37264,-12466 3565,-4223 1296,391 2571,-5535l-3853 -4279c-19511,12577 -16201,6080 -25408,1713 -4297,-3933 -4333,-4255 -6096,-11030l34670 -16661 1019 -7507c-808,-1997 258,-525 -1333,-2629 -9670,-12791 -21329,-17389 -34589,-6721l-11437 9709c-2021,2278 -1797,2615 -3816,5248 -2465,3214 -2470,2559 -3986,6589 -4903,13030 1287,40464 14994,43569z"/>
      <path class="fil2" d="M1249971 1088043c11340,1984 15725,488 23516,-4616 2826,-1851 5194,-4007 7526,-6061 3784,-3333 5289,-3528 6582,-8423l-3087 -4367c-14181,7305 -15769,11534 -25626,1692l-1359 -1210c-2199,-2026 -3202,-2028 -4860,-7801 -2870,-9990 -2339,-20052 3562,-27160 6118,2031 5183,954 7964,5613 5218,5291 1356,7470 8440,8835 6300,-1538 10888,-3398 14934,-7323l-28 -7554c-3187,-5456 -14608,-16331 -24192,-13943 -8585,2560 -18800,12007 -24344,18076 -17148,18772 -2550,52988 10972,54242z"/>
      <path class="fil3" d="M1574739 1100763l14764 -12525c25412,-24169 30552,-26643 30552,-52528l-3574 -1511c1908,20831 -9585,28954 -19105,39229 -8607,9290 -21848,18668 -32292,28175l9655 -840z"/>
      <path class="fil3" d="M1224291 1078228c-3489,-16035 -1698,-61138 -67,-80348 1685,-19813 11660,-10867 6109,-20081 -9548,5732 -10513,10378 -10698,18584l-376 71112c274,8282 -360,8496 5032,10733z"/>
      <path class="fil3" d="M1148763 1088086l3022 3514 77037 0 3104 -5998c-2808,-4898 -802,-1474 -3735,-3065l-1645 4864 -77783 685z"/>
      <path class="fil3" d="M1543018 1131478l2841 2641c8313,-5704 1043,-8860 23167,-11980 11579,-1631 21925,-2259 32114,-329l719 -3981c-10487,-1149 -40431,-913 -50365,3373 -6500,2806 -3507,6018 -8476,10276z"/>
      <path class="fil3" d="M1319769 1028157c-1559,-19365 1088,-18495 1213,-28684 259,-21171 11898,-12185 6027,-21584 -9293,5524 -10536,8887 -10688,23073 -99,9128 -1771,25028 -985,32687 4417,-3413 2222,-820 4433,-5492z"/>
      <path class="fil3" d="M1394983 1066377c-772,-3796 -1159,-3779 -1510,-8008l29781 -14025c6057,-3406 6420,-9182 3326,-11656l-2004 -1509 -1019 7507 -34670 16661c1763,6775 1799,7097 6096,11030z"/>
      <path class="fil3" d="M1111000 1077783c1330,-2537 2156,-5201 3457,-8401 2112,-5192 1391,-3954 4096,-7993l33181 0 -1790 -4088 -35600 8 -8017 18976 4673 1498z"/>
      <path class="fil3" d="M1458426 1078220c-2333,-10693 -1615,-12408 -22,-22895 1935,-12732 3743,-8614 9086,-16594l6249 0 -2691 -4612c-17061,-580 -17704,19067 -17752,31833 -33,8541 -383,9845 5130,12268z"/>
      <path class="fil3" d="M1500721 1078285c-3013,-6948 -1231,-18386 91,-25869 955,-5411 1455,-5335 4751,-8843 3783,-4028 3498,-4842 10931,-4842l-4933 -5201c-8799,1390 -13770,8037 -15201,17400 -1889,12365 -3012,23079 4361,27355z"/>
      <path class="fil3" d="M1249971 1088043l1556 3534c21259,1828 14540,2947 34696,-10551l1511 -1511c1647,-3112 2095,-3579 3022,-7552 -216,-284 -655,-1010 -759,-754l-2402 -2266c-1293,4895 -2798,5090 -6582,8423 -2332,2054 -4700,4210 -7526,6061 -7791,5104 -12176,6600 -23516,4616z"/>
      <path class="fil3" d="M1320966 1078309c-3289,-7647 -3377,-28198 7413,-38206 2199,-2041 2642,-1372 8240,-1372l-6206 -5675c-16417,7988 -16757,26317 -13695,43264l4248 1989z"/>
      <path class="fil3" d="M1384409 1086944c6162,8876 18953,6386 27182,1627 5152,-2981 20333,-12132 12653,-19628 -1275,5926 994,1312 -2571,5535 -6993,8282 -22167,17294 -37264,12466z"/>
      <path class="fil3" d="M1541505 1077508c0,-10731 1519,-16203 1555,-25140 46,-11444 807,-18034 -6370,-22700 4102,10577 2262,14385 1730,25693 -200,4245 -568,8561 -772,12570 -339,6638 -226,7540 3857,9577z"/>
      <path class="fil3" d="M1588337 1067432l-4542 -7546c-3094,-6308 -13418,-24117 -12078,-28707 3653,-5456 9589,-6568 6043,-12698 -4555,2917 -6478,4030 -10351,8166 73,11175 14159,30775 18099,42476 5747,43 561,330 2829,-1691z"/>
      <path class="fil3" d="M1361752 1077395c0,-15372 6510,-40196 -4746,-47727 3841,9326 2757,12174 1967,22917 -324,4399 -552,8952 -781,13360 -360,6893 -1479,9104 3560,11450z"/>
      <path class="fil3" d="M1185016 1074016l-34124 -70604c-2404,-3852 -579,-1828 -4180,-3956 2523,8554 21158,43666 27436,56232l8494 15657c2143,2789 999,1187 2374,2671z"/>
      <path class="fil3" d="M1334871 1088579l1268 2987c9597,34 24637,1891 31654,-1477 2760,-5752 1736,-5486 -696,-10574l-2447 7776c-9463,1161 -21515,-2571 -29779,1288z"/>
      <path class="fil3" d="M1514684 1088579c687,1160 90,1760 1142,3021 7572,0 15185,109 22742,83 4541,-14 7508,384 9530,-2729 3150,-4847 229,-6249 -1927,-7928l-3153 6472c-8944,470 -20552,-2534 -28334,1081z"/>
      <path class="fil3" d="M1472398 1088579c682,1165 76,1754 1134,3021 15499,0 27753,2435 34048,-3715 155,-152 449,-557 694,-817l-1012 -1993c-2541,-3477 -130,-384 -2008,-2322 -247,322 -1768,2414 -1883,2546 -1673,1945 -809,1028 -2650,2536 -8837,-416 -20759,-2757 -28323,744z"/>
      <path class="fil3" d="M1601039 1135406c2118,4995 -2700,-1277 889,3021 16007,-8471 19073,-34623 17353,-30963l-2824 -2270c-657,8918 -11331,25194 -15418,30212z"/>
      <path class="fil3" d="M1430089 1088579c688,1158 98,1765 1147,3021l31721 0 3104 -5998 -3104 -2678c-197,263 -1776,2430 -1806,2465 -1830,2075 -560,812 -2725,2461 -8826,-456 -20796,-2774 -28337,729z"/>
      <path class="fil3" d="M1088539 1088579l1405 2971c6977,50 14038,46 21106,101 9546,73 11821,434 12034,-9114l-3164 0 -1235 5198c-9306,135 -22396,-3100 -30146,844z"/>
      <path class="fil3" d="M1290756 1088048l1556 3529c12107,23 24800,819 34697,-1488 0,-1106 106,-3399 -126,-4414 -649,-2822 -415,-1650 -1385,-3251 -535,690 -1450,2012 -2012,2698 -1396,1695 -1153,1397 -2520,2229l-30210 697z"/>
      <path class="fil3" d="M1257523 1065058c-3209,-16604 -3810,-12993 0,-29348l6666 0c-2781,-4659 -1846,-3582 -7964,-5613 -5901,7108 -6432,17170 -3562,27160 1658,5773 2661,5775 4860,7801z"/>
      <path class="fil3" d="M1124595 1046920c1471,-3475 2410,-6246 4044,-10191 363,-875 2072,-4647 2398,-5160 1783,-2810 745,-2178 4027,-3412l-3062 -7885c-4333,4575 -11324,21712 -12461,26856l5054 -208z"/>
      <path class="fil3" d="M1272629 1044545c3758,7370 14223,-180 18127,-2792 0,-7554 871,-8328 -1552,-10574l-1669 -1511 28 7554c-4046,3925 -8634,5785 -14934,7323z"/>
      <path class="fil3" d="M1392496 1043263c364,-5713 1248,-4958 3998,-9064l6481 1511c-1270,-1633 -588,-2056 -4194,-3879 -1599,-808 -3645,-1090 -5308,-1504 -5440,4253 -5807,7474 -6199,16233l5222 -3297z"/>
      <path class="fil3" d="M1457385 1028157c-1265,-5908 -860,-4279 -4322,-7552l-615 13315 4937 -5763z"/>
     </g>
     <g>
      <path class="fil2" d="M199833 1169367c13181,0 21162,1306 33969,1306l-33969 -1306zm-9145 -1307l5226 0 0 1307 -5226 0 0 -1307zm-9146 -1308l5227 0 0 1308c-729,0 -2134,26 -2526,-87 -2312,-667 -1451,-427 -2701,-1221zm5227 -2611l3919 0 0 1305 -3919 0 0 -1305zm-6534 -1308l5226 0 0 1308c-727,0 -2132,25 -2525,-87 -2311,-667 -1450,-427 -2701,-1221zm49648 -1306l389 389c-25,-25 -519,-259 -389,-389zm-6532 0l389 389c-25,-25 -519,-259 -389,-389zm-43116 1306l-3919 0 0 -1306c6907,0 1947,9 3919,1306zm36583 -2613l0 1307 -1524 -1089 1524 -218zm-54873 -1306c4208,981 5753,1797 9689,3376 2276,912 2980,1103 4711,1821l5197 2641c-8659,0 -13515,-3504 -20904,-5225l1307 -2613zm54873 1306l0 -1306 1524 1088 -1524 218zm-60099 -1306l389 389c-26,-25 -520,-259 -389,-389zm58793 -1307l0 1307 -1526 -1089 1526 -218zm-9147 0l0 1307 -1524 -1089 1524 -218zm-40501 0l390 390c-26,-26 -519,-260 -390,-390zm-3919 1307l-2614 -1307 2614 1307zm-7840 -1307l391 390c-27,-26 -521,-260 -391,-390zm94069 -1306c6101,0 15920,-2407 19597,2613 -7559,0 -10869,-1307 -19597,-1307l0 -1306zm-32662 1306l2547 -1502 -2547 1502zm-9147 0c2293,-3422 662,-2700 5227,-3919l0 5226 -5227 -1307zm-47034 0l-2808 -718 2808 718zm-7839 -1306l391 389c-27,-25 -521,-259 -391,-389zm2613 -1307l391 390c-27,-26 -521,-259 -391,-390zm-2613 -1306l1306 0 -1088 1524 -218 -1524zm-5226 0l390 389c-26,-25 -519,-260 -390,-389zm5226 0l-2613 -1307 2613 1307zm3919 -2613l391 390c-27,-26 -520,-261 -391,-390zm-6532 1306l-2809 -718 2809 718zm105828 -6532l1306 0 -1089 1524 -217 -1524zm-86230 -7839l2809 718 -2809 -718zm-14372 -1307l2809 720 -2809 -720zm0 0l-2809 -719 2809 719zm14372 1307c-4565,-1219 -2933,-497 -5226,-3920l5226 0c-1459,3403 -1378,584 0,3920zm-14372 -7839l391 389c-27,-25 -521,-259 -391,-389zm1306 -6533l2810 719 -2810 -719zm-9145 0l5175 1466c-1129,574 1969,1827 -2441,842 -2304,-514 -1418,-513 -2734,-2308zm9145 0l-3919 0 0 -1306c6907,0 1947,9 3919,1306zm-9145 0l-2809 -718 2809 718zm-19598 -2613c8057,0 7788,2065 14372,2613l0 2613c-16650,0 -12759,-2158 -14372,-5226zm-18290 -1306c5991,3170 4283,860 6980,4778l5346 6411c190,190 464,465 646,661 3306,3549 1904,3418 7045,6020 4954,2507 4513,1306 7419,5647 -9707,-216 -9592,-4812 -15437,-9386 -5013,-3921 -10169,-7273 -11999,-14131zm0 0l-1307 -1307 1307 1307zm30049 -2613l390 389c-26,-25 -520,-260 -390,-389zm6533 -2613l389 390c-25,-26 -519,-261 -389,-390zm-3920 -1306l2809 718 -2809 -718zm0 0l-1306 0 1089 -1525 217 1525zm-22211 -6534l390 390c-26,-25 -519,-259 -390,-390zm-19596 -1306c4249,2846 7291,6504 7838,13065 -203,-233 -525,-900 -602,-704l-7236 -12361zm-5228 -7839c3789,2538 4030,2702 5228,7839 -2636,-1931 -4250,-4181 -5228,-7839zm37890 16985c-2464,-1650 -2558,-1846 -5727,-3489 -1895,-982 -708,54 -2593,-1269 -2115,-1483 -946,-930 -1563,-2086 -3248,-6095 2890,3435 -930,-1930l-6172 -8211c3264,-760 3582,-1659 5745,-2107 3975,-824 2112,367 7321,800 -249,216 -687,176 -787,597 -274,1167 -4956,1811 -1530,6899 2828,4198 5776,5274 6236,10796zm-40502 -20904c2811,1953 1720,191 2612,3919 -2811,-1954 -1720,-191 -2612,-3919zm0 0l-1307 0 1089 -1525 218 1525zm44421 -3920l1503 2548 -1503 -2548zm-47034 0l1306 0 -1089 1524 -217 -1524zm45728 -2613l1306 2613 -1306 -2613zm-47035 0l1307 2613 -1307 -2613zm-1306 -2613l1306 2613 -1306 -2613zm0 0l-1503 -2547 1503 2547zm16985 -6533c6755,562 4108,2443 11758,2614l719 -2810c828,11009 3781,4537 5813,13262l-15668 -7850c-2113,-2003 -1602,-3275 -2622,-5216zm-19598 1306l389 391c-25,-27 -519,-260 -389,-391zm2613 -1306l389 389c-25,-25 -519,-258 -389,-389zm27437 -2613l389 390c-25,-26 -519,-259 -389,-390zm-28744 0l1307 0 -1089 1525 -218 -1525zm28744 -3919l-1307 0 1089 -1525 218 1525zm-32663 -5226c3081,2257 3501,4121 3919,9145 -2702,-3109 -3517,-4315 -3919,-9145zm19597 0l8141 7537c-2684,1483 -1936,1309 -5527,1608 -457,-5492 -1486,-4304 -2614,-9145zm19598 1306c-3199,-2343 -2812,-1778 -3920,-6532 3199,2343 2812,1778 3920,6532zm-41808 -6532c1336,-1442 1306,2285 1306,-3919 304,334 1706,600 2207,3127 1150,5801 62,2132 -900,3405l0 2613 -1307 -2613 -1306 -2613zm-1306 -2613l1306 2613 -1306 -2613zm39194 0l1307 0 -1089 1524 -218 -1524zm2613 -1306l390 389c-26,-25 -519,-260 -390,-389zm-41807 1306l-1503 -2548 1503 2548zm2612 -1306l-1502 -2548 1502 2548zm22210 -6534l1308 0 -1089 1526 -219 -1526zm0 0l-1306 -1306 1306 1306zm0 -3919l1308 0 -1089 1524 -219 -1524zm2614 -1307l1307 0 -1089 1525 -218 -1525zm-30049 0c0,-3267 2084,-305 803,0 -16,4 -803,3696 -803,0zm7838 -1306c1015,-1015 4463,797 2059,1650 -1561,554 -3066,-642 -2059,-1650zm2613 -2613l1307 0 -1089 1524 -218 -1524zm0 0l-2809 -719 2809 719zm-2613 -11758l3920 0c-2930,4057 -990,4057 -3920,0zm10452 -2613l5226 0c-1343,5030 -347,3919 -6532,3919l0 -1306c1531,0 2231,497 2794,-491l-1488 -2122zm52261 -1306c0,-3269 2084,-307 803,0 -16,3 -803,3694 -803,0zm-2613 0c0,-3269 2084,-307 803,0 -16,3 -803,3694 -803,0zm2613 28743l0 2613c2383,-1182 1634,-1008 5225,-1307l0 2613c-3819,915 -1882,-168 -3919,2613 0,6907 10,1948 1307,3919 892,-3728 -199,-1965 2612,-3919 1504,6454 5076,16759 5226,23517 866,996 866,367 1716,2206 1219,2639 335,603 898,3020l-2614 0 0 3920c5415,1445 2553,723 5266,3977 4608,5526 2094,-2131 12503,13530 1417,2132 2145,3502 3638,5509 1709,2301 3810,3651 4855,5400 1912,3201 1412,10550 19625,17152 12913,4682 3936,578 12332,7268 5759,4588 23914,8583 28012,11182 -11488,2677 -18613,-3524 -30030,-6584 -7318,-1962 -6796,-1836 -10472,1358l-2613 -1306c-3865,1032 -2118,531 -5226,2613 -8239,-5517 1768,-2279 -9169,-5309 -2586,-717 -4648,1959 -2590,-7756l-5226 0 2613 -3920c-4739,-3172 -14739,-15726 -31356,-19597 261,-172 625,-803 774,-530l4451 -776c-318,-14328 -8517,-6292 -15677,-16986 5618,-467 2354,185 6532,-2613 -1350,-5795 -4911,-8923 -9145,-11758l0 2613c-4179,-2798 -916,-2146 -6532,-2613 0,6908 -10,1948 -1308,3920 -2279,-5649 -4652,1177 -6674,-7697 -1039,-4562 -421,-4261 -4225,-7533l-2165 -1755 5225 0c990,-1760 714,-1445 1307,-3920 8307,-690 5889,-232 7840,-3919 -1125,-1678 -1004,-1297 -2254,-2975 -1415,-1900 -1545,-2671 -2714,-3918 -2985,-3183 -1332,-841 -4334,-1852 -145,-48 -517,-133 -652,-192 -123,-55 -1779,-1487 -1806,-1515l0 5226c-5182,3797 -1295,5879 -9145,6532l1505 -7795 -4118 -43 0 7838c-6908,0 -1948,10 -3920,1307 -9095,-2429 2729,-5975 -9145,-9145 3235,-4833 7435,-7214 8620,-3517 1276,3984 110,1363 -2088,2210 463,5568 711,6633 5227,7839l0 -10452 7795 -1505 -3876 -3722 3920 0 -2613 -3919 -1307 -1307 -5176 -1466 2563 4079 -2614 1307 -2611 0 1305 2613c-3113,-725 -6569,-1377 -9145,-2613 1080,-9875 1532,2036 2612,-7839 3114,-725 6570,-1378 9147,-2613 -171,-7650 -2052,-5003 -2614,-11759 15210,0 7027,-3456 15734,-5738 4075,-1068 2485,404 3864,-3407 3076,717 3859,1218 7840,1306 1032,-2079 1338,2404 0,-3919 6153,-512 11403,-2613 18290,-2613l0 11758c-3341,-1209 -1421,-698 -2613,-1307 -1191,-608 728,-96 -2613,-1306 -601,2578 -2205,6627 -1122,10396 1766,6151 1536,492 6348,-1250 2094,4364 1210,5853 1262,11804 55,6463 1220,5864 1351,11714 -161,88 -458,12 -506,221l-3413 2392zm-56180 -39196l-1785 829c-4748,1954 -3744,638 -4748,4396 -5477,-454 -5454,-975 -7976,-3781l-1169 -1444c1263,-1724 -326,-35 1814,-2105l2106 -1815c-8050,0 -7267,-272 -9068,6610l-1385 3842c-1270,-5456 -3796,-12968 13065,-14371l0 5226 9146 2613zm82310 -13065l0 2613 -2613 -2613 2613 0zm-2613 0l-1306 0 1088 -1524 218 1524zm-31356 -3919l-2803 -3764c21094,-5518 33669,7038 -12337,14754 -10350,1734 -10798,438 -18829,4687 -1140,-4264 -5422,-8343 -7840,-9145l0 6532c4754,1108 4189,721 6532,3920 -8043,1875 -5214,5257 -13064,0l-2613 -10452c10329,0 15543,-4454 24824,-5226l1685 -929c1818,-680 7,-97 1928,-683l15983 -3614 0 5226c5136,-115 3066,357 6534,-1306zm-15679 -7840l1307 0 -1089 1524 -218 -1524zm-23517 0c1353,-1353 4725,1903 1503,700 -31,-12 -3695,1493 -1503,-700zm23517 0l-2613 5226c-5077,-1355 -4871,-3671 -9145,-6533l0 3921c-3810,-1829 -4305,-848 -7840,-3921 8347,0 11978,-3285 19598,-3919l0 5226zm-26130 -7839l7840 0 0 1307 -7840 0 0 -1307zm7840 -5226c6861,153 4989,1341 10452,2613l-2183 3404c-43,128 -99,537 -133,652 -30,105 -124,512 -146,595 -21,80 -67,396 -151,575 -8156,-1899 -6187,-4138 -7839,-7839zm0 -7838l389 388c-25,-24 -520,-259 -389,-388zm-7840 -15679l0 3919 -7839 0c2672,-5050 288,-3919 7839,-3919zm159395 192057c-6546,5677 -6602,8730 -30459,-899 -9001,-3632 -13069,-5908 -20924,-10431 -6750,-3888 -11597,-7909 -16884,-13165 -1565,-1555 -2524,-2337 -3831,-4009 -15769,-20149 -22697,-25169 -28836,-56088 -1547,-7791 -6716,-49990 -3588,-56511 4580,-2197 6423,-1256 11276,480 5111,1827 5664,2133 12242,2133 -505,-6068 1402,-2285 -2613,-5226 -5280,-7886 -18881,-8942 -27905,-13903l-12305 -8601c-3597,-3019 -11093,-2592 -15970,-4933 -2436,-5896 3988,-7948 -9178,-7807 -11435,122 -6679,-2487 -6499,-10484l-4937 -5516c-5637,410 -5974,1070 -9436,2903 0,9976 2254,6675 6533,13064 -2669,3986 -5238,5224 -9146,7840 158,7050 4446,11292 -5207,14389 -3484,1118 -3249,-22 -6689,3766l-1169 1443c1033,3865 532,2117 2613,5226 -17219,9110 -11884,17939 -8344,26635 9034,22188 8688,52333 36864,89867 22725,30275 46187,47578 85879,55224 27991,5393 51133,3718 78887,655 3829,-422 6950,-2284 11066,-3335 7880,-2013 6554,-432 11205,-511 4572,-77 5708,-1921 11225,-3161 6561,-1473 5903,-669 11003,-3367 0,-16595 -10987,-1832 -20904,-10452 -4401,2947 -4989,3944 -10397,2667 -6195,-1461 -7975,-1361 -15734,-1361 1429,-5350 4888,-5594 6533,-11758 -7116,-3415 -11232,539 -14371,5226z"/>
      <path class="fil2" d="M534300 973390c8711,2029 13065,4885 13065,15677l0 81004c0,4532 -948,8583 -3599,10774 -4972,4108 -6646,-442 -6853,8824 19,4 41808,2174 41808,-2613 0,-4185 -3978,-4393 -6806,-4953 -5847,-1157 -4430,-535 -8872,-2887 0,-11340 -2738,-16133 1763,-20435 8423,-8053 10904,934 16781,9732 3404,5096 6850,8759 10198,13319 2905,3954 6747,9848 14023,8925 5797,-735 15536,-1062 21254,-2394 -233,-10506 -3485,-4462 -12608,-8296 -6740,-2831 -17376,-16439 -21904,-22517 -4177,-5607 -5374,-7506 -8603,-13609 4214,-6293 17028,-15201 25811,-17305 4858,-1163 10772,522 10772,-4906 0,-6111 -10139,-3921 -22211,-3919l-18070 -517c-3233,967 -2835,4140 -2835,5744 2683,1285 7163,1846 10453,2613 -550,6602 -9629,11427 -16622,17348 -2591,2193 -7544,7883 -9330,2187l-178 -87475c-6378,-1350 -5619,84 -14383,5215 -6263,3665 -12357,2084 -13054,10464z"/>
      <path class="fil2" d="M237722 990374c0,15052 2841,84008 -3648,90422 -5166,5107 -9197,-1026 -9417,8873 11661,0 48341,2573 48341,-2613 0,-4668 -4283,-4220 -8146,-4919 -6733,-1219 -5754,-1286 -10145,-4227l0 -45727c7877,0 23049,-1041 27201,4155 2836,3549 2554,14623 8800,11187 3785,-2083 1320,-9131 1390,-12489l1804 -23758 -5188 -2684c-4765,7140 -1738,5788 -5264,13136 -9906,2308 -16911,1308 -28743,1308l0 -45729c50005,0 35580,1033 45222,13655 2133,2792 -1803,1800 3177,2084 5771,331 3388,-6619 3858,-13131 492,-6843 5487,-14696 -6171,-12851 -13776,2181 -49649,1098 -65684,1098 -5051,0 -7260,-2498 -9498,-261 -7579,7580 12111,3470 12111,22471z"/>
      <path class="fil2" d="M397116 1072684c0,-15168 26131,-20304 26131,-13064l0 15678c-13383,8960 -17964,5468 -26131,0l0 -2614zm-12367 -41003c-1514,2057 1356,7034 3912,7034l6527 0c3445,0 5182,-3666 7181,-6506 1794,-2548 3439,-5238 5199,-7866 16333,0 15679,7704 15679,22211 -8115,5435 -12502,3124 -25627,8343 -11455,4553 -21706,12345 -16054,25498 1043,2425 -378,-61 1374,2546 9393,13985 29480,5924 40307,196 4048,2711 7566,11212 20659,3674 2121,-1221 8084,-3984 8084,-6287 0,-10023 -13603,2896 -14487,-9030 -524,-7062 115,-17479 115,-24940 0,-11795 2897,-31356 -18291,-31356 -9308,0 -25403,5545 -32319,13409l-2259 3074z"/>
      <path class="fil2" d="M323952 970777c0,8139 13065,-265 13065,22211l0 78390c0,16572 -9482,6620 -10453,18291 19,4 41809,2174 41809,-2613 0,-6554 -3219,-803 -15679,-9146 0,-9125 -1306,-12749 -1306,-22210 0,-18907 -1188,-74215 1092,-89196 2547,-16739 -13469,-4218 -15966,-2764 -2986,1740 -12562,4168 -12562,7037z"/>
      <path class="fil2" d="M468974 1034796c0,20545 15447,20594 29218,28269 22209,12374 -2984,26899 -20350,13817 -6022,-4535 -3786,-8784 -11481,-9424 -4037,17330 -903,23518 24824,23518 33767,0 36045,-28136 20402,-38694 -16223,-10949 -29548,-7436 -29548,-24019 19721,-13204 29823,9146 32663,9146 4452,0 4269,-3019 3505,-7275 -2306,-12859 -2462,-14936 -24409,-14936 -13206,0 -24824,6465 -24824,19598z"/>
      <path class="fil2" d="M134508 1055700c0,2105 687,4914 1380,6457 1555,3461 1384,2988 5152,3995 0,-15553 -617,-6895 -2613,-14371l-2613 0c-406,1531 -1306,3561 -1306,3919z"/>
      <path class="fil2" d="M113604 1041328l-2809 -719 2809 719zm-5226 -2613l1306 0 -1089 1524 -217 -1524zm-1307 3919l1307 1307 9084 2795 -3858 -5408 3919 0c-234,-203 -588,-837 -701,-611 -112,229 -540,-503 -702,-614 -2000,-1373 -427,-662 -2497,-1579 -4515,-1998 -4522,-357 -5245,191l-2613 0c917,3459 -104,1074 1306,3919z"/>
      <path class="fil2" d="M107071 1003440c4186,-975 2688,-897 7887,-1259 6778,-471 3489,1427 6484,-2661l-10451 0c-234,203 -627,179 -725,581 -167,678 -1159,1004 -1383,1231 -1853,1892 -608,465 -1812,2108z"/>
      <path class="fil2" d="M118829 1038715c-243,-508 -1053,-2730 -1100,-2817l-6738 -6328c1501,6440 1215,7603 7838,9145z"/>
      <path class="fil2" d="M176316 1122332c-1197,-5138 -1437,-5302 -5226,-7839 235,2814 112,4297 2643,6502 1454,1264 120,445 2583,1337z"/>
      <path class="fil2" d="M105765 1006052c-3468,-1664 -1399,-1191 -6532,-1306 2922,4366 3170,5895 6532,1306z"/>
      <path class="fil2" d="M155411 1089669l0 -5226 -2544 -1419c81,6827 -1250,3864 2544,6645z"/>
      <polygon class="fil2" points="109684,1059620 110991,1059620 110991,1055700 109684,1055700 "/>
      <path class="fil2" d="M144960 1054394l0 -3921 -1307 0c0,6909 10,1949 1307,3921z"/>
      <path class="fil2" d="M164558 1106653c274,1492 2871,2857 1757,265 -470,-1095 -2385,-3657 -1757,-265z"/>
      <path class="fil2" d="M137121 998214l6532 -2614c-5618,468 -2354,-184 -6532,2614z"/>
      <path class="fil2" d="M116216 1030876c0,1535 2812,2943 2023,0 -791,-2951 3324,-35 -604,-387 -1645,-147 -1419,-2269 -1419,387z"/>
      <path class="fil2" d="M112297 1051781c0,3245 2089,334 811,0 -16,-5 -811,-3708 -811,0z"/>
      <path class="fil2" d="M130587 1053087c0,3246 2090,334 812,0 -17,-5 -812,-3707 -812,0z"/>
      <path class="fil2" d="M156719 1097508c0,3246 2089,334 809,0 -16,-4 -809,-3707 -809,0z"/>
      <polygon class="fil2" points="198527,1151075 199833,1151075 198744,1149551 "/>
      <polygon class="fil2" points="107071,1003440 105765,1003440 106853,1004964 "/>
      <polygon class="fil2" points="147573,1064845 147573,1066152 149097,1065063 "/>
      <polygon class="fil2" points="117523,1041328 117523,1042634 119047,1041546 "/>
      <path class="fil2" d="M125362 1081830c130,130 389,-573 389,-390l1 1c-26,25 -520,259 -390,389z"/>
      <path class="fil2" d="M138427 1041328l390 -390c-26,26 -520,261 -390,390z"/>
      <path class="fil2" d="M168477 1113187l390 -390c-26,25 -521,259 -390,390z"/>
      <path class="fil2" d="M148879 1071378l391 -390c-27,26 -520,260 -391,390z"/>
      <polygon class="fil2" points="80941,1063539 79634,1063539 "/>
     </g>
     <path class="fil4" d="M706741 1088104l19202 0 0 -33074 33073 0 0 -19201 -33073 0 0 -33074 -19202 0 0 33074 -33074 0 0 19201 33074 0 0 33074zm9600 0m9602 -16538m16536 -16536m16537 -9601m-16537 -9600m-16536 -16538m-9602 -16536m-9600 16536m-16537 16538m-16537 9600m16537 9601m16537 16536"/>
    </g>
    <g>
     <path class="fil5" d="M526107 293220l-4870 22117c-6704,-1662 -13408,-2521 -20112,-2521 -10314,0 -17304,4068 -20913,12205 -3668,8137 -5444,24868 -5444,50251 11058,0 26586,-515 46469,-1662l-974 25040c-22633,-688 -37817,-1032 -45495,-1032 0,50939 630,95517 2006,133792l-30083 0c1604,-37245 2408,-81879 2408,-133792 -6876,0 -18795,344 -35755,1032l1146 -24695c15470,915 26986,1317 34609,1317 0,-29624 4125,-51224 12376,-64690 8308,-13465 21486,-20226 39650,-20226 7906,0 16272,973 24982,2864zm133154 238190l-32201 0c2006,-36958 2979,-78671 2979,-125255 0,-45208 -1604,-82166 -4870,-110929l34092 -1662c-2119,30425 -3151,67956 -3151,112591 0,46011 1032,87782 3151,125255zm232069 0l-26358 1032c-1317,-5502 -2005,-10715 -2005,-15644l-1661 0c-13810,12550 -32547,18794 -56267,18794 -12893,0 -23944,-3806 -33234,-11344 -9260,-7517 -13923,-18279 -13923,-32317 0,-17190 7270,-31080 21831,-41540 14534,-10441 41541,-15929 81077,-16503 344,-2693 516,-5787 516,-9225 0,-13808 -3674,-22984 -11001,-27560 -7328,-4577 -18451,-6876 -33347,-6876 -17593,0 -34839,2176 -51857,6532l2866 -23149c16788,-4812 36098,-7220 57871,-7220 19939,0 35373,4116 46183,12320 10835,8227 16273,22288 16273,42057 0,5272 -230,14840 -747,28649 -515,13808 -744,23034 -744,27618 0,20341 1491,38505 4527,54376zm-29739 -32545c-515,-17018 -801,-32317 -801,-45840 -21029,0 -37114,1439 -48017,4699 -18363,5493 -27560,16274 -27560,32031 0,15241 10772,22862 32260,22862 18450,0 33175,-4585 44118,-13752zm164399 32545l-32201 0c2005,-36958 2979,-78671 2979,-125255 0,-45208 -1604,-82166 -4870,-110929l34092 -1662c-2120,30425 -3151,67956 -3151,112591 0,46011 1031,87782 3151,125255zm240514 76378l-29851 0c972,-30654 1489,-60964 1489,-90990l-1833 0c-11517,12778 -29108,19139 -52715,19139 -21143,0 -38000,-7829 -50537,-23435 -12509,-15573 -18794,-34151 -18794,-55637 0,-24179 6811,-45372 20456,-63543 13637,-18164 33004,-27275 57928,-27275 20398,0 35296,3724 44806,11116l1376 0 6876 -5215 20799 -1833c-1547,37587 -2348,75291 -2348,113108 0,45208 801,86748 2348,124565zm-28362 -113163c0,-36901 -517,-69160 -1489,-96663 -10429,-7735 -22920,-11574 -37474,-11574 -18451,0 -32270,6510 -41370,19482 -9071,12933 -13636,28592 -13636,46812 0,16559 4380,30793 13064,42630 8684,11836 20971,17820 36785,17820 20112,0 34837,-6188 44120,-18507z"/>
     <g>
      <path class="fil6" d="M824241 735070l-17139 0c0,-3633 -3411,-15032 -10232,-34194l-46896 0c-6710,18886 -10066,30284 -10066,34194l-16418 0c0,-1998 6989,-19330 20967,-51971 13976,-32612 20965,-50555 20965,-53827l18857 0c0,3217 6656,20882 19967,53080 13339,32167 19995,49750 19995,52718zm-31115 -44843c-12730,-31809 -19107,-48697 -19107,-50694l-888 0c0,1664 -6572,18580 -19746,50694l39741 0zm118609 -34693c0,12341 -4686,21575 -14060,27704 -9373,6129 -21963,9179 -37771,9179 -1997,0 -3743,-55 -5214,-165 0,11813 445,26067 1304,42818l-15585 0c804,-15391 1220,-33916 1220,-55576 0,-18635 -416,-35357 -1220,-50222l11618 0c1249,0 4799,-56 10677,-221 5880,-167 10872,-251 15004,-251 10399,0 18664,2358 24820,7100 6129,4742 9207,11287 9207,19634zm-13561 4714c0,-13921 -9511,-20881 -28536,-20881 -4631,0 -9872,388 -15669,1219 388,8820 583,22575 583,41266 1886,111 4215,167 6988,167 24405,0 36634,-7267 36634,-21771zm49613 74822l-15420 0c805,-17555 1221,-36079 1221,-55576 0,-19162 -416,-35913 -1221,-50222l15420 0c-749,14809 -1137,31532 -1137,50222 0,19607 388,38132 1137,55576z"/>
      <g>
       <line class="fil7 str0" x1="538826" y1="686342" x2="658198" y2= "686342" />
      </g>
      <g>
       <line class="fil7 str0" x1="1021650" y1="686342" x2="1141024" y2= "686342" />
      </g>
     </g>
    </g>
   </g>
  </g>
 </g>
</svg>
