<?xml version="1.0" encoding="UTF-8"?>
<!DOCTYPE svg PUBLIC "-//W3C//DTD SVG 1.1//EN" "http://www.w3.org/Graphics/SVG/1.1/DTD/svg11.dtd">
<!-- Creator: CorelDRAW X7 -->
<svg xmlns="http://www.w3.org/2000/svg" xml:space="preserve" width="2347px" height="1760px" version="1.1" style="shape-rendering:geometricPrecision; text-rendering:geometricPrecision; image-rendering:optimizeQuality; fill-rule:evenodd; clip-rule:evenodd"
viewBox="0 0 2384318 1787983"
 xmlns:xlink="http://www.w3.org/1999/xlink">
 <defs>
  <style type="text/css">
   <![CDATA[
    .str0 {stroke:#414242;stroke-width:11998.8;stroke-linecap:round}
    .fil7 {fill:none}
    .fil3 {fill:#ACACAD}
    .fil2 {fill:#C5C6C7}
    .fil0 {fill:#EAEBEC}
    .fil1 {fill:white}
    .fil5 {fill:#414242;fill-rule:nonzero}
    .fil6 {fill:#585959;fill-rule:nonzero}
    .fil4 {fill:#C5C6C7;fill-rule:nonzero}
   ]]>
  </style>
 </defs>
 <g id="Capa_x0020_1">
  <metadata id="CorelCorpID_0Corel-Layer"/>
  <g id="_2373710745760">
   <g>
    <path class="fil0" d="M1641 0l2381035 0c904,0 1642,679 1642,1509l0 1784965c0,830 -738,1509 -1642,1509l-2381035 0c-903,0 -1641,-679 -1641,-1509l0 -1784965c0,-830 738,-1509 1641,-1509z"/>
    <g>
     <g>
      <ellipse class="fil1" cx="263183" cy="75800" rx="12493" ry="10221"/>
      <ellipse class="fil1" cx="331617" cy="75800" rx="12493" ry="10221"/>
      <ellipse class="fil1" cx="400051" cy="75800" rx="12493" ry="10221"/>
      <ellipse class="fil1" cx="468485" cy="75800" rx="12493" ry="10221"/>
      <ellipse class="fil1" cx="536920" cy="75800" rx="12493" ry="10221"/>
      <ellipse class="fil1" cx="605354" cy="75800" rx="12493" ry="10221"/>
      <ellipse class="fil1" cx="673788" cy="75800" rx="12493" ry="10221"/>
      <ellipse class="fil1" cx="742222" cy="75800" rx="12493" ry="10221"/>
      <ellipse class="fil1" cx="810657" cy="75800" rx="12493" ry="10221"/>
      <ellipse class="fil1" cx="879091" cy="75800" rx="12493" ry="10221"/>
      <ellipse class="fil1" cx="947525" cy="75800" rx="12493" ry="10221"/>
      <ellipse class="fil1" cx="1015959" cy="75800" rx="12493" ry="10221"/>
      <ellipse class="fil1" cx="1084394" cy="75800" rx="12493" ry="10221"/>
      <ellipse class="fil1" cx="1152828" cy="75800" rx="12493" ry="10221"/>
      <ellipse class="fil1" cx="1221262" cy="75800" rx="12493" ry="10221"/>
      <ellipse class="fil1" cx="1289696" cy="75800" rx="12493" ry="10221"/>
      <ellipse class="fil1" cx="1358131" cy="75800" rx="12493" ry="10221"/>
      <ellipse class="fil1" cx="1426565" cy="75800" rx="12493" ry="10221"/>
      <ellipse class="fil1" cx="1494999" cy="75800" rx="12493" ry="10221"/>
      <ellipse class="fil1" cx="1563433" cy="75800" rx="12493" ry="10221"/>
      <ellipse class="fil1" cx="1631868" cy="75800" rx="12493" ry="10221"/>
      <ellipse class="fil1" cx="1700302" cy="75800" rx="12493" ry="10221"/>
      <ellipse class="fil1" cx="1768736" cy="75800" rx="12493" ry="10221"/>
      <ellipse class="fil1" cx="1837170" cy="75800" rx="12493" ry="10221"/>
      <ellipse class="fil1" cx="1905605" cy="75800" rx="12493" ry="10221"/>
      <ellipse class="fil1" cx="1974039" cy="75800" rx="12493" ry="10221"/>
      <ellipse class="fil1" cx="2042473" cy="75800" rx="12493" ry="10221"/>
      <ellipse class="fil1" cx="2110907" cy="75800" rx="12493" ry="10221"/>
      <ellipse class="fil1" cx="2179342" cy="75800" rx="12493" ry="10221"/>
      <ellipse class="fil1" cx="2247784" cy="75800" rx="12493" ry="10221"/>
      <ellipse class="fil1" cx="126314" cy="75800" rx="12493" ry="10221"/>
      <ellipse class="fil1" cx="194749" cy="75800" rx="12493" ry="10221"/>
     </g>
     <g>
      <ellipse class="fil1" cx="263183" cy="166732" rx="12493" ry="10221"/>
      <ellipse class="fil1" cx="331617" cy="166732" rx="12493" ry="10221"/>
      <ellipse class="fil1" cx="400051" cy="166732" rx="12493" ry="10221"/>
      <ellipse class="fil1" cx="468485" cy="166732" rx="12493" ry="10221"/>
      <ellipse class="fil1" cx="536920" cy="166732" rx="12493" ry="10221"/>
      <ellipse class="fil1" cx="605354" cy="166732" rx="12493" ry="10221"/>
      <ellipse class="fil1" cx="673788" cy="166732" rx="12493" ry="10221"/>
      <ellipse class="fil1" cx="742222" cy="166732" rx="12493" ry="10221"/>
      <ellipse class="fil1" cx="810657" cy="166732" rx="12493" ry="10221"/>
      <ellipse class="fil1" cx="879091" cy="166732" rx="12493" ry="10221"/>
      <ellipse class="fil1" cx="947525" cy="166732" rx="12493" ry="10221"/>
      <ellipse class="fil1" cx="1015959" cy="166732" rx="12493" ry="10221"/>
      <ellipse class="fil1" cx="1084394" cy="166732" rx="12493" ry="10221"/>
      <ellipse class="fil1" cx="1152828" cy="166732" rx="12493" ry="10221"/>
      <ellipse class="fil1" cx="1221262" cy="166732" rx="12493" ry="10221"/>
      <ellipse class="fil1" cx="1289696" cy="166732" rx="12493" ry="10221"/>
      <ellipse class="fil1" cx="1358131" cy="166732" rx="12493" ry="10221"/>
      <ellipse class="fil1" cx="1426565" cy="166732" rx="12493" ry="10221"/>
      <ellipse class="fil1" cx="1494999" cy="166732" rx="12493" ry="10221"/>
      <ellipse class="fil1" cx="1563433" cy="166732" rx="12493" ry="10221"/>
      <ellipse class="fil1" cx="1631868" cy="166732" rx="12493" ry="10221"/>
      <ellipse class="fil1" cx="1700302" cy="166732" rx="12493" ry="10221"/>
      <ellipse class="fil1" cx="1768736" cy="166732" rx="12493" ry="10221"/>
      <ellipse class="fil1" cx="1837170" cy="166732" rx="12493" ry="10221"/>
      <ellipse class="fil1" cx="1905605" cy="166732" rx="12493" ry="10221"/>
      <ellipse class="fil1" cx="1974039" cy="166732" rx="12493" ry="10221"/>
      <ellipse class="fil1" cx="2042473" cy="166732" rx="12493" ry="10221"/>
      <ellipse class="fil1" cx="2110907" cy="166732" rx="12493" ry="10221"/>
      <ellipse class="fil1" cx="2179342" cy="166732" rx="12493" ry="10221"/>
      <ellipse class="fil1" cx="2247784" cy="166732" rx="12493" ry="10221"/>
      <ellipse class="fil1" cx="126314" cy="166732" rx="12493" ry="10221"/>
      <ellipse class="fil1" cx="194749" cy="166732" rx="12493" ry="10221"/>
     </g>
     <g>
      <ellipse class="fil1" cx="263183" cy="257642" rx="12493" ry="10221"/>
      <ellipse class="fil1" cx="331617" cy="257642" rx="12493" ry="10221"/>
      <ellipse class="fil1" cx="400051" cy="257642" rx="12493" ry="10221"/>
      <ellipse class="fil1" cx="468485" cy="257642" rx="12493" ry="10221"/>
      <ellipse class="fil1" cx="536920" cy="257642" rx="12493" ry="10221"/>
      <ellipse class="fil1" cx="605354" cy="257642" rx="12493" ry="10221"/>
      <ellipse class="fil1" cx="673788" cy="257642" rx="12493" ry="10221"/>
      <ellipse class="fil1" cx="742222" cy="257642" rx="12493" ry="10221"/>
      <ellipse class="fil1" cx="810657" cy="257642" rx="12493" ry="10221"/>
      <ellipse class="fil1" cx="879091" cy="257642" rx="12493" ry="10221"/>
      <ellipse class="fil1" cx="947525" cy="257642" rx="12493" ry="10221"/>
      <ellipse class="fil1" cx="1015959" cy="257642" rx="12493" ry="10221"/>
      <ellipse class="fil1" cx="1084394" cy="257642" rx="12493" ry="10221"/>
      <ellipse class="fil1" cx="1152828" cy="257642" rx="12493" ry="10221"/>
      <ellipse class="fil1" cx="1221262" cy="257642" rx="12493" ry="10221"/>
      <ellipse class="fil1" cx="1289696" cy="257642" rx="12493" ry="10221"/>
      <ellipse class="fil1" cx="1358131" cy="257642" rx="12493" ry="10221"/>
      <ellipse class="fil1" cx="1426565" cy="257642" rx="12493" ry="10221"/>
      <ellipse class="fil1" cx="1494999" cy="257642" rx="12493" ry="10221"/>
      <ellipse class="fil1" cx="1563433" cy="257642" rx="12493" ry="10221"/>
      <ellipse class="fil1" cx="1631868" cy="257642" rx="12493" ry="10221"/>
      <ellipse class="fil1" cx="1700302" cy="257642" rx="12493" ry="10221"/>
      <ellipse class="fil1" cx="1768736" cy="257642" rx="12493" ry="10221"/>
      <ellipse class="fil1" cx="1837170" cy="257642" rx="12493" ry="10221"/>
      <ellipse class="fil1" cx="1905605" cy="257642" rx="12493" ry="10221"/>
      <ellipse class="fil1" cx="1974039" cy="257642" rx="12493" ry="10221"/>
      <ellipse class="fil1" cx="2042473" cy="257642" rx="12493" ry="10221"/>
      <ellipse class="fil1" cx="2110907" cy="257642" rx="12493" ry="10221"/>
      <ellipse class="fil1" cx="2179342" cy="257642" rx="12493" ry="10221"/>
      <ellipse class="fil1" cx="2247784" cy="257642" rx="12493" ry="10221"/>
      <ellipse class="fil1" cx="126314" cy="257642" rx="12493" ry="10221"/>
      <ellipse class="fil1" cx="194749" cy="257642" rx="12493" ry="10221"/>
     </g>
     <g>
      <ellipse class="fil1" cx="263183" cy="348550" rx="12493" ry="10221"/>
      <ellipse class="fil1" cx="331617" cy="348550" rx="12493" ry="10221"/>
      <ellipse class="fil1" cx="400051" cy="348550" rx="12493" ry="10221"/>
      <ellipse class="fil1" cx="468485" cy="348550" rx="12493" ry="10221"/>
      <ellipse class="fil1" cx="536920" cy="348550" rx="12493" ry="10221"/>
      <ellipse class="fil1" cx="605354" cy="348550" rx="12493" ry="10221"/>
      <ellipse class="fil1" cx="673788" cy="348550" rx="12493" ry="10221"/>
      <ellipse class="fil1" cx="742222" cy="348550" rx="12493" ry="10221"/>
      <ellipse class="fil1" cx="810657" cy="348550" rx="12493" ry="10221"/>
      <ellipse class="fil1" cx="879091" cy="348550" rx="12493" ry="10221"/>
      <ellipse class="fil1" cx="947525" cy="348550" rx="12493" ry="10221"/>
      <ellipse class="fil1" cx="1015959" cy="348550" rx="12493" ry="10221"/>
      <ellipse class="fil1" cx="1084394" cy="348550" rx="12493" ry="10221"/>
      <ellipse class="fil1" cx="1152828" cy="348550" rx="12493" ry="10221"/>
      <ellipse class="fil1" cx="1221262" cy="348550" rx="12493" ry="10221"/>
      <ellipse class="fil1" cx="1289696" cy="348550" rx="12493" ry="10221"/>
      <ellipse class="fil1" cx="1358131" cy="348550" rx="12493" ry="10221"/>
      <ellipse class="fil1" cx="1426565" cy="348550" rx="12493" ry="10221"/>
      <ellipse class="fil1" cx="1494999" cy="348550" rx="12493" ry="10221"/>
      <ellipse class="fil1" cx="1563433" cy="348550" rx="12493" ry="10221"/>
      <ellipse class="fil1" cx="1631868" cy="348550" rx="12493" ry="10221"/>
      <ellipse class="fil1" cx="1700302" cy="348550" rx="12493" ry="10221"/>
      <ellipse class="fil1" cx="1768736" cy="348550" rx="12493" ry="10221"/>
      <ellipse class="fil1" cx="1837170" cy="348550" rx="12493" ry="10221"/>
      <ellipse class="fil1" cx="1905605" cy="348550" rx="12493" ry="10221"/>
      <ellipse class="fil1" cx="1974039" cy="348550" rx="12493" ry="10221"/>
      <ellipse class="fil1" cx="2042473" cy="348550" rx="12493" ry="10221"/>
      <ellipse class="fil1" cx="2110907" cy="348550" rx="12493" ry="10221"/>
      <ellipse class="fil1" cx="2179342" cy="348550" rx="12493" ry="10221"/>
      <ellipse class="fil1" cx="2247784" cy="348550" rx="12493" ry="10221"/>
      <ellipse class="fil1" cx="126314" cy="348550" rx="12493" ry="10221"/>
      <ellipse class="fil1" cx="194749" cy="348550" rx="12493" ry="10221"/>
     </g>
     <g>
      <ellipse class="fil1" cx="263183" cy="439458" rx="12493" ry="10221"/>
      <ellipse class="fil1" cx="331617" cy="439458" rx="12493" ry="10221"/>
      <ellipse class="fil1" cx="400051" cy="439458" rx="12493" ry="10221"/>
      <ellipse class="fil1" cx="468485" cy="439458" rx="12493" ry="10221"/>
      <ellipse class="fil1" cx="536920" cy="439458" rx="12493" ry="10221"/>
      <ellipse class="fil1" cx="605354" cy="439458" rx="12493" ry="10221"/>
      <ellipse class="fil1" cx="673788" cy="439458" rx="12493" ry="10221"/>
      <ellipse class="fil1" cx="742222" cy="439458" rx="12493" ry="10221"/>
      <ellipse class="fil1" cx="810657" cy="439458" rx="12493" ry="10221"/>
      <ellipse class="fil1" cx="879091" cy="439458" rx="12493" ry="10221"/>
      <ellipse class="fil1" cx="947525" cy="439458" rx="12493" ry="10221"/>
      <ellipse class="fil1" cx="1015959" cy="439458" rx="12493" ry="10221"/>
      <ellipse class="fil1" cx="1084394" cy="439458" rx="12493" ry="10221"/>
      <ellipse class="fil1" cx="1152828" cy="439458" rx="12493" ry="10221"/>
      <ellipse class="fil1" cx="1221262" cy="439458" rx="12493" ry="10221"/>
      <ellipse class="fil1" cx="1289696" cy="439458" rx="12493" ry="10221"/>
      <ellipse class="fil1" cx="1358131" cy="439458" rx="12493" ry="10221"/>
      <ellipse class="fil1" cx="1426565" cy="439458" rx="12493" ry="10221"/>
      <ellipse class="fil1" cx="1494999" cy="439458" rx="12493" ry="10221"/>
      <ellipse class="fil1" cx="1563433" cy="439458" rx="12493" ry="10221"/>
      <ellipse class="fil1" cx="1631868" cy="439458" rx="12493" ry="10221"/>
      <ellipse class="fil1" cx="1700302" cy="439458" rx="12493" ry="10221"/>
      <ellipse class="fil1" cx="1768736" cy="439458" rx="12493" ry="10221"/>
      <ellipse class="fil1" cx="1837170" cy="439458" rx="12493" ry="10221"/>
      <ellipse class="fil1" cx="1905605" cy="439458" rx="12493" ry="10221"/>
      <ellipse class="fil1" cx="1974039" cy="439458" rx="12493" ry="10221"/>
      <ellipse class="fil1" cx="2042473" cy="439458" rx="12493" ry="10221"/>
      <ellipse class="fil1" cx="2110907" cy="439458" rx="12493" ry="10221"/>
      <ellipse class="fil1" cx="2179342" cy="439458" rx="12493" ry="10221"/>
      <ellipse class="fil1" cx="2247784" cy="439458" rx="12493" ry="10221"/>
      <ellipse class="fil1" cx="126314" cy="439458" rx="12493" ry="10221"/>
      <ellipse class="fil1" cx="194749" cy="439458" rx="12493" ry="10221"/>
     </g>
     <g>
      <ellipse class="fil1" cx="263183" cy="530366" rx="12493" ry="10221"/>
      <ellipse class="fil1" cx="331617" cy="530366" rx="12493" ry="10221"/>
      <ellipse class="fil1" cx="400051" cy="530366" rx="12493" ry="10221"/>
      <ellipse class="fil1" cx="468485" cy="530366" rx="12493" ry="10221"/>
      <ellipse class="fil1" cx="536920" cy="530366" rx="12493" ry="10221"/>
      <ellipse class="fil1" cx="605354" cy="530366" rx="12493" ry="10221"/>
      <ellipse class="fil1" cx="673788" cy="530366" rx="12493" ry="10221"/>
      <ellipse class="fil1" cx="742222" cy="530366" rx="12493" ry="10221"/>
      <ellipse class="fil1" cx="810657" cy="530366" rx="12493" ry="10221"/>
      <ellipse class="fil1" cx="879091" cy="530366" rx="12493" ry="10221"/>
      <ellipse class="fil1" cx="947525" cy="530366" rx="12493" ry="10221"/>
      <ellipse class="fil1" cx="1015959" cy="530366" rx="12493" ry="10221"/>
      <ellipse class="fil1" cx="1084394" cy="530366" rx="12493" ry="10221"/>
      <ellipse class="fil1" cx="1152828" cy="530366" rx="12493" ry="10221"/>
      <ellipse class="fil1" cx="1221262" cy="530366" rx="12493" ry="10221"/>
      <ellipse class="fil1" cx="1289696" cy="530366" rx="12493" ry="10221"/>
      <ellipse class="fil1" cx="1358131" cy="530366" rx="12493" ry="10221"/>
      <ellipse class="fil1" cx="1426565" cy="530366" rx="12493" ry="10221"/>
      <ellipse class="fil1" cx="1494999" cy="530366" rx="12493" ry="10221"/>
      <ellipse class="fil1" cx="1563433" cy="530366" rx="12493" ry="10221"/>
      <ellipse class="fil1" cx="1631868" cy="530366" rx="12493" ry="10221"/>
      <ellipse class="fil1" cx="1700302" cy="530366" rx="12493" ry="10221"/>
      <ellipse class="fil1" cx="1768736" cy="530366" rx="12493" ry="10221"/>
      <ellipse class="fil1" cx="1837170" cy="530366" rx="12493" ry="10221"/>
      <ellipse class="fil1" cx="1905605" cy="530366" rx="12493" ry="10221"/>
      <ellipse class="fil1" cx="1974039" cy="530366" rx="12493" ry="10221"/>
      <ellipse class="fil1" cx="2042473" cy="530366" rx="12493" ry="10221"/>
      <ellipse class="fil1" cx="2110907" cy="530366" rx="12493" ry="10221"/>
      <ellipse class="fil1" cx="2179342" cy="530366" rx="12493" ry="10221"/>
      <ellipse class="fil1" cx="2247784" cy="530366" rx="12493" ry="10221"/>
      <ellipse class="fil1" cx="126314" cy="530366" rx="12493" ry="10221"/>
      <ellipse class="fil1" cx="194749" cy="530366" rx="12493" ry="10221"/>
     </g>
     <g>
      <ellipse class="fil1" cx="263183" cy="621275" rx="12493" ry="10221"/>
      <ellipse class="fil1" cx="331617" cy="621275" rx="12493" ry="10221"/>
      <ellipse class="fil1" cx="400051" cy="621275" rx="12493" ry="10221"/>
      <ellipse class="fil1" cx="468485" cy="621275" rx="12493" ry="10221"/>
      <ellipse class="fil1" cx="536920" cy="621275" rx="12493" ry="10221"/>
      <ellipse class="fil1" cx="605354" cy="621275" rx="12493" ry="10221"/>
      <ellipse class="fil1" cx="673788" cy="621275" rx="12493" ry="10221"/>
      <ellipse class="fil1" cx="742222" cy="621275" rx="12493" ry="10221"/>
      <ellipse class="fil1" cx="810657" cy="621275" rx="12493" ry="10221"/>
      <ellipse class="fil1" cx="879091" cy="621275" rx="12493" ry="10221"/>
      <ellipse class="fil1" cx="947525" cy="621275" rx="12493" ry="10221"/>
      <ellipse class="fil1" cx="1015959" cy="621275" rx="12493" ry="10221"/>
      <ellipse class="fil1" cx="1084394" cy="621275" rx="12493" ry="10221"/>
      <ellipse class="fil1" cx="1152828" cy="621275" rx="12493" ry="10221"/>
      <ellipse class="fil1" cx="1221262" cy="621275" rx="12493" ry="10221"/>
      <ellipse class="fil1" cx="1289696" cy="621275" rx="12493" ry="10221"/>
      <ellipse class="fil1" cx="1358131" cy="621275" rx="12493" ry="10221"/>
      <ellipse class="fil1" cx="1426565" cy="621275" rx="12493" ry="10221"/>
      <ellipse class="fil1" cx="1494999" cy="621275" rx="12493" ry="10221"/>
      <ellipse class="fil1" cx="1563433" cy="621275" rx="12493" ry="10221"/>
      <ellipse class="fil1" cx="1631868" cy="621275" rx="12493" ry="10221"/>
      <ellipse class="fil1" cx="1700302" cy="621275" rx="12493" ry="10221"/>
      <ellipse class="fil1" cx="1768736" cy="621275" rx="12493" ry="10221"/>
      <ellipse class="fil1" cx="1837170" cy="621275" rx="12493" ry="10221"/>
      <ellipse class="fil1" cx="1905605" cy="621275" rx="12493" ry="10221"/>
      <ellipse class="fil1" cx="1974039" cy="621275" rx="12493" ry="10221"/>
      <ellipse class="fil1" cx="2042473" cy="621275" rx="12493" ry="10221"/>
      <ellipse class="fil1" cx="2110907" cy="621275" rx="12493" ry="10221"/>
      <ellipse class="fil1" cx="2179342" cy="621275" rx="12493" ry="10221"/>
      <ellipse class="fil1" cx="2247784" cy="621275" rx="12493" ry="10221"/>
      <ellipse class="fil1" cx="126314" cy="621275" rx="12493" ry="10221"/>
      <ellipse class="fil1" cx="194749" cy="621275" rx="12493" ry="10221"/>
     </g>
     <g>
      <ellipse class="fil1" cx="263183" cy="712184" rx="12493" ry="10221"/>
      <ellipse class="fil1" cx="331617" cy="712184" rx="12493" ry="10221"/>
      <ellipse class="fil1" cx="400051" cy="712184" rx="12493" ry="10221"/>
      <ellipse class="fil1" cx="468485" cy="712184" rx="12493" ry="10221"/>
      <ellipse class="fil1" cx="536920" cy="712184" rx="12493" ry="10221"/>
      <ellipse class="fil1" cx="605354" cy="712184" rx="12493" ry="10221"/>
      <ellipse class="fil1" cx="673788" cy="712184" rx="12493" ry="10221"/>
      <ellipse class="fil1" cx="742222" cy="712184" rx="12493" ry="10221"/>
      <ellipse class="fil1" cx="810657" cy="712184" rx="12493" ry="10221"/>
      <ellipse class="fil1" cx="879091" cy="712184" rx="12493" ry="10221"/>
      <ellipse class="fil1" cx="947525" cy="712184" rx="12493" ry="10221"/>
      <ellipse class="fil1" cx="1015959" cy="712184" rx="12493" ry="10221"/>
      <ellipse class="fil1" cx="1084394" cy="712184" rx="12493" ry="10221"/>
      <ellipse class="fil1" cx="1152828" cy="712184" rx="12493" ry="10221"/>
      <ellipse class="fil1" cx="1221262" cy="712184" rx="12493" ry="10221"/>
      <ellipse class="fil1" cx="1289696" cy="712184" rx="12493" ry="10221"/>
      <ellipse class="fil1" cx="1358131" cy="712184" rx="12493" ry="10221"/>
      <ellipse class="fil1" cx="1426565" cy="712184" rx="12493" ry="10221"/>
      <ellipse class="fil1" cx="1494999" cy="712184" rx="12493" ry="10221"/>
      <ellipse class="fil1" cx="1563433" cy="712184" rx="12493" ry="10221"/>
      <ellipse class="fil1" cx="1631868" cy="712184" rx="12493" ry="10221"/>
      <ellipse class="fil1" cx="1700302" cy="712184" rx="12493" ry="10221"/>
      <ellipse class="fil1" cx="1768736" cy="712184" rx="12493" ry="10221"/>
      <ellipse class="fil1" cx="1837170" cy="712184" rx="12493" ry="10221"/>
      <ellipse class="fil1" cx="1905605" cy="712184" rx="12493" ry="10221"/>
      <ellipse class="fil1" cx="1974039" cy="712184" rx="12493" ry="10221"/>
      <ellipse class="fil1" cx="2042473" cy="712184" rx="12493" ry="10221"/>
      <ellipse class="fil1" cx="2110907" cy="712184" rx="12493" ry="10221"/>
      <ellipse class="fil1" cx="2179342" cy="712184" rx="12493" ry="10221"/>
      <ellipse class="fil1" cx="2247784" cy="712184" rx="12493" ry="10221"/>
      <ellipse class="fil1" cx="126314" cy="712184" rx="12493" ry="10221"/>
      <ellipse class="fil1" cx="194749" cy="712184" rx="12493" ry="10221"/>
     </g>
     <g>
      <ellipse class="fil1" cx="263183" cy="803094" rx="12493" ry="10221"/>
      <ellipse class="fil1" cx="331617" cy="803094" rx="12493" ry="10221"/>
      <ellipse class="fil1" cx="400051" cy="803094" rx="12493" ry="10221"/>
      <ellipse class="fil1" cx="468485" cy="803094" rx="12493" ry="10221"/>
      <ellipse class="fil1" cx="536920" cy="803094" rx="12493" ry="10221"/>
      <ellipse class="fil1" cx="605354" cy="803094" rx="12493" ry="10221"/>
      <ellipse class="fil1" cx="673788" cy="803094" rx="12493" ry="10221"/>
      <ellipse class="fil1" cx="742222" cy="803094" rx="12493" ry="10221"/>
      <ellipse class="fil1" cx="810657" cy="803094" rx="12493" ry="10221"/>
      <ellipse class="fil1" cx="879091" cy="803094" rx="12493" ry="10221"/>
      <ellipse class="fil1" cx="947525" cy="803094" rx="12493" ry="10221"/>
      <ellipse class="fil1" cx="1015959" cy="803094" rx="12493" ry="10221"/>
      <ellipse class="fil1" cx="1084394" cy="803094" rx="12493" ry="10221"/>
      <ellipse class="fil1" cx="1152828" cy="803094" rx="12493" ry="10221"/>
      <ellipse class="fil1" cx="1221262" cy="803094" rx="12493" ry="10221"/>
      <ellipse class="fil1" cx="1289696" cy="803094" rx="12493" ry="10221"/>
      <ellipse class="fil1" cx="1358131" cy="803094" rx="12493" ry="10221"/>
      <ellipse class="fil1" cx="1426565" cy="803094" rx="12493" ry="10221"/>
      <ellipse class="fil1" cx="1494999" cy="803094" rx="12493" ry="10221"/>
      <ellipse class="fil1" cx="1563433" cy="803094" rx="12493" ry="10221"/>
      <ellipse class="fil1" cx="1631868" cy="803094" rx="12493" ry="10221"/>
      <ellipse class="fil1" cx="1700302" cy="803094" rx="12493" ry="10221"/>
      <ellipse class="fil1" cx="1768736" cy="803094" rx="12493" ry="10221"/>
      <ellipse class="fil1" cx="1837170" cy="803094" rx="12493" ry="10221"/>
      <ellipse class="fil1" cx="1905605" cy="803094" rx="12493" ry="10221"/>
      <ellipse class="fil1" cx="1974039" cy="803094" rx="12493" ry="10221"/>
      <ellipse class="fil1" cx="2042473" cy="803094" rx="12493" ry="10221"/>
      <ellipse class="fil1" cx="2110907" cy="803094" rx="12493" ry="10221"/>
      <ellipse class="fil1" cx="2179342" cy="803094" rx="12493" ry="10221"/>
      <ellipse class="fil1" cx="2247784" cy="803094" rx="12493" ry="10221"/>
      <ellipse class="fil1" cx="126314" cy="803094" rx="12493" ry="10221"/>
      <ellipse class="fil1" cx="194749" cy="803094" rx="12493" ry="10221"/>
     </g>
     <g>
      <ellipse class="fil1" cx="263183" cy="894004" rx="12493" ry="10221"/>
      <ellipse class="fil1" cx="331617" cy="894004" rx="12493" ry="10221"/>
      <ellipse class="fil1" cx="400051" cy="894004" rx="12493" ry="10221"/>
      <ellipse class="fil1" cx="468485" cy="894004" rx="12493" ry="10221"/>
      <ellipse class="fil1" cx="536920" cy="894004" rx="12493" ry="10221"/>
      <ellipse class="fil1" cx="605354" cy="894004" rx="12493" ry="10221"/>
      <ellipse class="fil1" cx="673788" cy="894004" rx="12493" ry="10221"/>
      <ellipse class="fil1" cx="742222" cy="894004" rx="12493" ry="10221"/>
      <ellipse class="fil1" cx="810657" cy="894004" rx="12493" ry="10221"/>
      <ellipse class="fil1" cx="879091" cy="894004" rx="12493" ry="10221"/>
      <ellipse class="fil1" cx="947525" cy="894004" rx="12493" ry="10221"/>
      <ellipse class="fil1" cx="1015959" cy="894004" rx="12493" ry="10221"/>
      <ellipse class="fil1" cx="1084394" cy="894004" rx="12493" ry="10221"/>
      <ellipse class="fil1" cx="1152828" cy="894004" rx="12493" ry="10221"/>
      <ellipse class="fil1" cx="1221262" cy="894004" rx="12493" ry="10221"/>
      <ellipse class="fil1" cx="1289696" cy="894004" rx="12493" ry="10221"/>
      <ellipse class="fil1" cx="1358131" cy="894004" rx="12493" ry="10221"/>
      <ellipse class="fil1" cx="1426565" cy="894004" rx="12493" ry="10221"/>
      <ellipse class="fil1" cx="1494999" cy="894004" rx="12493" ry="10221"/>
      <ellipse class="fil1" cx="1563433" cy="894004" rx="12493" ry="10221"/>
      <ellipse class="fil1" cx="1631868" cy="894004" rx="12493" ry="10221"/>
      <ellipse class="fil1" cx="1700302" cy="894004" rx="12493" ry="10221"/>
      <ellipse class="fil1" cx="1768736" cy="894004" rx="12493" ry="10221"/>
      <ellipse class="fil1" cx="1837170" cy="894004" rx="12493" ry="10221"/>
      <ellipse class="fil1" cx="1905605" cy="894004" rx="12493" ry="10221"/>
      <ellipse class="fil1" cx="1974039" cy="894004" rx="12493" ry="10221"/>
      <ellipse class="fil1" cx="2042473" cy="894004" rx="12493" ry="10221"/>
      <ellipse class="fil1" cx="2110907" cy="894004" rx="12493" ry="10221"/>
      <ellipse class="fil1" cx="2179342" cy="894004" rx="12493" ry="10221"/>
      <ellipse class="fil1" cx="2247784" cy="894004" rx="12493" ry="10221"/>
      <ellipse class="fil1" cx="126314" cy="894004" rx="12493" ry="10221"/>
      <ellipse class="fil1" cx="194749" cy="894004" rx="12493" ry="10221"/>
     </g>
     <g>
      <ellipse class="fil1" cx="263183" cy="984912" rx="12493" ry="10221"/>
      <ellipse class="fil1" cx="331617" cy="984912" rx="12493" ry="10221"/>
      <ellipse class="fil1" cx="400051" cy="984912" rx="12493" ry="10221"/>
      <ellipse class="fil1" cx="468485" cy="984912" rx="12493" ry="10221"/>
      <ellipse class="fil1" cx="536920" cy="984912" rx="12493" ry="10221"/>
      <ellipse class="fil1" cx="605354" cy="984912" rx="12493" ry="10221"/>
      <ellipse class="fil1" cx="673788" cy="984912" rx="12493" ry="10221"/>
      <ellipse class="fil1" cx="742222" cy="984912" rx="12493" ry="10221"/>
      <ellipse class="fil1" cx="810657" cy="984912" rx="12493" ry="10221"/>
      <ellipse class="fil1" cx="879091" cy="984912" rx="12493" ry="10221"/>
      <ellipse class="fil1" cx="947525" cy="984912" rx="12493" ry="10221"/>
      <ellipse class="fil1" cx="1015959" cy="984912" rx="12493" ry="10221"/>
      <ellipse class="fil1" cx="1084394" cy="984912" rx="12493" ry="10221"/>
      <ellipse class="fil1" cx="1152828" cy="984912" rx="12493" ry="10221"/>
      <ellipse class="fil1" cx="1221262" cy="984912" rx="12493" ry="10221"/>
      <ellipse class="fil1" cx="1289696" cy="984912" rx="12493" ry="10221"/>
      <ellipse class="fil1" cx="1358131" cy="984912" rx="12493" ry="10221"/>
      <ellipse class="fil1" cx="1426565" cy="984912" rx="12493" ry="10221"/>
      <ellipse class="fil1" cx="1494999" cy="984912" rx="12493" ry="10221"/>
      <ellipse class="fil1" cx="1563433" cy="984912" rx="12493" ry="10221"/>
      <ellipse class="fil1" cx="1631868" cy="984912" rx="12493" ry="10221"/>
      <ellipse class="fil1" cx="1700302" cy="984912" rx="12493" ry="10221"/>
      <ellipse class="fil1" cx="1768736" cy="984912" rx="12493" ry="10221"/>
      <ellipse class="fil1" cx="1837170" cy="984912" rx="12493" ry="10221"/>
      <ellipse class="fil1" cx="1905605" cy="984912" rx="12493" ry="10221"/>
      <ellipse class="fil1" cx="1974039" cy="984912" rx="12493" ry="10221"/>
      <ellipse class="fil1" cx="2042473" cy="984912" rx="12493" ry="10221"/>
      <ellipse class="fil1" cx="2110907" cy="984912" rx="12493" ry="10221"/>
      <ellipse class="fil1" cx="2179342" cy="984912" rx="12493" ry="10221"/>
      <ellipse class="fil1" cx="2247784" cy="984912" rx="12493" ry="10221"/>
      <ellipse class="fil1" cx="126314" cy="984912" rx="12493" ry="10221"/>
      <ellipse class="fil1" cx="194749" cy="984912" rx="12493" ry="10221"/>
     </g>
     <g>
      <ellipse class="fil1" cx="263183" cy="1075820" rx="12493" ry="10221"/>
      <ellipse class="fil1" cx="331617" cy="1075820" rx="12493" ry="10221"/>
      <ellipse class="fil1" cx="400051" cy="1075820" rx="12493" ry="10221"/>
      <ellipse class="fil1" cx="468485" cy="1075820" rx="12493" ry="10221"/>
      <ellipse class="fil1" cx="536920" cy="1075820" rx="12493" ry="10221"/>
      <ellipse class="fil1" cx="605354" cy="1075820" rx="12493" ry="10221"/>
      <ellipse class="fil1" cx="673788" cy="1075820" rx="12493" ry="10221"/>
      <ellipse class="fil1" cx="742222" cy="1075820" rx="12493" ry="10221"/>
      <ellipse class="fil1" cx="810657" cy="1075820" rx="12493" ry="10221"/>
      <ellipse class="fil1" cx="879091" cy="1075820" rx="12493" ry="10221"/>
      <ellipse class="fil1" cx="947525" cy="1075820" rx="12493" ry="10221"/>
      <ellipse class="fil1" cx="1015959" cy="1075820" rx="12493" ry="10221"/>
      <ellipse class="fil1" cx="1084394" cy="1075820" rx="12493" ry="10221"/>
      <ellipse class="fil1" cx="1152828" cy="1075820" rx="12493" ry="10221"/>
      <ellipse class="fil1" cx="1221262" cy="1075820" rx="12493" ry="10221"/>
      <ellipse class="fil1" cx="1289696" cy="1075820" rx="12493" ry="10221"/>
      <ellipse class="fil1" cx="1358131" cy="1075820" rx="12493" ry="10221"/>
      <ellipse class="fil1" cx="1426565" cy="1075820" rx="12493" ry="10221"/>
      <ellipse class="fil1" cx="1494999" cy="1075820" rx="12493" ry="10221"/>
      <ellipse class="fil1" cx="1563433" cy="1075820" rx="12493" ry="10221"/>
      <ellipse class="fil1" cx="1631868" cy="1075820" rx="12493" ry="10221"/>
      <ellipse class="fil1" cx="1700302" cy="1075820" rx="12493" ry="10221"/>
      <ellipse class="fil1" cx="1768736" cy="1075820" rx="12493" ry="10221"/>
      <ellipse class="fil1" cx="1837170" cy="1075820" rx="12493" ry="10221"/>
      <ellipse class="fil1" cx="1905605" cy="1075820" rx="12493" ry="10221"/>
      <ellipse class="fil1" cx="1974039" cy="1075820" rx="12493" ry="10221"/>
      <ellipse class="fil1" cx="2042473" cy="1075820" rx="12493" ry="10221"/>
      <ellipse class="fil1" cx="2110907" cy="1075820" rx="12493" ry="10221"/>
      <ellipse class="fil1" cx="2179342" cy="1075820" rx="12493" ry="10221"/>
      <ellipse class="fil1" cx="2247784" cy="1075820" rx="12493" ry="10221"/>
      <ellipse class="fil1" cx="126314" cy="1075820" rx="12493" ry="10221"/>
      <ellipse class="fil1" cx="194749" cy="1075820" rx="12493" ry="10221"/>
     </g>
     <g>
      <ellipse class="fil1" cx="263183" cy="1166727" rx="12493" ry="10221"/>
      <ellipse class="fil1" cx="331617" cy="1166727" rx="12493" ry="10221"/>
      <ellipse class="fil1" cx="400051" cy="1166727" rx="12493" ry="10221"/>
      <ellipse class="fil1" cx="468485" cy="1166727" rx="12493" ry="10221"/>
      <ellipse class="fil1" cx="536920" cy="1166727" rx="12493" ry="10221"/>
      <ellipse class="fil1" cx="605354" cy="1166727" rx="12493" ry="10221"/>
      <ellipse class="fil1" cx="673788" cy="1166727" rx="12493" ry="10221"/>
      <ellipse class="fil1" cx="742222" cy="1166727" rx="12493" ry="10221"/>
      <ellipse class="fil1" cx="810657" cy="1166727" rx="12493" ry="10221"/>
      <ellipse class="fil1" cx="879091" cy="1166727" rx="12493" ry="10221"/>
      <ellipse class="fil1" cx="947525" cy="1166727" rx="12493" ry="10221"/>
      <ellipse class="fil1" cx="1015959" cy="1166727" rx="12493" ry="10221"/>
      <ellipse class="fil1" cx="1084394" cy="1166727" rx="12493" ry="10221"/>
      <ellipse class="fil1" cx="1152828" cy="1166727" rx="12493" ry="10221"/>
      <ellipse class="fil1" cx="1221262" cy="1166727" rx="12493" ry="10221"/>
      <ellipse class="fil1" cx="1289696" cy="1166727" rx="12493" ry="10221"/>
      <ellipse class="fil1" cx="1358131" cy="1166727" rx="12493" ry="10221"/>
      <ellipse class="fil1" cx="1426565" cy="1166727" rx="12493" ry="10221"/>
      <ellipse class="fil1" cx="1494999" cy="1166727" rx="12493" ry="10221"/>
      <ellipse class="fil1" cx="1563433" cy="1166727" rx="12493" ry="10221"/>
      <ellipse class="fil1" cx="1631868" cy="1166727" rx="12493" ry="10221"/>
      <ellipse class="fil1" cx="1700302" cy="1166727" rx="12493" ry="10221"/>
      <ellipse class="fil1" cx="1768736" cy="1166727" rx="12493" ry="10221"/>
      <ellipse class="fil1" cx="1837170" cy="1166727" rx="12493" ry="10221"/>
      <ellipse class="fil1" cx="1905605" cy="1166727" rx="12493" ry="10221"/>
      <ellipse class="fil1" cx="1974039" cy="1166727" rx="12493" ry="10221"/>
      <ellipse class="fil1" cx="2042473" cy="1166727" rx="12493" ry="10221"/>
      <ellipse class="fil1" cx="2110907" cy="1166727" rx="12493" ry="10221"/>
      <ellipse class="fil1" cx="2179342" cy="1166727" rx="12493" ry="10221"/>
      <ellipse class="fil1" cx="2247784" cy="1166727" rx="12493" ry="10221"/>
      <ellipse class="fil1" cx="126314" cy="1166727" rx="12493" ry="10221"/>
      <ellipse class="fil1" cx="194749" cy="1166727" rx="12493" ry="10221"/>
     </g>
     <g>
      <ellipse class="fil1" cx="263183" cy="1257638" rx="12493" ry="10221"/>
      <ellipse class="fil1" cx="331617" cy="1257638" rx="12493" ry="10221"/>
      <ellipse class="fil1" cx="400051" cy="1257638" rx="12493" ry="10221"/>
      <ellipse class="fil1" cx="468485" cy="1257638" rx="12493" ry="10221"/>
      <ellipse class="fil1" cx="536920" cy="1257638" rx="12493" ry="10221"/>
      <ellipse class="fil1" cx="605354" cy="1257638" rx="12493" ry="10221"/>
      <ellipse class="fil1" cx="673788" cy="1257638" rx="12493" ry="10221"/>
      <ellipse class="fil1" cx="742222" cy="1257638" rx="12493" ry="10221"/>
      <ellipse class="fil1" cx="810657" cy="1257638" rx="12493" ry="10221"/>
      <ellipse class="fil1" cx="879091" cy="1257638" rx="12493" ry="10221"/>
      <ellipse class="fil1" cx="947525" cy="1257638" rx="12493" ry="10221"/>
      <ellipse class="fil1" cx="1015959" cy="1257638" rx="12493" ry="10221"/>
      <ellipse class="fil1" cx="1084394" cy="1257638" rx="12493" ry="10221"/>
      <ellipse class="fil1" cx="1152828" cy="1257638" rx="12493" ry="10221"/>
      <ellipse class="fil1" cx="1221262" cy="1257638" rx="12493" ry="10221"/>
      <ellipse class="fil1" cx="1289696" cy="1257638" rx="12493" ry="10221"/>
      <ellipse class="fil1" cx="1358131" cy="1257638" rx="12493" ry="10221"/>
      <ellipse class="fil1" cx="1426565" cy="1257638" rx="12493" ry="10221"/>
      <ellipse class="fil1" cx="1494999" cy="1257638" rx="12493" ry="10221"/>
      <ellipse class="fil1" cx="1563433" cy="1257638" rx="12493" ry="10221"/>
      <ellipse class="fil1" cx="1631868" cy="1257638" rx="12493" ry="10221"/>
      <ellipse class="fil1" cx="1700302" cy="1257638" rx="12493" ry="10221"/>
      <ellipse class="fil1" cx="1768736" cy="1257638" rx="12493" ry="10221"/>
      <ellipse class="fil1" cx="1837170" cy="1257638" rx="12493" ry="10221"/>
      <ellipse class="fil1" cx="1905605" cy="1257638" rx="12493" ry="10221"/>
      <ellipse class="fil1" cx="1974039" cy="1257638" rx="12493" ry="10221"/>
      <ellipse class="fil1" cx="2042473" cy="1257638" rx="12493" ry="10221"/>
      <ellipse class="fil1" cx="2110907" cy="1257638" rx="12493" ry="10221"/>
      <ellipse class="fil1" cx="2179342" cy="1257638" rx="12493" ry="10221"/>
      <ellipse class="fil1" cx="2247784" cy="1257638" rx="12493" ry="10221"/>
      <ellipse class="fil1" cx="126314" cy="1257638" rx="12493" ry="10221"/>
      <ellipse class="fil1" cx="194749" cy="1257638" rx="12493" ry="10221"/>
     </g>
     <g>
      <ellipse class="fil1" cx="263183" cy="1348547" rx="12493" ry="10221"/>
      <ellipse class="fil1" cx="331617" cy="1348547" rx="12493" ry="10221"/>
      <ellipse class="fil1" cx="400051" cy="1348547" rx="12493" ry="10221"/>
      <ellipse class="fil1" cx="468485" cy="1348547" rx="12493" ry="10221"/>
      <ellipse class="fil1" cx="536920" cy="1348547" rx="12493" ry="10221"/>
      <ellipse class="fil1" cx="605354" cy="1348547" rx="12493" ry="10221"/>
      <ellipse class="fil1" cx="673788" cy="1348547" rx="12493" ry="10221"/>
      <ellipse class="fil1" cx="742222" cy="1348547" rx="12493" ry="10221"/>
      <ellipse class="fil1" cx="810657" cy="1348547" rx="12493" ry="10221"/>
      <ellipse class="fil1" cx="879091" cy="1348547" rx="12493" ry="10221"/>
      <ellipse class="fil1" cx="947525" cy="1348547" rx="12493" ry="10221"/>
      <ellipse class="fil1" cx="1015959" cy="1348547" rx="12493" ry="10221"/>
      <ellipse class="fil1" cx="1084394" cy="1348547" rx="12493" ry="10221"/>
      <ellipse class="fil1" cx="1152828" cy="1348547" rx="12493" ry="10221"/>
      <ellipse class="fil1" cx="1221262" cy="1348547" rx="12493" ry="10221"/>
      <ellipse class="fil1" cx="1289696" cy="1348547" rx="12493" ry="10221"/>
      <ellipse class="fil1" cx="1358131" cy="1348547" rx="12493" ry="10221"/>
      <ellipse class="fil1" cx="1426565" cy="1348547" rx="12493" ry="10221"/>
      <ellipse class="fil1" cx="1494999" cy="1348547" rx="12493" ry="10221"/>
      <ellipse class="fil1" cx="1563433" cy="1348547" rx="12493" ry="10221"/>
      <ellipse class="fil1" cx="1631868" cy="1348547" rx="12493" ry="10221"/>
      <ellipse class="fil1" cx="1700302" cy="1348547" rx="12493" ry="10221"/>
      <ellipse class="fil1" cx="1768736" cy="1348547" rx="12493" ry="10221"/>
      <ellipse class="fil1" cx="1837170" cy="1348547" rx="12493" ry="10221"/>
      <ellipse class="fil1" cx="1905605" cy="1348547" rx="12493" ry="10221"/>
      <ellipse class="fil1" cx="1974039" cy="1348547" rx="12493" ry="10221"/>
      <ellipse class="fil1" cx="2042473" cy="1348547" rx="12493" ry="10221"/>
      <ellipse class="fil1" cx="2110907" cy="1348547" rx="12493" ry="10221"/>
      <ellipse class="fil1" cx="2179342" cy="1348547" rx="12493" ry="10221"/>
      <ellipse class="fil1" cx="2247784" cy="1348547" rx="12493" ry="10221"/>
      <ellipse class="fil1" cx="126314" cy="1348547" rx="12493" ry="10221"/>
      <ellipse class="fil1" cx="194749" cy="1348547" rx="12493" ry="10221"/>
     </g>
     <g>
      <ellipse class="fil1" cx="263183" cy="1439456" rx="12493" ry="10221"/>
      <ellipse class="fil1" cx="331617" cy="1439456" rx="12493" ry="10221"/>
      <ellipse class="fil1" cx="400051" cy="1439456" rx="12493" ry="10221"/>
      <ellipse class="fil1" cx="468485" cy="1439456" rx="12493" ry="10221"/>
      <ellipse class="fil1" cx="536920" cy="1439456" rx="12493" ry="10221"/>
      <ellipse class="fil1" cx="605354" cy="1439456" rx="12493" ry="10221"/>
      <ellipse class="fil1" cx="673788" cy="1439456" rx="12493" ry="10221"/>
      <ellipse class="fil1" cx="742222" cy="1439456" rx="12493" ry="10221"/>
      <ellipse class="fil1" cx="810657" cy="1439456" rx="12493" ry="10221"/>
      <ellipse class="fil1" cx="879091" cy="1439456" rx="12493" ry="10221"/>
      <ellipse class="fil1" cx="947525" cy="1439456" rx="12493" ry="10221"/>
      <ellipse class="fil1" cx="1015959" cy="1439456" rx="12493" ry="10221"/>
      <ellipse class="fil1" cx="1084394" cy="1439456" rx="12493" ry="10221"/>
      <ellipse class="fil1" cx="1152828" cy="1439456" rx="12493" ry="10221"/>
      <ellipse class="fil1" cx="1221262" cy="1439456" rx="12493" ry="10221"/>
      <ellipse class="fil1" cx="1289696" cy="1439456" rx="12493" ry="10221"/>
      <ellipse class="fil1" cx="1358131" cy="1439456" rx="12493" ry="10221"/>
      <ellipse class="fil1" cx="1426565" cy="1439456" rx="12493" ry="10221"/>
      <ellipse class="fil1" cx="1494999" cy="1439456" rx="12493" ry="10221"/>
      <ellipse class="fil1" cx="1563433" cy="1439456" rx="12493" ry="10221"/>
      <ellipse class="fil1" cx="1631868" cy="1439456" rx="12493" ry="10221"/>
      <ellipse class="fil1" cx="1700302" cy="1439456" rx="12493" ry="10221"/>
      <ellipse class="fil1" cx="1768736" cy="1439456" rx="12493" ry="10221"/>
      <ellipse class="fil1" cx="1837170" cy="1439456" rx="12493" ry="10221"/>
      <ellipse class="fil1" cx="1905605" cy="1439456" rx="12493" ry="10221"/>
      <ellipse class="fil1" cx="1974039" cy="1439456" rx="12493" ry="10221"/>
      <ellipse class="fil1" cx="2042473" cy="1439456" rx="12493" ry="10221"/>
      <ellipse class="fil1" cx="2110907" cy="1439456" rx="12493" ry="10221"/>
      <ellipse class="fil1" cx="2179342" cy="1439456" rx="12493" ry="10221"/>
      <ellipse class="fil1" cx="2247784" cy="1439456" rx="12493" ry="10221"/>
      <ellipse class="fil1" cx="126314" cy="1439456" rx="12493" ry="10221"/>
      <ellipse class="fil1" cx="194749" cy="1439456" rx="12493" ry="10221"/>
     </g>
     <g>
      <ellipse class="fil1" cx="258133" cy="1530365" rx="12493" ry="10221"/>
      <ellipse class="fil1" cx="326567" cy="1530365" rx="12493" ry="10221"/>
      <ellipse class="fil1" cx="395002" cy="1530365" rx="12493" ry="10221"/>
      <ellipse class="fil1" cx="463436" cy="1530365" rx="12493" ry="10221"/>
      <ellipse class="fil1" cx="531870" cy="1530365" rx="12493" ry="10221"/>
      <ellipse class="fil1" cx="600304" cy="1530365" rx="12493" ry="10221"/>
      <ellipse class="fil1" cx="668739" cy="1530365" rx="12493" ry="10221"/>
      <ellipse class="fil1" cx="737173" cy="1530365" rx="12493" ry="10221"/>
      <ellipse class="fil1" cx="805607" cy="1530365" rx="12493" ry="10221"/>
      <ellipse class="fil1" cx="874041" cy="1530365" rx="12493" ry="10221"/>
      <ellipse class="fil1" cx="942476" cy="1530365" rx="12493" ry="10221"/>
      <ellipse class="fil1" cx="1010910" cy="1530365" rx="12493" ry="10221"/>
      <ellipse class="fil1" cx="1079344" cy="1530365" rx="12493" ry="10221"/>
      <ellipse class="fil1" cx="1147778" cy="1530365" rx="12493" ry="10221"/>
      <ellipse class="fil1" cx="1216213" cy="1530365" rx="12493" ry="10221"/>
      <ellipse class="fil1" cx="1284647" cy="1530365" rx="12493" ry="10221"/>
      <ellipse class="fil1" cx="1353081" cy="1530365" rx="12493" ry="10221"/>
      <ellipse class="fil1" cx="1421515" cy="1530365" rx="12493" ry="10221"/>
      <ellipse class="fil1" cx="1489949" cy="1530365" rx="12493" ry="10221"/>
      <ellipse class="fil1" cx="1558384" cy="1530365" rx="12493" ry="10221"/>
      <ellipse class="fil1" cx="1626818" cy="1530365" rx="12493" ry="10221"/>
      <ellipse class="fil1" cx="1695252" cy="1530365" rx="12493" ry="10221"/>
      <ellipse class="fil1" cx="1763686" cy="1530365" rx="12493" ry="10221"/>
      <ellipse class="fil1" cx="1832121" cy="1530365" rx="12493" ry="10221"/>
      <ellipse class="fil1" cx="1900555" cy="1530365" rx="12493" ry="10221"/>
      <ellipse class="fil1" cx="1968989" cy="1530365" rx="12493" ry="10221"/>
      <ellipse class="fil1" cx="2037423" cy="1530365" rx="12493" ry="10221"/>
      <ellipse class="fil1" cx="2105858" cy="1530365" rx="12493" ry="10221"/>
      <ellipse class="fil1" cx="2174292" cy="1530365" rx="12493" ry="10221"/>
      <ellipse class="fil1" cx="2242734" cy="1530365" rx="12493" ry="10221"/>
      <ellipse class="fil1" cx="121265" cy="1530365" rx="12493" ry="10221"/>
      <ellipse class="fil1" cx="189699" cy="1530365" rx="12493" ry="10221"/>
     </g>
     <g>
      <ellipse class="fil1" cx="253082" cy="1621274" rx="12493" ry="10221"/>
      <ellipse class="fil1" cx="321516" cy="1621274" rx="12493" ry="10221"/>
      <ellipse class="fil1" cx="389951" cy="1621274" rx="12493" ry="10221"/>
      <ellipse class="fil1" cx="458385" cy="1621274" rx="12493" ry="10221"/>
      <ellipse class="fil1" cx="526819" cy="1621274" rx="12493" ry="10221"/>
      <ellipse class="fil1" cx="595253" cy="1621274" rx="12493" ry="10221"/>
      <ellipse class="fil1" cx="663688" cy="1621274" rx="12493" ry="10221"/>
      <ellipse class="fil1" cx="732122" cy="1621274" rx="12493" ry="10221"/>
      <ellipse class="fil1" cx="800556" cy="1621274" rx="12493" ry="10221"/>
      <ellipse class="fil1" cx="868990" cy="1621274" rx="12493" ry="10221"/>
      <ellipse class="fil1" cx="937425" cy="1621274" rx="12493" ry="10221"/>
      <ellipse class="fil1" cx="1005859" cy="1621274" rx="12493" ry="10221"/>
      <ellipse class="fil1" cx="1074293" cy="1621274" rx="12493" ry="10221"/>
      <ellipse class="fil1" cx="1142727" cy="1621274" rx="12493" ry="10221"/>
      <ellipse class="fil1" cx="1211162" cy="1621274" rx="12493" ry="10221"/>
      <ellipse class="fil1" cx="1279596" cy="1621274" rx="12493" ry="10221"/>
      <ellipse class="fil1" cx="1348030" cy="1621274" rx="12493" ry="10221"/>
      <ellipse class="fil1" cx="1416464" cy="1621274" rx="12493" ry="10221"/>
      <ellipse class="fil1" cx="1484899" cy="1621274" rx="12493" ry="10221"/>
      <ellipse class="fil1" cx="1553333" cy="1621274" rx="12493" ry="10221"/>
      <ellipse class="fil1" cx="1621767" cy="1621274" rx="12493" ry="10221"/>
      <ellipse class="fil1" cx="1690201" cy="1621274" rx="12493" ry="10221"/>
      <ellipse class="fil1" cx="1758636" cy="1621274" rx="12493" ry="10221"/>
      <ellipse class="fil1" cx="1827070" cy="1621274" rx="12493" ry="10221"/>
      <ellipse class="fil1" cx="1895504" cy="1621274" rx="12493" ry="10221"/>
      <ellipse class="fil1" cx="1963938" cy="1621274" rx="12493" ry="10221"/>
      <ellipse class="fil1" cx="2032373" cy="1621274" rx="12493" ry="10221"/>
      <ellipse class="fil1" cx="2100807" cy="1621274" rx="12493" ry="10221"/>
      <ellipse class="fil1" cx="2169241" cy="1621274" rx="12493" ry="10221"/>
      <ellipse class="fil1" cx="2237683" cy="1621274" rx="12493" ry="10221"/>
      <ellipse class="fil1" cx="116214" cy="1621274" rx="12493" ry="10221"/>
      <ellipse class="fil1" cx="184648" cy="1621274" rx="12493" ry="10221"/>
     </g>
     <g>
      <ellipse class="fil1" cx="258133" cy="1712183" rx="12493" ry="10221"/>
      <ellipse class="fil1" cx="326567" cy="1712183" rx="12493" ry="10221"/>
      <ellipse class="fil1" cx="395002" cy="1712183" rx="12493" ry="10221"/>
      <ellipse class="fil1" cx="463436" cy="1712183" rx="12493" ry="10221"/>
      <ellipse class="fil1" cx="531870" cy="1712183" rx="12493" ry="10221"/>
      <ellipse class="fil1" cx="600304" cy="1712183" rx="12493" ry="10221"/>
      <ellipse class="fil1" cx="668739" cy="1712183" rx="12493" ry="10221"/>
      <ellipse class="fil1" cx="737173" cy="1712183" rx="12493" ry="10221"/>
      <ellipse class="fil1" cx="805607" cy="1712183" rx="12493" ry="10221"/>
      <ellipse class="fil1" cx="874041" cy="1712183" rx="12493" ry="10221"/>
      <ellipse class="fil1" cx="942476" cy="1712183" rx="12493" ry="10221"/>
      <ellipse class="fil1" cx="1010910" cy="1712183" rx="12493" ry="10221"/>
      <ellipse class="fil1" cx="1079344" cy="1712183" rx="12493" ry="10221"/>
      <ellipse class="fil1" cx="1147778" cy="1712183" rx="12493" ry="10221"/>
      <ellipse class="fil1" cx="1216213" cy="1712183" rx="12493" ry="10221"/>
      <ellipse class="fil1" cx="1284647" cy="1712183" rx="12493" ry="10221"/>
      <ellipse class="fil1" cx="1353081" cy="1712183" rx="12493" ry="10221"/>
      <ellipse class="fil1" cx="1421515" cy="1712183" rx="12493" ry="10221"/>
      <ellipse class="fil1" cx="1489949" cy="1712183" rx="12493" ry="10221"/>
      <ellipse class="fil1" cx="1558384" cy="1712183" rx="12493" ry="10221"/>
      <ellipse class="fil1" cx="1626818" cy="1712183" rx="12493" ry="10221"/>
      <ellipse class="fil1" cx="1695252" cy="1712183" rx="12493" ry="10221"/>
      <ellipse class="fil1" cx="1763686" cy="1712183" rx="12493" ry="10221"/>
      <ellipse class="fil1" cx="1832121" cy="1712183" rx="12493" ry="10221"/>
      <ellipse class="fil1" cx="1900555" cy="1712183" rx="12493" ry="10221"/>
      <ellipse class="fil1" cx="1968989" cy="1712183" rx="12493" ry="10221"/>
      <ellipse class="fil1" cx="2037423" cy="1712183" rx="12493" ry="10221"/>
      <ellipse class="fil1" cx="2105858" cy="1712183" rx="12493" ry="10221"/>
      <ellipse class="fil1" cx="2174292" cy="1712183" rx="12493" ry="10221"/>
      <ellipse class="fil1" cx="2242734" cy="1712183" rx="12493" ry="10221"/>
      <ellipse class="fil1" cx="121265" cy="1712183" rx="12493" ry="10221"/>
      <ellipse class="fil1" cx="189699" cy="1712183" rx="12493" ry="10221"/>
     </g>
    </g>
   </g>
   <g>
    <g>
     <g>
      <path class="fil2" d="M1320739 1344111c0,-11249 240,-18987 7857,-27707 11557,-13234 69020,-20956 69020,21419 0,14384 323,23251 -8224,35721 -25918,37816 -68653,-12843 -68653,-29433zm-33245 4193c0,16715 11414,31483 20256,40350 17336,17384 30890,19904 35844,26723 -9744,2625 -13997,8494 -19380,16083 -4784,6742 -2597,-1585 -3475,9071 10110,-2159 4246,-3947 6233,2096 16510,-1387 9047,-19162 58915,5544 24792,12283 66831,38063 83685,12546 4867,-7367 9078,-17175 9078,-28570 -5171,-2106 -1302,-47 -4480,-3865 -3964,-4758 3654,1014 -3831,-4520l-16623 27250c-4753,-2301 -9676,-1785 -23726,-7507 -8293,-3378 -15099,-6107 -22291,-8953 -11340,-4487 -34338,-16149 -45405,-17078 4911,-6762 1158,-2719 11136,-5535 50020,-14122 69620,-76743 46481,-107089 -7434,-9750 -6774,-9335 -16589,-16801 -27931,-21246 -69148,-6540 -93821,15379l-15131 18273c-4233,8051 -6876,15056 -6876,26603z"/>
      <path class="fil2" d="M1615637 1329439l12671 25123 -27069 913 -6952 288c1564,-7139 13345,-30917 17140,-37267l4210 10943zm68711 63635c-1892,-2059 -317,164 -3267,-3706l-11682 -21726c-8635,-17438 -34268,-66161 -37740,-78029 -992,-5804 -2398,-4589 -5488,-10480l-14544 0c-5048,9620 -8649,19595 -13842,30054 -8684,17491 -34038,83714 -48492,90173l-4377 2891 2848 11031 3880 0c10658,-5474 28663,-984 41464,-1171l1698 -7213c-851,-4026 -249,-3362 -1879,-6288l-10390 -309 -6427 -2079 11029 -26331 48967 -12 2461 5674c794,1458 9097,17453 9245,18184 1136,5649 -7382,5946 -19564,6968 2647,5565 1897,2244 2078,10481 1998,1682 2063,690 4157,1411l106989 -949 2263 -6750c1431,-6336 -710,-3808 -5364,-5980 -7417,-3104 -6544,-3401 -6921,-14894l516 -98677c255,-11387 1582,-17835 14716,-25788 -1098,-3405 -556,-2848 -2078,-5581 -8747,736 -16123,6042 -23560,9772 -9953,4993 -15258,9571 -22151,11190 0,13461 4196,18937 4214,33478l-429 79336c-704,5017 -907,10928 -6423,12299 -5107,1267 -8783,-4299 -11907,-6979z"/>
      <path class="fil2" d="M1241783 1390225c-19054,0 -24646,-5392 -35321,-6289 2411,-9113 8456,-10587 15043,-16263 17056,-14697 13053,-13082 26511,-13082 14410,21709 5755,35634 -6233,35634zm24933 -102709c-6962,0 -14809,-5392 -21668,-7487 -33767,-10312 -89791,29358 -85245,58734 2429,15690 13744,23734 23802,38885l-14545 25153c13001,3502 -2724,3963 27838,11744 30532,7774 50182,9308 71387,-12258 46887,-47689 -5070,-79138 -24424,-79138 -3591,0 -15831,11008 -19240,14129 -6644,6081 -10823,10261 -18159,15218 -30283,-20457 -2965,-65328 49019,-32684 7677,4822 5369,5435 15391,5435 3863,-7368 16622,-32594 16622,-41922 0,-1142 -3365,-8341 -12466,-10481 -910,3939 -4497,14672 -8312,14672z"/>
      <path class="fil2" d="M2021448 1413282c10373,-4861 26838,-1645 38978,-1012 2977,-2288 1230,-535 3747,-3414 42,-48 2214,-3056 2485,-3422l0 -4729 -6232 -1799c-7584,-3362 -7102,-5170 -7057,-17023 66,-17712 952,-44977 24418,-44171l3701 6399c7811,19642 1794,31790 1794,52403 -12824,8662 -10178,5056 -10390,14672 2978,1688 2386,1158 6752,2096 10405,-4858 26804,-1610 38958,-1032 2533,-2093 1344,-821 3647,-3520 157,-184 2250,-3085 2588,-3532l0 -4493 -6235 -1709c-10141,-5933 -8597,-20800 -5998,-37956 1969,-12993 8805,-22217 20909,-24145l6786 7216c7380,13567 1159,35915 1159,52403 -12822,8662 -10176,5056 -10389,14672 2975,1686 2384,1156 6741,2096 10703,-5017 26671,-847 38971,-1501l4339 -8980c-3301,-4413 -689,-2563 -6417,-4881 -5618,-2828 -5773,-4080 -5306,-13290 281,-5561 786,-11551 1061,-17443 732,-15691 3263,-20975 -2381,-35653 -20135,-37120 -44429,-4831 -57785,4192 -3225,-12184 -12842,-17711 -22855,-23057 -6856,3319 -8368,2580 -15439,7484 -6344,4398 -6707,7282 -13003,9286l-6794 7996 848 -18477 -5478 -5914 -28701 14299c8892,18695 6234,44669 6234,69171 -12823,8662 -10177,5056 -10388,14672 2970,1684 2382,1156 6732,2096z"/>
      <path class="fil2" d="M2176781 1472809c6837,-5908 2720,-10364 11661,-14258 13663,-5949 54852,-6275 69276,-4681l-988 5526c-3209,7010 -5561,9554 -7228,16768 3101,1757 2430,1160 7088,2096 5622,-6961 20306,-29547 21209,-41921 -2839,-6777 -2522,-5098 -9294,-6579 -20510,-4483 -30043,-40 -48090,430l-13280 1165c14365,-13193 32578,-26206 44417,-39096 13095,-14260 28904,-25531 26281,-54436 -1061,-12252 -19071,-20211 -28331,-25154 -14787,12969 -36003,12004 2079,37731 0,12467 -2649,26271 -12461,33536 -3121,2806 4012,2407 -3893,2347 -5419,-16238 -24794,-43434 -24895,-58940 5328,-5738 7973,-7283 14238,-11333 -3027,-3950 -438,799 -2078,-5437 -12297,277 -38488,14677 -47789,20961 13530,25794 25940,51746 39477,77556 -43387,29309 -36721,46255 -43632,60786l6233 2933z"/>
      <path class="fil2" d="M1825637 1400705l-2078 2096c464,5617 -1158,2857 1585,6814 2894,4176 3817,2559 4649,2931l41555 -968c1881,-1155 1546,-741 3466,-3093 774,-952 2032,-2787 2767,-3744 -2319,-6208 1264,-2612 -6232,-5710l-5844 -2760c-4212,-23516 -3743,-48950 18836,-60035l8540 7875c6551,14490 2289,48973 -1506,53739 -5757,7231 -7250,-756 -7559,13336 2944,1670 2372,1154 6659,2096 11366,-5355 27944,-176 40960,-1787l3366 -10790c-3314,-1354 -3482,-1321 -7353,-2943 -6929,-3255 -5390,-6323 -4895,-15887 315,-6118 628,-12437 1075,-18539 1087,-14909 2576,-18859 -2706,-31802 -3546,-6185 -15127,-18932 -23976,-18057 -4827,479 -10579,4280 -14018,6682 -5915,4131 -7243,5636 -13227,9280 -3040,6482 -22,2886 -6096,7619 -1081,-10626 1218,-32690 1353,-45356 211,-19686 1919,-24352 14701,-32018 -1090,-3522 -527,-2918 -2078,-5706 -8747,736 -16123,6042 -23558,9772 -9955,4993 -15261,9571 -22153,11190 207,9367 3520,18463 4160,27245l-1 81755c-612,8158 -1874,5356 -2080,14670l-8312 2095z"/>
      <path class="fil2" d="M1547764 1413282l-2848 -11031 4377 -2891c0,-15212 7834,-31614 -12466,-36384 -735,8914 -5859,23948 -12014,27706 -7992,4881 -25278,3735 -37853,3735 -9138,-19211 -4735,-73817 0,-94325 9210,-2163 9678,-1597 16623,-6287 -2169,-9387 -4132,-6731 -6234,-14672 -9577,0 -10969,2216 -33302,2155 -12120,-33 -18773,-2155 -33187,-2155 -2325,10072 -3621,9611 768,13897 6010,5873 11309,5577 15855,9160 0,29165 3721,69214 -2079,94324 -5713,1341 -10908,2848 -16621,4191 0,31711 36293,8829 87103,14838 13073,1545 18446,5488 31878,-2261z"/>
      <path class="fil2" d="M1969738 1350400l-7184 4575c539,-12155 1045,-16623 8528,-22525 2288,573 5102,965 7301,2086 7125,2529 4022,3117 5770,5383 905,1676 -44,2360 1473,4192 -7552,1775 -8884,4307 -15888,6289zm-11123 60613c20765,6699 41638,-5806 51257,-17299 4904,-5859 1781,543 3536,-7681l-5300 -5937c-26837,17452 -22284,8436 -34949,2377 -5910,-5457 -5961,-5903 -8385,-15305l47688 -23120 1403 -10418c-1111,-2770 354,-728 -1834,-3646 -13300,-17750 -29338,-24131 -47577,-9328l-15732 13475c-2779,3159 -2472,3628 -5249,7280 -3391,4460 -3397,3553 -5483,9144 -6743,18081 1770,56149 20625,60458z"/>
      <path class="fil2" d="M1773694 1412539c15597,2752 21630,677 32346,-6406 3888,-2568 7143,-5561 10353,-8411 5204,-4624 7273,-4896 9052,-11689l-4245 -6059c-19507,10137 -21690,16006 -35249,2347l-1868 -1677c-3026,-2811 -4406,-2815 -6687,-10825 -3947,-13863 -3217,-27826 4901,-37687 8414,2817 7129,1321 10953,7787 7177,7342 1866,10366 11609,12259 8666,-2133 14978,-4714 20544,-10161l-40 -10483c-4383,-7570 -20093,-22661 -33276,-19347 -11809,3552 -25860,16662 -33485,25084 -23587,26048 -3507,73527 15092,75268z"/>
      <path class="fil3" d="M2220415 1430190l20308 -17382c34955,-33537 42025,-36970 42025,-72889l-4915 -2096c2623,28905 -13186,40176 -26281,54436 -11839,12890 -30052,25903 -44417,39096l13280 -1165z"/>
      <path class="fil3" d="M1738371 1398918c-4799,-22250 -2338,-84837 -91,-111493 2317,-27494 16038,-15080 8402,-27866 -13134,7953 -14461,14401 -14716,25788l-516 98677c377,11493 -496,11790 6921,14894z"/>
      <path class="fil3" d="M1634483 1412597l4155 4877 105966 0 4269 -8323c-3863,-6796 -1102,-2046 -5138,-4253l-2263 6750 -106989 949z"/>
      <path class="fil3" d="M2176781 1472809l3909 3665c11435,-7915 1434,-12294 31866,-16622 15927,-2264 30160,-3137 44174,-456l988 -5526c-14424,-1594 -55613,-1268 -69276,4681 -8941,3894 -4824,8350 -11661,14258z"/>
      <path class="fil3" d="M1869701 1329439c-2144,-26871 1497,-25664 1668,-39805 357,-29377 16367,-16907 8290,-29950 -12782,7666 -14490,12332 -14701,32018 -135,12666 -2434,34730 -1353,45356 6074,-4733 3056,-1137 6096,-7619z"/>
      <path class="fil3" d="M1973159 1382473c-1062,-5267 -1594,-5243 -2077,-11112l40964 -19461c8331,-4727 8832,-12741 4575,-16174l-2756 -2096 -1403 10418 -47688 23120c2424,9402 2475,9848 8385,15305z"/>
      <path class="fil3" d="M1582537 1398301c1830,-3521 2966,-7217 4755,-11658 2905,-7205 1914,-5485 5635,-11090l45640 0 -2461 -5674 -48967 12 -11029 26331 6427 2079z"/>
      <path class="fil3" d="M2060426 1398906c-3209,-14836 -2223,-17217 -31,-31768 2661,-17668 5148,-11954 12497,-23027l8596 0 -3701 -6399c-23466,-806 -24352,26459 -24418,44171 -45,11853 -527,13661 7057,17023z"/>
      <path class="fil3" d="M2118602 1398996c-4144,-9641 -1694,-25511 125,-35895 1315,-7509 2003,-7403 6536,-12270 5203,-5590 4812,-6720 15036,-6720l-6786 -7216c-12104,1928 -18940,11152 -20909,24145 -2599,17156 -4143,32023 5998,37956z"/>
      <path class="fil3" d="M1773694 1412539l2139 4903c29243,2535 20000,4089 47726,-14641l2078 -2096c2267,-4320 2882,-4968 4156,-10480 -296,-394 -900,-1401 -1042,-1045l-3306 -3147c-1779,6793 -3848,7065 -9052,11689 -3210,2850 -6465,5843 -10353,8411 -10716,7083 -16749,9158 -32346,6406z"/>
      <path class="fil3" d="M1871349 1399031c-4525,-10613 -4646,-39129 10196,-53018 3025,-2831 3634,-1902 11336,-1902l-8540 -7875c-22579,11085 -23048,36519 -18836,60035l5844 2760z"/>
      <path class="fil3" d="M1958615 1411013c8476,12317 26070,8862 37387,2257 7087,-4136 27969,-16833 17406,-27237 -1755,8224 1368,1822 -3536,7681 -9619,11493 -30492,23998 -51257,17299z"/>
      <path class="fil3" d="M2174703 1397920c0,-14891 2087,-22485 2137,-34885 65,-15881 1110,-25026 -8763,-31501 5644,14678 3113,19962 2381,35653 -275,5892 -780,11882 -1061,17443 -467,9210 -312,10462 5306,13290z"/>
      <path class="fil3" d="M2239120 1383936l-6249 -10470c-4254,-8752 -18456,-33464 -16613,-39836 5026,-7570 13191,-9113 8312,-17620 -6265,4050 -8910,5595 -14238,11333 101,15506 19476,42702 24895,58940 7905,60 772,459 3893,-2347z"/>
      <path class="fil3" d="M1927448 1397762c0,-21330 8956,-55777 -6526,-66228 5282,12943 3793,16893 2706,31802 -447,6102 -760,12421 -1075,18539 -495,9564 -2034,12632 4895,15887z"/>
      <path class="fil3" d="M1684348 1393074l-46938 -97974c-3308,-5345 -796,-2537 -5751,-5487 3472,11868 29105,60591 37740,78029l11682 21726c2950,3870 1375,1647 3267,3706z"/>
      <path class="fil3" d="M1890475 1413282l1743 4146c13201,46 33889,2623 43541,-2051 3797,-7982 2387,-7613 -958,-14672l-3366 10790c-13016,1611 -29594,-3568 -40960,1787z"/>
      <path class="fil3" d="M2137810 1413282c943,1610 123,2443 1571,4192 10414,0 20886,150 31281,116 6248,-22 10326,532 13108,-3787 4333,-6727 314,-8672 -2650,-11002l-4339 8980c-12300,654 -28268,-3516 -38971,1501z"/>
      <path class="fil3" d="M2079644 1413282c939,1617 104,2435 1559,4192 21320,0 38176,3379 46834,-5156 213,-210 617,-772 955,-1132l-1393 -2766c-3494,-4826 -177,-534 -2762,-3222 -338,447 -2431,3348 -2588,3532 -2303,2699 -1114,1427 -3647,3520 -12154,-578 -28553,-3826 -38958,1032z"/>
      <path class="fil3" d="M2256590 1478260c2913,6932 -3714,-1771 1224,4193 22019,-11754 26235,-48044 23868,-42967l-3883 -3147c-903,12374 -15587,34960 -21209,41921z"/>
      <path class="fil3" d="M2021448 1413282c947,1607 134,2449 1577,4192l43633 0 4270 -8323 -4270 -3717c-271,366 -2443,3374 -2485,3422 -2517,2879 -770,1126 -3747,3414 -12140,-633 -28605,-3849 -38978,1012z"/>
      <path class="fil3" d="M1551644 1413282l1931 4123c9597,69 19310,63 29033,140 13129,101 16260,601 16552,-12647l-4354 0 -1698 7213c-12801,187 -30806,-4303 -41464,1171z"/>
      <path class="fil3" d="M1829793 1412546l2141 4896c16653,32 34113,1135 47725,-2065 0,-1533 148,-4717 -173,-6125 -891,-3916 -571,-2290 -1905,-4511 -735,957 -1993,2792 -2767,3744 -1920,2352 -1585,1938 -3466,3093l-41555 968z"/>
      <path class="fil3" d="M1784083 1380644c-4416,-23041 -5243,-18029 0,-40725l9167 0c-3824,-6466 -2539,-4970 -10953,-7787 -8118,9861 -8848,23824 -4901,37687 2281,8010 3661,8014 6687,10825z"/>
      <path class="fil3" d="M1601239 1355475c2023,-4823 3314,-8668 5561,-14143 499,-1213 2850,-6447 3299,-7158 2452,-3900 1023,-3024 5538,-4735l-4210 -10943c-5960,6350 -15576,30128 -17140,37267l6952 -288z"/>
      <path class="fil3" d="M1804859 1352178c5170,10228 19564,-248 24934,-3874 0,-10481 1199,-11556 -2134,-14674l-2296 -2096 40 10483c-5566,5447 -11878,8028 -20544,10161z"/>
      <path class="fil3" d="M1969738 1350400c500,-7927 1717,-6879 5499,-12577l8916 2096c-1748,-2266 -810,-2854 -5770,-5383 -2199,-1121 -5013,-1513 -7301,-2086 -7483,5902 -7989,10370 -8528,22525l7184 -4575z"/>
      <path class="fil3" d="M2058995 1329439c-1741,-8200 -1183,-5939 -5946,-10481l-848 18477 6794 -7996z"/>
     </g>
     <g>
      <path class="fil2" d="M329220 1525386c18130,0 29107,1813 46725,1813l-46725 -1813zm-12581 -1813l7189 0 0 1813 -7189 0 0 -1813zm-12579 -1815l7188 0 0 1815c-1001,0 -2934,35 -3472,-121 -3181,-924 -1997,-592 -3716,-1694zm7188 -3624l5391 0 0 1811 -5391 0 0 -1811zm-8986 -1813l7189 0 0 1813c-1001,0 -2933,36 -3473,-122 -3179,-923 -1995,-591 -3716,-1691zm68291 -1813l536 540c-35,-35 -714,-360 -536,-540zm-8985 0l536 540c-36,-35 -715,-360 -536,-540zm-59306 1813l-5391 0 0 -1813c9502,0 2679,12 5391,1813zm50320 -3626l0 1813 -2097 -1511 2097 -302zm-75479 -1813c5790,1360 7913,2494 13328,4684 3130,1266 4099,1531 6480,2527l7149 3665c-11912,0 -18590,-4863 -28754,-7250l1797 -3626zm75479 1813l0 -1813 2096 1510 -2096 303zm-82667 -1813l536 540c-36,-35 -715,-360 -536,-540zm80869 -1813l0 1813 -2096 -1511 2096 -302zm-12579 0l0 1813 -2097 -1511 2097 -302zm-55711 0l537 539c-36,-34 -716,-359 -537,-539zm-5391 1813l-3595 -1813 3595 1813zm-10783 -1813l536 539c-35,-34 -714,-359 -536,-539zm129393 -1813c8393,0 21897,-3341 26956,3626 -10398,0 -14952,-1813 -26956,-1813l0 -1813zm-44929 1813l3505 -2086 -3505 2086zm-12579 0c3153,-4750 909,-3748 7188,-5440l0 7253 -7188 -1813zm-64697 0l-3863 -998 3863 998zm-10782 -1813l536 539c-36,-34 -715,-359 -536,-539zm3594 -1813l536 539c-35,-34 -714,-360 -536,-539zm-3594 -1814l1798 0 -1498 2116 -300 -2116zm-7188 0l536 540c-36,-34 -715,-360 -536,-540zm7188 0l-3595 -1813 3595 1813zm5391 -3626l537 540c-36,-34 -716,-358 -537,-540zm-8986 1813l-3862 -997 3862 997zm145568 -9065l1797 0 -1499 2116 -298 -2116zm-118610 -10877l3864 996 -3864 -996zm-19769 -1813l3865 998 -3865 -998zm0 0l-3864 -997 3864 997zm19769 1813c-6279,-1691 -4036,-690 -7188,-5439l7188 0c-2007,4722 -1896,810 0,5439zm-19769 -10878l536 540c-35,-35 -714,-360 -536,-540zm1797 -9065l3864 997 -3864 -997zm-12579 0l7119 2035c-1553,795 2708,2534 -3359,1168 -3169,-713 -1951,-711 -3760,-3203zm12579 0l-5391 0 0 -1813c9501,0 2679,13 5391,1813zm-12579 0l-3864 -997 3864 997zm-26957 -3626c11081,0 10711,2865 19768,3626l0 3626c-22902,0 -17551,-2995 -19768,-7252zm-25160 -1813c8243,4400 5892,1194 9601,6632l7355 8896c262,264 636,644 888,917 4548,4925 2619,4744 9691,8353 6814,3479 6205,1812 10205,7835 -13354,-300 -13194,-6677 -21235,-13023 -6894,-5443 -13987,-10094 -16505,-19610zm0 0l-1798 -1813 1798 1813zm41333 -3625l538 540c-36,-35 -716,-361 -538,-540zm8986 -3627l537 541c-35,-36 -716,-360 -537,-541zm-5391 -1813l3864 998 -3864 -998zm0 0l-1797 0 1498 -2114 299 2114zm-30551 -9064l536 540c-35,-35 -714,-360 -536,-540zm-26957 -1813c5846,3949 10032,9024 10782,18129 -278,-323 -721,-1249 -828,-977l-9954 -17152zm-7188 -10878c5212,3520 5542,3750 7188,10878 -3625,-2679 -5844,-5803 -7188,-10878zm52117 23568c-3389,-2288 -3520,-2561 -7878,-4840 -2607,-1363 -974,74 -3567,-1761 -2908,-2057 -1301,-1291 -2149,-2896 -4468,-8457 3975,4767 -1279,-2677l-8490 -11394c4490,-1055 4926,-2301 7902,-2924 5467,-1144 2905,510 10070,1111 -342,300 -946,244 -1082,828 -378,1618 -6816,2512 -2104,9573 3889,5826 7944,7319 8577,14980zm-55711 -29007c3866,2712 2366,265 3594,5439 -3866,-2711 -2366,-265 -3594,-5439zm0 0l-1797 0 1497 -2114 300 2114zm61102 -5439l2066 3536 -2066 -3536zm-64697 0l1798 0 -1498 2115 -300 -2115zm62899 -3625l1798 3625 -1798 -3625zm-64695 0l1796 3625 -1796 -3625zm-1797 -3626l1797 3626 -1797 -3626zm0 0l-2068 -3536 2068 3536zm23361 -9065c9293,780 5652,3390 16175,3626l988 -3899c1140,15277 5202,6296 7998,18402l-21551 -10891c-2908,-2781 -2206,-4544 -3610,-7238zm-26956 1813l536 540c-36,-35 -715,-360 -536,-540zm3595 -1813l536 540c-36,-35 -715,-360 -536,-540zm37738 -3626l537 540c-35,-35 -714,-360 -537,-540zm-39536 0l1798 0 -1498 2115 -300 -2115zm39536 -5439l-1797 0 1498 -2116 299 2116zm-44927 -7252c4238,3133 4816,5719 5391,12691 -3717,-4315 -4839,-5988 -5391,-12691zm26957 0l11197 10459c-3693,2058 -2663,1817 -7604,2232 -628,-7622 -2042,-5973 -3593,-12691zm26956 1813c-4399,-3252 -3868,-2467 -5391,-9065 4399,3251 3867,2468 5391,9065zm-57508 -9065c1837,-2001 1798,3172 1798,-5438 417,464 2345,832 3034,4340 1584,8051 87,2959 -1237,4725l0 3625 -1797 -3625 -1798 -3627zm-1797 -3625l1797 3625 -1797 -3625zm53914 0l1798 0 -1498 2114 -300 -2114zm3594 -1813l536 540c-35,-35 -714,-360 -536,-540zm-57508 1813l-2066 -3536 2066 3536zm3595 -1813l-2067 -3536 2067 3536zm30551 -9065l1796 0 -1497 2115 -299 -2115zm0 0l-1797 -1813 1797 1813zm0 -5439l1796 0 -1497 2115 -299 -2115zm3594 -1813l1797 0 -1497 2115 -300 -2115zm-41334 0c0,-4536 2867,-424 1105,0 -21,4 -1105,5127 -1105,0zm10784 -1814c1395,-1408 6138,1107 2830,2290 -2147,769 -4216,-892 -2830,-2290zm3593 -3626l1798 0 -1498 2116 -300 -2116zm0 0l-3863 -997 3863 997zm-3593 -16316l5391 0c-4031,5630 -1361,5630 -5391,0zm14376 -3626l7188 0c-1847,6980 -479,5439 -8985,5439l0 -1813c2105,0 3069,692 3842,-681l-2045 -2945zm71884 -1813c0,-4535 2868,-423 1106,0 -22,5 -1106,5127 -1106,0zm-3593 0c0,-4535 2866,-423 1105,0 -22,5 -1105,5127 -1105,0zm3593 39886l0 3626c3278,-1641 2249,-1399 7189,-1813l0 3626c-5255,1268 -2588,-234 -5391,3625 0,9585 13,2703 1797,5440 1228,-5175 -274,-2729 3594,-5440 2068,8955 6982,23256 7188,32634 1192,1382 1190,509 2358,3060 1679,3663 462,837 1237,4191l-3595 0 0 5439c7448,2006 3511,1004 7243,5519 6337,7668 2879,-2957 17199,18775 1948,2958 2949,4859 5002,7646 2352,3191 5242,5065 6679,7493 2630,4441 1942,14637 26995,23801 17763,6496 5415,802 16961,10083 7922,6368 32895,11910 38532,15519 -15803,3713 -25603,-4891 -41306,-9138 -10066,-2721 -9350,-2548 -14406,1885l-3593 -1813c-5317,1433 -2914,738 -7189,3626 -11333,-7655 2433,-3162 -12612,-7367 -3555,-993 -6393,2719 -3562,-10762l-7189 0 3595 -5439c-6518,-4403 -20274,-21822 -43131,-27194 359,-238 859,-1114 1064,-735l6125 -1078c-440,-19882 -11717,-8730 -21566,-23569 7727,-648 3239,257 8985,-3626 -1858,-8043 -6756,-12383 -12580,-16316l0 3626c-5747,-3883 -1258,-2978 -8984,-3626 0,9585 -14,2702 -1798,5439 -3136,-7839 -6401,1633 -9181,-10681 -1428,-6330 -579,-5913 -5813,-10454l-2978 -2434 7189 0c1360,-2443 982,-2004 1797,-5439 11425,-959 8099,-322 10784,-5438 -1547,-2330 -1382,-1800 -3100,-4128 -1946,-2637 -2125,-3706 -3734,-5438 -4105,-4415 -1832,-1165 -5961,-2569 -199,-68 -711,-184 -896,-267 -169,-77 -2447,-2063 -2484,-2102l0 7252c-7128,5268 -1783,8158 -12581,9065l2070 -10818 -5663 -60 0 10878c-9502,0 -2680,12 -5391,1812 -12510,-3370 3752,-8292 -12580,-12690 4450,-6706 10228,-10010 11856,-4879 1756,5527 152,1891 -2871,3066 638,7727 979,9204 7188,10878l0 -14504 10724 -2088 -5333 -5164 5393 0 -3595 -5440 -1798 -1813 -7117 -2035 3524 5662 -3594 1813 -3595 0 1798 3626c-4283,-1007 -9038,-1912 -12580,-3626 1486,-13703 2108,2824 3594,-10879 4282,-1005 9037,-1910 12579,-3626 -234,-10615 -2821,-6941 -3593,-16316 20921,0 9663,-4797 21641,-7963 5606,-1482 3418,561 5315,-4728 4231,995 5307,1691 10784,1813 1420,-2885 1840,3335 0,-5439 8463,-710 15686,-3625 25159,-3625l0 16316c-4597,-1678 -1956,-968 -3595,-1813 -1638,-844 1003,-134 -3594,-1813 -825,3577 -3034,9195 -1544,14425 2430,8536 2113,683 8733,-1734 2881,6056 1663,8121 1735,16380 76,8968 1679,8136 1858,16254 -221,123 -631,18 -696,307l-4695 3319zm-77276 -54390l-2454 1151c-6530,2712 -5151,885 -6530,6101 -7535,-632 -7503,-1353 -10972,-5248l-1609 -2004c1738,-2392 -448,-49 2495,-2922l2896 -2516c-11070,0 -9995,-378 -12473,9172l-1904 5331c-1748,-7572 -5222,-17996 17972,-19943l0 7252 12579 3626zm113219 -18129l0 3626 -3594 -3626 3594 0zm-3594 0l-1797 0 1497 -2115 300 2115zm-43131 -5439l-3855 -5221c29015,-7660 46312,9765 -16971,20470 -14237,2410 -14851,609 -25900,6506 -1566,-5916 -7456,-11577 -10782,-12690l0 9065c6539,1536 5762,1000 8986,5438 -11065,2602 -7173,7295 -17972,0l-3593 -14503c14207,0 21379,-6180 34145,-7252l2317 -1289c2501,-943 12,-134 2654,-947l21985 -5016 0 7252c7063,-158 4215,496 8986,-1813zm-21565 -10878l1797 0 -1499 2115 -298 -2115zm-32349 0c1861,-1877 6498,2641 2067,971 -42,-17 -5083,2072 -2067,-971zm32349 0l-3595 7252c-6984,-1881 -6700,-5093 -12580,-9065l0 5439c-5242,-2538 -5921,-1176 -10782,-5439 11479,0 16474,-4558 26957,-5439l0 7252zm-35943 -10877l10782 0 0 1812 -10782 0 0 -1812zm10782 -7253c9440,212 6864,1861 14377,3627l-3001 4724c-60,178 -136,745 -182,903 -42,147 -173,711 -202,826 -30,113 -92,550 -208,798 -11218,-2636 -8509,-5743 -10784,-10878zm0 -10877l537 540c-35,-35 -716,-360 -537,-540zm-10782 -21756l0 5440 -10782 0c3675,-7010 395,-5440 10782,-5440zm219249 266505c-9004,7878 -9080,12116 -41897,-1245 -12381,-5041 -17978,-8199 -28781,-14477 -9285,-5394 -15952,-10974 -23224,-18268 -2153,-2157 -3472,-3242 -5270,-5561 -21690,-27961 -31220,-34928 -39663,-77829 -2129,-10814 -9239,-69370 -4935,-78419 6299,-3049 8833,-1742 15508,666 7030,2536 7792,2959 16841,2959 -695,-8418 1927,-3170 -3595,-7251 -7263,-10942 -25971,-12408 -38385,-19293l-16924 -11934c-4948,-4190 -15258,-3597 -21967,-6845 -3350,-8182 5486,-11031 -12624,-10834 -15730,171 -9187,-3451 -8942,-14548l-6789 -7654c-7753,568 -8217,1486 -12979,4028 0,13844 3099,9263 8986,18130 -3670,5530 -7205,7247 -12579,10878 215,9783 6114,15668 -7165,19967 -4792,1552 -4468,-32 -9198,5224l-1609 2003c1419,5364 730,2939 3593,7252 -23684,12643 -16347,24893 -11477,36960 12428,30789 11951,72619 50707,124704 31259,42009 63531,66020 118128,76630 38501,7483 70333,5157 108509,909 5266,-587 9560,-3169 15222,-4628 10838,-2792 9015,-600 15413,-709 6288,-107 7850,-2665 15439,-4385 9027,-2046 8121,-930 15135,-4673 0,-23027 -15112,-2543 -28754,-14505 -6053,4091 -6862,5473 -14301,3702 -8522,-2028 -10968,-1889 -21641,-1889 1965,-7424 6721,-7764 8986,-16316 -9788,-4738 -15451,748 -19768,7251z"/>
      <path class="fil2" d="M789281 1253441c11983,2816 17972,6778 17972,21755l0 112404c0,6287 -1304,11909 -4951,14949 -6838,5699 -9142,-612 -9426,12245 26,6 57507,3016 57507,-3625 0,-5809 -5471,-6097 -9361,-6873 -8045,-1607 -6093,-743 -12204,-4005 0,-15738 -3766,-22388 2424,-28358 11586,-11173 14999,1297 23082,13505 4683,7072 9423,12154 14028,18481 3996,5487 9281,13666 19291,12385 7973,-1021 21368,-1474 29233,-3322 -321,-14579 -4793,-6191 -17343,-11512 -9269,-3928 -23900,-22811 -30129,-31246 -5745,-7780 -7391,-10416 -11833,-18884 5797,-8731 23424,-21093 35503,-24012 6683,-1615 14817,723 14817,-6808 0,-8480 -13944,-5440 -30551,-5439l-24855 -717c-4447,1341 -3899,5745 -3899,7969 3690,1786 9853,2563 14377,3626 -756,9163 -13244,15859 -22863,24074 -3564,3044 -10377,10939 -12834,3034l-245 -121381c-8772,-1874 -7729,115 -19785,7235 -8613,5085 -16996,2893 -17955,14520z"/>
      <path class="fil2" d="M381336 1277009c0,20886 3908,116573 -5017,125473 -7107,7088 -12650,-1422 -12954,12312 16040,0 66493,3572 66493,-3625 0,-6478 -5892,-5857 -11205,-6826 -9261,-1692 -7914,-1786 -13954,-5865l0 -63454c10834,0 31704,-1443 37415,5766 3901,4925 3514,20292 12105,15523 5205,-2890 1814,-12669 1910,-17329l2483 -32967 -7136 -3725c-6554,9907 -2391,8032 -7241,18228 -13626,3203 -23262,1813 -39536,1813l0 -63454c68783,0 48942,1434 62204,18950 2934,3874 -2480,2496 4369,2891 7939,457 4660,-9186 5307,-18221 678,-9496 7547,-20395 -8488,-17833 -18950,3026 -68293,1523 -90349,1523 -6947,0 -9985,-3467 -13064,-361 -10426,10518 16658,4816 16658,31181z"/>
      <path class="fil2" d="M600584 1391226c0,-21049 35942,-28176 35942,-18130l0 21757c-18407,12434 -24709,7587 -35942,0l0 -3627zm-17012 -56899c-2080,2856 1865,9761 5382,9761l8977 0c4740,0 7130,-5087 9878,-9028 2466,-3534 4731,-7267 7152,-10914 22467,0 21565,10690 21565,30821 -11161,7541 -17196,4335 -35250,11576 -15755,6319 -29856,17131 -22081,35382 1434,3365 -520,-84 1889,3534 12921,19405 40551,8219 55442,271 5570,3763 10408,15559 28417,5098 2918,-1694 11120,-5526 11120,-8724 0,-13909 -18711,4019 -19927,-12530 -720,-9801 159,-24255 159,-34607 0,-16367 3983,-43512 -25160,-43512 -12804,0 -34941,7695 -44454,18608l-3109 4264z"/>
      <path class="fil2" d="M499946 1249815c0,11294 17971,-367 17971,30820l0 108778c0,22997 -13042,9186 -14377,25381 25,6 57508,3016 57508,-3625 0,-9095 -4429,-1114 -21566,-12691 0,-12664 -1797,-17691 -1797,-30820 0,-26236 -1634,-102984 1501,-123772 3504,-23228 -18526,-5854 -21961,-3835 -4106,2413 -17279,5783 -17279,9764z"/>
      <path class="fil2" d="M699426 1338651c0,28509 21247,28577 40188,39225 30549,17173 -4103,37328 -27992,19175 -8281,-6294 -5207,-12188 -15791,-13077 -5553,24046 -1242,32633 34146,32633 46445,0 49579,-39043 28064,-53692 -22315,-15195 -40644,-10319 -40644,-33330 27125,-18324 41021,12690 44928,12690 6123,0 5871,-4187 4821,-10094 -3173,-17842 -3388,-20726 -33575,-20726 -18165,0 -34145,8973 -34145,27196z"/>
      <path class="fil2" d="M239363 1367658c0,2921 946,6819 1901,8960 2137,4802 1902,4147 7085,5543 0,-21581 -848,-9568 -3595,-19942l-3593 0c-560,2126 -1798,4942 -1798,5439z"/>
      <path class="fil2" d="M210609 1347714l-3863 -997 3863 997zm-7188 -3626l1797 0 -1497 2116 -300 -2116zm-1798 5439l1798 1813 12498 3880 -5310 -7506 5393 0c-323,-282 -809,-1161 -964,-847 -156,317 -744,-698 -967,-853 -2751,-1905 -588,-919 -3435,-2190 -6210,-2774 -6219,-495 -7215,264l-3594 0c1261,4799 -144,1492 1796,5439z"/>
      <path class="fil2" d="M201623 1295139c5757,-1353 3698,-1244 10851,-1746 9323,-655 4798,1979 8919,-3693l-14377 0c-322,282 -862,249 -997,806 -230,942 -1595,1394 -1902,1709 -2549,2624 -838,644 -2494,2924z"/>
      <path class="fil2" d="M217798 1344088c-335,-705 -1450,-3788 -1515,-3910l-9267 -8780c2063,8937 1672,10550 10782,12690z"/>
      <path class="fil2" d="M296871 1460118c-1646,-7128 -1976,-7356 -7188,-10878 322,3906 154,5963 3637,9023 1997,1756 164,618 3551,1855z"/>
      <path class="fil2" d="M199827 1298765c-4771,-2310 -1923,-1654 -8986,-1813 4021,6057 4362,8180 8986,1813z"/>
      <path class="fil2" d="M268117 1414794l0 -7251 -3499 -1968c111,9472 -1721,5360 3499,9219z"/>
      <polygon class="fil2" points="205218,1373096 207016,1373096 207016,1367658 205218,1367658 "/>
      <path class="fil2" d="M253740 1365845l0 -5439 -1797 0c0,9584 13,2702 1797,5439z"/>
      <path class="fil2" d="M280698 1438363c378,2069 3950,3965 2418,366 -647,-1519 -3282,-5074 -2418,-366z"/>
      <path class="fil2" d="M242958 1287887l8985 -3626c-7726,649 -3237,-257 -8985,3626z"/>
      <path class="fil2" d="M214204 1333211c0,2131 3867,4085 2781,0 -1088,-4096 4573,-49 -829,-537 -2264,-205 -1952,-3149 -1952,537z"/>
      <path class="fil2" d="M208812 1362219c0,4504 2874,463 1116,0 -23,-6 -1116,-5144 -1116,0z"/>
      <path class="fil2" d="M233972 1364032c0,4504 2874,463 1115,0 -22,-6 -1115,-5144 -1115,0z"/>
      <path class="fil2" d="M269915 1425672c0,4504 2873,463 1114,0 -21,-6 -1114,-5144 -1114,0z"/>
      <polygon class="fil2" points="327423,1500003 329220,1500003 327721,1497888 "/>
      <polygon class="fil2" points="201623,1295139 199827,1295139 201325,1297255 "/>
      <polygon class="fil2" points="257335,1380349 257335,1382161 259431,1380650 "/>
      <polygon class="fil2" points="216002,1347714 216002,1349527 218098,1348017 "/>
      <path class="fil2" d="M226784 1403917c178,180 535,-796 536,-541l0 0c-36,36 -715,361 -536,541z"/>
      <path class="fil2" d="M244754 1347714l538 -540c-36,35 -716,360 -538,540z"/>
      <path class="fil2" d="M286089 1447427l536 -540c-36,35 -715,361 -536,540z"/>
      <path class="fil2" d="M259131 1389413l537 -540c-35,35 -714,360 -537,540z"/>
      <polygon class="fil2" points="165682,1378536 163885,1378536 "/>
     </g>
     <path class="fil4" d="M1026476 1412622l26412 0 0 -45894 45493 0 0 -26645 -45493 0 0 -45894 -26412 0 0 45894 -45493 0 0 26645 45493 0 0 45894zm13205 0m13207 -22948m22746 -22946m22747 -13323m-22747 -13322m-22746 -22948m-13207 -22946m-13205 22946m-22747 22948m-22746 13322m22746 13323m22747 22946"/>
    </g>
    <g>
     <path class="fil5" d="M778013 309612l-6700 30691c-9222,-2306 -18444,-3499 -27665,-3499 -14186,0 -23801,5646 -28766,16936 -5045,11292 -7488,34507 -7488,69731 15211,0 36571,-715 63919,-2306l-1339 34746c-31132,-954 -52018,-1432 -62580,-1432 0,70684 867,132542 2760,185654l-41378 0c2206,-51681 3310,-113618 3310,-185654 -9457,0 -25852,478 -49181,1432l1576 -34270c21280,1272 37122,1830 47605,1830 0,-41108 5674,-71081 17024,-89768 11428,-18684 29556,-28066 54538,-28066 10877,0 22384,1352 34365,3975zm183155 330521l-44294 0c2760,-51284 4098,-109167 4098,-173809 0,-62732 -2207,-114016 -6699,-153929l46895 -2306c-2916,42219 -4335,94300 -4335,156235 0,63847 1419,121810 4335,173809zm319211 0l-36254 1432c-1813,-7634 -2758,-14868 -2758,-21706l-2285 0c-18995,17413 -44769,26078 -77397,26078 -17733,0 -32933,-5282 -45712,-15743 -12738,-10430 -19153,-25362 -19153,-44844 0,-23852 10000,-43128 30029,-57642 19992,-14489 57142,-22104 111524,-22899 473,-3737 709,-8032 709,-12802 0,-19161 -5055,-31893 -15133,-38243 -10079,-6352 -25380,-9541 -45870,-9541 -24197,0 -47920,3020 -71327,9064l3940 -32122c23092,-6679 49654,-10018 79603,-10018 27427,0 48656,5709 63524,17094 14906,11416 22385,30929 22385,58359 0,7316 -317,20594 -1026,39756 -710,19161 -1025,31962 -1025,38324 0,28225 2051,53430 6226,75453zm-40905 -45161c-709,-23613 -1101,-44843 -1101,-63608 -28927,0 -51052,1995 -66049,6519 -25259,7622 -37909,22582 -37909,44447 0,21149 14819,31725 44374,31725 25378,0 45633,-6362 60685,-19083zm226131 45161l-44292 0c2758,-51284 4097,-109167 4097,-173809 0,-62732 -2206,-114016 -6699,-153929l46894 -2306c-2914,42219 -4334,94300 -4334,156235 0,63847 1420,121810 4334,173809zm330830 105986l-41061 0c1338,-42537 2048,-84597 2048,-126260l-2520 0c-15843,17729 -40039,26555 -72511,26555 -29082,0 -52269,-10863 -69515,-32518 -17206,-21609 -25850,-47389 -25850,-77204 0,-33553 9369,-62959 28137,-88176 18757,-25203 45397,-37847 79682,-37847 28056,0 48548,5169 61631,15426l1892 0 9457 -7237 28610 -2543c-2128,52157 -3230,104476 -3230,156951 0,62734 1102,120376 3230,172853zm-39013 -157031c0,-51205 -710,-95967 -2048,-134131 -14344,-10734 -31527,-16063 -51544,-16063 -25380,0 -44389,9034 -56906,27035 -12477,17947 -18756,39675 -18756,64959 0,22977 6024,42730 17969,59154 11945,16423 28846,24728 50599,24728 27663,0 47919,-8586 60686,-25682z"/>
     <g>
      <path class="fil6" d="M1188098 922739l-23573 0c0,-5041 -4693,-20857 -14077,-47449l-64505 0c-9230,26208 -13846,42023 -13846,47449l-22582 0c0,-2770 9613,-26822 28838,-72115 19226,-45255 28838,-70152 28838,-74694l25939 0c0,4464 9156,28977 27465,73655 18349,44639 27503,69036 27503,73154zm-42799 -62225c-17510,-44140 -26283,-67575 -26283,-70345l-1221 0c0,2309 -9041,25783 -27159,70345l54663 0zm163148 -48141c0,17124 -6446,29938 -19340,38444 -12892,8504 -30210,12737 -51954,12737 -2747,0 -5149,-77 -7171,-232 0,16394 611,36173 1793,59417l-21439 0c1107,-21358 1679,-47064 1679,-77119 0,-25858 -572,-49063 -1679,-69690l15983 0c1717,0 6600,-76 14686,-307 8088,-232 14953,-347 20638,-347 14304,0 25672,3271 34139,9851 8431,6581 12665,15663 12665,27246zm-18653 6542c0,-19319 -13084,-28978 -39252,-28978 -6369,0 -13579,539 -21552,1693 534,12238 801,31326 801,57262 2594,154 5798,232 9613,232 33567,0 50390,-10083 50390,-30209zm68243 103824l-21210 0c1106,-24360 1678,-50065 1678,-77119 0,-26590 -572,-49833 -1678,-69690l21210 0c-1031,20549 -1565,43755 -1565,69690 0,27208 534,52914 1565,77119z"/>
      <g>
       <line class="fil7 str0" x1="795508" y1="855125" x2="959704" y2= "855125" />
      </g>
      <g>
       <line class="fil7 str0" x1="1459638" y1="855125" x2="1623836" y2= "855125" />
      </g>
     </g>
    </g>
   </g>
  </g>
 </g>
</svg>
