<?xml version="1.0" encoding="UTF-8"?>
<!DOCTYPE svg PUBLIC "-//W3C//DTD SVG 1.1//EN" "http://www.w3.org/Graphics/SVG/1.1/DTD/svg11.dtd">
<!-- Creator: CorelDRAW X7 -->
<svg xmlns="http://www.w3.org/2000/svg" xml:space="preserve" width="1768px" height="579px" version="1.1" style="shape-rendering:geometricPrecision; text-rendering:geometricPrecision; image-rendering:optimizeQuality; fill-rule:evenodd; clip-rule:evenodd"
viewBox="0 0 1490375 488076"
 xmlns:xlink="http://www.w3.org/1999/xlink">
 <defs>
  <style type="text/css">
   <![CDATA[
    .str0 {stroke:#1E4158;stroke-width:1991.02}
    .fil2 {fill:#1E4158}
    .fil0 {fill:white}
    .fil1 {fill:#1E4158;fill-rule:nonzero}
    .fil3 {fill:white;fill-rule:nonzero}
   ]]>
  </style>
 </defs>
 <g id="Capa_x0020_1">
  <metadata id="CorelCorpID_0Corel-Layer"/>
  <g id="_1786340039440">
   <rect class="fil0 str0" x="996" y="2982" width="740880" height="233475"/>
   <path class="fil1" d="M334038 173164c-6941,0 -13192,-1619 -18754,-4859 -5562,-3239 -9966,-7655 -13215,-13247 -3248,-5593 -4873,-11894 -4873,-18906 0,-7013 1492,-13293 4472,-18840 2982,-5548 7053,-9941 12214,-13181 5162,-3240 10991,-4860 17487,-4860 5251,0 10100,1088 14550,3263 4449,2174 8187,5126 11212,8853l0 -35948c0,-2041 646,-3683 1935,-4926 1291,-1242 2914,-1864 4872,-1864 2047,0 3694,622 4940,1864 1246,1243 1868,2885 1868,4926l0 60713c0,7012 -1624,13313 -4872,18906 -3248,5592 -7630,10008 -13148,13247 -5517,3240 -11746,4859 -18688,4859zm0 -11982c4539,0 8587,-1088 12147,-3262 3560,-2174 6363,-5170 8411,-8986 2045,-3817 3070,-8078 3070,-12782 0,-4793 -1025,-9054 -3070,-12782 -2048,-3727 -4851,-6679 -8411,-8853 -3560,-2175 -7608,-3263 -12147,-3263 -4450,0 -8477,1088 -12079,3263 -3605,2174 -6453,5126 -8544,8853 -2091,3728 -3137,7989 -3137,12782 0,4704 1046,8965 3137,12782 2091,3816 4939,6812 8544,8986 3602,2174 7629,3262 12079,3262zm91169 11982c-6496,0 -12324,-1619 -17486,-4859 -5162,-3239 -9232,-7633 -12214,-13180 -2981,-5548 -4472,-11828 -4472,-18840 0,-7013 1624,-13314 4873,-18906 3249,-5593 7653,-10008 13215,-13248 5562,-3240 11812,-4860 18754,-4860 6941,0 13171,1620 18688,4860 5517,3240 9899,7655 13148,13248 3248,5592 4872,11893 4872,18906l-5206 0c0,7012 -1490,13292 -4472,18840 -2981,5547 -7052,9941 -12214,13180 -5160,3240 -10989,4859 -17486,4859zm2670 -11982c4539,0 8587,-1088 12147,-3262 3559,-2174 6363,-5148 8409,-8921 2047,-3772 3071,-8011 3071,-12714 0,-4793 -1024,-9075 -3071,-12848 -2046,-3772 -4850,-6746 -8409,-8920 -3560,-2175 -7608,-3263 -12147,-3263 -4450,0 -8477,1088 -12080,3263 -3604,2174 -6452,5148 -8544,8920 -2090,3773 -3136,8055 -3136,12848 0,4703 1046,8942 3136,12714 2092,3773 4940,6747 8544,8921 3603,2174 7630,3262 12080,3262zm29900 11583c-1958,0 -3581,-643 -4873,-1930 -1289,-1287 -1934,-2907 -1934,-4860l0 -20370 2537 -14113 11078 4793 0 29690c0,1953 -645,3573 -1935,4860 -1291,1287 -2914,1930 -4873,1930zm53660 -132c-4448,0 -8453,-1132 -12012,-3395 -3560,-2264 -6364,-5349 -8409,-9253 -2048,-3907 -3072,-8300 -3072,-13182l0 -63508c0,-1954 624,-3550 1870,-4794 1245,-1242 2847,-1863 4805,-1863 1957,0 3559,621 4806,1863 1245,1244 1868,2840 1868,4794l0 63508c0,3550 979,6524 2937,8921 1957,2396 4360,3594 7207,3594l4539 0c1603,0 2960,622 4072,1864 1112,1243 1668,2841 1668,4793 0,1953 -735,3551 -2202,4793 -1468,1243 -3360,1865 -5673,1865l-2404 0zm-29632 -58717c-1870,0 -3382,-531 -4538,-1596 -1157,-1066 -1737,-2397 -1737,-3995 0,-1774 580,-3195 1737,-4260 1156,-1065 2668,-1599 4538,-1599l30835 0c1868,0 3381,534 4539,1599 1155,1065 1734,2486 1734,4260 0,1598 -579,2929 -1734,3995 -1158,1065 -2671,1596 -4539,1596l-30835 0zm73415 58717c-1423,0 -2737,-422 -3938,-1266 -1201,-843 -2024,-1886 -2469,-3128l-19756 -59115c-712,-2752 -690,-4993 67,-6725 756,-1729 2425,-2595 5005,-2595 1692,0 3093,466 4205,1398 1113,932 2025,2507 2737,4726l16819 52458 -4672 0 15885 -53523c445,-1509 1200,-2729 2269,-3661 1067,-932 2536,-1398 4404,-1398 1780,0 3226,466 4339,1398 1113,932 1847,2152 2202,3661l12949 50328 -2003 0 15752 -49263c1245,-4082 3559,-6124 6940,-6124 2492,0 4182,866 5072,2595 890,1732 847,3973 -133,6725l-19756 59115c-355,1242 -1112,2285 -2269,3128 -1156,844 -2491,1266 -4004,1266 -1424,0 -2759,-422 -4005,-1266 -1245,-843 -2046,-1886 -2403,-3128l-13749 -50727 1336 0 -14417 50727c-356,1242 -1135,2285 -2335,3128 -1202,844 -2560,1266 -4072,1266zm88499 0c-1957,0 -3581,-644 -4872,-1932 -1289,-1287 -1934,-2906 -1934,-4859l0 -59248c0,-2041 645,-3684 1934,-4926 1291,-1243 2915,-1864 4872,-1864 2048,0 3694,621 4941,1864 1245,1242 1867,2885 1867,4926l0 59248c0,1953 -622,3572 -1867,4859 -1247,1288 -2893,1932 -4941,1932zm0 -84678c-2402,0 -4471,-866 -6206,-2597 -1735,-1730 -2602,-3794 -2602,-6191 0,-2396 867,-4460 2602,-6191 1735,-1731 3804,-2596 6206,-2596 2403,0 4472,865 6208,2596 1735,1731 2602,3795 2602,6191 0,2397 -867,4461 -2602,6191 -1736,1731 -3805,2597 -6208,2597zm58733 84678c-4449,0 -8452,-1132 -12012,-3395 -3560,-2264 -6364,-5349 -8410,-9253 -2047,-3907 -3071,-8300 -3071,-13182l0 -63508c0,-1954 623,-3550 1870,-4794 1245,-1242 2847,-1863 4805,-1863 1957,0 3559,621 4806,1863 1245,1244 1868,2840 1868,4794l0 63508c0,3550 979,6524 2937,8921 1957,2396 4360,3594 7207,3594l4539 0c1603,0 2960,622 4072,1864 1112,1243 1668,2841 1668,4793 0,1953 -735,3551 -2202,4793 -1468,1243 -3360,1865 -5673,1865l-2404 0zm-29632 -58717c-1870,0 -3382,-531 -4539,-1596 -1156,-1066 -1736,-2397 -1736,-3995 0,-1774 580,-3195 1736,-4260 1157,-1065 2669,-1599 4539,-1599l30835 0c1868,0 3381,534 4539,1599 1155,1065 1734,2486 1734,4260 0,1598 -579,2929 -1734,3995 -1158,1065 -2671,1596 -4539,1596l-30835 0z"/>
   <g>
    <path class="fil2" d="M165180 103803c-4464,9811 -4336,25132 -9883,33864 -6702,-4732 -12742,-11710 -19768,-15630 0,-11640 38,-13840 -5052,-20723 -12521,-16934 -41149,-9812 -41932,12870 -263,7619 1493,8145 -1980,13542 -7846,12193 -6939,6746 -15932,9357 -7377,2140 -969,2201 -17880,-7231 0,-38856 -46948,-32047 -46948,-6512l0 427c6,8926 248,15343 7193,21944 12831,12194 23535,2549 28999,4523l16349 10189c3016,2992 4767,11020 13239,13502 8949,2622 17876,-1454 21591,-9273 4235,-8914 -762,-6841 7944,-18977 1389,-1936 2337,-3537 3522,-5403 9703,4908 13247,-2582 18292,301l13148 10838c10756,8613 6699,24026 25393,24026 7408,0 17296,-7378 17296,-18234 0,-27516 -824,-11707 6146,-41711 3117,-13419 3601,-5592 11533,-13890 21744,-22747 -10068,-55788 -32204,-36554 -11399,9904 -11030,30309 934,38755z"/>
    <path class="fil2" d="M56458 106408c0,6505 1044,15629 9885,15629 18917,0 4491,-23692 28919,-56776 27897,-37784 95994,-39930 122427,15748 13646,28743 8247,61179 -10307,85517 -9546,12524 -32014,25842 -48379,25842 -16174,0 -20982,1124 -36559,-5741 -4558,-2010 -15922,-9888 -19037,-9888 -7906,0 -11119,6363 -11119,14328 0,7056 15601,14383 21003,16930 22638,10677 50747,10396 73971,1138 11034,-4399 14579,-8499 22396,-12859 3026,4767 18502,22141 24708,22141 6107,0 11119,-5284 11119,-11721 0,-6624 -5412,-10278 -8955,-14002 -3703,-3888 -6699,-9239 -12047,-10745 5677,-11311 14349,-18987 19537,-39316 27813,-109010 -108813,-179235 -172938,-82025 -5896,8936 -14624,30992 -14624,45800z"/>
   </g>
  </g>
  <g id="_1786340040144">
   <rect class="fil2" x="1947" y="254602" width="740880" height="233475"/>
   <path class="fil3" d="M335674 427339c-6940,0 -13190,-1624 -18751,-4871 -5561,-3248 -9964,-7674 -13211,-13279 -3248,-5605 -4872,-11922 -4872,-18950 0,-7029 1490,-13324 4471,-18884 2980,-5561 7051,-9965 12211,-13212 5160,-3248 10988,-4872 17483,-4872 5249,0 10097,1091 14546,3271 4448,2179 8185,5138 11211,8874l0 -36033c0,-2046 645,-3692 1934,-4938 1290,-1245 2914,-1868 4871,-1868 2047,0 3692,623 4939,1868 1245,1246 1867,2892 1867,4938l0 60856c0,7028 -1623,13345 -4871,18950 -3247,5605 -7628,10031 -13144,13279 -5517,3247 -11744,4871 -18684,4871zm0 -12011c4537,0 8585,-1090 12144,-3270 3559,-2180 6361,-5182 8408,-9008 2046,-3826 3069,-8096 3069,-12811 0,-4805 -1023,-9075 -3069,-12812 -2047,-3737 -4849,-6695 -8408,-8874 -3559,-2181 -7607,-3271 -12144,-3271 -4449,0 -8475,1090 -12078,3271 -3604,2179 -6451,5137 -8541,8874 -2091,3737 -3136,8007 -3136,12812 0,4715 1045,8985 3136,12811 2090,3826 4937,6828 8541,9008 3603,2180 7629,3270 12078,3270zm91149 12011c-6495,0 -12323,-1624 -17483,-4871 -5160,-3248 -9231,-7652 -12211,-13212 -2981,-5561 -4471,-11855 -4471,-18884 0,-7029 1624,-13346 4872,-18950 3247,-5606 7650,-10032 13211,-13279 5561,-3248 11811,-4872 18751,-4872 6940,0 13168,1624 18684,4872 5516,3247 9897,7673 13144,13279 3248,5604 4871,11921 4871,18950l-5204 0c0,7029 -1490,13323 -4471,18884 -2981,5560 -7050,9964 -12211,13212 -5160,3247 -10987,4871 -17482,4871zm2669 -12011c4537,0 8585,-1090 12144,-3270 3559,-2180 6361,-5160 8408,-8941 2046,-3781 3069,-8030 3069,-12745 0,-4804 -1023,-9097 -3069,-12879 -2047,-3781 -4849,-6761 -8408,-8940 -3559,-2181 -7607,-3271 -12144,-3271 -4449,0 -8475,1090 -12078,3271 -3603,2179 -6451,5159 -8541,8940 -2091,3782 -3136,8075 -3136,12879 0,4715 1045,8964 3136,12745 2090,3781 4938,6761 8541,8941 3603,2180 7629,3270 12078,3270zm29893 11610c-1957,0 -3581,-645 -4871,-1935 -1289,-1290 -1934,-2914 -1934,-4871l0 -20418 2535 -14146 11076 4804 0 29760c0,1957 -645,3581 -1934,4871 -1290,1290 -2914,1935 -4872,1935zm53649 -133c-4448,0 -8452,-1134 -12011,-3403 -3559,-2268 -6361,-5360 -8407,-9275 -2046,-3915 -3070,-8318 -3070,-13212l0 -63658c0,-1958 623,-3558 1869,-4805 1245,-1245 2847,-1867 4804,-1867 1957,0 3559,622 4804,1867 1246,1247 1869,2847 1869,4805l0 63658c0,3559 979,6539 2936,8941 1957,2403 4359,3603 7206,3603l4538 0c1602,0 2958,623 4070,1869 1112,1245 1668,2847 1668,4804 0,1957 -734,3559 -2201,4804 -1468,1246 -3359,1869 -5673,1869l-2402 0zm-29626 -58854c-1869,0 -3381,-533 -4538,-1600 -1156,-1069 -1735,-2403 -1735,-4004 0,-1779 579,-3203 1735,-4271 1157,-1067 2669,-1602 4538,-1602l30828 0c1867,0 3381,535 4537,1602 1156,1068 1735,2492 1735,4271 0,1601 -579,2935 -1735,4004 -1156,1067 -2670,1600 -4537,1600l-30828 0zm73399 58854c-1424,0 -2736,-423 -3937,-1268 -1201,-845 -2024,-1891 -2469,-3136l-19751 -59254c-712,-2758 -690,-5004 67,-6740 756,-1734 2424,-2602 5004,-2602 1690,0 3092,468 4204,1402 1112,934 2024,2513 2736,4737l16815 52581 -4671 0 15881 -53649c445,-1512 1201,-2735 2269,-3669 1067,-934 2536,-1402 4404,-1402 1779,0 3225,468 4338,1402 1112,934 1845,2157 2201,3669l12945 50447 -2001 0 15748 -49379c1245,-4092 3557,-6139 6939,-6139 2491,0 4181,868 5071,2602 889,1736 846,3982 -133,6740l-19752 59254c-355,1245 -1112,2291 -2269,3136 -1156,845 -2491,1268 -4003,1268 -1423,0 -2758,-423 -4004,-1268 -1245,-845 -2045,-1891 -2402,-3136l-13746 -50846 1335 0 -14413 50846c-356,1245 -1135,2291 -2335,3136 -1202,845 -2559,1268 -4071,1268zm88480 0c-1957,0 -3581,-645 -4871,-1935 -1289,-1290 -1934,-2914 -1934,-4871l0 -59388c0,-2045 645,-3692 1934,-4937 1290,-1246 2914,-1869 4871,-1869 2047,0 3692,623 4939,1869 1245,1245 1867,2892 1867,4937l0 59388c0,1957 -622,3581 -1867,4871 -1247,1290 -2892,1935 -4939,1935zm0 -84877c-2402,0 -4470,-867 -6205,-2603 -1735,-1734 -2602,-3803 -2602,-6205 0,-2402 867,-4471 2602,-6206 1735,-1735 3803,-2602 6205,-2602 2402,0 4471,867 6206,2602 1735,1735 2602,3804 2602,6206 0,2402 -867,4471 -2602,6205 -1735,1736 -3804,2603 -6206,2603zm58720 84877c-4448,0 -8452,-1134 -12010,-3403 -3559,-2268 -6362,-5360 -8408,-9275 -2046,-3915 -3070,-8318 -3070,-13212l0 -63658c0,-1958 623,-3558 1869,-4805 1245,-1245 2847,-1867 4804,-1867 1957,0 3559,622 4805,1867 1245,1247 1868,2847 1868,4805l0 63658c0,3559 979,6539 2936,8941 1957,2403 4359,3603 7206,3603l4538 0c1602,0 2959,623 4071,1869 1112,1245 1667,2847 1667,4804 0,1957 -734,3559 -2201,4804 -1468,1246 -3359,1869 -5672,1869l-2403 0zm-29626 -58854c-1869,0 -3381,-533 -4538,-1600 -1156,-1069 -1735,-2403 -1735,-4004 0,-1779 579,-3203 1735,-4271 1157,-1067 2669,-1602 4538,-1602l30828 0c1868,0 3381,535 4538,1602 1155,1068 1734,2492 1734,4271 0,1601 -579,2935 -1734,4004 -1157,1067 -2670,1600 -4538,1600l-30828 0z"/>
   <g>
    <path class="fil0" d="M168110 358686c-4467,9831 -4338,25181 -9887,33930 -6705,-4741 -12747,-11732 -19776,-15660 0,-11662 38,-13867 -5054,-20764 -12527,-16967 -41166,-9831 -41950,12895 -263,7635 1494,8161 -1981,13569 -7849,12217 -6941,6760 -15938,9375 -7380,2144 -970,2206 -17887,-7246 0,-38931 -46968,-32109 -46968,-6524l0 428c6,8944 248,15373 7196,21988 12837,12217 23545,2552 29011,4531l16356 10208c3017,2999 4768,11042 13244,13529 8953,2628 17884,-1457 21600,-9292 4237,-8931 -762,-6854 7948,-19013 1390,-1940 2338,-3544 3523,-5415 9706,4919 13252,-2586 18300,303l13152 10859c10762,8629 6703,24074 25404,24074 7411,0 17304,-7393 17304,-18270 0,-27570 -824,-11730 6148,-41793 3119,-13445 3603,-5603 11538,-13917 21754,-22791 -10071,-55896 -32218,-36625 -11403,9923 -11033,30367 935,38830z"/>
    <path class="fil0" d="M59343 361297c0,6517 1045,15659 9889,15659 18925,0 4493,-23738 28930,-56887 27910,-37857 96035,-40007 122478,15779 13653,28799 8251,61298 -10310,85684 -9551,12548 -32027,25892 -48399,25892 -16181,0 -20991,1126 -36575,-5753 -4560,-2013 -15928,-9906 -19044,-9906 -7909,0 -11124,6374 -11124,14355 0,7069 15608,14412 21012,16963 22647,10698 50766,10416 74002,1140 11038,-4407 14585,-8515 22405,-12884 3028,4776 18510,22185 24718,22185 6110,0 11124,-5295 11124,-11745 0,-6636 -5415,-10297 -8960,-14028 -3703,-3897 -6700,-9258 -12051,-10767 5679,-11333 14355,-19023 19545,-39392 27824,-109222 -108858,-179584 -173010,-82185 -5899,8955 -14630,31052 -14630,45890z"/>
   </g>
  </g>
  <path class="fil2" d="M1195424 125744c-6614,13806 -6424,35364 -14640,47652 -9925,-6658 -18871,-16477 -29278,-21994 0,-16379 56,-19475 -7482,-29161 -18546,-23830 -60947,-13809 -62108,18110 -388,10722 2212,11462 -2933,19057 -11620,17159 -10276,9493 -23598,13166 -10925,3012 -1434,3098 -26480,-10176 0,-54677 -69537,-45095 -69537,-9163l0 602c9,12560 367,21589 10655,30879 19003,17160 34857,3586 42950,6365l24214 14338c4468,4211 7062,15507 19610,18999 13254,3691 26476,-2046 31979,-13050 6273,-12542 -1129,-9626 11766,-26702 2058,-2725 3460,-4977 5216,-7604 14372,6907 19620,-3633 27093,424l19473 15251c15933,12120 9924,33810 37611,33810 10973,0 25618,-10383 25618,-25659 0,-38721 -1221,-16474 9103,-58696 4618,-18883 5334,-7870 17082,-19546 32207,-32010 -14911,-78503 -47699,-51438 -16884,13937 -16335,42650 1385,54536z"/>
  <path class="fil2" d="M1034393 129410c0,9152 1545,21992 14640,21992 28018,0 6651,-33339 42831,-79894 41320,-53169 142181,-56189 181332,22161 20211,40446 12214,86089 -15267,120338 -14139,17623 -47416,36364 -71655,36364 -23956,0 -31078,1582 -54149,-8079 -6751,-2827 -23582,-13913 -28195,-13913 -11710,0 -16469,8952 -16469,20161 0,9929 23107,20240 31109,23825 33528,15024 75161,14627 109560,1600 16342,-6190 21593,-11959 33170,-18094 4484,6706 27406,31157 36597,31157 9044,0 16469,-7436 16469,-16495 0,-9321 -8016,-14463 -13265,-19704 -5484,-5471 -9921,-13000 -17843,-15120 8409,-15917 21253,-26718 28937,-55324 41195,-153398 -161165,-252217 -256144,-115425 -8732,12575 -21658,43612 -21658,64450z"/>
  <path class="fil1" d="M899089 471818c-10838,0 -20598,-2399 -29283,-7198 -8685,-4800 -15562,-11341 -20633,-19625 -5073,-8285 -7609,-17620 -7609,-28007 0,-10388 2328,-19691 6983,-27908 4655,-8219 11011,-14728 19070,-19527 8060,-4799 17160,-7198 27304,-7198 8198,0 15770,1610 22717,4833 6947,3220 12784,7593 17508,13115l0 -53253c0,-3024 1008,-5458 3021,-7297 2015,-1841 4550,-2762 7608,-2762 3196,0 5766,921 7712,2762 1945,1839 2917,4273 2917,7297l0 89938c0,10387 -2536,19722 -7607,28007 -5072,8284 -11914,14825 -20529,19625 -8615,4799 -18341,7198 -29179,7198zm0 -17751c7086,0 13408,-1611 18966,-4831 5558,-3223 9935,-7660 13131,-13314 3195,-5654 4794,-11966 4794,-18934 0,-7100 -1599,-13411 -4794,-18935 -3196,-5522 -7573,-9894 -13131,-13115 -5558,-3222 -11880,-4832 -18966,-4832 -6948,0 -13235,1610 -18862,4832 -5628,3221 -10075,7593 -13340,13115 -3264,5524 -4897,11835 -4897,18935 0,6968 1633,13280 4897,18934 3265,5654 7712,10091 13340,13314 5627,3220 11914,4831 18862,4831zm142350 17751c-10143,0 -19244,-2399 -27304,-7198 -8058,-4800 -14415,-11309 -19070,-19526 -4655,-8218 -6982,-17521 -6982,-27909 0,-10388 2535,-19724 7609,-28006 5071,-8285 11948,-14827 20632,-19626 8685,-4799 18445,-7198 29283,-7198 10839,0 20565,2399 29180,7198 8614,4799 15456,11341 20528,19626 5072,8282 7607,17618 7607,28006l-8128 0c0,10388 -2327,19691 -6982,27909 -4655,8217 -11010,14726 -19070,19526 -8058,4799 -17159,7198 -27303,7198zm4168 -17751c7087,0 13408,-1611 18967,-4831 5558,-3223 9934,-7628 13131,-13216 3194,-5587 4793,-11867 4793,-18835 0,-7100 -1599,-13444 -4793,-19033 -3197,-5589 -7573,-9993 -13131,-13214 -5559,-3222 -11880,-4832 -18967,-4832 -6947,0 -13235,1610 -18861,4832 -5628,3221 -10075,7625 -13340,13214 -3265,5589 -4897,11933 -4897,19033 0,6968 1632,13248 4897,18835 3265,5588 7712,9993 13340,13216 5626,3220 11914,4831 18861,4831zm46686 17160c-3057,0 -5593,-954 -7608,-2860 -2013,-1908 -3020,-4307 -3020,-7200l0 -30175 3959 -20907 17298 7100 0 43982c0,2893 -1007,5292 -3020,7200 -2015,1906 -4551,2860 -7609,2860zm83785 -197c-6946,0 -13199,-1676 -18757,-5030 -5559,-3353 -9935,-7922 -13130,-13707 -3197,-5787 -4795,-12294 -4795,-19527l0 -94080c0,-2893 973,-5258 2919,-7101 1944,-1839 4445,-2759 7503,-2759 3056,0 5558,920 7503,2759 1944,1843 2918,4208 2918,7101l0 94080c0,5260 1528,9665 4584,13216 3057,3550 6808,5324 11255,5324l7086 0c2502,0 4622,920 6358,2761 1737,1841 2604,4208 2604,7100 0,2893 -1146,5260 -3438,7101 -2293,1841 -5245,2762 -8859,2762l-3751 0zm-46268 -86980c-2919,0 -5280,-789 -7087,-2367 -1806,-1577 -2710,-3550 -2710,-5917 0,-2629 904,-4733 2710,-6311 1807,-1577 4168,-2368 7087,-2368l48145 0c2917,0 5279,791 7086,2368 1805,1578 2709,3682 2709,6311 0,2367 -904,4340 -2709,5917 -1807,1578 -4169,2367 -7086,2367l-48145 0zm114629 86980c-2223,0 -4273,-626 -6149,-1875 -1875,-1249 -3161,-2794 -3856,-4634l-30845 -87572c-1112,-4075 -1078,-7396 104,-9960 1182,-2563 3786,-3846 7816,-3846 2640,0 4829,691 6565,2072 1737,1379 3161,3714 4273,7001l26260 77710 -7295 0 24803 -79289c695,-2235 1875,-4043 3543,-5422 1667,-1381 3961,-2072 6878,-2072 2779,0 5036,691 6774,2072 1737,1379 2883,3187 3437,5422l20218 74555 -3126 0 24595 -72976c1944,-6049 5555,-9073 10837,-9073 3890,0 6530,1283 7920,3846 1388,2564 1320,5885 -208,9960l-30848 87572c-555,1840 -1736,3385 -3543,4634 -1805,1249 -3890,1875 -6252,1875 -2223,0 -4307,-626 -6253,-1875 -1945,-1249 -3194,-2794 -3751,-4634l-21468 -75145 2086 0 -22510 75145c-556,1840 -1773,3385 -3647,4634 -1877,1249 -3996,1875 -6358,1875zm138182 0c-3056,0 -5592,-954 -7606,-2860 -2014,-1908 -3022,-4307 -3022,-7200l0 -87768c0,-3024 1008,-5457 3022,-7297 2014,-1841 4550,-2762 7606,-2762 3197,0 5767,921 7713,2762 1946,1840 2917,4273 2917,7297l0 87768c0,2893 -971,5292 -2917,7200 -1946,1906 -4516,2860 -7713,2860zm0 -125441c-3751,0 -6980,-1281 -9690,-3846 -2710,-2563 -4065,-5620 -4065,-9170 0,-3550 1355,-6607 4065,-9172 2710,-2564 5939,-3846 9690,-3846 3752,0 6983,1282 9693,3846 2709,2565 4063,5622 4063,9172 0,3550 -1354,6607 -4063,9170 -2710,2565 -5941,3846 -9693,3846zm91706 125441c-6947,0 -13200,-1676 -18759,-5030 -5558,-3353 -9934,-7922 -13128,-13707 -3197,-5787 -4796,-12294 -4796,-19527l0 -94080c0,-2893 974,-5258 2919,-7101 1944,-1839 4446,-2759 7503,-2759 3056,0 5558,920 7502,2759 1946,1843 2919,4208 2919,7101l0 94080c0,5260 1528,9665 4585,13216 3057,3550 6808,5324 11255,5324l7086 0c2502,0 4621,920 6357,2761 1736,1841 2605,4208 2605,7100 0,2893 -1146,5260 -3438,7101 -2294,1841 -5245,2762 -8859,2762l-3751 0zm-46269 -86980c-2918,0 -5280,-789 -7087,-2367 -1805,-1577 -2709,-3550 -2709,-5917 0,-2629 904,-4733 2709,-6311 1807,-1577 4169,-2368 7087,-2368l48145 0c2917,0 5280,791 7086,2368 1805,1578 2709,3682 2709,6311 0,2367 -904,4340 -2709,5917 -1806,1578 -4169,2367 -7086,2367l-48145 0z"/>
 </g>
</svg>
