<?xml version="1.0" encoding="UTF-8"?>
<!DOCTYPE svg PUBLIC "-//W3C//DTD SVG 1.1//EN" "http://www.w3.org/Graphics/SVG/1.1/DTD/svg11.dtd">
<!-- Creator: CorelDRAW X7 -->
<svg xmlns="http://www.w3.org/2000/svg" xml:space="preserve" width="1640px" height="1337px" version="1.1" style="shape-rendering:geometricPrecision; text-rendering:geometricPrecision; image-rendering:optimizeQuality; fill-rule:evenodd; clip-rule:evenodd"
viewBox="0 0 1550033 1263680"
 xmlns:xlink="http://www.w3.org/1999/xlink">
 <defs>
  <style type="text/css">
   <![CDATA[
    .fil0 {fill:#EAEBEC}
    .fil5 {fill:#414242;fill-rule:nonzero}
    .fil3 {fill:#787878;fill-rule:nonzero}
    .fil4 {fill:#7D7D7D;fill-rule:nonzero}
    .fil1 {fill:#868687;fill-rule:nonzero}
    .fil2 {fill:#9D9D9E;fill-rule:nonzero}
   ]]>
  </style>
 </defs>
 <g id="Capa_x0020_1">
  <metadata id="CorelCorpID_0Corel-Layer"/>
  <g id="_2742764251216">
   <g>
    <path class="fil0" d="M1067 0l1547899 0c587,0 1067,480 1067,1067l0 1261546c0,587 -480,1067 -1067,1067l-1547899 0c-587,0 -1067,-480 -1067,-1067l0 -1261546c0,-587 480,-1067 1067,-1067z"/>
    <path class="fil1" d="M69556 109503l-8663 0 0 -55160c-2084,2002 -4823,3987 -8203,5972 -3380,1986 -6431,3479 -9123,4464l0 -8369c4840,-2263 9073,-5020 12699,-8268 3626,-3233 6202,-6366 7712,-9418l5578 0 0 70779zm109451 0l-8663 0 0 -55160c-2084,2002 -4823,3987 -8203,5972 -3380,1986 -6431,3479 -9123,4464l0 -8369c4840,-2263 9073,-5020 12699,-8268 3626,-3233 6202,-6366 7712,-9418l5578 0 0 70779zm76965 -34783c0,-8317 853,-15045 2559,-20131 1724,-5102 4267,-9024 7646,-11764 3363,-2739 7613,-4101 12732,-4101 3774,0 7088,755 9960,2281 2854,1525 5217,3723 7054,6595 1838,2854 3282,6349 4332,10468 1066,4118 1592,9680 1592,16652 0,8269 -854,14964 -2544,20050 -1690,5103 -4233,9024 -7613,11780 -3363,2757 -7629,4134 -12781,4134 -6776,0 -12109,-2411 -15980,-7252 -4643,-5905 -6957,-15471 -6957,-28712zm8860 34c0,11600 1345,19310 4052,23116 2708,3823 6054,5727 10025,5727 3971,0 7318,-1919 10024,-5742 2708,-3840 4053,-11535 4053,-23101 0,-11601 -1345,-19311 -4053,-23118 -2690,-3823 -6070,-5726 -10122,-5726 -3971,0 -7154,1690 -9533,5053 -2969,4282 -4446,12224 -4446,23791zm133077 34749l-8663 0 0 -55160c-2084,2002 -4823,3987 -8203,5972 -3380,1986 -6431,3479 -9123,4464l0 -8369c4840,-2263 9073,-5020 12699,-8268 3626,-3233 6202,-6366 7712,-9418l5578 0 0 70779zm76965 -34783c0,-8317 853,-15045 2559,-20131 1724,-5102 4267,-9024 7646,-11764 3363,-2739 7613,-4101 12732,-4101 3774,0 7088,755 9960,2281 2854,1525 5217,3723 7054,6595 1838,2854 3282,6349 4332,10468 1066,4118 1592,9680 1592,16652 0,8269 -854,14964 -2544,20050 -1690,5103 -4233,9024 -7613,11780 -3363,2757 -7629,4134 -12781,4134 -6776,0 -12109,-2411 -15980,-7252 -4643,-5905 -6957,-15471 -6957,-28712zm8860 34c0,11600 1345,19310 4052,23116 2708,3823 6054,5727 10025,5727 3971,0 7317,-1919 10024,-5742 2708,-3840 4053,-11535 4053,-23101 0,-11601 -1345,-19311 -4053,-23118 -2690,-3823 -6070,-5726 -10123,-5726 -3970,0 -7153,1690 -9532,5053 -2969,4282 -4446,12224 -4446,23791zm133077 34749l-8663 0 0 -55160c-2084,2002 -4823,3987 -8203,5972 -3380,1986 -6432,3479 -9123,4464l0 -8369c4840,-2263 9073,-5020 12699,-8268 3626,-3233 6202,-6366 7712,-9418l5578 0 0 70779zm76965 -34783c0,-8317 853,-15045 2559,-20131 1724,-5102 4266,-9024 7646,-11764 3363,-2739 7613,-4101 12732,-4101 3774,0 7088,755 9959,2281 2855,1525 5218,3723 7055,6595 1838,2854 3281,6349 4332,10468 1066,4118 1592,9680 1592,16652 0,8269 -854,14964 -2544,20050 -1690,5103 -4233,9024 -7613,11780 -3363,2757 -7629,4134 -12781,4134 -6776,0 -12109,-2411 -15980,-7252 -4643,-5905 -6957,-15471 -6957,-28712zm8860 34c0,11600 1345,19310 4052,23116 2708,3823 6054,5727 10025,5727 3971,0 7317,-1919 10024,-5742 2708,-3840 4053,-11535 4053,-23101 0,-11601 -1345,-19311 -4053,-23118 -2690,-3823 -6070,-5726 -10123,-5726 -3970,0 -7153,1690 -9532,5053 -2969,4282 -4446,12224 -4446,23791zm133077 34749l-8663 0 0 -55160c-2084,2002 -4823,3987 -8203,5972 -3380,1986 -6432,3479 -9123,4464l0 -8369c4840,-2263 9073,-5020 12699,-8268 3626,-3233 6202,-6366 7712,-9418l5578 0 0 70779zm109451 0l-8663 0 0 -55160c-2084,2002 -4823,3987 -8203,5972 -3380,1986 -6432,3479 -9123,4464l0 -8369c4840,-2263 9073,-5020 12699,-8268 3626,-3233 6202,-6366 7712,-9418l5578 0 0 70779zm76965 -34783c0,-8317 853,-15045 2559,-20131 1724,-5102 4266,-9024 7646,-11764 3363,-2739 7613,-4101 12732,-4101 3773,0 7087,755 9959,2281 2855,1525 5218,3723 7055,6595 1838,2854 3281,6349 4332,10468 1066,4118 1591,9680 1591,16652 0,8269 -853,14964 -2543,20050 -1690,5103 -4233,9024 -7613,11780 -3363,2757 -7629,4134 -12781,4134 -6776,0 -12109,-2411 -15980,-7252 -4643,-5905 -6957,-15471 -6957,-28712zm8860 34c0,11600 1345,19310 4052,23116 2708,3823 6054,5727 10025,5727 3971,0 7317,-1919 10024,-5742 2708,-3840 4053,-11535 4053,-23101 0,-11601 -1345,-19311 -4053,-23118 -2690,-3823 -6070,-5726 -10123,-5726 -3970,0 -7153,1690 -9532,5053 -2969,4282 -4446,12224 -4446,23791zm133077 34749l-8663 0 0 -55160c-2084,2002 -4823,3987 -8203,5972 -3380,1986 -6432,3479 -9123,4464l0 -8369c4840,-2263 9073,-5020 12699,-8268 3626,-3233 6202,-6366 7712,-9418l5578 0 0 70779zm76965 -34783c0,-8317 853,-15045 2559,-20131 1724,-5102 4266,-9024 7646,-11764 3363,-2739 7613,-4101 12732,-4101 3773,0 7087,755 9959,2281 2855,1525 5218,3723 7055,6595 1838,2854 3281,6349 4332,10468 1066,4118 1591,9680 1591,16652 0,8269 -853,14964 -2543,20050 -1690,5103 -4233,9024 -7613,11780 -3363,2757 -7629,4134 -12781,4134 -6776,0 -12109,-2411 -15980,-7252 -4643,-5905 -6957,-15471 -6957,-28712zm8860 34c0,11600 1345,19310 4052,23116 2708,3823 6054,5727 10025,5727 3971,0 7317,-1919 10024,-5742 2708,-3840 4053,-11535 4053,-23101 0,-11601 -1345,-19311 -4053,-23118 -2690,-3823 -6070,-5726 -10123,-5726 -3970,0 -7153,1690 -9532,5053 -2969,4282 -4446,12224 -4446,23791zm133077 34749l-8663 0 0 -55160c-2084,2002 -4823,3987 -8203,5972 -3380,1986 -6432,3479 -9123,4464l0 -8369c4840,-2263 9073,-5020 12699,-8268 3626,-3233 6202,-6366 7712,-9418l5578 0 0 70779zm76965 -34783c0,-8317 853,-15045 2559,-20131 1724,-5102 4266,-9024 7646,-11764 3363,-2739 7613,-4101 12732,-4101 3773,0 7087,755 9959,2281 2854,1525 5217,3723 7055,6595 1838,2854 3281,6349 4332,10468 1066,4118 1591,9680 1591,16652 0,8269 -854,14964 -2543,20050 -1690,5103 -4233,9024 -7613,11780 -3363,2757 -7629,4134 -12781,4134 -6776,0 -12109,-2411 -15980,-7252 -4643,-5905 -6957,-15471 -6957,-28712zm8860 34c0,11600 1345,19310 4052,23116 2708,3823 6054,5727 10025,5727 3971,0 7317,-1919 10024,-5742 2708,-3840 4053,-11535 4053,-23101 0,-11601 -1345,-19311 -4053,-23118 -2690,-3823 -6070,-5726 -10123,-5726 -3970,0 -7153,1690 -9532,5053 -2969,4282 -4446,12224 -4446,23791zm-1431723 109942c0,-8318 853,-15045 2559,-20132 1724,-5102 4267,-9023 7646,-11763 3364,-2739 7613,-4101 12732,-4101 3774,0 7088,754 9960,2280 2854,1526 5217,3724 7054,6596 1838,2854 3282,6349 4332,10468 1066,4117 1592,9679 1592,16652 0,8269 -854,14964 -2544,20049 -1690,5103 -4233,9025 -7613,11781 -3363,2757 -7629,4134 -12781,4134 -6776,0 -12109,-2411 -15980,-7252 -4643,-5906 -6957,-15472 -6957,-28712zm8860 34c0,11599 1345,19310 4052,23116 2708,3823 6054,5726 10025,5726 3971,0 7318,-1919 10024,-5742 2708,-3839 4053,-11534 4053,-23100 0,-11601 -1345,-19312 -4053,-23118 -2690,-3823 -6070,-5726 -10122,-5726 -3971,0 -7154,1690 -9533,5053 -2969,4282 -4446,12223 -4446,23791zm133077 34749l-8663 0 0 -55160c-2084,2001 -4823,3987 -8203,5971 -3380,1986 -6431,3480 -9123,4464l0 -8368c4840,-2264 9073,-5021 12699,-8269 3626,-3232 6202,-6365 7712,-9417l5578 0 0 70779zm76965 -34783c0,-8318 853,-15045 2559,-20132 1724,-5102 4267,-9023 7646,-11763 3363,-2739 7613,-4101 12732,-4101 3774,0 7088,754 9960,2280 2854,1526 5217,3724 7054,6596 1838,2854 3282,6349 4332,10468 1066,4117 1592,9679 1592,16652 0,8269 -854,14964 -2544,20049 -1690,5103 -4233,9025 -7613,11781 -3363,2757 -7629,4134 -12781,4134 -6776,0 -12109,-2411 -15980,-7252 -4643,-5906 -6957,-15472 -6957,-28712zm8860 34c0,11599 1345,19310 4052,23116 2708,3823 6054,5726 10025,5726 3971,0 7318,-1919 10024,-5742 2708,-3839 4053,-11534 4053,-23100 0,-11601 -1345,-19312 -4053,-23118 -2690,-3823 -6070,-5726 -10122,-5726 -3971,0 -7154,1690 -9533,5053 -2969,4282 -4446,12223 -4446,23791zm100591 -34c0,-8318 853,-15045 2559,-20132 1724,-5102 4267,-9023 7646,-11763 3363,-2739 7613,-4101 12732,-4101 3774,0 7088,754 9960,2280 2854,1526 5217,3724 7054,6596 1838,2854 3282,6349 4332,10468 1066,4117 1592,9679 1592,16652 0,8269 -854,14964 -2544,20049 -1690,5103 -4233,9025 -7613,11781 -3363,2757 -7629,4134 -12781,4134 -6776,0 -12109,-2411 -15980,-7252 -4643,-5906 -6957,-15472 -6957,-28712zm8860 34c0,11599 1345,19310 4052,23116 2708,3823 6054,5726 10025,5726 3971,0 7318,-1919 10024,-5742 2708,-3839 4053,-11534 4053,-23100 0,-11601 -1345,-19312 -4053,-23118 -2690,-3823 -6070,-5726 -10123,-5726 -3970,0 -7153,1690 -9532,5053 -2969,4282 -4446,12223 -4446,23791zm100591 -34c0,-8318 853,-15045 2559,-20132 1724,-5102 4267,-9023 7646,-11763 3363,-2739 7613,-4101 12732,-4101 3774,0 7088,754 9960,2280 2854,1526 5217,3724 7054,6596 1838,2854 3282,6349 4332,10468 1066,4117 1592,9679 1592,16652 0,8269 -854,14964 -2544,20049 -1690,5103 -4233,9025 -7613,11781 -3363,2757 -7629,4134 -12781,4134 -6776,0 -12109,-2411 -15980,-7252 -4643,-5906 -6957,-15472 -6957,-28712zm8860 34c0,11599 1345,19310 4052,23116 2708,3823 6054,5726 10025,5726 3971,0 7317,-1919 10024,-5742 2708,-3839 4053,-11534 4053,-23100 0,-11601 -1345,-19312 -4053,-23118 -2690,-3823 -6070,-5726 -10123,-5726 -3970,0 -7153,1690 -9532,5053 -2969,4282 -4446,12223 -4446,23791zm133077 34749l-8663 0 0 -55160c-2084,2001 -4823,3987 -8203,5971 -3380,1986 -6432,3480 -9123,4464l0 -8368c4840,-2264 9073,-5021 12699,-8269 3626,-3232 6202,-6365 7712,-9417l5578 0 0 70779z"/>
    <path class="fil2" d="M726262 219479l-8663 0 0 -55160c-2084,2001 -4823,3987 -8203,5971 -3380,1986 -6432,3480 -9123,4464l0 -8368c4840,-2264 9073,-5021 12699,-8269 3626,-3232 6202,-6365 7712,-9417l5578 0 0 70779z"/>
    <path class="fil2" d="M835713 219479l-8663 0 0 -55160c-2084,2001 -4823,3987 -8203,5971 -3380,1986 -6432,3480 -9123,4464l0 -8368c4840,-2264 9073,-5021 12699,-8269 3626,-3232 6202,-6365 7712,-9417l5578 0 0 70779zm76965 -34783c0,-8318 853,-15045 2559,-20132 1724,-5102 4266,-9023 7646,-11763 3363,-2739 7613,-4101 12732,-4101 3773,0 7087,754 9959,2280 2855,1526 5218,3724 7055,6596 1838,2854 3281,6349 4332,10468 1066,4117 1591,9679 1591,16652 0,8269 -853,14964 -2543,20049 -1690,5103 -4233,9025 -7613,11781 -3363,2757 -7629,4134 -12781,4134 -6776,0 -12109,-2411 -15980,-7252 -4643,-5906 -6957,-15472 -6957,-28712zm8860 34c0,11599 1345,19310 4052,23116 2708,3823 6054,5726 10025,5726 3971,0 7317,-1919 10024,-5742 2708,-3839 4053,-11534 4053,-23100 0,-11601 -1345,-19312 -4053,-23118 -2690,-3823 -6070,-5726 -10123,-5726 -3970,0 -7153,1690 -9532,5053 -2969,4282 -4446,12223 -4446,23791zm133077 34749l-8663 0 0 -55160c-2084,2001 -4823,3987 -8203,5971 -3380,1986 -6432,3480 -9123,4464l0 -8368c4840,-2264 9073,-5021 12699,-8269 3626,-3232 6202,-6365 7712,-9417l5578 0 0 70779zm76965 -34783c0,-8318 853,-15045 2559,-20132 1724,-5102 4266,-9023 7646,-11763 3363,-2739 7613,-4101 12732,-4101 3773,0 7087,754 9959,2280 2855,1526 5218,3724 7055,6596 1838,2854 3281,6349 4332,10468 1066,4117 1591,9679 1591,16652 0,8269 -853,14964 -2543,20049 -1690,5103 -4233,9025 -7613,11781 -3363,2757 -7629,4134 -12781,4134 -6776,0 -12109,-2411 -15980,-7252 -4643,-5906 -6957,-15472 -6957,-28712zm8860 34c0,11599 1345,19310 4052,23116 2708,3823 6054,5726 10025,5726 3971,0 7317,-1919 10024,-5742 2708,-3839 4053,-11534 4053,-23100 0,-11601 -1345,-19312 -4053,-23118 -2690,-3823 -6070,-5726 -10123,-5726 -3970,0 -7153,1690 -9532,5053 -2969,4282 -4446,12223 -4446,23791zm100591 -34c0,-8318 853,-15045 2559,-20132 1724,-5102 4266,-9023 7646,-11763 3363,-2739 7613,-4101 12732,-4101 3773,0 7087,754 9959,2280 2855,1526 5218,3724 7055,6596 1838,2854 3281,6349 4332,10468 1066,4117 1591,9679 1591,16652 0,8269 -853,14964 -2543,20049 -1690,5103 -4233,9025 -7613,11781 -3363,2757 -7629,4134 -12781,4134 -6776,0 -12109,-2411 -15980,-7252 -4643,-5906 -6957,-15472 -6957,-28712zm8860 34c0,11599 1345,19310 4052,23116 2708,3823 6054,5726 10025,5726 3971,0 7317,-1919 10024,-5742 2708,-3839 4053,-11534 4053,-23100 0,-11601 -1345,-19312 -4053,-23118 -2690,-3823 -6070,-5726 -10123,-5726 -3970,0 -7153,1690 -9532,5053 -2969,4282 -4446,12223 -4446,23791zm100591 -34c0,-8318 853,-15045 2559,-20132 1724,-5102 4266,-9023 7646,-11763 3363,-2739 7613,-4101 12732,-4101 3773,0 7087,754 9959,2280 2854,1526 5217,3724 7055,6596 1838,2854 3281,6349 4332,10468 1066,4117 1591,9679 1591,16652 0,8269 -853,14964 -2543,20049 -1690,5103 -4233,9025 -7613,11781 -3363,2757 -7629,4134 -12781,4134 -6776,0 -12109,-2411 -15980,-7252 -4643,-5906 -6957,-15472 -6957,-28712zm8860 34c0,11599 1345,19310 4052,23116 2708,3823 6054,5726 10025,5726 3971,0 7317,-1919 10024,-5742 2708,-3839 4053,-11534 4053,-23100 0,-11601 -1345,-19312 -4053,-23118 -2690,-3823 -6070,-5726 -10123,-5726 -3970,0 -7153,1690 -9532,5053 -2969,4282 -4446,12223 -4446,23791zm133077 34749l-8663 0 0 -55160c-2084,2001 -4823,3987 -8203,5971 -3380,1986 -6432,3480 -9123,4464l0 -8368c4840,-2264 9073,-5021 12699,-8269 3626,-3232 6202,-6365 7712,-9417l5578 0 0 70779z"/>
    <path class="fil2" d="M69556 329455l-8663 0 0 -55161c-2084,2002 -4823,3987 -8203,5972 -3380,1986 -6431,3479 -9123,4464l0 -8368c4840,-2264 9073,-5021 12699,-8269 3626,-3233 6202,-6366 7712,-9418l5578 0 0 70780zm109451 0l-8663 0 0 -55161c-2084,2002 -4823,3987 -8203,5972 -3380,1986 -6431,3479 -9123,4464l0 -8368c4840,-2264 9073,-5021 12699,-8269 3626,-3233 6202,-6366 7712,-9418l5578 0 0 70780zm76965 -34783c0,-8318 853,-15046 2559,-20132 1724,-5102 4267,-9023 7646,-11764 3363,-2739 7613,-4101 12732,-4101 3774,0 7088,755 9960,2281 2854,1526 5217,3723 7054,6595 1838,2855 3282,6349 4332,10468 1066,4118 1592,9680 1592,16653 0,8268 -854,14963 -2544,20049 -1690,5103 -4233,9024 -7613,11780 -3363,2757 -7629,4135 -12781,4135 -6776,0 -12109,-2411 -15980,-7252 -4643,-5906 -6957,-15472 -6957,-28712zm8860 33c0,11600 1345,19310 4052,23117 2708,3823 6054,5726 10025,5726 3971,0 7318,-1919 10024,-5742 2708,-3840 4053,-11535 4053,-23101 0,-11600 -1345,-19311 -4053,-23117 -2690,-3823 -6070,-5726 -10122,-5726 -3971,0 -7154,1689 -9533,5053 -2969,4281 -4446,12223 -4446,23790zm133077 34750l-8663 0 0 -55161c-2084,2002 -4823,3987 -8203,5972 -3380,1986 -6431,3479 -9123,4464l0 -8368c4840,-2264 9073,-5021 12699,-8269 3626,-3233 6202,-6366 7712,-9418l5578 0 0 70780zm76965 -34783c0,-8318 853,-15046 2559,-20132 1724,-5102 4267,-9023 7646,-11764 3363,-2739 7613,-4101 12732,-4101 3774,0 7088,755 9960,2281 2854,1526 5217,3723 7054,6595 1838,2855 3282,6349 4332,10468 1066,4118 1592,9680 1592,16653 0,8268 -854,14963 -2544,20049 -1690,5103 -4233,9024 -7613,11780 -3363,2757 -7629,4135 -12781,4135 -6776,0 -12109,-2411 -15980,-7252 -4643,-5906 -6957,-15472 -6957,-28712zm8860 33c0,11600 1345,19310 4052,23117 2708,3823 6054,5726 10025,5726 3971,0 7317,-1919 10024,-5742 2708,-3840 4053,-11535 4053,-23101 0,-11600 -1345,-19311 -4053,-23117 -2690,-3823 -6070,-5726 -10123,-5726 -3970,0 -7153,1689 -9532,5053 -2969,4281 -4446,12223 -4446,23790zm133077 34750l-8663 0 0 -55161c-2084,2002 -4823,3987 -8203,5972 -3380,1986 -6432,3479 -9123,4464l0 -8368c4840,-2264 9073,-5021 12699,-8269 3626,-3233 6202,-6366 7712,-9418l5578 0 0 70780zm76965 -34783c0,-8318 853,-15046 2559,-20132 1724,-5102 4266,-9023 7646,-11764 3363,-2739 7613,-4101 12732,-4101 3774,0 7088,755 9959,2281 2855,1526 5218,3723 7055,6595 1838,2855 3281,6349 4332,10468 1066,4118 1592,9680 1592,16653 0,8268 -854,14963 -2544,20049 -1690,5103 -4233,9024 -7613,11780 -3363,2757 -7629,4135 -12781,4135 -6776,0 -12109,-2411 -15980,-7252 -4643,-5906 -6957,-15472 -6957,-28712zm8860 33c0,11600 1345,19310 4052,23117 2708,3823 6054,5726 10025,5726 3971,0 7317,-1919 10024,-5742 2708,-3840 4053,-11535 4053,-23101 0,-11600 -1345,-19311 -4053,-23117 -2690,-3823 -6070,-5726 -10123,-5726 -3970,0 -7153,1689 -9532,5053 -2969,4281 -4446,12223 -4446,23790zm-8860 659820c0,-8318 853,-15045 2559,-20131 1724,-5103 4266,-9024 7646,-11764 3363,-2739 7613,-4101 12732,-4101 3774,0 7088,755 9959,2280 2855,1526 5218,3724 7055,6596 1838,2854 3281,6349 4332,10468 1066,4117 1592,9679 1592,16652 0,8269 -854,14964 -2544,20049 -1690,5104 -4233,9025 -7613,11781 -3363,2757 -7629,4134 -12781,4134 -6776,0 -12109,-2411 -15980,-7252 -4643,-5906 -6957,-15471 -6957,-28712zm8860 34c0,11599 1345,19310 4052,23116 2708,3823 6054,5726 10025,5726 3971,0 7317,-1918 10024,-5741 2708,-3840 4053,-11535 4053,-23101 0,-11601 -1345,-19312 -4053,-23118 -2690,-3823 -6070,-5726 -10123,-5726 -3970,0 -7153,1690 -9532,5053 -2969,4282 -4446,12224 -4446,23791zm133077 34749l-8663 0 0 -55160c-2084,2001 -4823,3987 -8203,5972 -3380,1985 -6432,3479 -9123,4463l0 -8368c4840,-2264 9073,-5021 12699,-8269 3626,-3232 6202,-6365 7712,-9417l5578 0 0 70779zm109451 0l-8663 0 0 -55160c-2084,2001 -4823,3987 -8203,5972 -3380,1985 -6432,3479 -9123,4463l0 -8368c4840,-2264 9073,-5021 12699,-8269 3626,-3232 6202,-6365 7712,-9417l5578 0 0 70779zm76965 -34783c0,-8318 853,-15045 2559,-20131 1724,-5103 4266,-9024 7646,-11764 3363,-2739 7613,-4101 12732,-4101 3773,0 7087,755 9959,2280 2855,1526 5218,3724 7055,6596 1838,2854 3281,6349 4332,10468 1066,4117 1591,9679 1591,16652 0,8269 -853,14964 -2543,20049 -1690,5104 -4233,9025 -7613,11781 -3363,2757 -7629,4134 -12781,4134 -6776,0 -12109,-2411 -15980,-7252 -4643,-5906 -6957,-15471 -6957,-28712zm8860 34c0,11599 1345,19310 4052,23116 2708,3823 6054,5726 10025,5726 3971,0 7317,-1918 10024,-5741 2708,-3840 4053,-11535 4053,-23101 0,-11601 -1345,-19312 -4053,-23118 -2690,-3823 -6070,-5726 -10123,-5726 -3970,0 -7153,1690 -9532,5053 -2969,4282 -4446,12224 -4446,23791zm133077 34749l-8663 0 0 -55160c-2084,2001 -4823,3987 -8203,5972 -3380,1985 -6432,3479 -9123,4463l0 -8368c4840,-2264 9073,-5021 12699,-8269 3626,-3232 6202,-6365 7712,-9417l5578 0 0 70779zm76965 -34783c0,-8318 853,-15045 2559,-20131 1724,-5103 4266,-9024 7646,-11764 3363,-2739 7613,-4101 12732,-4101 3773,0 7087,755 9959,2280 2855,1526 5218,3724 7055,6596 1838,2854 3281,6349 4332,10468 1066,4117 1591,9679 1591,16652 0,8269 -853,14964 -2543,20049 -1690,5104 -4233,9025 -7613,11781 -3363,2757 -7629,4134 -12781,4134 -6776,0 -12109,-2411 -15980,-7252 -4643,-5906 -6957,-15471 -6957,-28712zm8860 34c0,11599 1345,19310 4052,23116 2708,3823 6054,5726 10025,5726 3971,0 7317,-1918 10024,-5741 2708,-3840 4053,-11535 4053,-23101 0,-11601 -1345,-19312 -4053,-23118 -2690,-3823 -6070,-5726 -10123,-5726 -3970,0 -7153,1690 -9532,5053 -2969,4282 -4446,12224 -4446,23791zm133077 34749l-8663 0 0 -55160c-2084,2001 -4823,3987 -8203,5972 -3380,1985 -6432,3479 -9123,4463l0 -8368c4840,-2264 9073,-5021 12699,-8269 3626,-3232 6202,-6365 7712,-9417l5578 0 0 70779zm76965 -34783c0,-8318 853,-15045 2559,-20131 1724,-5103 4266,-9024 7646,-11764 3363,-2739 7613,-4101 12732,-4101 3773,0 7087,755 9959,2280 2854,1526 5217,3724 7055,6596 1838,2854 3281,6349 4332,10468 1066,4117 1591,9679 1591,16652 0,8269 -854,14964 -2543,20049 -1690,5104 -4233,9025 -7613,11781 -3363,2757 -7629,4134 -12781,4134 -6776,0 -12109,-2411 -15980,-7252 -4643,-5906 -6957,-15471 -6957,-28712zm8860 34c0,11599 1345,19310 4052,23116 2708,3823 6054,5726 10025,5726 3971,0 7317,-1918 10024,-5741 2708,-3840 4053,-11535 4053,-23101 0,-11601 -1345,-19312 -4053,-23118 -2690,-3823 -6070,-5726 -10123,-5726 -3970,0 -7153,1690 -9532,5053 -2969,4282 -4446,12224 -4446,23791zm-1431723 109942c0,-8318 853,-15045 2559,-20132 1724,-5102 4267,-9023 7646,-11764 3364,-2739 7613,-4100 12732,-4100 3774,0 7088,754 9960,2280 2854,1526 5217,3724 7054,6596 1838,2854 3282,6349 4332,10467 1066,4118 1592,9680 1592,16653 0,8269 -854,14964 -2544,20049 -1690,5103 -4233,9024 -7613,11780 -3363,2757 -7629,4135 -12781,4135 -6776,0 -12109,-2411 -15980,-7252 -4643,-5906 -6957,-15472 -6957,-28712zm8860 33c0,11600 1345,19311 4052,23117 2708,3823 6054,5726 10025,5726 3971,0 7318,-1919 10024,-5742 2708,-3840 4053,-11535 4053,-23101 0,-11600 -1345,-19311 -4053,-23117 -2690,-3823 -6070,-5726 -10122,-5726 -3971,0 -7154,1690 -9533,5053 -2969,4281 -4446,12223 -4446,23790zm133077 34750l-8663 0 0 -55160c-2084,2001 -4823,3987 -8203,5971 -3380,1986 -6431,3479 -9123,4464l0 -8368c4840,-2264 9073,-5021 12699,-8269 3626,-3233 6202,-6366 7712,-9417l5578 0 0 70779zm76965 -34783c0,-8318 853,-15045 2559,-20132 1724,-5102 4267,-9023 7646,-11764 3363,-2739 7613,-4100 12732,-4100 3774,0 7088,754 9960,2280 2854,1526 5217,3724 7054,6596 1838,2854 3282,6349 4332,10467 1066,4118 1592,9680 1592,16653 0,8269 -854,14964 -2544,20049 -1690,5103 -4233,9024 -7613,11780 -3363,2757 -7629,4135 -12781,4135 -6776,0 -12109,-2411 -15980,-7252 -4643,-5906 -6957,-15472 -6957,-28712zm8860 33c0,11600 1345,19311 4052,23117 2708,3823 6054,5726 10025,5726 3971,0 7318,-1919 10024,-5742 2708,-3840 4053,-11535 4053,-23101 0,-11600 -1345,-19311 -4053,-23117 -2690,-3823 -6070,-5726 -10122,-5726 -3971,0 -7154,1690 -9533,5053 -2969,4281 -4446,12223 -4446,23790zm100591 -33c0,-8318 853,-15045 2559,-20132 1724,-5102 4267,-9023 7646,-11764 3363,-2739 7613,-4100 12732,-4100 3774,0 7088,754 9960,2280 2854,1526 5217,3724 7054,6596 1838,2854 3282,6349 4332,10467 1066,4118 1592,9680 1592,16653 0,8269 -854,14964 -2544,20049 -1690,5103 -4233,9024 -7613,11780 -3363,2757 -7629,4135 -12781,4135 -6776,0 -12109,-2411 -15980,-7252 -4643,-5906 -6957,-15472 -6957,-28712zm8860 33c0,11600 1345,19311 4052,23117 2708,3823 6054,5726 10025,5726 3971,0 7318,-1919 10024,-5742 2708,-3840 4053,-11535 4053,-23101 0,-11600 -1345,-19311 -4053,-23117 -2690,-3823 -6070,-5726 -10123,-5726 -3970,0 -7153,1690 -9532,5053 -2969,4281 -4446,12223 -4446,23790zm100591 -33c0,-8318 853,-15045 2559,-20132 1724,-5102 4267,-9023 7646,-11764 3363,-2739 7613,-4100 12732,-4100 3774,0 7088,754 9960,2280 2854,1526 5217,3724 7054,6596 1838,2854 3282,6349 4332,10467 1066,4118 1592,9680 1592,16653 0,8269 -854,14964 -2544,20049 -1690,5103 -4233,9024 -7613,11780 -3363,2757 -7629,4135 -12781,4135 -6776,0 -12109,-2411 -15980,-7252 -4643,-5906 -6957,-15472 -6957,-28712zm8860 33c0,11600 1345,19311 4052,23117 2708,3823 6054,5726 10025,5726 3971,0 7317,-1919 10024,-5742 2708,-3840 4053,-11535 4053,-23101 0,-11600 -1345,-19311 -4053,-23117 -2690,-3823 -6070,-5726 -10123,-5726 -3970,0 -7153,1690 -9532,5053 -2969,4281 -4446,12223 -4446,23790zm133077 34750l-8663 0 0 -55160c-2084,2001 -4823,3987 -8203,5971 -3380,1986 -6432,3479 -9123,4464l0 -8368c4840,-2264 9073,-5021 12699,-8269 3626,-3233 6202,-6366 7712,-9417l5578 0 0 70779zm109451 0l-8663 0 0 -55160c-2084,2001 -4823,3987 -8203,5971 -3380,1986 -6432,3479 -9123,4464l0 -8368c4840,-2264 9073,-5021 12699,-8269 3626,-3233 6202,-6366 7712,-9417l5578 0 0 70779zm109451 0l-8663 0 0 -55160c-2084,2001 -4823,3987 -8203,5971 -3380,1986 -6432,3479 -9123,4464l0 -8368c4840,-2264 9073,-5021 12699,-8269 3626,-3233 6202,-6366 7712,-9417l5578 0 0 70779zm76965 -34783c0,-8318 853,-15045 2559,-20132 1724,-5102 4266,-9023 7646,-11764 3363,-2739 7613,-4100 12732,-4100 3773,0 7087,754 9959,2280 2855,1526 5218,3724 7055,6596 1838,2854 3281,6349 4332,10467 1066,4118 1591,9680 1591,16653 0,8269 -853,14964 -2543,20049 -1690,5103 -4233,9024 -7613,11780 -3363,2757 -7629,4135 -12781,4135 -6776,0 -12109,-2411 -15980,-7252 -4643,-5906 -6957,-15472 -6957,-28712zm8860 33c0,11600 1345,19311 4052,23117 2708,3823 6054,5726 10025,5726 3971,0 7317,-1919 10024,-5742 2708,-3840 4053,-11535 4053,-23101 0,-11600 -1345,-19311 -4053,-23117 -2690,-3823 -6070,-5726 -10123,-5726 -3970,0 -7153,1690 -9532,5053 -2969,4281 -4446,12223 -4446,23790zm133077 34750l-8663 0 0 -55160c-2084,2001 -4823,3987 -8203,5971 -3380,1986 -6432,3479 -9123,4464l0 -8368c4840,-2264 9073,-5021 12699,-8269 3626,-3233 6202,-6366 7712,-9417l5578 0 0 70779zm76965 -34783c0,-8318 853,-15045 2559,-20132 1724,-5102 4266,-9023 7646,-11764 3363,-2739 7613,-4100 12732,-4100 3773,0 7087,754 9959,2280 2855,1526 5218,3724 7055,6596 1838,2854 3281,6349 4332,10467 1066,4118 1591,9680 1591,16653 0,8269 -853,14964 -2543,20049 -1690,5103 -4233,9024 -7613,11780 -3363,2757 -7629,4135 -12781,4135 -6776,0 -12109,-2411 -15980,-7252 -4643,-5906 -6957,-15472 -6957,-28712zm8860 33c0,11600 1345,19311 4052,23117 2708,3823 6054,5726 10025,5726 3971,0 7317,-1919 10024,-5742 2708,-3840 4053,-11535 4053,-23101 0,-11600 -1345,-19311 -4053,-23117 -2690,-3823 -6070,-5726 -10123,-5726 -3970,0 -7153,1690 -9532,5053 -2969,4281 -4446,12223 -4446,23790z"/>
    <path class="fil1" d="M835713 329455l-8663 0 0 -55161c-2084,2002 -4823,3987 -8203,5972 -3380,1986 -6432,3479 -9123,4464l0 -8368c4840,-2264 9073,-5021 12699,-8269 3626,-3233 6202,-6366 7712,-9418l5578 0 0 70780zm109451 0l-8663 0 0 -55161c-2084,2002 -4823,3987 -8203,5972 -3380,1986 -6432,3479 -9123,4464l0 -8368c4840,-2264 9073,-5021 12699,-8269 3626,-3233 6202,-6366 7712,-9418l5578 0 0 70780zm76965 -34783c0,-8318 853,-15046 2559,-20132 1724,-5102 4266,-9023 7646,-11764 3363,-2739 7613,-4101 12732,-4101 3773,0 7087,755 9959,2281 2855,1526 5218,3723 7055,6595 1838,2855 3281,6349 4332,10468 1066,4118 1591,9680 1591,16653 0,8268 -853,14963 -2543,20049 -1690,5103 -4233,9024 -7613,11780 -3363,2757 -7629,4135 -12781,4135 -6776,0 -12109,-2411 -15980,-7252 -4643,-5906 -6957,-15472 -6957,-28712zm8860 33c0,11600 1345,19310 4052,23117 2708,3823 6054,5726 10025,5726 3971,0 7317,-1919 10024,-5742 2708,-3840 4053,-11535 4053,-23101 0,-11600 -1345,-19311 -4053,-23117 -2690,-3823 -6070,-5726 -10123,-5726 -3970,0 -7153,1689 -9532,5053 -2969,4281 -4446,12223 -4446,23790zm133077 34750l-8663 0 0 -55161c-2084,2002 -4823,3987 -8203,5972 -3380,1986 -6432,3479 -9123,4464l0 -8368c4840,-2264 9073,-5021 12699,-8269 3626,-3233 6202,-6366 7712,-9418l5578 0 0 70780zm76965 -34783c0,-8318 853,-15046 2559,-20132 1724,-5102 4266,-9023 7646,-11764 3363,-2739 7613,-4101 12732,-4101 3773,0 7087,755 9959,2281 2855,1526 5218,3723 7055,6595 1838,2855 3281,6349 4332,10468 1066,4118 1591,9680 1591,16653 0,8268 -853,14963 -2543,20049 -1690,5103 -4233,9024 -7613,11780 -3363,2757 -7629,4135 -12781,4135 -6776,0 -12109,-2411 -15980,-7252 -4643,-5906 -6957,-15472 -6957,-28712zm8860 33c0,11600 1345,19310 4052,23117 2708,3823 6054,5726 10025,5726 3971,0 7317,-1919 10024,-5742 2708,-3840 4053,-11535 4053,-23101 0,-11600 -1345,-19311 -4053,-23117 -2690,-3823 -6070,-5726 -10123,-5726 -3970,0 -7153,1689 -9532,5053 -2969,4281 -4446,12223 -4446,23790zm133077 34750l-8663 0 0 -55161c-2084,2002 -4823,3987 -8203,5972 -3380,1986 -6432,3479 -9123,4464l0 -8368c4840,-2264 9073,-5021 12699,-8269 3626,-3233 6202,-6366 7712,-9418l5578 0 0 70780zm76965 -34783c0,-8318 853,-15046 2559,-20132 1724,-5102 4266,-9023 7646,-11764 3363,-2739 7613,-4101 12732,-4101 3773,0 7087,755 9959,2281 2854,1526 5217,3723 7055,6595 1838,2855 3281,6349 4332,10468 1066,4118 1591,9680 1591,16653 0,8268 -854,14963 -2543,20049 -1690,5103 -4233,9024 -7613,11780 -3363,2757 -7629,4135 -12781,4135 -6776,0 -12109,-2411 -15980,-7252 -4643,-5906 -6957,-15472 -6957,-28712zm8860 33c0,11600 1345,19310 4052,23117 2708,3823 6054,5726 10025,5726 3971,0 7317,-1919 10024,-5742 2708,-3840 4053,-11535 4053,-23101 0,-11600 -1345,-19311 -4053,-23117 -2690,-3823 -6070,-5726 -10123,-5726 -3970,0 -7153,1689 -9532,5053 -2969,4281 -4446,12223 -4446,23790zm-1431723 109942c0,-8318 853,-15045 2559,-20131 1724,-5103 4267,-9024 7646,-11764 3364,-2739 7613,-4101 12732,-4101 3774,0 7088,755 9960,2280 2854,1526 5217,3724 7054,6596 1838,2854 3282,6349 4332,10468 1066,4117 1592,9679 1592,16652 0,8269 -854,14964 -2544,20049 -1690,5104 -4233,9025 -7613,11781 -3363,2757 -7629,4134 -12781,4134 -6776,0 -12109,-2411 -15980,-7252 -4643,-5906 -6957,-15471 -6957,-28712zm8860 34c0,11599 1345,19310 4052,23116 2708,3823 6054,5726 10025,5726 3971,0 7318,-1918 10024,-5741 2708,-3840 4053,-11535 4053,-23101 0,-11601 -1345,-19312 -4053,-23118 -2690,-3823 -6070,-5726 -10122,-5726 -3971,0 -7154,1690 -9533,5053 -2969,4282 -4446,12224 -4446,23791zm133077 34749l-8663 0 0 -55160c-2084,2001 -4823,3987 -8203,5972 -3380,1985 -6431,3479 -9123,4463l0 -8368c4840,-2263 9073,-5020 12699,-8269 3626,-3232 6202,-6365 7712,-9417l5578 0 0 70779zm76965 -34783c0,-8318 853,-15045 2559,-20131 1724,-5103 4267,-9024 7646,-11764 3363,-2739 7613,-4101 12732,-4101 3774,0 7088,755 9960,2280 2854,1526 5217,3724 7054,6596 1838,2854 3282,6349 4332,10468 1066,4117 1592,9679 1592,16652 0,8269 -854,14964 -2544,20049 -1690,5104 -4233,9025 -7613,11781 -3363,2757 -7629,4134 -12781,4134 -6776,0 -12109,-2411 -15980,-7252 -4643,-5906 -6957,-15471 -6957,-28712zm8860 34c0,11599 1345,19310 4052,23116 2708,3823 6054,5726 10025,5726 3971,0 7318,-1918 10024,-5741 2708,-3840 4053,-11535 4053,-23101 0,-11601 -1345,-19312 -4053,-23118 -2690,-3823 -6070,-5726 -10122,-5726 -3971,0 -7154,1690 -9533,5053 -2969,4282 -4446,12224 -4446,23791zm100591 -34c0,-8318 853,-15045 2559,-20131 1724,-5103 4267,-9024 7646,-11764 3363,-2739 7613,-4101 12732,-4101 3774,0 7088,755 9960,2280 2854,1526 5217,3724 7054,6596 5114,7941 5924,17925 5924,27120 0,8269 -854,14964 -2544,20049 -1690,5104 -4233,9025 -7613,11781 -3363,2757 -7629,4134 -12781,4134 -6776,0 -12109,-2411 -15980,-7252 -4643,-5906 -6957,-15471 -6957,-28712zm8860 34c0,11599 1345,19310 4052,23116 2708,3823 6054,5726 10025,5726 3971,0 7318,-1918 10024,-5741 2708,-3840 4053,-11535 4053,-23101 0,-11601 -1345,-19312 -4053,-23118 -2690,-3823 -6070,-5726 -10123,-5726 -3970,0 -7153,1690 -9532,5053 -2969,4282 -4446,12224 -4446,23791zm100591 -34c0,-8318 853,-15045 2559,-20131 1724,-5103 4267,-9024 7646,-11764 3363,-2739 7613,-4101 12732,-4101 3774,0 7088,755 9960,2280 2854,1526 5217,3724 7054,6596 1838,2854 3282,6349 4332,10468 1066,4117 1592,9679 1592,16652 0,8269 -854,14964 -2544,20049 -1690,5104 -4233,9025 -7613,11781 -3363,2757 -7629,4134 -12781,4134 -6776,0 -12109,-2411 -15980,-7252 -4643,-5906 -6957,-15471 -6957,-28712zm8860 34c0,11599 1345,19310 4052,23116 2708,3823 6054,5726 10025,5726 3971,0 7317,-1918 10024,-5741 2708,-3840 4053,-11535 4053,-23101 0,-11601 -1345,-19312 -4053,-23118 -2690,-3823 -6070,-5726 -10123,-5726 -3970,0 -7153,1690 -9532,5053 -2969,4282 -4446,12224 -4446,23791zm133077 34749l-8663 0 0 -55160c-2084,2001 -4823,3987 -8203,5972 -3380,1985 -6432,3479 -9123,4463l0 -8368c4840,-2263 9073,-5020 12699,-8269 3626,-3232 6202,-6365 7712,-9417l5578 0 0 70779zm109451 0l-8663 0 0 -55160c-2084,2001 -4823,3987 -8203,5972 -3380,1985 -6432,3479 -9123,4463l0 -8368c4840,-2263 9073,-5020 12699,-8269 3626,-3232 6202,-6365 7712,-9417l5578 0 0 70779zm109451 0l-8663 0 0 -55160c-2084,2001 -4823,3987 -8203,5972 -3380,1985 -6432,3479 -9123,4463l0 -8368c4840,-2263 9073,-5020 12699,-8269 3626,-3232 6202,-6365 7712,-9417l5578 0 0 70779zm76965 -34783c0,-8318 853,-15045 2559,-20131 1724,-5103 4266,-9024 7646,-11764 3363,-2739 7613,-4101 12732,-4101 3773,0 7087,755 9959,2280 2855,1526 5218,3724 7055,6596 1838,2854 3281,6349 4332,10468 1066,4117 1591,9679 1591,16652 0,8269 -853,14964 -2543,20049 -1690,5104 -4233,9025 -7613,11781 -3363,2757 -7629,4134 -12781,4134 -6776,0 -12109,-2411 -15980,-7252 -4643,-5906 -6957,-15471 -6957,-28712zm8860 34c0,11599 1345,19310 4052,23116 2708,3823 6054,5726 10025,5726 3971,0 7317,-1918 10024,-5741 2708,-3840 4053,-11535 4053,-23101 0,-11601 -1345,-19312 -4053,-23118 -2690,-3823 -6070,-5726 -10123,-5726 -3970,0 -7153,1690 -9532,5053 -2969,4282 -4446,12224 -4446,23791zm133077 34749l-8663 0 0 -55160c-2084,2001 -4823,3987 -8203,5972 -3380,1985 -6432,3479 -9123,4463l0 -8368c4840,-2263 9073,-5020 12699,-8269 3626,-3232 6202,-6365 7712,-9417l5578 0 0 70779zm76965 -34783c0,-8318 853,-15045 2559,-20131 1724,-5103 4266,-9024 7646,-11764 3363,-2739 7613,-4101 12732,-4101 3773,0 7087,755 9959,2280 2855,1526 5218,3724 7055,6596 1838,2854 3281,6349 4332,10468 1066,4117 1591,9679 1591,16652 0,8269 -853,14964 -2543,20049 -1690,5104 -4233,9025 -7613,11781 -3363,2757 -7629,4134 -12781,4134 -6776,0 -12109,-2411 -15980,-7252 -4643,-5906 -6957,-15471 -6957,-28712zm8860 34c0,11599 1345,19310 4052,23116 2708,3823 6054,5726 10025,5726 3971,0 7317,-1918 10024,-5741 2708,-3840 4053,-11535 4053,-23101 0,-11601 -1345,-19312 -4053,-23118 -2690,-3823 -6070,-5726 -10123,-5726 -3970,0 -7153,1690 -9532,5053 -2969,4282 -4446,12224 -4446,23791zm100591 -34c0,-8318 853,-15045 2559,-20131 1724,-5103 4266,-9024 7646,-11764 3363,-2739 7613,-4101 12732,-4101 3773,0 7087,755 9959,2280 2855,1526 5218,3724 7055,6596 1838,2854 3281,6349 4332,10468 1066,4117 1591,9679 1591,16652 0,8269 -853,14964 -2543,20049 -1690,5104 -4233,9025 -7613,11781 -3363,2757 -7629,4134 -12781,4134 -6776,0 -12109,-2411 -15980,-7252 -4643,-5906 -6957,-15471 -6957,-28712zm8860 34c0,11599 1345,19310 4052,23116 2708,3823 6054,5726 10025,5726 3971,0 7317,-1918 10024,-5741 2708,-3840 4053,-11535 4053,-23101 0,-11601 -1345,-19312 -4053,-23118 -2690,-3823 -6070,-5726 -10123,-5726 -3970,0 -7153,1690 -9532,5053 -2969,4282 -4446,12224 -4446,23791zm100591 -34c0,-8318 853,-15045 2559,-20131 1724,-5103 4266,-9024 7646,-11764 3363,-2739 7613,-4101 12732,-4101 3773,0 7087,755 9959,2280 2854,1526 5217,3724 7055,6596 1838,2854 3281,6349 4332,10468 1066,4117 1591,9679 1591,16652 0,8269 -853,14964 -2543,20049 -1690,5104 -4233,9025 -7613,11781 -3363,2757 -7629,4134 -12781,4134 -6776,0 -12109,-2411 -15980,-7252 -4643,-5906 -6957,-15471 -6957,-28712zm8860 34c0,11599 1345,19310 4052,23116 2708,3823 6054,5726 10025,5726 3971,0 7317,-1918 10024,-5741 2708,-3840 4053,-11535 4053,-23101 0,-11601 -1345,-19312 -4053,-23118 -2690,-3823 -6070,-5726 -10123,-5726 -3970,0 -7153,1690 -9532,5053 -2969,4282 -4446,12224 -4446,23791zm133077 34749l-8663 0 0 -55160c-2084,2001 -4823,3987 -8203,5972 -3380,1985 -6432,3479 -9123,4463l0 -8368c4840,-2263 9073,-5020 12699,-8269 3626,-3232 6202,-6365 7712,-9417l5578 0 0 70779zm-1422863 109976l-8663 0 0 -55160c-2084,2001 -4823,3987 -8203,5971 -3380,1986 -6431,3479 -9123,4464l0 -8368c4840,-2264 9073,-5021 12699,-8269 3626,-3233 6202,-6366 7712,-9417l5578 0 0 70779zm109451 0l-8663 0 0 -55160c-2084,2001 -4823,3987 -8203,5971 -3380,1986 -6431,3479 -9123,4464l0 -8368c4840,-2264 9073,-5021 12699,-8269 3626,-3233 6202,-6366 7712,-9417l5578 0 0 70779zm76965 -34783c0,-8318 853,-15045 2559,-20132 1724,-5102 4267,-9023 7646,-11763 3363,-2740 7613,-4101 12732,-4101 3774,0 7088,754 9960,2280 2854,1526 5217,3724 7054,6596 1838,2854 3282,6349 4332,10467 1066,4118 1592,9680 1592,16653 0,8269 -854,14964 -2544,20049 -1690,5103 -4233,9024 -7613,11780 -3363,2757 -7629,4135 -12781,4135 -6776,0 -12109,-2411 -15980,-7252 -4643,-5906 -6957,-15472 -6957,-28712zm8860 33c0,11600 1345,19311 4052,23117 2708,3823 6054,5726 10025,5726 3971,0 7318,-1919 10024,-5742 2708,-3840 4053,-11535 4053,-23101 0,-11600 -1345,-19311 -4053,-23117 -2690,-3823 -6070,-5726 -10122,-5726 -3971,0 -7154,1690 -9533,5053 -2969,4281 -4446,12223 -4446,23790zm133077 34750l-8663 0 0 -55160c-2084,2001 -4823,3987 -8203,5971 -3380,1986 -6431,3479 -9123,4464l0 -8368c4840,-2264 9073,-5021 12699,-8269 3626,-3233 6202,-6366 7712,-9417l5578 0 0 70779zm76965 -34783c0,-8318 853,-15045 2559,-20132 1724,-5102 4267,-9023 7646,-11763 3363,-2740 7613,-4101 12732,-4101 3774,0 7088,754 9960,2280 2854,1526 5217,3724 7054,6596 1838,2854 3282,6349 4332,10467 1066,4118 1592,9680 1592,16653 0,8269 -854,14964 -2544,20049 -1690,5103 -4233,9024 -7613,11780 -3363,2757 -7629,4135 -12781,4135 -6776,0 -12109,-2411 -15980,-7252 -4643,-5906 -6957,-15472 -6957,-28712zm8860 33c0,11600 1345,19311 4052,23117 2708,3823 6054,5726 10025,5726 3971,0 7317,-1919 10024,-5742 2708,-3840 4053,-11535 4053,-23101 0,-11600 -1345,-19311 -4053,-23117 -2690,-3823 -6070,-5726 -10123,-5726 -3970,0 -7153,1690 -9532,5053 -2969,4281 -4446,12223 -4446,23790zm133077 34750l-8663 0 0 -55160c-2084,2001 -4823,3987 -8203,5971 -3380,1986 -6432,3479 -9123,4464l0 -8368c4840,-2264 9073,-5021 12699,-8269 3626,-3233 6202,-6366 7712,-9417l5578 0 0 70779zm76965 -34783c0,-8318 853,-15045 2559,-20132 1724,-5102 4266,-9023 7646,-11763 3363,-2740 7613,-4101 12732,-4101 3774,0 7088,754 9959,2280 2855,1526 5218,3724 7055,6596 1838,2854 3281,6349 4332,10467 1066,4118 1592,9680 1592,16653 0,8269 -854,14964 -2544,20049 -1690,5103 -4233,9024 -7613,11780 -3363,2757 -7629,4135 -12781,4135 -6776,0 -12109,-2411 -15980,-7252 -4643,-5906 -6957,-15472 -6957,-28712zm8860 33c0,11600 1345,19311 4052,23117 2708,3823 6054,5726 10025,5726 3971,0 7317,-1919 10024,-5742 2708,-3840 4053,-11535 4053,-23101 0,-11600 -1345,-19311 -4053,-23117 -2690,-3823 -6070,-5726 -10123,-5726 -3970,0 -7153,1690 -9532,5053 -2969,4281 -4446,12223 -4446,23790zm133077 34750l-8663 0 0 -55160c-2084,2001 -4823,3987 -8203,5971 -3380,1986 -6432,3479 -9123,4464l0 -8368c4840,-2264 9073,-5021 12699,-8269 3626,-3233 6202,-6366 7712,-9417l5578 0 0 70779zm109451 0l-8663 0 0 -55160c-2084,2001 -4823,3987 -8203,5971 -3380,1986 -6432,3479 -9123,4464l0 -8368c4840,-2264 9073,-5021 12699,-8269 3626,-3233 6202,-6366 7712,-9417l5578 0 0 70779zm76965 -34783c0,-8318 853,-15045 2559,-20132 1724,-5102 4266,-9023 7646,-11763 3363,-2740 7613,-4101 12732,-4101 3773,0 7087,754 9959,2280 2855,1526 5218,3724 7055,6596 1838,2854 3281,6349 4332,10467 1066,4118 1591,9680 1591,16653 0,8269 -853,14964 -2543,20049 -1690,5103 -4233,9024 -7613,11780 -3363,2757 -7629,4135 -12781,4135 -6776,0 -12109,-2411 -15980,-7252 -4643,-5906 -6957,-15472 -6957,-28712zm8860 33c0,11600 1345,19311 4052,23117 2708,3823 6054,5726 10025,5726 3971,0 7317,-1919 10024,-5742 2708,-3840 4053,-11535 4053,-23101 0,-11600 -1345,-19311 -4053,-23117 -2690,-3823 -6070,-5726 -10123,-5726 -3970,0 -7153,1690 -9532,5053 -2969,4281 -4446,12223 -4446,23790zm133077 34750l-8663 0 0 -55160c-2084,2001 -4823,3987 -8203,5971 -3380,1986 -6432,3479 -9123,4464l0 -8368c4840,-2264 9073,-5021 12699,-8269 3626,-3233 6202,-6366 7712,-9417l5578 0 0 70779zm76965 -34783c0,-8318 853,-15045 2559,-20132 1724,-5102 4266,-9023 7646,-11763 3363,-2740 7613,-4101 12732,-4101 3773,0 7087,754 9959,2280 2855,1526 5218,3724 7055,6596 1838,2854 3281,6349 4332,10467 1066,4118 1591,9680 1591,16653 0,8269 -853,14964 -2543,20049 -1690,5103 -4233,9024 -7613,11780 -3363,2757 -7629,4135 -12781,4135 -6776,0 -12109,-2411 -15980,-7252 -4643,-5906 -6957,-15472 -6957,-28712zm8860 33c0,11600 1345,19311 4052,23117 2708,3823 6054,5726 10025,5726 3971,0 7317,-1919 10024,-5742 2708,-3840 4053,-11535 4053,-23101 0,-11600 -1345,-19311 -4053,-23117 -2690,-3823 -6070,-5726 -10123,-5726 -3970,0 -7153,1690 -9532,5053 -2969,4281 -4446,12223 -4446,23790zm133077 34750l-8663 0 0 -55160c-2084,2001 -4823,3987 -8203,5971 -3380,1986 -6432,3479 -9123,4464l0 -8368c4840,-2264 9073,-5021 12699,-8269 3626,-3233 6202,-6366 7712,-9417l5578 0 0 70779zm76965 -34783c0,-8318 853,-15045 2559,-20132 1724,-5102 4266,-9023 7646,-11763 3363,-2740 7613,-4101 12732,-4101 3773,0 7087,754 9959,2280 2854,1526 5217,3724 7055,6596 1838,2854 3281,6349 4332,10467 1066,4118 1591,9680 1591,16653 0,8269 -854,14964 -2543,20049 -1690,5103 -4233,9024 -7613,11780 -3363,2757 -7629,4135 -12781,4135 -6776,0 -12109,-2411 -15980,-7252 -4643,-5906 -6957,-15472 -6957,-28712zm8860 33c0,11600 1345,19311 4052,23117 2708,3823 6054,5726 10025,5726 3971,0 7317,-1919 10024,-5742 2708,-3840 4053,-11535 4053,-23101 0,-11600 -1345,-19311 -4053,-23117 -2690,-3823 -6070,-5726 -10123,-5726 -3970,0 -7153,1690 -9532,5053 -2969,4281 -4446,12223 -4446,23790z"/>
    <path class="fil2" d="M37070 624598c0,-8317 853,-15045 2559,-20131 1724,-5102 4267,-9024 7646,-11764 3364,-2739 7613,-4101 12732,-4101 3774,0 7088,755 9960,2281 2854,1525 5217,3723 7054,6595 1838,2854 3282,6349 4332,10468 1066,4118 1592,9680 1592,16652 0,8269 -854,14964 -2544,20050 -1690,5103 -4233,9024 -7613,11780 -3363,2757 -7629,4134 -12781,4134 -6776,0 -12109,-2411 -15980,-7252 -4643,-5905 -6957,-15471 -6957,-28712zm8860 34c0,11599 1345,19310 4052,23116 2708,3823 6054,5726 10025,5726 3971,0 7318,-1918 10024,-5741 2708,-3840 4053,-11535 4053,-23101 0,-11601 -1345,-19311 -4053,-23118 -2690,-3823 -6070,-5726 -10122,-5726 -3971,0 -7154,1690 -9533,5053 -2969,4282 -4446,12224 -4446,23791zm133077 34749l-8663 0 0 -55160c-2084,2002 -4823,3987 -8203,5972 -3380,1986 -6431,3479 -9123,4463l0 -8368c4840,-2263 9073,-5020 12699,-8268 3626,-3233 6202,-6366 7712,-9418l5578 0 0 70779zm76965 -34783c0,-8317 853,-15045 2559,-20131 1724,-5102 4267,-9024 7646,-11764 3363,-2739 7613,-4101 12732,-4101 3774,0 7088,755 9960,2281 2854,1525 5217,3723 7054,6595 1838,2854 3282,6349 4332,10468 1066,4118 1592,9680 1592,16652 0,8269 -854,14964 -2544,20050 -1690,5103 -4233,9024 -7613,11780 -3363,2757 -7629,4134 -12781,4134 -6776,0 -12109,-2411 -15980,-7252 -4643,-5905 -6957,-15471 -6957,-28712zm8860 34c0,11599 1345,19310 4052,23116 2708,3823 6054,5726 10025,5726 3971,0 7318,-1918 10024,-5741 2708,-3840 4053,-11535 4053,-23101 0,-11601 -1345,-19311 -4053,-23118 -2690,-3823 -6070,-5726 -10122,-5726 -3971,0 -7154,1690 -9533,5053 -2969,4282 -4446,12224 -4446,23791zm100591 -34c0,-8317 853,-15045 2559,-20131 1724,-5102 4267,-9024 7646,-11764 3363,-2739 7613,-4101 12732,-4101 3774,0 7088,755 9960,2281 2854,1525 5217,3723 7054,6595 1838,2854 3282,6349 4332,10468 1066,4118 1592,9680 1592,16652 0,8269 -854,14964 -2544,20050 -1690,5103 -4233,9024 -7613,11780 -3363,2757 -7629,4134 -12781,4134 -6776,0 -12109,-2411 -15980,-7252 -4643,-5905 -6957,-15471 -6957,-28712zm8860 34c0,11599 1345,19310 4052,23116 2708,3823 6054,5726 10025,5726 3971,0 7318,-1918 10024,-5741 2708,-3840 4053,-11535 4053,-23101 0,-11601 -1345,-19311 -4053,-23118 -2690,-3823 -6070,-5726 -10123,-5726 -3970,0 -7153,1690 -9532,5053 -2969,4282 -4446,12224 -4446,23791zm100591 -34c0,-8317 853,-15045 2559,-20131 1724,-5102 4267,-9024 7646,-11764 3363,-2739 7613,-4101 12732,-4101 3774,0 7088,755 9960,2281 2854,1525 5217,3723 7054,6595 1838,2854 3282,6349 4332,10468 1066,4118 1592,9680 1592,16652 0,8269 -854,14964 -2544,20050 -1690,5103 -4233,9024 -7613,11780 -3363,2757 -7629,4134 -12781,4134 -6776,0 -12109,-2411 -15980,-7252 -4643,-5905 -6957,-15471 -6957,-28712zm8860 34c0,11599 1345,19310 4052,23116 2708,3823 6054,5726 10025,5726 3971,0 7317,-1918 10024,-5741 2708,-3840 4053,-11535 4053,-23101 0,-11601 -1345,-19311 -4053,-23118 -2690,-3823 -6070,-5726 -10123,-5726 -3970,0 -7153,1690 -9532,5053 -2969,4282 -4446,12224 -4446,23791zm133077 34749l-8663 0 0 -55160c-2084,2002 -4823,3987 -8203,5972 -3380,1986 -6432,3479 -9123,4463l0 -8368c4840,-2263 9073,-5020 12699,-8268 3626,-3233 6202,-6366 7712,-9418l5578 0 0 70779zm109451 0l-8663 0 0 -55160c-2084,2002 -4823,3987 -8203,5972 -3380,1986 -6432,3479 -9123,4463l0 -8368c4840,-2263 9073,-5020 12699,-8268 3626,-3233 6202,-6366 7712,-9418l5578 0 0 70779zm109451 0l-8663 0 0 -55160c-2084,2002 -4823,3987 -8203,5972 -3380,1986 -6432,3479 -9123,4463l0 -8368c4840,-2263 9073,-5020 12699,-8268 3626,-3233 6202,-6366 7712,-9418l5578 0 0 70779zm76965 -34783c0,-8317 853,-15045 2559,-20131 1724,-5102 4266,-9024 7646,-11764 3363,-2739 7613,-4101 12732,-4101 3773,0 7087,755 9959,2281 2855,1525 5218,3723 7055,6595 1838,2854 3281,6349 4332,10468 1066,4118 1591,9680 1591,16652 0,8269 -853,14964 -2543,20050 -1690,5103 -4233,9024 -7613,11780 -3363,2757 -7629,4134 -12781,4134 -6776,0 -12109,-2411 -15980,-7252 -4643,-5905 -6957,-15471 -6957,-28712zm8860 34c0,11599 1345,19310 4052,23116 2708,3823 6054,5726 10025,5726 3971,0 7317,-1918 10024,-5741 2708,-3840 4053,-11535 4053,-23101 0,-11601 -1345,-19311 -4053,-23118 -2690,-3823 -6070,-5726 -10123,-5726 -3970,0 -7153,1690 -9532,5053 -2969,4282 -4446,12224 -4446,23791zm133077 34749l-8663 0 0 -55160c-2084,2002 -4823,3987 -8203,5972 -3380,1986 -6432,3479 -9123,4463l0 -8368c4840,-2263 9073,-5020 12699,-8268 3626,-3233 6202,-6366 7712,-9418l5578 0 0 70779zm76965 -34783c0,-8317 853,-15045 2559,-20131 1724,-5102 4266,-9024 7646,-11764 3363,-2739 7613,-4101 12732,-4101 3773,0 7087,755 9959,2281 2855,1525 5218,3723 7055,6595 1838,2854 3281,6349 4332,10468 1066,4118 1591,9680 1591,16652 0,8269 -853,14964 -2543,20050 -1690,5103 -4233,9024 -7613,11780 -3363,2757 -7629,4134 -12781,4134 -6776,0 -12109,-2411 -15980,-7252 -4643,-5905 -6957,-15471 -6957,-28712zm8860 34c0,11599 1345,19310 4052,23116 2708,3823 6054,5726 10025,5726 3971,0 7317,-1918 10024,-5741 2708,-3840 4053,-11535 4053,-23101 0,-11601 -1345,-19311 -4053,-23118 -2690,-3823 -6070,-5726 -10123,-5726 -3970,0 -7153,1690 -9532,5053 -2969,4282 -4446,12224 -4446,23791zm100591 -34c0,-8317 853,-15045 2559,-20131 1724,-5102 4266,-9024 7646,-11764 3363,-2739 7613,-4101 12732,-4101 3773,0 7087,755 9959,2281 2855,1525 5218,3723 7055,6595 1838,2854 3281,6349 4332,10468 1066,4118 1591,9680 1591,16652 0,8269 -853,14964 -2543,20050 -1690,5103 -4233,9024 -7613,11780 -3363,2757 -7629,4134 -12781,4134 -6776,0 -12109,-2411 -15980,-7252 -4643,-5905 -6957,-15471 -6957,-28712zm8860 34c0,11599 1345,19310 4052,23116 2708,3823 6054,5726 10025,5726 3971,0 7317,-1918 10024,-5741 2708,-3840 4053,-11535 4053,-23101 0,-11601 -1345,-19311 -4053,-23118 -2690,-3823 -6070,-5726 -10123,-5726 -3970,0 -7153,1690 -9532,5053 -2969,4282 -4446,12224 -4446,23791zm100591 -34c0,-8317 853,-15045 2559,-20131 1724,-5102 4266,-9024 7646,-11764 3363,-2739 7613,-4101 12732,-4101 3773,0 7087,755 9959,2281 2854,1525 5217,3723 7055,6595 1838,2854 3281,6349 4332,10468 1066,4118 1591,9680 1591,16652 0,8269 -853,14964 -2543,20050 -1690,5103 -4233,9024 -7613,11780 -3363,2757 -7629,4134 -12781,4134 -6776,0 -12109,-2411 -15980,-7252 -4643,-5905 -6957,-15471 -6957,-28712zm8860 34c0,11599 1345,19310 4052,23116 2708,3823 6054,5726 10025,5726 3971,0 7317,-1918 10024,-5741 2708,-3840 4053,-11535 4053,-23101 0,-11601 -1345,-19311 -4053,-23118 -2690,-3823 -6070,-5726 -10123,-5726 -3970,0 -7153,1690 -9532,5053 -2969,4282 -4446,12224 -4446,23791zm133077 34749l-8663 0 0 -55160c-2084,2002 -4823,3987 -8203,5972 -3380,1986 -6432,3479 -9123,4463l0 -8368c4840,-2263 9073,-5020 12699,-8268 3626,-3233 6202,-6366 7712,-9418l5578 0 0 70779zm-1422863 109976l-8663 0 0 -55160c-2084,2001 -4823,3987 -8203,5971 -3380,1986 -6431,3480 -9123,4464l0 -8368c4840,-2264 9073,-5021 12699,-8269 3626,-3232 6202,-6366 7712,-9417l5578 0 0 70779zm109451 0l-8663 0 0 -55160c-2084,2001 -4823,3987 -8203,5971 -3380,1986 -6431,3480 -9123,4464l0 -8368c4840,-2264 9073,-5021 12699,-8269 3626,-3232 6202,-6366 7712,-9417l5578 0 0 70779zm76965 -34783c0,-8318 853,-15045 2559,-20132 1724,-5102 4267,-9023 7646,-11763 3363,-2739 7613,-4101 12732,-4101 3774,0 7088,754 9960,2280 2854,1526 5217,3724 7054,6596 1838,2854 3282,6349 4332,10468 1066,4117 1592,9679 1592,16652 0,8269 -854,14964 -2544,20049 -1690,5103 -4233,9025 -7613,11781 -3363,2757 -7629,4134 -12781,4134 -6776,0 -12109,-2411 -15980,-7252 -4643,-5906 -6957,-15472 -6957,-28712zm8860 34c0,11599 1345,19310 4052,23116 2708,3823 6054,5726 10025,5726 3971,0 7318,-1919 10024,-5742 2708,-3839 4053,-11534 4053,-23100 0,-11601 -1345,-19312 -4053,-23118 -2690,-3823 -6070,-5726 -10122,-5726 -3971,0 -7154,1690 -9533,5053 -2969,4282 -4446,12223 -4446,23791zm133077 34749l-8663 0 0 -55160c-2084,2001 -4823,3987 -8203,5971 -3380,1986 -6431,3480 -9123,4464l0 -8368c4840,-2264 9073,-5021 12699,-8269 3626,-3232 6202,-6366 7712,-9417l5578 0 0 70779zm76965 -34783c0,-8318 853,-15045 2559,-20132 1724,-5102 4267,-9023 7646,-11763 3363,-2739 7613,-4101 12732,-4101 3774,0 7088,754 9960,2280 2854,1526 5217,3724 7054,6596 1838,2854 3282,6349 4332,10468 1066,4117 1592,9679 1592,16652 0,8269 -854,14964 -2544,20049 -1690,5103 -4233,9025 -7613,11781 -3363,2757 -7629,4134 -12781,4134 -6776,0 -12109,-2411 -15980,-7252 -4643,-5906 -6957,-15472 -6957,-28712zm8860 34c0,11599 1345,19310 4052,23116 2708,3823 6054,5726 10025,5726 3971,0 7317,-1919 10024,-5742 2708,-3839 4053,-11534 4053,-23100 0,-11601 -1345,-19312 -4053,-23118 -2690,-3823 -6070,-5726 -10123,-5726 -3970,0 -7153,1690 -9532,5053 -2969,4282 -4446,12223 -4446,23791zm133077 34749l-8663 0 0 -55160c-2084,2001 -4823,3987 -8203,5971 -3380,1986 -6432,3480 -9123,4464l0 -8368c4840,-2264 9073,-5021 12699,-8269 3626,-3232 6202,-6366 7712,-9417l5578 0 0 70779zm76965 -34783c0,-8318 853,-15045 2559,-20132 1724,-5102 4266,-9023 7646,-11763 3363,-2739 7613,-4101 12732,-4101 3774,0 7088,754 9959,2280 2855,1526 5218,3724 7055,6596 1838,2854 3281,6349 4332,10468 1066,4117 1592,9679 1592,16652 0,8269 -854,14964 -2544,20049 -1690,5103 -4233,9025 -7613,11781 -3363,2757 -7629,4134 -12781,4134 -6776,0 -12109,-2411 -15980,-7252 -4643,-5906 -6957,-15472 -6957,-28712zm8860 34c0,11599 1345,19310 4052,23116 2708,3823 6054,5726 10025,5726 3971,0 7317,-1919 10024,-5742 2708,-3839 4053,-11534 4053,-23100 0,-11601 -1345,-19312 -4053,-23118 -2690,-3823 -6070,-5726 -10123,-5726 -3970,0 -7153,1690 -9532,5053 -2969,4282 -4446,12223 -4446,23791zm133077 34749l-8663 0 0 -55160c-2084,2001 -4823,3987 -8203,5971 -3380,1986 -6432,3480 -9123,4464l0 -8368c4840,-2264 9073,-5021 12699,-8269 3626,-3232 6202,-6366 7712,-9417l5578 0 0 70779zm109451 0l-8663 0 0 -55160c-2084,2001 -4823,3987 -8203,5971 -3380,1986 -6432,3480 -9123,4464l0 -8368c4840,-2264 9073,-5021 12699,-8269 3626,-3232 6202,-6366 7712,-9417l5578 0 0 70779zm76965 -34783c0,-8318 853,-15045 2559,-20132 1724,-5102 4266,-9023 7646,-11763 3363,-2739 7613,-4101 12732,-4101 3773,0 7087,754 9959,2280 2855,1526 5218,3724 7055,6596 1838,2854 3281,6349 4332,10468 1066,4117 1591,9679 1591,16652 0,8269 -853,14964 -2543,20049 -1690,5103 -4233,9025 -7613,11781 -3363,2757 -7629,4134 -12781,4134 -6776,0 -12109,-2411 -15980,-7252 -4643,-5906 -6957,-15472 -6957,-28712zm8860 34c0,11599 1345,19310 4052,23116 2708,3823 6054,5726 10025,5726 3971,0 7317,-1919 10024,-5742 2708,-3839 4053,-11534 4053,-23100 0,-11601 -1345,-19312 -4053,-23118 -2690,-3823 -6070,-5726 -10123,-5726 -3970,0 -7153,1690 -9532,5053 -2969,4282 -4446,12223 -4446,23791zm133077 34749l-8663 0 0 -55160c-2084,2001 -4823,3987 -8203,5971 -3380,1986 -6432,3480 -9123,4464l0 -8368c4840,-2264 9073,-5021 12699,-8269 3626,-3232 6202,-6366 7712,-9417l5578 0 0 70779zm76965 -34783c0,-8318 853,-15045 2559,-20132 1724,-5102 4266,-9023 7646,-11763 3363,-2739 7613,-4101 12732,-4101 3773,0 7087,754 9959,2280 2855,1526 5218,3724 7055,6596 1838,2854 3281,6349 4332,10468 1066,4117 1591,9679 1591,16652 0,8269 -853,14964 -2543,20049 -1690,5103 -4233,9025 -7613,11781 -3363,2757 -7629,4134 -12781,4134 -6776,0 -12109,-2411 -15980,-7252 -4643,-5906 -6957,-15472 -6957,-28712zm8860 34c0,11599 1345,19310 4052,23116 2708,3823 6054,5726 10025,5726 3971,0 7317,-1919 10024,-5742 2708,-3839 4053,-11534 4053,-23100 0,-11601 -1345,-19312 -4053,-23118 -2690,-3823 -6070,-5726 -10123,-5726 -3970,0 -7153,1690 -9532,5053 -2969,4282 -4446,12223 -4446,23791zm133077 34749l-8663 0 0 -55160c-2084,2001 -4823,3987 -8203,5971 -3380,1986 -6432,3480 -9123,4464l0 -8368c4840,-2264 9073,-5021 12699,-8269 3626,-3232 6202,-6366 7712,-9417l5578 0 0 70779zm76965 -34783c0,-8318 853,-15045 2559,-20132 1724,-5102 4266,-9023 7646,-11763 3363,-2739 7613,-4101 12732,-4101 3773,0 7087,754 9959,2280 2854,1526 5217,3724 7055,6596 1838,2854 3281,6349 4332,10468 1066,4117 1591,9679 1591,16652 0,8269 -854,14964 -2543,20049 -1690,5103 -4233,9025 -7613,11781 -3363,2757 -7629,4134 -12781,4134 -6776,0 -12109,-2411 -15980,-7252 -4643,-5906 -6957,-15472 -6957,-28712zm8860 34c0,11599 1345,19310 4052,23116 2708,3823 6054,5726 10025,5726 3971,0 7317,-1919 10024,-5742 2708,-3839 4053,-11534 4053,-23100 0,-11601 -1345,-19312 -4053,-23118 -2690,-3823 -6070,-5726 -10123,-5726 -3970,0 -7153,1690 -9532,5053 -2969,4282 -4446,12223 -4446,23791z"/>
    <path class="fil3" d="M37070 844550c0,-8318 853,-15046 2559,-20132 1724,-5102 4267,-9023 7646,-11764 3364,-2739 7613,-4101 12732,-4101 3774,0 7088,755 9960,2281 2854,1526 5217,3723 7054,6595 1838,2855 3282,6349 4332,10468 1066,4118 1592,9680 1592,16653 0,8268 -854,14963 -2544,20049 -1690,5103 -4233,9024 -7613,11780 -3363,2757 -7629,4135 -12781,4135 -6776,0 -12109,-2411 -15980,-7252 -4643,-5906 -6957,-15472 -6957,-28712zm8860 33c0,11600 1345,19310 4052,23117 2708,3823 6054,5726 10025,5726 3971,0 7318,-1919 10024,-5742 2708,-3840 4053,-11535 4053,-23101 0,-11601 -1345,-19311 -4053,-23117 -2690,-3823 -6070,-5727 -10122,-5727 -3971,0 -7154,1690 -9533,5054 -2969,4281 -4446,12223 -4446,23790zm133077 34750l-8663 0 0 -55161c-2084,2002 -4823,3987 -8203,5972 -3380,1986 -6431,3479 -9123,4464l0 -8368c4840,-2264 9073,-5021 12699,-8269 3626,-3233 6202,-6366 7712,-9418l5578 0 0 70780zm76965 -34783c0,-8318 853,-15046 2559,-20132 1724,-5102 4267,-9023 7646,-11764 3363,-2739 7613,-4101 12732,-4101 3774,0 7088,755 9960,2281 2854,1526 5217,3723 7054,6595 1838,2855 3282,6349 4332,10468 1066,4118 1592,9680 1592,16653 0,8268 -854,14963 -2544,20049 -1690,5103 -4233,9024 -7613,11780 -3363,2757 -7629,4135 -12781,4135 -6776,0 -12109,-2411 -15980,-7252 -4643,-5906 -6957,-15472 -6957,-28712zm8860 33c0,11600 1345,19310 4052,23117 2708,3823 6054,5726 10025,5726 3971,0 7318,-1919 10024,-5742 2708,-3840 4053,-11535 4053,-23101 0,-11601 -1345,-19311 -4053,-23117 -2690,-3823 -6070,-5727 -10122,-5727 -3971,0 -7154,1690 -9533,5054 -2969,4281 -4446,12223 -4446,23790zm100591 -33c0,-8318 853,-15046 2559,-20132 1724,-5102 4267,-9023 7646,-11764 3363,-2739 7613,-4101 12732,-4101 3774,0 7088,755 9960,2281 2854,1526 5217,3723 7054,6595 1838,2855 3282,6349 4332,10468 1066,4118 1592,9680 1592,16653 0,8268 -854,14963 -2544,20049 -1690,5103 -4233,9024 -7613,11780 -3363,2757 -7629,4135 -12781,4135 -6776,0 -12109,-2411 -15980,-7252 -4643,-5906 -6957,-15472 -6957,-28712zm8860 33c0,11600 1345,19310 4052,23117 2708,3823 6054,5726 10025,5726 3971,0 7318,-1919 10024,-5742 2708,-3840 4053,-11535 4053,-23101 0,-11601 -1345,-19311 -4053,-23117 -2690,-3823 -6070,-5727 -10123,-5727 -3970,0 -7153,1690 -9532,5054 -2969,4281 -4446,12223 -4446,23790zm100591 -33c0,-8318 853,-15046 2559,-20132 1724,-5102 4267,-9023 7646,-11764 3363,-2739 7613,-4101 12732,-4101 3774,0 7088,755 9960,2281 2854,1526 5217,3723 7054,6595 1838,2855 3282,6349 4332,10468 1066,4118 1592,9680 1592,16653 0,8268 -854,14963 -2544,20049 -1690,5103 -4233,9024 -7613,11780 -3363,2757 -7629,4135 -12781,4135 -6776,0 -12109,-2411 -15980,-7252 -4643,-5906 -6957,-15472 -6957,-28712zm8860 33c0,11600 1345,19310 4052,23117 2708,3823 6054,5726 10025,5726 3971,0 7317,-1919 10024,-5742 2708,-3840 4053,-11535 4053,-23101 0,-11601 -1345,-19311 -4053,-23117 -2690,-3823 -6070,-5727 -10123,-5727 -3970,0 -7153,1690 -9532,5054 -2969,4281 -4446,12223 -4446,23790zm133077 34750l-8663 0 0 -55161c-2084,2002 -4823,3987 -8203,5972 -3380,1986 -6432,3479 -9123,4464l0 -8368c4840,-2264 9073,-5021 12699,-8269 3626,-3233 6202,-6366 7712,-9418l5578 0 0 70780zm109451 0l-8663 0 0 -55161c-2084,2002 -4823,3987 -8203,5972 -3380,1986 -6432,3479 -9123,4464l0 -8368c4840,-2264 9073,-5021 12699,-8269 3626,-3233 6202,-6366 7712,-9418l5578 0 0 70780zm109451 0l-8663 0 0 -55161c-2084,2002 -4823,3987 -8203,5972 -3380,1986 -6432,3479 -9123,4464l0 -8368c4840,-2264 9073,-5021 12699,-8269 3626,-3233 6202,-6366 7712,-9418l5578 0 0 70780zm76965 -34783c0,-8318 853,-15046 2559,-20132 1724,-5102 4266,-9023 7646,-11764 3363,-2739 7613,-4101 12732,-4101 3773,0 7087,755 9959,2281 2855,1526 5218,3723 7055,6595 1838,2855 3281,6349 4332,10468 1066,4118 1591,9680 1591,16653 0,8268 -853,14963 -2543,20049 -1690,5103 -4233,9024 -7613,11780 -3363,2757 -7629,4135 -12781,4135 -6776,0 -12109,-2411 -15980,-7252 -4643,-5906 -6957,-15472 -6957,-28712zm8860 33c0,11600 1345,19310 4052,23117 2708,3823 6054,5726 10025,5726 3971,0 7317,-1919 10024,-5742 2708,-3840 4053,-11535 4053,-23101 0,-11601 -1345,-19311 -4053,-23117 -2690,-3823 -6070,-5727 -10123,-5727 -3970,0 -7153,1690 -9532,5054 -2969,4281 -4446,12223 -4446,23790zm133077 34750l-8663 0 0 -55161c-2084,2002 -4823,3987 -8203,5972 -3380,1986 -6432,3479 -9123,4464l0 -8368c4840,-2264 9073,-5021 12699,-8269 3626,-3233 6202,-6366 7712,-9418l5578 0 0 70780zm76965 -34783c0,-8318 853,-15046 2559,-20132 1724,-5102 4266,-9023 7646,-11764 3363,-2739 7613,-4101 12732,-4101 3773,0 7087,755 9959,2281 2855,1526 5218,3723 7055,6595 1838,2855 3281,6349 4332,10468 1066,4118 1591,9680 1591,16653 0,8268 -853,14963 -2543,20049 -1690,5103 -4233,9024 -7613,11780 -3363,2757 -7629,4135 -12781,4135 -6776,0 -12109,-2411 -15980,-7252 -4643,-5906 -6957,-15472 -6957,-28712zm8860 33c0,11600 1345,19310 4052,23117 2708,3823 6054,5726 10025,5726 3971,0 7317,-1919 10024,-5742 2708,-3840 4053,-11535 4053,-23101 0,-11601 -1345,-19311 -4053,-23117 -2690,-3823 -6070,-5727 -10123,-5727 -3970,0 -7153,1690 -9532,5054 -2969,4281 -4446,12223 -4446,23790zm100591 -33c0,-8318 853,-15046 2559,-20132 1724,-5102 4266,-9023 7646,-11764 3363,-2739 7613,-4101 12732,-4101 3773,0 7087,755 9959,2281 2855,1526 5218,3723 7055,6595 1838,2855 3281,6349 4332,10468 1066,4118 1591,9680 1591,16653 0,8268 -853,14963 -2543,20049 -1690,5103 -4233,9024 -7613,11780 -3363,2757 -7629,4135 -12781,4135 -6776,0 -12109,-2411 -15980,-7252 -4643,-5906 -6957,-15472 -6957,-28712zm8860 33c0,11600 1345,19310 4052,23117 2708,3823 6054,5726 10025,5726 3971,0 7317,-1919 10024,-5742 2708,-3840 4053,-11535 4053,-23101 0,-11601 -1345,-19311 -4053,-23117 -2690,-3823 -6070,-5727 -10123,-5727 -3970,0 -7153,1690 -9532,5054 -2969,4281 -4446,12223 -4446,23790zm100591 -33c0,-8318 853,-15046 2559,-20132 1724,-5102 4266,-9023 7646,-11764 3363,-2739 7613,-4101 12732,-4101 3773,0 7087,755 9959,2281 2854,1526 5217,3723 7055,6595 1838,2855 3281,6349 4332,10468 1066,4118 1591,9680 1591,16653 0,8268 -853,14963 -2543,20049 -1690,5103 -4233,9024 -7613,11780 -3363,2757 -7629,4135 -12781,4135 -6776,0 -12109,-2411 -15980,-7252 -4643,-5906 -6957,-15472 -6957,-28712zm8860 33c0,11600 1345,19310 4052,23117 2708,3823 6054,5726 10025,5726 3971,0 7317,-1919 10024,-5742 2708,-3840 4053,-11535 4053,-23101 0,-11601 -1345,-19311 -4053,-23117 -2690,-3823 -6070,-5727 -10123,-5727 -3970,0 -7153,1690 -9532,5054 -2969,4281 -4446,12223 -4446,23790zm133077 34750l-8663 0 0 -55161c-2084,2002 -4823,3987 -8203,5972 -3380,1986 -6432,3479 -9123,4464l0 -8368c4840,-2264 9073,-5021 12699,-8269 3626,-3233 6202,-6366 7712,-9418l5578 0 0 70780zm-1422863 109975l-8663 0 0 -55160c-2084,2001 -4823,3987 -8203,5972 -3380,1985 -6431,3479 -9123,4463l0 -8368c4840,-2264 9073,-5021 12699,-8269 3626,-3232 6202,-6365 7712,-9417l5578 0 0 70779zm109451 0l-8663 0 0 -55160c-2084,2001 -4823,3987 -8203,5972 -3380,1985 -6431,3479 -9123,4463l0 -8368c4840,-2264 9073,-5021 12699,-8269 3626,-3232 6202,-6365 7712,-9417l5578 0 0 70779zm76965 -34783c0,-8318 853,-15045 2559,-20131 1724,-5103 4267,-9024 7646,-11764 3363,-2739 7613,-4101 12732,-4101 3774,0 7088,755 9960,2280 2854,1526 5217,3724 7054,6596 1838,2854 3282,6349 4332,10468 1066,4117 1592,9679 1592,16652 0,8269 -854,14964 -2544,20049 -1690,5104 -4233,9025 -7613,11781 -3363,2757 -7629,4134 -12781,4134 -6776,0 -12109,-2411 -15980,-7252 -4643,-5906 -6957,-15471 -6957,-28712zm8860 34c0,11599 1345,19310 4052,23116 2708,3823 6054,5726 10025,5726 3971,0 7318,-1918 10024,-5741 2708,-3840 4053,-11535 4053,-23101 0,-11601 -1345,-19312 -4053,-23118 -2690,-3823 -6070,-5726 -10122,-5726 -3971,0 -7154,1690 -9533,5053 -2969,4282 -4446,12224 -4446,23791zm133077 34749l-8663 0 0 -55160c-2084,2001 -4823,3987 -8203,5972 -3380,1985 -6431,3479 -9123,4463l0 -8368c4840,-2264 9073,-5021 12699,-8269 3626,-3232 6202,-6365 7712,-9417l5578 0 0 70779zm76965 -34783c0,-8318 853,-15045 2559,-20131 1724,-5103 4267,-9024 7646,-11764 3363,-2739 7613,-4101 12732,-4101 3774,0 7088,755 9960,2280 2854,1526 5217,3724 7054,6596 1838,2854 3282,6349 4332,10468 1066,4117 1592,9679 1592,16652 0,8269 -854,14964 -2544,20049 -1690,5104 -4233,9025 -7613,11781 -3363,2757 -7629,4134 -12781,4134 -6776,0 -12109,-2411 -15980,-7252 -4643,-5906 -6957,-15471 -6957,-28712zm8860 34c0,11599 1345,19310 4052,23116 2708,3823 6054,5726 10025,5726 3971,0 7317,-1918 10024,-5741 2708,-3840 4053,-11535 4053,-23101 0,-11601 -1345,-19312 -4053,-23118 -2690,-3823 -6070,-5726 -10123,-5726 -3970,0 -7153,1690 -9532,5053 -2969,4282 -4446,12224 -4446,23791zm133077 34749l-8663 0 0 -55160c-2084,2001 -4823,3987 -8203,5972 -3380,1985 -6432,3479 -9123,4463l0 -8368c4840,-2264 9073,-5021 12699,-8269 3626,-3232 6202,-6365 7712,-9417l5578 0 0 70779z"/>
    <path class="fil4" d="M1241031 1064501c0,-8318 853,-15045 2559,-20132 1724,-5102 4266,-9023 7646,-11764 3363,-2739 7613,-4100 12732,-4100 3773,0 7087,754 9959,2280 2855,1526 5218,3724 7055,6596 1838,2854 3281,6349 4332,10467 1066,4118 1591,9680 1591,16653 0,8269 -853,14964 -2543,20049 -1690,5103 -4233,9024 -7613,11780 -3363,2757 -7629,4135 -12781,4135 -6776,0 -12109,-2411 -15980,-7252 -4643,-5906 -6957,-15472 -6957,-28712zm8860 33c0,11600 1345,19311 4052,23117 2708,3823 6054,5726 10025,5726 3971,0 7317,-1919 10024,-5742 2708,-3840 4053,-11535 4053,-23101 0,-11600 -1345,-19311 -4053,-23117 -2690,-3823 -6070,-5726 -10123,-5726 -3970,0 -7153,1690 -9532,5053 -2969,4281 -4446,12223 -4446,23790zm100591 -33c0,-8318 853,-15045 2559,-20132 1724,-5102 4266,-9023 7646,-11764 3363,-2739 7613,-4100 12732,-4100 3773,0 7087,754 9959,2280 2854,1526 5217,3724 7055,6596 1838,2854 3281,6349 4332,10467 1066,4118 1591,9680 1591,16653 0,8269 -853,14964 -2543,20049 -1690,5103 -4233,9024 -7613,11780 -3363,2757 -7629,4135 -12781,4135 -6776,0 -12109,-2411 -15980,-7252 -4643,-5906 -6957,-15472 -6957,-28712zm8860 33c0,11600 1345,19311 4052,23117 2708,3823 6054,5726 10025,5726 3971,0 7317,-1919 10024,-5742 2708,-3840 4053,-11535 4053,-23101 0,-11600 -1345,-19311 -4053,-23117 -2690,-3823 -6070,-5726 -10123,-5726 -3970,0 -7153,1690 -9532,5053 -2969,4281 -4446,12223 -4446,23790zm133077 34750l-8663 0 0 -55160c-2084,2001 -4823,3987 -8203,5971 -3380,1986 -6432,3479 -9123,4464l0 -8368c4840,-2264 9073,-5021 12699,-8269 3626,-3233 6202,-6366 7712,-9417l5578 0 0 70779zm-1422863 109975l-8663 0 0 -55160c-2084,2001 -4823,3987 -8203,5972 -3380,1985 -6431,3479 -9123,4463l0 -8368c4840,-2263 9073,-5020 12699,-8268 3626,-3233 6202,-6366 7712,-9418l5578 0 0 70779zm109451 0l-8663 0 0 -55160c-2084,2001 -4823,3987 -8203,5972 -3380,1985 -6431,3479 -9123,4463l0 -8368c4840,-2263 9073,-5020 12699,-8268 3626,-3233 6202,-6366 7712,-9418l5578 0 0 70779zm76965 -34783c0,-8317 853,-15045 2559,-20131 1724,-5102 4267,-9024 7646,-11764 3363,-2739 7613,-4101 12732,-4101 3774,0 7088,755 9960,2281 2854,1525 5217,3723 7054,6595 1838,2854 3282,6349 4332,10468 1066,4118 1592,9680 1592,16652 0,8269 -854,14964 -2544,20050 -1690,5103 -4233,9024 -7613,11780 -3363,2757 -7629,4134 -12781,4134 -6776,0 -12109,-2411 -15980,-7252 -4643,-5905 -6957,-15471 -6957,-28712zm8860 34c0,11599 1345,19310 4052,23116 2708,3823 6054,5726 10025,5726 3971,0 7318,-1918 10024,-5741 2708,-3840 4053,-11535 4053,-23101 0,-11601 -1345,-19311 -4053,-23118 -2690,-3823 -6070,-5726 -10122,-5726 -3971,0 -7154,1690 -9533,5053 -2969,4282 -4446,12224 -4446,23791zm133077 34749l-8663 0 0 -55160c-2084,2001 -4823,3987 -8203,5972 -3380,1985 -6431,3479 -9123,4463l0 -8368c4840,-2263 9073,-5020 12699,-8268 3626,-3233 6202,-6366 7712,-9418l5578 0 0 70779zm76965 -34783c0,-8317 853,-15045 2559,-20131 1724,-5102 4267,-9024 7646,-11764 3363,-2739 7613,-4101 12732,-4101 3774,0 7088,755 9960,2281 2854,1525 5217,3723 7054,6595 1838,2854 3282,6349 4332,10468 1066,4118 1592,9680 1592,16652 0,8269 -854,14964 -2544,20050 -1690,5103 -4233,9024 -7613,11780 -3363,2757 -7629,4134 -12781,4134 -6776,0 -12109,-2411 -15980,-7252 -4643,-5905 -6957,-15471 -6957,-28712zm8860 34c0,11599 1345,19310 4052,23116 2708,3823 6054,5726 10025,5726 3971,0 7317,-1918 10024,-5741 2708,-3840 4053,-11535 4053,-23101 0,-11601 -1345,-19311 -4053,-23118 -2690,-3823 -6070,-5726 -10123,-5726 -3970,0 -7153,1690 -9532,5053 -2969,4282 -4446,12224 -4446,23791zm133077 34749l-8663 0 0 -55160c-2084,2001 -4823,3987 -8203,5972 -3380,1985 -6432,3479 -9123,4463l0 -8368c4840,-2263 9073,-5020 12699,-8268 3626,-3233 6202,-6366 7712,-9418l5578 0 0 70779zm76965 -34783c0,-8317 853,-15045 2559,-20131 1724,-5102 4266,-9024 7646,-11764 3363,-2739 7613,-4101 12732,-4101 3774,0 7088,755 9959,2281 2855,1525 5218,3723 7055,6595 1838,2854 3281,6349 4332,10468 1066,4118 1592,9680 1592,16652 0,8269 -854,14964 -2544,20050 -1690,5103 -4233,9024 -7613,11780 -3363,2757 -7629,4134 -12781,4134 -6776,0 -12109,-2411 -15980,-7252 -4643,-5905 -6957,-15471 -6957,-28712zm8860 34c0,11599 1345,19310 4052,23116 2708,3823 6054,5726 10025,5726 3971,0 7317,-1918 10024,-5741 2708,-3840 4053,-11535 4053,-23101 0,-11601 -1345,-19311 -4053,-23118 -2690,-3823 -6070,-5726 -10123,-5726 -3970,0 -7153,1690 -9532,5053 -2969,4282 -4446,12224 -4446,23791zm133077 34749l-8663 0 0 -55160c-2084,2001 -4823,3987 -8203,5972 -3380,1985 -6432,3479 -9123,4463l0 -8368c4840,-2263 9073,-5020 12699,-8268 3626,-3233 6202,-6366 7712,-9418l5578 0 0 70779zm109451 0l-8663 0 0 -55160c-2084,2001 -4823,3987 -8203,5972 -3380,1985 -6432,3479 -9123,4463l0 -8368c4840,-2263 9073,-5020 12699,-8268 3626,-3233 6202,-6366 7712,-9418l5578 0 0 70779zm76965 -34783c0,-8317 853,-15045 2559,-20131 1724,-5102 4266,-9024 7646,-11764 3363,-2739 7613,-4101 12732,-4101 3773,0 7087,755 9959,2281 2855,1525 5218,3723 7055,6595 1838,2854 3281,6349 4332,10468 1066,4118 1591,9680 1591,16652 0,8269 -853,14964 -2543,20050 -1690,5103 -4233,9024 -7613,11780 -3363,2757 -7629,4134 -12781,4134 -6776,0 -12109,-2411 -15980,-7252 -4643,-5905 -6957,-15471 -6957,-28712zm8860 34c0,11599 1345,19310 4052,23116 2708,3823 6054,5726 10025,5726 3971,0 7317,-1918 10024,-5741 2708,-3840 4053,-11535 4053,-23101 0,-11601 -1345,-19311 -4053,-23118 -2690,-3823 -6070,-5726 -10123,-5726 -3970,0 -7153,1690 -9532,5053 -2969,4282 -4446,12224 -4446,23791zm133077 34749l-8663 0 0 -55160c-2084,2001 -4823,3987 -8203,5972 -3380,1985 -6432,3479 -9123,4463l0 -8368c4840,-2263 9073,-5020 12699,-8268 3626,-3233 6202,-6366 7712,-9418l5578 0 0 70779zm76965 -34783c0,-8317 853,-15045 2559,-20131 1724,-5102 4266,-9024 7646,-11764 3363,-2739 7613,-4101 12732,-4101 3773,0 7087,755 9959,2281 2855,1525 5218,3723 7055,6595 1838,2854 3281,6349 4332,10468 1066,4118 1591,9680 1591,16652 0,8269 -853,14964 -2543,20050 -1690,5103 -4233,9024 -7613,11780 -3363,2757 -7629,4134 -12781,4134 -6776,0 -12109,-2411 -15980,-7252 -4643,-5905 -6957,-15471 -6957,-28712zm8860 34c0,11599 1345,19310 4052,23116 2708,3823 6054,5726 10025,5726 3971,0 7317,-1918 10024,-5741 2708,-3840 4053,-11535 4053,-23101 0,-11601 -1345,-19311 -4053,-23118 -2690,-3823 -6070,-5726 -10123,-5726 -3970,0 -7153,1690 -9532,5053 -2969,4282 -4446,12224 -4446,23791zm133077 34749l-8663 0 0 -55160c-2084,2001 -4823,3987 -8203,5972 -3380,1985 -6432,3479 -9123,4463l0 -8368c4840,-2263 9073,-5020 12699,-8268 3626,-3233 6202,-6366 7712,-9418l5578 0 0 70779zm76965 -34783c0,-8317 853,-15045 2559,-20131 1724,-5102 4266,-9024 7646,-11764 3363,-2739 7613,-4101 12732,-4101 3773,0 7087,755 9959,2281 2854,1525 5217,3723 7055,6595 1838,2854 3281,6349 4332,10468 1066,4118 1591,9680 1591,16652 0,8269 -854,14964 -2543,20050 -1690,5103 -4233,9024 -7613,11780 -3363,2757 -7629,4134 -12781,4134 -6776,0 -12109,-2411 -15980,-7252 -4643,-5905 -6957,-15471 -6957,-28712zm8860 34c0,11599 1345,19310 4052,23116 2708,3823 6054,5726 10025,5726 3971,0 7317,-1918 10024,-5741 2708,-3840 4053,-11535 4053,-23101 0,-11601 -1345,-19311 -4053,-23118 -2690,-3823 -6070,-5726 -10123,-5726 -3970,0 -7153,1690 -9532,5053 -2969,4282 -4446,12224 -4446,23791z"/>
   </g>
   <path class="fil5" d="M390684 378567l0 -38746c23153,0 43628,-2835 61585,-8663 17799,-5828 37487,-15751 58751,-30084l36541 0 0 77336c38433,-30556 70406,-51033 96080,-61585 25516,-10554 51032,-15751 76549,-15751 52765,0 97497,20476 134669,61585 37014,41110 55601,94663 55601,160501 0,73084 -21106,132779 -63319,179402 -38431,42999 -87889,64420 -148530,64420 -30241,0 -58592,-5828 -85054,-17326 -19058,-8033 -41110,-22524 -65996,-43314l0 153255c0,22839 630,36226 1891,40164 1417,5985 4567,10869 9135,14807 4726,4094 10553,6614 17641,7874 5197,946 22681,1418 52608,1418l0 38747 -238152 0 0 -38747 20947 0c21264,0 35125,-1575 41426,-4882 6457,-3151 11183,-8191 14175,-14964 1890,-5356 2836,-21421 2836,-48197l0 -477250 -79384 0zm156877 46938l0 157666c0,20790 1260,36226 3623,46306 3780,15436 10868,29612 21578,42055 10554,12601 25044,23154 43315,32132 18271,8821 37487,13231 57490,13231 40008,0 74659,-14964 103956,-44891 29453,-29926 44102,-75288 44102,-136086 0,-56703 -12128,-100648 -36385,-131677 -24413,-31029 -53079,-46464 -86314,-46464 -21578,0 -44889,5670 -70090,17011 -25359,11182 -52293,28193 -81275,50717zm553513 223346c16224,0 30085,5670 41426,16854 11182,11183 16852,24728 16852,40794 0,15909 -5670,29612 -17168,40794 -11341,11183 -25201,16854 -41110,16854 -15751,0 -29454,-5671 -40795,-16854 -11498,-11182 -17168,-24885 -17168,-40794 0,-16066 5670,-29611 16854,-40794 11340,-11184 25044,-16854 41109,-16854z"/>
  </g>
 </g>
</svg>
