<?xml version="1.0" encoding="UTF-8"?>
<!DOCTYPE svg PUBLIC "-//W3C//DTD SVG 1.1//EN" "http://www.w3.org/Graphics/SVG/1.1/DTD/svg11.dtd">
<!-- Creator: CorelDRAW X7 -->
<svg xmlns="http://www.w3.org/2000/svg" xml:space="preserve" width="138.867mm" height="113.213mm" version="1.1" style="shape-rendering:geometricPrecision; text-rendering:geometricPrecision; image-rendering:optimizeQuality; fill-rule:evenodd; clip-rule:evenodd"
viewBox="0 0 130505 106396"
 xmlns:xlink="http://www.w3.org/1999/xlink">
 <defs>
  <style type="text/css">
   <![CDATA[
    .fil0 {fill:white}
    .fil9 {fill:#232A54;fill-rule:nonzero}
    .fil7 {fill:#5D5D5E;fill-rule:nonzero}
    .fil8 {fill:#6A6A6B;fill-rule:nonzero}
    .fil6 {fill:#727273;fill-rule:nonzero}
    .fil3 {fill:#949496;fill-rule:nonzero}
    .fil4 {fill:#949496;fill-rule:nonzero}
    .fil5 {fill:#BDBDBF;fill-rule:nonzero}
    .fil1 {fill:#CECFD1;fill-rule:nonzero}
    .fil2 {fill:#DADBDE;fill-rule:nonzero}
   ]]>
  </style>
 </defs>
 <g id="Capa_x0020_1">
  <metadata id="CorelCorpID_0Corel-Layer"/>
  <g id="_2241893871104">
   <path class="fil0" d="M90 0l130326 0c49,0 89,40 89,90l0 106216c0,49 -40,90 -89,90l-130326 0c-50,0 -90,-41 -90,-90l0 -106216c0,-50 40,-90 90,-90z"/>
   <g>
    <path class="fil1" d="M6132 8996l-729 0 0 -4645c-176,169 -407,336 -691,503 -285,167 -542,293 -768,376l0 -705c407,-190 764,-422 1069,-696 305,-272 522,-536 649,-793l470 0 0 5960zm9215 0l-729 0 0 -4645c-176,169 -406,336 -691,503 -284,167 -541,293 -768,376l0 -705c408,-190 764,-422 1069,-696 305,-272 522,-536 650,-793l469 0 0 5960zm6480 -2929c0,-700 72,-1267 216,-1695 145,-430 359,-760 643,-990 284,-231 641,-346 1072,-346 318,0 597,64 839,192 240,129 439,314 594,556 155,240 276,534 365,881 89,347 134,815 134,1402 0,696 -72,1260 -215,1688 -142,430 -356,760 -640,992 -284,232 -643,348 -1077,348 -570,0 -1019,-203 -1345,-611 -391,-497 -586,-1302 -586,-2417zm746 3c0,977 113,1626 341,1946 228,322 510,482 844,482 335,0 617,-161 844,-483 228,-323 342,-971 342,-1945 0,-977 -114,-1626 -342,-1947 -226,-321 -511,-482 -852,-482 -334,0 -602,143 -802,426 -250,360 -375,1029 -375,2003zm11205 2926l-730 0 0 -4645c-175,169 -406,336 -690,503 -285,167 -542,293 -768,376l0 -705c407,-190 763,-422 1069,-696 305,-272 522,-536 649,-793l470 0 0 5960zm6480 -2929c0,-700 72,-1267 215,-1695 145,-430 359,-760 644,-990 283,-231 641,-346 1072,-346 318,0 597,64 838,192 241,129 440,314 594,556 155,240 277,534 365,881 90,347 134,815 134,1402 0,696 -72,1260 -214,1688 -142,430 -356,760 -641,992 -283,232 -642,348 -1076,348 -571,0 -1020,-203 -1345,-611 -391,-497 -586,-1302 -586,-2417zm746 3c0,977 113,1626 341,1946 228,322 510,482 844,482 334,0 616,-161 844,-483 228,-323 341,-971 341,-1945 0,-977 -113,-1626 -341,-1947 -227,-321 -511,-482 -852,-482 -335,0 -603,143 -803,426 -250,360 -374,1029 -374,2003zm11204 2926l-729 0 0 -4645c-176,169 -406,336 -691,503 -284,167 -541,293 -768,376l0 -705c408,-190 764,-422 1069,-696 305,-272 522,-536 650,-793l469 0 0 5960zm6480 -2929c0,-700 72,-1267 216,-1695 145,-430 359,-760 643,-990 284,-231 641,-346 1072,-346 318,0 597,64 839,192 240,129 439,314 594,556 155,240 276,534 365,881 89,347 134,815 134,1402 0,696 -72,1260 -215,1688 -142,430 -356,760 -640,992 -284,232 -643,348 -1077,348 -570,0 -1019,-203 -1345,-611 -391,-497 -586,-1302 -586,-2417zm746 3c0,977 113,1626 341,1946 228,322 510,482 844,482 335,0 617,-161 844,-483 228,-323 342,-971 342,-1945 0,-977 -114,-1626 -342,-1947 -226,-321 -511,-482 -852,-482 -334,0 -602,143 -802,426 -250,360 -375,1029 -375,2003zm11205 2926l-730 0 0 -4645c-175,169 -406,336 -690,503 -285,167 -542,293 -768,376l0 -705c407,-190 763,-422 1069,-696 305,-272 522,-536 649,-793l470 0 0 5960zm9215 0l-729 0 0 -4645c-176,169 -407,336 -691,503 -285,167 -542,293 -768,376l0 -705c407,-190 764,-422 1069,-696 305,-272 522,-536 649,-793l470 0 0 5960zm6480 -2929c0,-700 72,-1267 215,-1695 146,-430 360,-760 644,-990 283,-231 641,-346 1072,-346 318,0 597,64 839,192 240,129 439,314 594,556 154,240 276,534 364,881 90,347 134,815 134,1402 0,696 -71,1260 -214,1688 -142,430 -356,760 -641,992 -283,232 -642,348 -1076,348 -570,0 -1019,-203 -1345,-611 -391,-497 -586,-1302 -586,-2417zm746 3c0,977 113,1626 341,1946 228,322 510,482 844,482 335,0 616,-161 844,-483 228,-323 341,-971 341,-1945 0,-977 -113,-1626 -341,-1947 -226,-321 -511,-482 -852,-482 -334,0 -602,143 -803,426 -250,360 -374,1029 -374,2003zm11204 2926l-729 0 0 -4645c-175,169 -406,336 -691,503 -284,167 -541,293 -768,376l0 -705c408,-190 764,-422 1069,-696 306,-272 523,-536 650,-793l469 0 0 5960zm6480 -2929c0,-700 72,-1267 216,-1695 145,-430 359,-760 644,-990 283,-231 641,-346 1072,-346 317,0 596,64 838,192 241,129 439,314 594,556 155,240 276,534 365,881 90,347 134,815 134,1402 0,696 -72,1260 -214,1688 -143,430 -357,760 -641,992 -283,232 -643,348 -1076,348 -571,0 -1020,-203 -1346,-611 -391,-497 -586,-1302 -586,-2417zm746 3c0,977 114,1626 342,1946 228,322 509,482 844,482 334,0 616,-161 844,-483 228,-323 341,-971 341,-1945 0,-977 -113,-1626 -341,-1947 -227,-321 -511,-482 -853,-482 -334,0 -602,143 -802,426 -250,360 -375,1029 -375,2003zm11205 2926l-729 0 0 -4645c-176,169 -407,336 -691,503 -285,167 -542,293 -768,376l0 -705c407,-190 764,-422 1069,-696 305,-272 522,-536 649,-793l470 0 0 5960zm6480 -2929c0,-700 72,-1267 215,-1695 146,-430 360,-760 644,-990 283,-231 641,-346 1072,-346 318,0 597,64 839,192 240,129 439,314 594,556 154,240 276,534 364,881 90,347 134,815 134,1402 0,696 -71,1260 -214,1688 -142,430 -356,760 -641,992 -283,232 -642,348 -1076,348 -570,0 -1019,-203 -1345,-611 -391,-497 -586,-1302 -586,-2417zm746 3c0,977 113,1626 341,1946 228,322 510,482 844,482 335,0 616,-161 844,-483 228,-323 341,-971 341,-1945 0,-977 -113,-1626 -341,-1947 -226,-321 -511,-482 -852,-482 -334,0 -602,143 -803,426 -250,360 -374,1029 -374,2003zm-120544 9256c0,-700 72,-1266 215,-1695 145,-429 359,-759 644,-990 283,-231 641,-345 1072,-345 318,0 597,63 838,192 241,128 440,313 594,555 155,240 277,535 365,881 90,347 134,815 134,1402 0,697 -72,1260 -214,1689 -142,429 -356,759 -641,991 -283,232 -642,348 -1076,348 -571,0 -1020,-203 -1345,-610 -391,-497 -586,-1303 -586,-2418zm746 3c0,977 113,1626 341,1947 228,321 510,482 844,482 334,0 616,-162 844,-484 228,-323 341,-971 341,-1945 0,-976 -113,-1626 -341,-1946 -227,-322 -511,-482 -852,-482 -335,0 -603,142 -803,425 -250,361 -374,1029 -374,2003zm11204 2926l-729 0 0 -4644c-176,168 -406,336 -691,503 -284,167 -541,293 -768,375l0 -704c408,-191 764,-423 1069,-696 305,-272 522,-536 650,-793l469 0 0 5959zm6480 -2929c0,-700 72,-1266 216,-1695 145,-429 359,-759 643,-990 284,-231 641,-345 1072,-345 318,0 597,63 839,192 240,128 439,313 594,555 155,240 276,535 365,881 89,347 134,815 134,1402 0,697 -72,1260 -215,1689 -142,429 -356,759 -640,991 -284,232 -643,348 -1077,348 -570,0 -1019,-203 -1345,-610 -391,-497 -586,-1303 -586,-2418zm746 3c0,977 113,1626 341,1947 228,321 510,482 844,482 335,0 617,-162 844,-484 228,-323 342,-971 342,-1945 0,-976 -114,-1626 -342,-1946 -226,-322 -511,-482 -852,-482 -334,0 -602,142 -802,425 -250,361 -375,1029 -375,2003zm8470 -3c0,-700 71,-1266 215,-1695 145,-429 359,-759 644,-990 283,-231 641,-345 1072,-345 317,0 596,63 838,192 241,128 439,313 594,555 155,240 276,535 365,881 90,347 134,815 134,1402 0,697 -72,1260 -214,1689 -143,429 -357,759 -641,991 -283,232 -643,348 -1076,348 -571,0 -1020,-203 -1346,-610 -391,-497 -585,-1303 -585,-2418zm746 3c0,977 113,1626 341,1947 228,321 509,482 844,482 334,0 616,-162 844,-484 228,-323 341,-971 341,-1945 0,-976 -113,-1626 -341,-1946 -227,-322 -511,-482 -853,-482 -334,0 -602,142 -802,425 -250,361 -374,1029 -374,2003zm8469 -3c0,-700 72,-1266 215,-1695 145,-429 359,-759 644,-990 283,-231 641,-345 1072,-345 318,0 597,63 838,192 241,128 440,313 594,555 155,240 277,535 365,881 90,347 134,815 134,1402 0,697 -72,1260 -214,1689 -142,429 -356,759 -641,991 -283,232 -642,348 -1076,348 -571,0 -1020,-203 -1345,-610 -391,-497 -586,-1303 -586,-2418zm746 3c0,977 113,1626 341,1947 228,321 510,482 844,482 334,0 616,-162 844,-484 228,-323 341,-971 341,-1945 0,-976 -113,-1626 -341,-1946 -227,-322 -511,-482 -852,-482 -335,0 -603,142 -803,425 -250,361 -374,1029 -374,2003zm11204 2926l-729 0 0 -4644c-176,168 -406,336 -691,503 -284,167 -541,293 -768,375l0 -704c408,-191 764,-423 1069,-696 305,-272 522,-536 650,-793l469 0 0 5959z"/>
    <path class="fil2" d="M61423 18255l-729 0 0 -4644c-175,168 -406,336 -691,503 -284,167 -541,293 -768,375l0 -704c408,-191 764,-423 1069,-696 306,-272 523,-536 650,-793l469 0 0 5959z"/>
    <path class="fil3" d="M70639 18255l-730 0 0 -4644c-175,168 -406,336 -690,503 -285,167 -542,293 -768,375l0 -704c407,-191 763,-423 1069,-696 305,-272 522,-536 649,-793l470 0 0 5959zm6480 -2929c0,-700 72,-1266 215,-1695 145,-429 359,-759 644,-990 283,-231 641,-345 1072,-345 318,0 597,63 838,192 241,128 440,313 594,555 155,240 277,535 365,881 90,347 134,815 134,1402 0,697 -72,1260 -214,1689 -142,429 -356,759 -641,991 -283,232 -642,348 -1076,348 -571,0 -1020,-203 -1345,-610 -391,-497 -586,-1303 -586,-2418zm746 3c0,977 113,1626 341,1947 228,321 510,482 844,482 334,0 616,-162 844,-484 228,-323 341,-971 341,-1945 0,-976 -113,-1626 -341,-1946 -227,-322 -511,-482 -852,-482 -335,0 -603,142 -803,425 -250,361 -374,1029 -374,2003zm11204 2926l-729 0 0 -4644c-176,168 -406,336 -691,503 -284,167 -541,293 -768,375l0 -704c408,-191 764,-423 1069,-696 305,-272 522,-536 650,-793l469 0 0 5959zm6480 -2929c0,-700 72,-1266 216,-1695 145,-429 359,-759 643,-990 284,-231 641,-345 1072,-345 318,0 597,63 839,192 240,128 439,313 594,555 155,240 276,535 365,881 89,347 134,815 134,1402 0,697 -72,1260 -215,1689 -142,429 -356,759 -640,991 -284,232 -643,348 -1077,348 -570,0 -1019,-203 -1345,-610 -391,-497 -586,-1303 -586,-2418zm746 3c0,977 113,1626 341,1947 228,321 510,482 844,482 335,0 617,-162 844,-484 228,-323 342,-971 342,-1945 0,-976 -114,-1626 -342,-1946 -226,-322 -511,-482 -852,-482 -334,0 -602,142 -802,425 -250,361 -375,1029 -375,2003zm8469 -3c0,-700 72,-1266 216,-1695 145,-429 359,-759 644,-990 283,-231 641,-345 1072,-345 317,0 596,63 838,192 241,128 439,313 594,555 155,240 276,535 365,881 90,347 134,815 134,1402 0,697 -72,1260 -214,1689 -143,429 -357,759 -641,991 -283,232 -643,348 -1076,348 -571,0 -1020,-203 -1346,-610 -391,-497 -586,-1303 -586,-2418zm746 3c0,977 114,1626 342,1947 228,321 509,482 844,482 334,0 616,-162 844,-484 228,-323 341,-971 341,-1945 0,-976 -113,-1626 -341,-1946 -227,-322 -511,-482 -853,-482 -334,0 -602,142 -802,425 -250,361 -375,1029 -375,2003zm8470 -3c0,-700 72,-1266 215,-1695 145,-429 359,-759 644,-990 283,-231 641,-345 1072,-345 318,0 597,63 838,192 241,128 440,313 594,555 155,240 277,535 365,881 90,347 134,815 134,1402 0,697 -72,1260 -214,1689 -142,429 -356,759 -641,991 -283,232 -642,348 -1076,348 -571,0 -1020,-203 -1346,-610 -390,-497 -585,-1303 -585,-2418zm746 3c0,977 113,1626 341,1947 228,321 510,482 844,482 334,0 616,-162 844,-484 228,-323 341,-971 341,-1945 0,-976 -113,-1626 -341,-1946 -227,-322 -511,-482 -852,-482 -335,0 -603,142 -803,425 -250,361 -374,1029 -374,2003zm11204 2926l-729 0 0 -4644c-176,168 -406,336 -691,503 -284,167 -541,293 -768,375l0 -704c408,-191 764,-423 1069,-696 305,-272 522,-536 650,-793l469 0 0 5959z"/>
    <path class="fil4" d="M6132 27514l-729 0 0 -4644c-176,169 -407,336 -691,503 -285,167 -542,293 -768,376l0 -705c407,-190 764,-422 1069,-696 305,-272 522,-536 649,-793l470 0 0 5959zm9215 0l-729 0 0 -4644c-176,169 -406,336 -691,503 -284,167 -541,293 -768,376l0 -705c408,-190 764,-422 1069,-696 305,-272 522,-536 650,-793l469 0 0 5959zm6480 -2928c0,-700 72,-1267 216,-1695 145,-430 359,-760 643,-991 284,-230 641,-345 1072,-345 318,0 597,64 839,192 240,129 439,314 594,556 155,240 276,534 365,881 89,347 134,815 134,1402 0,696 -72,1260 -215,1688 -142,430 -356,760 -640,992 -284,232 -643,348 -1077,348 -570,0 -1019,-203 -1345,-611 -391,-497 -586,-1302 -586,-2417zm746 3c0,976 113,1626 341,1946 228,322 510,482 844,482 335,0 617,-161 844,-483 228,-324 342,-971 342,-1945 0,-977 -114,-1626 -342,-1947 -226,-322 -511,-482 -852,-482 -334,0 -602,143 -802,426 -250,360 -375,1029 -375,2003zm11205 2925l-730 0 0 -4644c-175,169 -406,336 -690,503 -285,167 -542,293 -768,376l0 -705c407,-190 763,-422 1069,-696 305,-272 522,-536 649,-793l470 0 0 5959zm6480 -2928c0,-700 72,-1267 215,-1695 145,-430 359,-760 644,-991 283,-230 641,-345 1072,-345 318,0 597,64 838,192 241,129 440,314 594,556 155,240 277,534 365,881 90,347 134,815 134,1402 0,696 -72,1260 -214,1688 -142,430 -356,760 -641,992 -283,232 -642,348 -1076,348 -571,0 -1020,-203 -1345,-611 -391,-497 -586,-1302 -586,-2417zm746 3c0,976 113,1626 341,1946 228,322 510,482 844,482 334,0 616,-161 844,-483 228,-324 341,-971 341,-1945 0,-977 -113,-1626 -341,-1947 -227,-322 -511,-482 -852,-482 -335,0 -603,143 -803,426 -250,360 -374,1029 -374,2003zm11204 2925l-729 0 0 -4644c-176,169 -406,336 -691,503 -284,167 -541,293 -768,376l0 -705c408,-190 764,-422 1069,-696 305,-272 522,-536 650,-793l469 0 0 5959zm6480 -2928c0,-700 72,-1267 216,-1695 145,-430 359,-760 643,-991 284,-230 641,-345 1072,-345 318,0 597,64 839,192 240,129 439,314 594,556 155,240 276,534 365,881 89,347 134,815 134,1402 0,696 -72,1260 -215,1688 -142,430 -356,760 -640,992 -284,232 -643,348 -1077,348 -570,0 -1019,-203 -1345,-611 -391,-497 -586,-1302 -586,-2417zm746 3c0,976 113,1626 341,1946 228,322 510,482 844,482 335,0 617,-161 844,-483 228,-324 342,-971 342,-1945 0,-977 -114,-1626 -342,-1947 -226,-322 -511,-482 -852,-482 -334,0 -602,143 -802,426 -250,360 -375,1029 -375,2003zm-746 55553c0,-700 72,-1266 216,-1695 145,-429 359,-759 643,-990 284,-231 641,-345 1072,-345 318,0 597,63 839,192 240,128 439,313 594,555 155,240 276,535 365,881 89,347 134,815 134,1402 0,697 -72,1260 -215,1688 -142,430 -356,760 -640,992 -284,232 -643,348 -1077,348 -570,0 -1019,-203 -1345,-610 -391,-497 -586,-1303 -586,-2418zm746 3c0,977 113,1626 341,1947 228,321 510,482 844,482 335,0 617,-162 844,-484 228,-323 342,-971 342,-1945 0,-976 -114,-1626 -342,-1946 -226,-322 -511,-482 -852,-482 -334,0 -602,142 -802,425 -250,361 -375,1029 -375,2003zm11205 2926l-730 0 0 -4644c-175,168 -406,335 -690,503 -285,167 -542,292 -768,375l0 -704c407,-191 763,-423 1069,-696 305,-273 522,-536 649,-793l470 0 0 5959zm9215 0l-729 0 0 -4644c-176,168 -407,335 -691,503 -285,167 -542,292 -768,375l0 -704c407,-191 764,-423 1069,-696 305,-273 522,-536 649,-793l470 0 0 5959zm6480 -2929c0,-700 72,-1266 215,-1695 146,-429 360,-759 644,-990 283,-231 641,-345 1072,-345 318,0 597,63 839,192 240,128 439,313 594,555 154,240 276,535 364,881 90,347 134,815 134,1402 0,697 -71,1260 -214,1688 -142,430 -356,760 -641,992 -283,232 -642,348 -1076,348 -570,0 -1019,-203 -1345,-610 -391,-497 -586,-1303 -586,-2418zm746 3c0,977 113,1626 341,1947 228,321 510,482 844,482 335,0 616,-162 844,-484 228,-323 341,-971 341,-1945 0,-976 -113,-1626 -341,-1946 -226,-322 -511,-482 -852,-482 -334,0 -602,142 -803,425 -250,361 -374,1029 -374,2003zm11204 2926l-729 0 0 -4644c-175,168 -406,335 -691,503 -284,167 -541,292 -768,375l0 -704c408,-191 764,-423 1069,-696 306,-273 523,-536 650,-793l469 0 0 5959zm6480 -2929c0,-700 72,-1266 216,-1695 145,-429 359,-759 644,-990 283,-231 641,-345 1072,-345 317,0 596,63 838,192 241,128 439,313 594,555 155,240 276,535 365,881 90,347 134,815 134,1402 0,697 -72,1260 -214,1688 -143,430 -357,760 -641,992 -283,232 -643,348 -1076,348 -571,0 -1020,-203 -1346,-610 -391,-497 -586,-1303 -586,-2418zm746 3c0,977 114,1626 342,1947 228,321 509,482 844,482 334,0 616,-162 844,-484 228,-323 341,-971 341,-1945 0,-976 -113,-1626 -341,-1946 -227,-322 -511,-482 -853,-482 -334,0 -602,142 -802,425 -250,361 -375,1029 -375,2003zm11205 2926l-729 0 0 -4644c-176,168 -407,335 -691,503 -285,167 -542,292 -768,375l0 -704c407,-191 764,-423 1069,-696 305,-273 522,-536 649,-793l470 0 0 5959zm6480 -2929c0,-700 72,-1266 215,-1695 146,-429 360,-759 644,-990 283,-231 641,-345 1072,-345 318,0 597,63 839,192 240,128 439,313 594,555 154,240 276,535 364,881 90,347 134,815 134,1402 0,697 -71,1260 -214,1688 -142,430 -356,760 -641,992 -283,232 -642,348 -1076,348 -570,0 -1019,-203 -1345,-610 -391,-497 -586,-1303 -586,-2418zm746 3c0,977 113,1626 341,1947 228,321 510,482 844,482 335,0 616,-162 844,-484 228,-323 341,-971 341,-1945 0,-976 -113,-1626 -341,-1946 -226,-322 -511,-482 -852,-482 -334,0 -602,142 -803,425 -250,361 -374,1029 -374,2003zm-120544 9257c0,-701 72,-1267 215,-1695 145,-430 359,-760 644,-991 283,-230 641,-345 1072,-345 318,0 597,64 838,192 241,129 440,314 594,555 155,241 277,535 365,882 90,346 134,815 134,1402 0,696 -72,1260 -214,1688 -142,430 -356,760 -641,992 -283,232 -642,348 -1076,348 -571,0 -1020,-203 -1345,-611 -391,-497 -586,-1302 -586,-2417zm746 3c0,976 113,1625 341,1946 228,322 510,482 844,482 334,0 616,-162 844,-483 228,-324 341,-972 341,-1945 0,-977 -113,-1626 -341,-1947 -227,-322 -511,-482 -852,-482 -335,0 -603,142 -803,426 -250,360 -374,1029 -374,2003zm11204 2925l-729 0 0 -4644c-176,169 -406,336 -691,503 -284,167 -541,293 -768,376l0 -705c408,-190 764,-423 1069,-696 305,-272 522,-536 650,-793l469 0 0 5959zm6480 -2928c0,-701 72,-1267 216,-1695 145,-430 359,-760 643,-991 284,-230 641,-345 1072,-345 318,0 597,64 839,192 240,129 439,314 594,555 155,241 276,535 365,882 89,346 134,815 134,1402 0,696 -72,1260 -215,1688 -142,430 -356,760 -640,992 -284,232 -643,348 -1077,348 -570,0 -1019,-203 -1345,-611 -391,-497 -586,-1302 -586,-2417zm746 3c0,976 113,1625 341,1946 228,322 510,482 844,482 335,0 617,-162 844,-483 228,-324 342,-972 342,-1945 0,-977 -114,-1626 -342,-1947 -226,-322 -511,-482 -852,-482 -334,0 -602,142 -802,426 -250,360 -375,1029 -375,2003zm8470 -3c0,-701 71,-1267 215,-1695 145,-430 359,-760 644,-991 283,-230 641,-345 1072,-345 317,0 596,64 838,192 241,129 439,314 594,555 155,241 276,535 365,882 90,346 134,815 134,1402 0,696 -72,1260 -214,1688 -143,430 -357,760 -641,992 -283,232 -643,348 -1076,348 -571,0 -1020,-203 -1346,-611 -391,-497 -585,-1302 -585,-2417zm746 3c0,976 113,1625 341,1946 228,322 509,482 844,482 334,0 616,-162 844,-483 228,-324 341,-972 341,-1945 0,-977 -113,-1626 -341,-1947 -227,-322 -511,-482 -853,-482 -334,0 -602,142 -802,426 -250,360 -374,1029 -374,2003zm8469 -3c0,-701 72,-1267 215,-1695 145,-430 359,-760 644,-991 283,-230 641,-345 1072,-345 318,0 597,64 838,192 241,129 440,314 594,555 155,241 277,535 365,882 90,346 134,815 134,1402 0,696 -72,1260 -214,1688 -142,430 -356,760 -641,992 -283,232 -642,348 -1076,348 -571,0 -1020,-203 -1345,-611 -391,-497 -586,-1302 -586,-2417zm746 3c0,976 113,1625 341,1946 228,322 510,482 844,482 334,0 616,-162 844,-483 228,-324 341,-972 341,-1945 0,-977 -113,-1626 -341,-1947 -227,-322 -511,-482 -852,-482 -335,0 -603,142 -803,426 -250,360 -374,1029 -374,2003zm11204 2925l-729 0 0 -4644c-176,169 -406,336 -691,503 -284,167 -541,293 -768,376l0 -705c408,-190 764,-423 1069,-696 305,-272 522,-536 650,-793l469 0 0 5959zm9215 0l-729 0 0 -4644c-175,169 -406,336 -691,503 -284,167 -541,293 -768,376l0 -705c408,-190 764,-423 1069,-696 306,-272 523,-536 650,-793l469 0 0 5959zm9216 0l-730 0 0 -4644c-175,169 -406,336 -690,503 -285,167 -542,293 -768,376l0 -705c407,-190 763,-423 1069,-696 305,-272 522,-536 649,-793l470 0 0 5959zm6480 -2928c0,-701 72,-1267 215,-1695 145,-430 359,-760 644,-991 283,-230 641,-345 1072,-345 318,0 597,64 838,192 241,129 440,314 594,555 155,241 277,535 365,882 90,346 134,815 134,1402 0,696 -72,1260 -214,1688 -142,430 -356,760 -641,992 -283,232 -642,348 -1076,348 -571,0 -1020,-203 -1345,-611 -391,-497 -586,-1302 -586,-2417zm746 3c0,976 113,1625 341,1946 228,322 510,482 844,482 334,0 616,-162 844,-483 228,-324 341,-972 341,-1945 0,-977 -113,-1626 -341,-1947 -227,-322 -511,-482 -852,-482 -335,0 -603,142 -803,426 -250,360 -374,1029 -374,2003zm11204 2925l-729 0 0 -4644c-176,169 -406,336 -691,503 -284,167 -541,293 -768,376l0 -705c408,-190 764,-423 1069,-696 305,-272 522,-536 650,-793l469 0 0 5959zm6480 -2928c0,-701 72,-1267 216,-1695 145,-430 359,-760 643,-991 284,-230 641,-345 1072,-345 318,0 597,64 839,192 240,129 439,314 594,555 155,241 276,535 365,882 89,346 134,815 134,1402 0,696 -72,1260 -215,1688 -142,430 -356,760 -640,992 -284,232 -643,348 -1077,348 -570,0 -1019,-203 -1345,-611 -391,-497 -586,-1302 -586,-2417zm746 3c0,976 113,1625 341,1946 228,322 510,482 844,482 335,0 617,-162 844,-483 228,-324 342,-972 342,-1945 0,-977 -114,-1626 -342,-1947 -226,-322 -511,-482 -852,-482 -334,0 -602,142 -802,426 -250,360 -375,1029 -375,2003z"/>
    <path class="fil5" d="M70639 27514l-730 0 0 -4644c-175,169 -406,336 -690,503 -285,167 -542,293 -768,376l0 -705c407,-190 763,-422 1069,-696 305,-272 522,-536 649,-793l470 0 0 5959zm9215 0l-729 0 0 -4644c-176,169 -407,336 -691,503 -285,167 -542,293 -768,376l0 -705c407,-190 764,-422 1069,-696 305,-272 522,-536 649,-793l470 0 0 5959zm6480 -2928c0,-700 72,-1267 215,-1695 146,-430 360,-760 644,-991 283,-230 641,-345 1072,-345 318,0 597,64 839,192 240,129 439,314 594,556 154,240 276,534 364,881 90,347 134,815 134,1402 0,696 -71,1260 -214,1688 -142,430 -356,760 -641,992 -283,232 -642,348 -1076,348 -570,0 -1019,-203 -1345,-611 -391,-497 -586,-1302 -586,-2417zm746 3c0,976 113,1626 341,1946 228,322 510,482 844,482 335,0 616,-161 844,-483 228,-324 341,-971 341,-1945 0,-977 -113,-1626 -341,-1947 -226,-322 -511,-482 -852,-482 -334,0 -602,143 -803,426 -250,360 -374,1029 -374,2003zm11204 2925l-729 0 0 -4644c-175,169 -406,336 -691,503 -284,167 -541,293 -768,376l0 -705c408,-190 764,-422 1069,-696 306,-272 523,-536 650,-793l469 0 0 5959zm6480 -2928c0,-700 72,-1267 216,-1695 145,-430 359,-760 644,-991 283,-230 641,-345 1072,-345 317,0 596,64 838,192 241,129 439,314 594,556 155,240 276,534 365,881 90,347 134,815 134,1402 0,696 -72,1260 -214,1688 -143,430 -357,760 -641,992 -283,232 -643,348 -1076,348 -571,0 -1020,-203 -1346,-611 -391,-497 -586,-1302 -586,-2417zm746 3c0,976 114,1626 342,1946 228,322 509,482 844,482 334,0 616,-161 844,-483 228,-324 341,-971 341,-1945 0,-977 -113,-1626 -341,-1947 -227,-322 -511,-482 -853,-482 -334,0 -602,143 -802,426 -250,360 -375,1029 -375,2003zm11205 2925l-729 0 0 -4644c-176,169 -407,336 -691,503 -285,167 -542,293 -768,376l0 -705c407,-190 764,-422 1069,-696 305,-272 522,-536 649,-793l470 0 0 5959zm6480 -2928c0,-700 72,-1267 215,-1695 146,-430 360,-760 644,-991 283,-230 641,-345 1072,-345 318,0 597,64 839,192 240,129 439,314 594,556 154,240 276,534 364,881 90,347 134,815 134,1402 0,696 -71,1260 -214,1688 -142,430 -356,760 -641,992 -283,232 -642,348 -1076,348 -570,0 -1019,-203 -1345,-611 -391,-497 -586,-1302 -586,-2417zm746 3c0,976 113,1626 341,1946 228,322 510,482 844,482 335,0 616,-161 844,-483 228,-324 341,-971 341,-1945 0,-977 -113,-1626 -341,-1947 -226,-322 -511,-482 -852,-482 -334,0 -602,143 -803,426 -250,360 -374,1029 -374,2003zm-120544 9256c0,-700 72,-1266 215,-1695 145,-429 359,-759 644,-990 283,-231 641,-345 1072,-345 318,0 597,63 838,192 241,128 440,313 594,555 155,240 277,534 365,881 90,347 134,815 134,1402 0,697 -72,1260 -214,1688 -142,430 -356,760 -641,992 -283,232 -642,348 -1076,348 -571,0 -1020,-203 -1345,-610 -391,-498 -586,-1303 -586,-2418zm746 3c0,977 113,1626 341,1946 228,322 510,483 844,483 334,0 616,-162 844,-484 228,-323 341,-971 341,-1945 0,-977 -113,-1626 -341,-1946 -227,-322 -511,-482 -852,-482 -335,0 -603,142 -803,425 -250,361 -374,1029 -374,2003zm11204 2926l-729 0 0 -4644c-176,168 -406,335 -691,502 -284,168 -541,293 -768,376l0 -704c408,-191 764,-423 1069,-696 305,-273 522,-536 650,-793l469 0 0 5959zm6480 -2929c0,-700 72,-1266 216,-1695 145,-429 359,-759 643,-990 284,-231 641,-345 1072,-345 318,0 597,63 839,192 240,128 439,313 594,555 155,240 276,534 365,881 89,347 134,815 134,1402 0,697 -72,1260 -215,1688 -142,430 -356,760 -640,992 -284,232 -643,348 -1077,348 -570,0 -1019,-203 -1345,-610 -391,-498 -586,-1303 -586,-2418zm746 3c0,977 113,1626 341,1946 228,322 510,483 844,483 335,0 617,-162 844,-484 228,-323 342,-971 342,-1945 0,-977 -114,-1626 -342,-1946 -226,-322 -511,-482 -852,-482 -334,0 -602,142 -802,425 -250,361 -375,1029 -375,2003zm8470 -3c0,-700 71,-1266 215,-1695 145,-429 359,-759 644,-990 283,-231 641,-345 1072,-345 317,0 596,63 838,192 241,128 439,313 594,555 155,240 276,534 365,881 90,347 134,815 134,1402 0,697 -72,1260 -214,1688 -143,430 -357,760 -641,992 -283,232 -643,348 -1076,348 -571,0 -1020,-203 -1346,-610 -391,-498 -585,-1303 -585,-2418zm746 3c0,977 113,1626 341,1946 228,322 509,483 844,483 334,0 616,-162 844,-484 228,-323 341,-971 341,-1945 0,-977 -113,-1626 -341,-1946 -227,-322 -511,-482 -853,-482 -334,0 -602,142 -802,425 -250,361 -374,1029 -374,2003zm8469 -3c0,-700 72,-1266 215,-1695 145,-429 359,-759 644,-990 283,-231 641,-345 1072,-345 318,0 597,63 838,192 241,128 440,313 594,555 155,240 277,534 365,881 90,347 134,815 134,1402 0,697 -72,1260 -214,1688 -142,430 -356,760 -641,992 -283,232 -642,348 -1076,348 -571,0 -1020,-203 -1345,-610 -391,-498 -586,-1303 -586,-2418zm746 3c0,977 113,1626 341,1946 228,322 510,483 844,483 334,0 616,-162 844,-484 228,-323 341,-971 341,-1945 0,-977 -113,-1626 -341,-1946 -227,-322 -511,-482 -852,-482 -335,0 -603,142 -803,425 -250,361 -374,1029 -374,2003zm11204 2926l-729 0 0 -4644c-176,168 -406,335 -691,502 -284,168 -541,293 -768,376l0 -704c408,-191 764,-423 1069,-696 305,-273 522,-536 650,-793l469 0 0 5959zm9215 0l-729 0 0 -4644c-175,168 -406,335 -691,502 -284,168 -541,293 -768,376l0 -704c408,-191 764,-423 1069,-696 306,-273 523,-536 650,-793l469 0 0 5959zm9216 0l-730 0 0 -4644c-175,168 -406,335 -690,502 -285,168 -542,293 -768,376l0 -704c407,-191 763,-423 1069,-696 305,-273 522,-536 649,-793l470 0 0 5959zm6480 -2929c0,-700 72,-1266 215,-1695 145,-429 359,-759 644,-990 283,-231 641,-345 1072,-345 318,0 597,63 838,192 241,128 440,313 594,555 155,240 277,534 365,881 90,347 134,815 134,1402 0,697 -72,1260 -214,1688 -142,430 -356,760 -641,992 -283,232 -642,348 -1076,348 -571,0 -1020,-203 -1345,-610 -391,-498 -586,-1303 -586,-2418zm746 3c0,977 113,1626 341,1946 228,322 510,483 844,483 334,0 616,-162 844,-484 228,-323 341,-971 341,-1945 0,-977 -113,-1626 -341,-1946 -227,-322 -511,-482 -852,-482 -335,0 -603,142 -803,425 -250,361 -374,1029 -374,2003zm11204 2926l-729 0 0 -4644c-176,168 -406,335 -691,502 -284,168 -541,293 -768,376l0 -704c408,-191 764,-423 1069,-696 305,-273 522,-536 650,-793l469 0 0 5959zm6480 -2929c0,-700 72,-1266 216,-1695 145,-429 359,-759 643,-990 284,-231 641,-345 1072,-345 318,0 597,63 839,192 240,128 439,313 594,555 155,240 276,534 365,881 89,347 134,815 134,1402 0,697 -72,1260 -215,1688 -142,430 -356,760 -640,992 -284,232 -643,348 -1077,348 -570,0 -1019,-203 -1345,-610 -391,-498 -586,-1303 -586,-2418zm746 3c0,977 113,1626 341,1946 228,322 510,483 844,483 335,0 617,-162 844,-484 228,-323 342,-971 342,-1945 0,-977 -114,-1626 -342,-1946 -226,-322 -511,-482 -852,-482 -334,0 -602,142 -802,425 -250,361 -375,1029 -375,2003zm8469 -3c0,-700 72,-1266 216,-1695 145,-429 359,-759 644,-990 283,-231 641,-345 1072,-345 317,0 596,63 838,192 241,128 439,313 594,555 155,240 276,534 365,881 90,347 134,815 134,1402 0,697 -72,1260 -214,1688 -143,430 -357,760 -641,992 -283,232 -643,348 -1076,348 -571,0 -1020,-203 -1346,-610 -391,-498 -586,-1303 -586,-2418zm746 3c0,977 114,1626 342,1946 228,322 509,483 844,483 334,0 616,-162 844,-484 228,-323 341,-971 341,-1945 0,-977 -113,-1626 -341,-1946 -227,-322 -511,-482 -853,-482 -334,0 -602,142 -802,425 -250,361 -375,1029 -375,2003zm8470 -3c0,-700 72,-1266 215,-1695 145,-429 359,-759 644,-990 283,-231 641,-345 1072,-345 318,0 597,63 838,192 241,128 440,313 594,555 155,240 277,534 365,881 90,347 134,815 134,1402 0,697 -72,1260 -214,1688 -142,430 -356,760 -641,992 -283,232 -642,348 -1076,348 -571,0 -1020,-203 -1346,-610 -390,-498 -585,-1303 -585,-2418zm746 3c0,977 113,1626 341,1946 228,322 510,483 844,483 334,0 616,-162 844,-484 228,-323 341,-971 341,-1945 0,-977 -113,-1626 -341,-1946 -227,-322 -511,-482 -852,-482 -335,0 -603,142 -803,425 -250,361 -374,1029 -374,2003zm11204 2926l-729 0 0 -4644c-176,168 -406,335 -691,502 -284,168 -541,293 -768,376l0 -704c408,-191 764,-423 1069,-696 305,-273 522,-536 650,-793l469 0 0 5959zm-119798 9259l-729 0 0 -4644c-176,169 -407,336 -691,503 -285,167 -542,293 -768,376l0 -705c407,-190 764,-423 1069,-696 305,-272 522,-536 649,-793l470 0 0 5959zm9215 0l-729 0 0 -4644c-176,169 -406,336 -691,503 -284,167 -541,293 -768,376l0 -705c408,-190 764,-423 1069,-696 305,-272 522,-536 650,-793l469 0 0 5959zm6480 -2928c0,-701 72,-1267 216,-1695 145,-430 359,-760 643,-991 284,-230 641,-345 1072,-345 318,0 597,64 839,192 240,128 439,314 594,555 155,241 276,535 365,882 89,346 134,815 134,1402 0,696 -72,1260 -215,1688 -142,429 -356,760 -640,992 -284,232 -643,348 -1077,348 -570,0 -1019,-203 -1345,-611 -391,-497 -586,-1302 -586,-2417zm746 3c0,976 113,1625 341,1946 228,322 510,482 844,482 335,0 617,-162 844,-483 228,-324 342,-972 342,-1945 0,-977 -114,-1626 -342,-1947 -226,-322 -511,-482 -852,-482 -334,0 -602,142 -802,425 -250,361 -375,1030 -375,2004zm11205 2925l-730 0 0 -4644c-175,169 -406,336 -690,503 -285,167 -542,293 -768,376l0 -705c407,-190 763,-423 1069,-696 305,-272 522,-536 649,-793l470 0 0 5959zm6480 -2928c0,-701 72,-1267 215,-1695 145,-430 359,-760 644,-991 283,-230 641,-345 1072,-345 318,0 597,64 838,192 241,128 440,314 594,555 155,241 277,535 365,882 90,346 134,815 134,1402 0,696 -72,1260 -214,1688 -142,429 -356,760 -641,992 -283,232 -642,348 -1076,348 -571,0 -1020,-203 -1345,-611 -391,-497 -586,-1302 -586,-2417zm746 3c0,976 113,1625 341,1946 228,322 510,482 844,482 334,0 616,-162 844,-483 228,-324 341,-972 341,-1945 0,-977 -113,-1626 -341,-1947 -227,-322 -511,-482 -852,-482 -335,0 -603,142 -803,425 -250,361 -374,1030 -374,2004zm11204 2925l-729 0 0 -4644c-176,169 -406,336 -691,503 -284,167 -541,293 -768,376l0 -705c408,-190 764,-423 1069,-696 305,-272 522,-536 650,-793l469 0 0 5959zm6480 -2928c0,-701 72,-1267 216,-1695 145,-430 359,-760 643,-991 284,-230 641,-345 1072,-345 318,0 597,64 839,192 240,128 439,314 594,555 155,241 276,535 365,882 89,346 134,815 134,1402 0,696 -72,1260 -215,1688 -142,429 -356,760 -640,992 -284,232 -643,348 -1077,348 -570,0 -1019,-203 -1345,-611 -391,-497 -586,-1302 -586,-2417zm746 3c0,976 113,1625 341,1946 228,322 510,482 844,482 335,0 617,-162 844,-483 228,-324 342,-972 342,-1945 0,-977 -114,-1626 -342,-1947 -226,-322 -511,-482 -852,-482 -334,0 -602,142 -802,425 -250,361 -375,1030 -375,2004zm11205 2925l-730 0 0 -4644c-175,169 -406,336 -690,503 -285,167 -542,293 -768,376l0 -705c407,-190 763,-423 1069,-696 305,-272 522,-536 649,-793l470 0 0 5959zm9215 0l-729 0 0 -4644c-176,169 -407,336 -691,503 -285,167 -542,293 -768,376l0 -705c407,-190 764,-423 1069,-696 305,-272 522,-536 649,-793l470 0 0 5959zm6480 -2928c0,-701 72,-1267 215,-1695 146,-430 360,-760 644,-991 283,-230 641,-345 1072,-345 318,0 597,64 839,192 240,128 439,314 594,555 154,241 276,535 364,882 90,346 134,815 134,1402 0,696 -71,1260 -214,1688 -142,429 -356,760 -641,992 -283,232 -642,348 -1076,348 -570,0 -1019,-203 -1345,-611 -391,-497 -586,-1302 -586,-2417zm746 3c0,976 113,1625 341,1946 228,322 510,482 844,482 335,0 616,-162 844,-483 228,-324 341,-972 341,-1945 0,-977 -113,-1626 -341,-1947 -226,-322 -511,-482 -852,-482 -334,0 -602,142 -803,425 -250,361 -374,1030 -374,2004zm11204 2925l-729 0 0 -4644c-175,169 -406,336 -691,503 -284,167 -541,293 -768,376l0 -705c408,-190 764,-423 1069,-696 306,-272 523,-536 650,-793l469 0 0 5959zm6480 -2928c0,-701 72,-1267 216,-1695 145,-430 359,-760 644,-991 283,-230 641,-345 1072,-345 317,0 596,64 838,192 241,128 439,314 594,555 155,241 276,535 365,882 90,346 134,815 134,1402 0,696 -72,1260 -214,1688 -143,429 -357,760 -641,992 -283,232 -643,348 -1076,348 -571,0 -1020,-203 -1346,-611 -391,-497 -586,-1302 -586,-2417zm746 3c0,976 114,1625 342,1946 228,322 509,482 844,482 334,0 616,-162 844,-483 228,-324 341,-972 341,-1945 0,-977 -113,-1626 -341,-1947 -227,-322 -511,-482 -853,-482 -334,0 -602,142 -802,425 -250,361 -375,1030 -375,2004zm11205 2925l-729 0 0 -4644c-176,169 -407,336 -691,503 -285,167 -542,293 -768,376l0 -705c407,-190 764,-423 1069,-696 305,-272 522,-536 649,-793l470 0 0 5959zm6480 -2928c0,-701 72,-1267 215,-1695 146,-430 360,-760 644,-991 283,-230 641,-345 1072,-345 318,0 597,64 839,192 240,128 439,314 594,555 154,241 276,535 364,882 90,346 134,815 134,1402 0,696 -71,1260 -214,1688 -142,429 -356,760 -641,992 -283,232 -642,348 -1076,348 -570,0 -1019,-203 -1345,-611 -391,-497 -586,-1302 -586,-2417zm746 3c0,976 113,1625 341,1946 228,322 510,482 844,482 335,0 616,-162 844,-483 228,-324 341,-972 341,-1945 0,-977 -113,-1626 -341,-1947 -226,-322 -511,-482 -852,-482 -334,0 -602,142 -803,425 -250,361 -374,1030 -374,2004z"/>
    <path class="fil6" d="M3397 52364c0,-700 72,-1267 215,-1695 145,-429 359,-760 644,-990 283,-231 641,-346 1072,-346 318,0 597,64 838,192 241,129 440,314 594,556 155,240 277,534 365,881 90,347 134,815 134,1402 0,696 -72,1260 -214,1688 -142,430 -356,760 -641,992 -283,232 -642,348 -1076,348 -571,0 -1020,-203 -1345,-610 -391,-498 -586,-1303 -586,-2418zm746 3c0,977 113,1626 341,1946 228,322 510,482 844,482 334,0 616,-161 844,-483 228,-323 341,-971 341,-1945 0,-977 -113,-1626 -341,-1946 -227,-322 -511,-483 -852,-483 -335,0 -603,143 -803,426 -250,360 -374,1029 -374,2003zm11204 2926l-729 0 0 -4645c-176,169 -406,336 -691,503 -284,167 -541,293 -768,376l0 -704c408,-191 764,-423 1069,-697 305,-272 522,-536 650,-793l469 0 0 5960zm6480 -2929c0,-700 72,-1267 216,-1695 145,-429 359,-760 643,-990 284,-231 641,-346 1072,-346 318,0 597,64 839,192 240,129 439,314 594,556 155,240 276,534 365,881 89,347 134,815 134,1402 0,696 -72,1260 -215,1688 -142,430 -356,760 -640,992 -284,232 -643,348 -1077,348 -570,0 -1019,-203 -1345,-610 -391,-498 -586,-1303 -586,-2418zm746 3c0,977 113,1626 341,1946 228,322 510,482 844,482 335,0 617,-161 844,-483 228,-323 342,-971 342,-1945 0,-977 -114,-1626 -342,-1946 -226,-322 -511,-483 -852,-483 -334,0 -602,143 -802,426 -250,360 -375,1029 -375,2003zm8470 -3c0,-700 71,-1267 215,-1695 145,-429 359,-760 644,-990 283,-231 641,-346 1072,-346 317,0 596,64 838,192 241,129 439,314 594,556 155,240 276,534 365,881 90,347 134,815 134,1402 0,696 -72,1260 -214,1688 -143,430 -357,760 -641,992 -283,232 -643,348 -1076,348 -571,0 -1020,-203 -1346,-610 -391,-498 -585,-1303 -585,-2418zm746 3c0,977 113,1626 341,1946 228,322 509,482 844,482 334,0 616,-161 844,-483 228,-323 341,-971 341,-1945 0,-977 -113,-1626 -341,-1946 -227,-322 -511,-483 -853,-483 -334,0 -602,143 -802,426 -250,360 -374,1029 -374,2003zm8469 -3c0,-700 72,-1267 215,-1695 145,-429 359,-760 644,-990 283,-231 641,-346 1072,-346 318,0 597,64 838,192 241,129 440,314 594,556 155,240 277,534 365,881 90,347 134,815 134,1402 0,696 -72,1260 -214,1688 -142,430 -356,760 -641,992 -283,232 -642,348 -1076,348 -571,0 -1020,-203 -1345,-610 -391,-498 -586,-1303 -586,-2418zm746 3c0,977 113,1626 341,1946 228,322 510,482 844,482 334,0 616,-161 844,-483 228,-323 341,-971 341,-1945 0,-977 -113,-1626 -341,-1946 -227,-322 -511,-483 -852,-483 -335,0 -603,143 -803,426 -250,360 -374,1029 -374,2003zm11204 2926l-729 0 0 -4645c-176,169 -406,336 -691,503 -284,167 -541,293 -768,376l0 -704c408,-191 764,-423 1069,-697 305,-272 522,-536 650,-793l469 0 0 5960zm9215 0l-729 0 0 -4645c-175,169 -406,336 -691,503 -284,167 -541,293 -768,376l0 -704c408,-191 764,-423 1069,-697 306,-272 523,-536 650,-793l469 0 0 5960zm9216 0l-730 0 0 -4645c-175,169 -406,336 -690,503 -285,167 -542,293 -768,376l0 -704c407,-191 763,-423 1069,-697 305,-272 522,-536 649,-793l470 0 0 5960zm6480 -2929c0,-700 72,-1267 215,-1695 145,-429 359,-760 644,-990 283,-231 641,-346 1072,-346 318,0 597,64 838,192 241,129 440,314 594,556 155,240 277,534 365,881 90,347 134,815 134,1402 0,696 -72,1260 -214,1688 -142,430 -356,760 -641,992 -283,232 -642,348 -1076,348 -571,0 -1020,-203 -1345,-610 -391,-498 -586,-1303 -586,-2418zm746 3c0,977 113,1626 341,1946 228,322 510,482 844,482 334,0 616,-161 844,-483 228,-323 341,-971 341,-1945 0,-977 -113,-1626 -341,-1946 -227,-322 -511,-483 -852,-483 -335,0 -603,143 -803,426 -250,360 -374,1029 -374,2003zm11204 2926l-729 0 0 -4645c-176,169 -406,336 -691,503 -284,167 -541,293 -768,376l0 -704c408,-191 764,-423 1069,-697 305,-272 522,-536 650,-793l469 0 0 5960zm6480 -2929c0,-700 72,-1267 216,-1695 145,-429 359,-760 643,-990 284,-231 641,-346 1072,-346 318,0 597,64 839,192 240,129 439,314 594,556 155,240 276,534 365,881 89,347 134,815 134,1402 0,696 -72,1260 -215,1688 -142,430 -356,760 -640,992 -284,232 -643,348 -1077,348 -570,0 -1019,-203 -1345,-610 -391,-498 -586,-1303 -586,-2418zm746 3c0,977 113,1626 341,1946 228,322 510,482 844,482 335,0 617,-161 844,-483 228,-323 342,-971 342,-1945 0,-977 -114,-1626 -342,-1946 -226,-322 -511,-483 -852,-483 -334,0 -602,143 -802,426 -250,360 -375,1029 -375,2003zm8469 -3c0,-700 72,-1267 216,-1695 145,-429 359,-760 644,-990 283,-231 641,-346 1072,-346 317,0 596,64 838,192 241,129 439,314 594,556 155,240 276,534 365,881 90,347 134,815 134,1402 0,696 -72,1260 -214,1688 -143,430 -357,760 -641,992 -283,232 -643,348 -1076,348 -571,0 -1020,-203 -1346,-610 -391,-498 -586,-1303 -586,-2418zm746 3c0,977 114,1626 342,1946 228,322 509,482 844,482 334,0 616,-161 844,-483 228,-323 341,-971 341,-1945 0,-977 -113,-1626 -341,-1946 -227,-322 -511,-483 -853,-483 -334,0 -602,143 -802,426 -250,360 -375,1029 -375,2003zm8470 -3c0,-700 72,-1267 215,-1695 145,-429 359,-760 644,-990 283,-231 641,-346 1072,-346 318,0 597,64 838,192 241,129 440,314 594,556 155,240 277,534 365,881 90,347 134,815 134,1402 0,696 -72,1260 -214,1688 -142,430 -356,760 -641,992 -283,232 -642,348 -1076,348 -571,0 -1020,-203 -1346,-610 -390,-498 -585,-1303 -585,-2418zm746 3c0,977 113,1626 341,1946 228,322 510,482 844,482 334,0 616,-161 844,-483 228,-323 341,-971 341,-1945 0,-977 -113,-1626 -341,-1946 -227,-322 -511,-483 -852,-483 -335,0 -603,143 -803,426 -250,360 -374,1029 -374,2003zm11204 2926l-729 0 0 -4645c-176,169 -406,336 -691,503 -284,167 -541,293 -768,376l0 -704c408,-191 764,-423 1069,-697 305,-272 522,-536 650,-793l469 0 0 5960zm-119798 9259l-729 0 0 -4644c-176,168 -407,336 -691,503 -285,167 -542,293 -768,376l0 -705c407,-191 764,-423 1069,-696 305,-272 522,-536 649,-793l470 0 0 5959zm9215 0l-729 0 0 -4644c-176,168 -406,336 -691,503 -284,167 -541,293 -768,376l0 -705c408,-191 764,-423 1069,-696 305,-272 522,-536 650,-793l469 0 0 5959zm6480 -2928c0,-701 72,-1267 216,-1695 145,-430 359,-760 643,-991 284,-230 641,-345 1072,-345 318,0 597,63 839,192 240,128 439,313 594,555 155,240 276,535 365,882 89,346 134,814 134,1402 0,696 -72,1259 -215,1688 -142,429 -356,759 -640,991 -284,233 -643,349 -1077,349 -570,0 -1019,-203 -1345,-611 -391,-497 -586,-1303 -586,-2417zm746 2c0,977 113,1626 341,1947 228,322 510,482 844,482 335,0 617,-162 844,-484 228,-323 342,-971 342,-1945 0,-976 -114,-1626 -342,-1946 -226,-322 -511,-482 -852,-482 -334,0 -602,142 -802,425 -250,361 -375,1029 -375,2003zm11205 2926l-730 0 0 -4644c-175,168 -406,336 -690,503 -285,167 -542,293 -768,376l0 -705c407,-191 763,-423 1069,-696 305,-272 522,-536 649,-793l470 0 0 5959zm6480 -2928c0,-701 72,-1267 215,-1695 145,-430 359,-760 644,-991 283,-230 641,-345 1072,-345 318,0 597,63 838,192 241,128 440,313 594,555 155,240 277,535 365,882 90,346 134,814 134,1402 0,696 -72,1259 -214,1688 -142,429 -356,759 -641,991 -283,233 -642,349 -1076,349 -571,0 -1020,-203 -1345,-611 -391,-497 -586,-1303 -586,-2417zm746 2c0,977 113,1626 341,1947 228,322 510,482 844,482 334,0 616,-162 844,-484 228,-323 341,-971 341,-1945 0,-976 -113,-1626 -341,-1946 -227,-322 -511,-482 -852,-482 -335,0 -603,142 -803,425 -250,361 -374,1029 -374,2003zm11204 2926l-729 0 0 -4644c-176,168 -406,336 -691,503 -284,167 -541,293 -768,376l0 -705c408,-191 764,-423 1069,-696 305,-272 522,-536 650,-793l469 0 0 5959zm6480 -2928c0,-701 72,-1267 216,-1695 145,-430 359,-760 643,-991 284,-230 641,-345 1072,-345 318,0 597,63 839,192 240,128 439,313 594,555 155,240 276,535 365,882 89,346 134,814 134,1402 0,696 -72,1259 -215,1688 -142,429 -356,759 -640,991 -284,233 -643,349 -1077,349 -570,0 -1019,-203 -1345,-611 -391,-497 -586,-1303 -586,-2417zm746 2c0,977 113,1626 341,1947 228,322 510,482 844,482 335,0 617,-162 844,-484 228,-323 342,-971 342,-1945 0,-976 -114,-1626 -342,-1946 -226,-322 -511,-482 -852,-482 -334,0 -602,142 -802,425 -250,361 -375,1029 -375,2003zm11205 2926l-730 0 0 -4644c-175,168 -406,336 -690,503 -285,167 -542,293 -768,376l0 -705c407,-191 763,-423 1069,-696 305,-272 522,-536 649,-793l470 0 0 5959zm9215 0l-729 0 0 -4644c-176,168 -407,336 -691,503 -285,167 -542,293 -768,376l0 -705c407,-191 764,-423 1069,-696 305,-272 522,-536 649,-793l470 0 0 5959zm6480 -2928c0,-701 72,-1267 215,-1695 146,-430 360,-760 644,-991 283,-230 641,-345 1072,-345 318,0 597,63 839,192 240,128 439,313 594,555 154,240 276,535 364,882 90,346 134,814 134,1402 0,696 -71,1259 -214,1688 -142,429 -356,759 -641,991 -283,233 -642,349 -1076,349 -570,0 -1019,-203 -1345,-611 -391,-497 -586,-1303 -586,-2417zm746 2c0,977 113,1626 341,1947 228,322 510,482 844,482 335,0 616,-162 844,-484 228,-323 341,-971 341,-1945 0,-976 -113,-1626 -341,-1946 -226,-322 -511,-482 -852,-482 -334,0 -602,142 -803,425 -250,361 -374,1029 -374,2003zm11204 2926l-729 0 0 -4644c-175,168 -406,336 -691,503 -284,167 -541,293 -768,376l0 -705c408,-191 764,-423 1069,-696 306,-272 523,-536 650,-793l469 0 0 5959zm6480 -2928c0,-701 72,-1267 216,-1695 145,-430 359,-760 644,-991 283,-230 641,-345 1072,-345 317,0 596,63 838,192 241,128 439,313 594,555 155,240 276,535 365,882 90,346 134,814 134,1402 0,696 -72,1259 -214,1688 -143,429 -357,759 -641,991 -283,233 -643,349 -1076,349 -571,0 -1020,-203 -1346,-611 -391,-497 -586,-1303 -586,-2417zm746 2c0,977 114,1626 342,1947 228,322 509,482 844,482 334,0 616,-162 844,-484 228,-323 341,-971 341,-1945 0,-976 -113,-1626 -341,-1946 -227,-322 -511,-482 -853,-482 -334,0 -602,142 -802,425 -250,361 -375,1029 -375,2003zm11205 2926l-729 0 0 -4644c-176,168 -407,336 -691,503 -285,167 -542,293 -768,376l0 -705c407,-191 764,-423 1069,-696 305,-272 522,-536 649,-793l470 0 0 5959zm6480 -2928c0,-701 72,-1267 215,-1695 146,-430 360,-760 644,-991 283,-230 641,-345 1072,-345 318,0 597,63 839,192 240,128 439,313 594,555 154,240 276,535 364,882 90,346 134,814 134,1402 0,696 -71,1259 -214,1688 -142,429 -356,759 -641,991 -283,233 -642,349 -1076,349 -570,0 -1019,-203 -1345,-611 -391,-497 -586,-1303 -586,-2417zm746 2c0,977 113,1626 341,1947 228,322 510,482 844,482 335,0 616,-162 844,-484 228,-323 341,-971 341,-1945 0,-976 -113,-1626 -341,-1946 -226,-322 -511,-482 -852,-482 -334,0 -602,142 -803,425 -250,361 -374,1029 -374,2003z"/>
    <path class="fil7" d="M3397 70883c0,-700 72,-1267 215,-1695 145,-430 359,-760 644,-990 283,-231 641,-346 1072,-346 318,0 597,64 838,192 241,129 440,314 594,556 155,240 277,534 365,881 90,347 134,815 134,1402 0,696 -72,1260 -214,1688 -142,430 -356,760 -641,992 -283,232 -642,348 -1076,348 -571,0 -1020,-203 -1345,-611 -391,-497 -586,-1302 -586,-2417zm746 3c0,976 113,1626 341,1946 228,322 510,482 844,482 334,0 616,-161 844,-483 228,-324 341,-971 341,-1945 0,-977 -113,-1626 -341,-1947 -227,-321 -511,-482 -852,-482 -335,0 -603,143 -803,426 -250,360 -374,1029 -374,2003zm11204 2926l-729 0 0 -4645c-176,169 -406,336 -691,503 -284,167 -541,293 -768,376l0 -705c408,-190 764,-422 1069,-696 305,-272 522,-536 650,-793l469 0 0 5960zm6480 -2929c0,-700 72,-1267 216,-1695 145,-430 359,-760 643,-990 284,-231 641,-346 1072,-346 318,0 597,64 839,192 240,129 439,314 594,556 155,240 276,534 365,881 89,347 134,815 134,1402 0,696 -72,1260 -215,1688 -142,430 -356,760 -640,992 -284,232 -643,348 -1077,348 -570,0 -1019,-203 -1345,-611 -391,-497 -586,-1302 -586,-2417zm746 3c0,976 113,1626 341,1946 228,322 510,482 844,482 335,0 617,-161 844,-483 228,-324 342,-971 342,-1945 0,-977 -114,-1626 -342,-1947 -226,-321 -511,-482 -852,-482 -334,0 -602,143 -802,426 -250,360 -375,1029 -375,2003zm8470 -3c0,-700 71,-1267 215,-1695 145,-430 359,-760 644,-990 283,-231 641,-346 1072,-346 317,0 596,64 838,192 241,129 439,314 594,556 155,240 276,534 365,881 90,347 134,815 134,1402 0,696 -72,1260 -214,1688 -143,430 -357,760 -641,992 -283,232 -643,348 -1076,348 -571,0 -1020,-203 -1346,-611 -391,-497 -585,-1302 -585,-2417zm746 3c0,976 113,1626 341,1946 228,322 509,482 844,482 334,0 616,-161 844,-483 228,-324 341,-971 341,-1945 0,-977 -113,-1626 -341,-1947 -227,-321 -511,-482 -853,-482 -334,0 -602,143 -802,426 -250,360 -374,1029 -374,2003zm8469 -3c0,-700 72,-1267 215,-1695 145,-430 359,-760 644,-990 283,-231 641,-346 1072,-346 318,0 597,64 838,192 241,129 440,314 594,556 155,240 277,534 365,881 90,347 134,815 134,1402 0,696 -72,1260 -214,1688 -142,430 -356,760 -641,992 -283,232 -642,348 -1076,348 -571,0 -1020,-203 -1345,-611 -391,-497 -586,-1302 -586,-2417zm746 3c0,976 113,1626 341,1946 228,322 510,482 844,482 334,0 616,-161 844,-483 228,-324 341,-971 341,-1945 0,-977 -113,-1626 -341,-1947 -227,-321 -511,-482 -852,-482 -335,0 -603,143 -803,426 -250,360 -374,1029 -374,2003zm11204 2926l-729 0 0 -4645c-176,169 -406,336 -691,503 -284,167 -541,293 -768,376l0 -705c408,-190 764,-422 1069,-696 305,-272 522,-536 650,-793l469 0 0 5960zm9215 0l-729 0 0 -4645c-175,169 -406,336 -691,503 -284,167 -541,293 -768,376l0 -705c408,-190 764,-422 1069,-696 306,-272 523,-536 650,-793l469 0 0 5960zm9216 0l-730 0 0 -4645c-175,169 -406,336 -690,503 -285,167 -542,293 -768,376l0 -705c407,-190 763,-422 1069,-696 305,-272 522,-536 649,-793l470 0 0 5960zm6480 -2929c0,-700 72,-1267 215,-1695 145,-430 359,-760 644,-990 283,-231 641,-346 1072,-346 318,0 597,64 838,192 241,129 440,314 594,556 155,240 277,534 365,881 90,347 134,815 134,1402 0,696 -72,1260 -214,1688 -142,430 -356,760 -641,992 -283,232 -642,348 -1076,348 -571,0 -1020,-203 -1345,-611 -391,-497 -586,-1302 -586,-2417zm746 3c0,976 113,1626 341,1946 228,322 510,482 844,482 334,0 616,-161 844,-483 228,-324 341,-971 341,-1945 0,-977 -113,-1626 -341,-1947 -227,-321 -511,-482 -852,-482 -335,0 -603,143 -803,426 -250,360 -374,1029 -374,2003zm11204 2926l-729 0 0 -4645c-176,169 -406,336 -691,503 -284,167 -541,293 -768,376l0 -705c408,-190 764,-422 1069,-696 305,-272 522,-536 650,-793l469 0 0 5960zm6480 -2929c0,-700 72,-1267 216,-1695 145,-430 359,-760 643,-990 284,-231 641,-346 1072,-346 318,0 597,64 839,192 240,129 439,314 594,556 155,240 276,534 365,881 89,347 134,815 134,1402 0,696 -72,1260 -215,1688 -142,430 -356,760 -640,992 -284,232 -643,348 -1077,348 -570,0 -1019,-203 -1345,-611 -391,-497 -586,-1302 -586,-2417zm746 3c0,976 113,1626 341,1946 228,322 510,482 844,482 335,0 617,-161 844,-483 228,-324 342,-971 342,-1945 0,-977 -114,-1626 -342,-1947 -226,-321 -511,-482 -852,-482 -334,0 -602,143 -802,426 -250,360 -375,1029 -375,2003zm8469 -3c0,-700 72,-1267 216,-1695 145,-430 359,-760 644,-990 283,-231 641,-346 1072,-346 317,0 596,64 838,192 241,129 439,314 594,556 155,240 276,534 365,881 90,347 134,815 134,1402 0,696 -72,1260 -214,1688 -143,430 -357,760 -641,992 -283,232 -643,348 -1076,348 -571,0 -1020,-203 -1346,-611 -391,-497 -586,-1302 -586,-2417zm746 3c0,976 114,1626 342,1946 228,322 509,482 844,482 334,0 616,-161 844,-483 228,-324 341,-971 341,-1945 0,-977 -113,-1626 -341,-1947 -227,-321 -511,-482 -853,-482 -334,0 -602,143 -802,426 -250,360 -375,1029 -375,2003zm8470 -3c0,-700 72,-1267 215,-1695 145,-430 359,-760 644,-990 283,-231 641,-346 1072,-346 318,0 597,64 838,192 241,129 440,314 594,556 155,240 277,534 365,881 90,347 134,815 134,1402 0,696 -72,1260 -214,1688 -142,430 -356,760 -641,992 -283,232 -642,348 -1076,348 -571,0 -1020,-203 -1346,-611 -390,-497 -585,-1302 -585,-2417zm746 3c0,976 113,1626 341,1946 228,322 510,482 844,482 334,0 616,-161 844,-483 228,-324 341,-971 341,-1945 0,-977 -113,-1626 -341,-1947 -227,-321 -511,-482 -852,-482 -335,0 -603,143 -803,426 -250,360 -374,1029 -374,2003zm11204 2926l-729 0 0 -4645c-176,169 -406,336 -691,503 -284,167 -541,293 -768,376l0 -705c408,-190 764,-422 1069,-696 305,-272 522,-536 650,-793l469 0 0 5960zm-119798 9259l-729 0 0 -4644c-176,168 -407,335 -691,503 -285,167 -542,292 -768,375l0 -704c407,-191 764,-423 1069,-696 305,-273 522,-536 649,-793l470 0 0 5959zm9215 0l-729 0 0 -4644c-176,168 -406,335 -691,503 -284,167 -541,292 -768,375l0 -704c408,-191 764,-423 1069,-696 305,-273 522,-536 650,-793l469 0 0 5959zm6480 -2929c0,-700 72,-1266 216,-1695 145,-429 359,-759 643,-990 284,-231 641,-345 1072,-345 318,0 597,63 839,192 240,128 439,313 594,555 155,240 276,535 365,881 89,347 134,815 134,1402 0,697 -72,1260 -215,1688 -142,430 -356,760 -640,992 -284,232 -643,348 -1077,348 -570,0 -1019,-203 -1345,-610 -391,-497 -586,-1303 -586,-2418zm746 3c0,977 113,1626 341,1947 228,321 510,482 844,482 335,0 617,-162 844,-484 228,-323 342,-971 342,-1945 0,-976 -114,-1626 -342,-1946 -226,-322 -511,-482 -852,-482 -334,0 -602,142 -802,425 -250,361 -375,1029 -375,2003zm11205 2926l-730 0 0 -4644c-175,168 -406,335 -690,503 -285,167 -542,292 -768,375l0 -704c407,-191 763,-423 1069,-696 305,-273 522,-536 649,-793l470 0 0 5959zm6480 -2929c0,-700 72,-1266 215,-1695 145,-429 359,-759 644,-990 283,-231 641,-345 1072,-345 318,0 597,63 838,192 241,128 440,313 594,555 155,240 277,535 365,881 90,347 134,815 134,1402 0,697 -72,1260 -214,1688 -142,430 -356,760 -641,992 -283,232 -642,348 -1076,348 -571,0 -1020,-203 -1345,-610 -391,-497 -586,-1303 -586,-2418zm746 3c0,977 113,1626 341,1947 228,321 510,482 844,482 334,0 616,-162 844,-484 228,-323 341,-971 341,-1945 0,-976 -113,-1626 -341,-1946 -227,-322 -511,-482 -852,-482 -335,0 -603,142 -803,425 -250,361 -374,1029 -374,2003zm11204 2926l-729 0 0 -4644c-176,168 -406,335 -691,503 -284,167 -541,292 -768,375l0 -704c408,-191 764,-423 1069,-696 305,-273 522,-536 650,-793l469 0 0 5959z"/>
    <path class="fil8" d="M104764 89402c0,-701 72,-1267 216,-1695 145,-430 359,-760 644,-991 283,-230 641,-345 1072,-345 317,0 596,64 838,192 241,129 439,314 594,555 155,241 276,535 365,882 90,346 134,815 134,1402 0,696 -72,1260 -214,1688 -143,430 -357,760 -641,992 -283,232 -643,348 -1076,348 -571,0 -1020,-203 -1346,-611 -391,-497 -586,-1302 -586,-2417zm746 3c0,976 114,1625 342,1946 228,322 509,482 844,482 334,0 616,-162 844,-483 228,-324 341,-972 341,-1945 0,-977 -113,-1626 -341,-1947 -227,-322 -511,-482 -853,-482 -334,0 -602,142 -802,426 -250,360 -375,1029 -375,2003zm8470 -3c0,-701 72,-1267 215,-1695 145,-430 359,-760 644,-991 283,-230 641,-345 1072,-345 318,0 597,64 838,192 241,129 440,314 594,555 155,241 277,535 365,882 90,346 134,815 134,1402 0,696 -72,1260 -214,1688 -142,430 -356,760 -641,992 -283,232 -642,348 -1076,348 -571,0 -1020,-203 -1346,-611 -390,-497 -585,-1302 -585,-2417zm746 3c0,976 113,1625 341,1946 228,322 510,482 844,482 334,0 616,-162 844,-483 228,-324 341,-972 341,-1945 0,-977 -113,-1626 -341,-1947 -227,-322 -511,-482 -852,-482 -335,0 -603,142 -803,426 -250,360 -374,1029 -374,2003zm11204 2925l-729 0 0 -4644c-176,169 -406,336 -691,503 -284,167 -541,293 -768,376l0 -705c408,-190 764,-423 1069,-696 305,-272 522,-536 650,-793l469 0 0 5959zm-119798 9260l-729 0 0 -4644c-176,168 -407,335 -691,502 -285,168 -542,293 -768,376l0 -704c407,-191 764,-423 1069,-697 305,-272 522,-536 649,-792l470 0 0 5959zm9215 0l-729 0 0 -4644c-176,168 -406,335 -691,502 -284,168 -541,293 -768,376l0 -704c408,-191 764,-423 1069,-697 305,-272 522,-536 650,-792l469 0 0 5959zm6480 -2929c0,-700 72,-1266 216,-1695 145,-429 359,-759 643,-990 284,-231 641,-345 1072,-345 318,0 597,63 839,192 240,128 439,313 594,555 155,240 276,534 365,881 89,347 134,815 134,1402 0,696 -72,1260 -215,1688 -142,430 -356,760 -640,992 -284,232 -643,348 -1077,348 -570,0 -1019,-203 -1345,-610 -391,-498 -586,-1303 -586,-2418zm746 3c0,977 113,1626 341,1946 228,322 510,482 844,482 335,0 617,-161 844,-483 228,-323 342,-971 342,-1945 0,-977 -114,-1626 -342,-1946 -226,-322 -511,-482 -852,-482 -334,0 -602,142 -802,425 -250,361 -375,1029 -375,2003zm11205 2926l-730 0 0 -4644c-175,168 -406,335 -690,502 -285,168 -542,293 -768,376l0 -704c407,-191 763,-423 1069,-697 305,-272 522,-536 649,-792l470 0 0 5959zm6480 -2929c0,-700 72,-1266 215,-1695 145,-429 359,-759 644,-990 283,-231 641,-345 1072,-345 318,0 597,63 838,192 241,128 440,313 594,555 155,240 277,534 365,881 90,347 134,815 134,1402 0,696 -72,1260 -214,1688 -142,430 -356,760 -641,992 -283,232 -642,348 -1076,348 -571,0 -1020,-203 -1345,-610 -391,-498 -586,-1303 -586,-2418zm746 3c0,977 113,1626 341,1946 228,322 510,482 844,482 334,0 616,-161 844,-483 228,-323 341,-971 341,-1945 0,-977 -113,-1626 -341,-1946 -227,-322 -511,-482 -852,-482 -335,0 -603,142 -803,425 -250,361 -374,1029 -374,2003zm11204 2926l-729 0 0 -4644c-176,168 -406,335 -691,502 -284,168 -541,293 -768,376l0 -704c408,-191 764,-423 1069,-697 305,-272 522,-536 650,-792l469 0 0 5959zm6480 -2929c0,-700 72,-1266 216,-1695 145,-429 359,-759 643,-990 284,-231 641,-345 1072,-345 318,0 597,63 839,192 240,128 439,313 594,555 155,240 276,534 365,881 89,347 134,815 134,1402 0,696 -72,1260 -215,1688 -142,430 -356,760 -640,992 -284,232 -643,348 -1077,348 -570,0 -1019,-203 -1345,-610 -391,-498 -586,-1303 -586,-2418zm746 3c0,977 113,1626 341,1946 228,322 510,482 844,482 335,0 617,-161 844,-483 228,-323 342,-971 342,-1945 0,-977 -114,-1626 -342,-1946 -226,-322 -511,-482 -852,-482 -334,0 -602,142 -802,425 -250,361 -375,1029 -375,2003zm11205 2926l-730 0 0 -4644c-175,168 -406,335 -690,502 -285,168 -542,293 -768,376l0 -704c407,-191 763,-423 1069,-697 305,-272 522,-536 649,-792l470 0 0 5959zm9215 0l-729 0 0 -4644c-176,168 -407,335 -691,502 -285,168 -542,293 -768,376l0 -704c407,-191 764,-423 1069,-697 305,-272 522,-536 649,-792l470 0 0 5959zm6480 -2929c0,-700 72,-1266 215,-1695 146,-429 360,-759 644,-990 283,-231 641,-345 1072,-345 318,0 597,63 839,192 240,128 439,313 594,555 154,240 276,534 364,881 90,347 134,815 134,1402 0,696 -71,1260 -214,1688 -142,430 -356,760 -641,992 -283,232 -642,348 -1076,348 -570,0 -1019,-203 -1345,-610 -391,-498 -586,-1303 -586,-2418zm746 3c0,977 113,1626 341,1946 228,322 510,482 844,482 335,0 616,-161 844,-483 228,-323 341,-971 341,-1945 0,-977 -113,-1626 -341,-1946 -226,-322 -511,-482 -852,-482 -334,0 -602,142 -803,425 -250,361 -374,1029 -374,2003zm11204 2926l-729 0 0 -4644c-175,168 -406,335 -691,502 -284,168 -541,293 -768,376l0 -704c408,-191 764,-423 1069,-697 306,-272 523,-536 650,-792l469 0 0 5959zm6480 -2929c0,-700 72,-1266 216,-1695 145,-429 359,-759 644,-990 283,-231 641,-345 1072,-345 317,0 596,63 838,192 241,128 439,313 594,555 155,240 276,534 365,881 90,347 134,815 134,1402 0,696 -72,1260 -214,1688 -143,430 -357,760 -641,992 -283,232 -643,348 -1076,348 -571,0 -1020,-203 -1346,-610 -391,-498 -586,-1303 -586,-2418zm746 3c0,977 114,1626 342,1946 228,322 509,482 844,482 334,0 616,-161 844,-483 228,-323 341,-971 341,-1945 0,-977 -113,-1626 -341,-1946 -227,-322 -511,-482 -853,-482 -334,0 -602,142 -802,425 -250,361 -375,1029 -375,2003zm11205 2926l-729 0 0 -4644c-176,168 -407,335 -691,502 -285,168 -542,293 -768,376l0 -704c407,-191 764,-423 1069,-697 305,-272 522,-536 649,-792l470 0 0 5959zm6480 -2929c0,-700 72,-1266 215,-1695 146,-429 360,-759 644,-990 283,-231 641,-345 1072,-345 318,0 597,63 839,192 240,128 439,313 594,555 154,240 276,534 364,881 90,347 134,815 134,1402 0,696 -71,1260 -214,1688 -142,430 -356,760 -641,992 -283,232 -642,348 -1076,348 -570,0 -1019,-203 -1345,-610 -391,-498 -586,-1303 -586,-2418zm746 3c0,977 113,1626 341,1946 228,322 510,482 844,482 335,0 616,-161 844,-483 228,-323 341,-971 341,-1945 0,-977 -113,-1626 -341,-1946 -226,-322 -511,-482 -852,-482 -334,0 -602,142 -803,425 -250,361 -374,1029 -374,2003z"/>
   </g>
   <path class="fil9" d="M32868 31038l0 -3262c1949,0 3673,-239 5185,-729 1499,-491 3156,-1326 4947,-2533l3076 0 0 6511c3236,-2572 5928,-4296 8090,-5185 2148,-889 4296,-1326 6445,-1326 4442,0 8209,1724 11338,5185 3117,3461 4682,7970 4682,13513 0,6154 -1777,11180 -5332,15105 -3235,3621 -7399,5424 -12505,5424 -2546,0 -4933,-491 -7161,-1459 -1605,-676 -3461,-1896 -5557,-3646l0 12903c0,1923 53,3050 159,3381 120,504 385,916 770,1247 397,345 888,557 1485,663 437,80 1910,119 4429,119l0 3263 -20051 0 0 -3263 1764 0c1790,0 2957,-132 3487,-411 544,-265 942,-689 1194,-1259 159,-451 239,-1804 239,-4058l0 -40183 -6684 0zm13208 3952l0 13275c0,1751 106,3050 305,3899 319,1300 915,2493 1817,3541 889,1061 2109,1949 3647,2705 1538,743 3156,1114 4840,1114 3369,0 6286,-1260 8753,-3780 2480,-2519 3713,-6338 3713,-11457 0,-4775 -1021,-8474 -3063,-11087 -2056,-2612 -4469,-3912 -7268,-3912 -1816,0 -3779,477 -5901,1432 -2135,942 -4403,2374 -6843,4270zm46603 18805c1366,0 2533,477 3488,1419 942,942 1419,2082 1419,3435 0,1339 -477,2493 -1445,3434 -955,942 -2122,1419 -3462,1419 -1326,0 -2479,-477 -3434,-1419 -968,-941 -1446,-2095 -1446,-3434 0,-1353 478,-2493 1419,-3435 955,-942 2109,-1419 3461,-1419z"/>
  </g>
 </g>
</svg>
